M48
;Layer_Color=9474304
;FILE_FORMAT=2:5
INCH,LZ
;TYPE=PLATED
T1F00S00C0.01378
T4F00S00C0.02362
T5F00S00C0.03150
T6F00S00C0.03425
T7F00S00C0.03543
T8F00S00C0.03937
T10F00S00C0.04331
T12F00S00C0.05118
T13F00S00C0.06693
;TYPE=NON_PLATED
T14F00S00C0.08268
%
T01
X005112Y00323
X006877Y0015485
X010527Y002912
X014186Y003362
X027222Y00366
X028441Y003884
X029139Y003331
X029155Y002598
X043907Y001627
X047253Y001435
X04622Y004032
X046178Y006543
X044917Y005514
X042971Y004861
X0416978Y004966
X040575Y004581
X0405765Y0082926
X0421Y007631
X04328Y007963
X0441696Y0078962
X0415021Y0098291
X034758Y009514
X03364Y012053
X033793Y014998
X034428Y015557
X031425Y013973
X030896Y013706
X029659Y012869
X028399Y013658
X027732Y014021
X027112Y014286
X027836Y014914
X028006Y015511
X0280422Y0158453
X028598Y016195
X030284Y016441
X030304Y019493
X029279Y018631
X028146Y018703
X027341Y015432
X025829Y015798
X024993Y01636
X0248694Y0177596
X023559Y016885
X026329Y011702
X026318Y0112
X0268316Y0110769
X026492Y006239
X025362Y00645
X0247784Y0063276
X023204Y007635
X0286428Y0063532
X029827Y007175
X030576Y005775
X032882Y005379
X0329Y004931
X03292Y004431
X032866Y007251
X021539Y014174
X019036Y013043
X012565Y018731
X007156Y018401
X007892Y016
X008652
Y015682
X009364Y0156851
X007085Y015268
X00624Y012452
X005067Y012438
X005658Y013983
X005247Y018532
X002712Y022667
X001789Y026508
X002763Y028609
X023435Y02718
X023382Y022058
X026373Y02116
X0261784Y0202003
X027807Y021018
X028534Y021514
X028105Y02381
X026632Y024013
X030365Y023505
X031279Y023353
X031945Y020376
T04
X0438332Y0136553
X0452506Y013734
X0452023Y0123236
X0167622Y0248378
X0088882
X0108567Y0327118
X0147937
T05
X01382Y0086965
Y010665
T06
X034231Y0032585
Y003849
X041189Y003839
Y0032484
Y0044295
Y0050201
Y0056107
Y0062012
X034231Y0062112
Y0056207
Y0050301
Y0044396
T07
X0129932Y0011768
X0141743
T08
X019381Y0086547
Y0106233
X0047543Y0251922
X0027858
X0027721Y0302332
X0047406
T10
X0077995Y0366704
X0196106
T12
X0210641Y0298697
Y0328697
X0270641
X0297886Y032821
Y029821
X0280641Y0298697
X0250641
X0337886Y029821
X0367886
X0357886Y032821
T13
X0041346Y0346704
X0235716Y0349599
X0255715
X0322961Y0349899
X0342961
X0041346Y0366704
T14
X019921Y0007392
X0007812Y016689
M30
