M48
;Layer_Color=9474304
;FILE_FORMAT=2:5
INCH,LZ
;TYPE=PLATED
T2F00S00C0.01968
T3F00S00C0.02165
T9F00S00C0.03937
T11F00S00C0.04724
;TYPE=NON_PLATED
%
G90
G05
T02
G00X0271231Y0005481
M15
G01Y000804
M16
G00X029879Y000804
M15
G01Y0005481
M16
T03
G00X0274577Y001739
M15
G01X0275758
M16
G00X0294262Y001739
M15
G01X0295443
M16
T09
G00X0203147Y0025108
M15
G01X0195273
M16
G00X0025528Y0162953
M15
G01Y0170827
M16
T11
G00X0218108Y004125
M15
G01Y0034163
M16
G00X0194289Y0049911
M15
G01X019547
M16
G00X004167Y0147992
M15
G01X0034583
M16
G00X0050331Y0171811
M15
G01Y017063
M16
M17
M30
