G04*
G04 #@! TF.GenerationSoftware,Altium Limited,Altium Designer,21.6.1 (37)*
G04*
G04 Layer_Physical_Order=1*
G04 Layer_Color=255*
%FSLAX25Y25*%
%MOIN*%
G70*
G04*
G04 #@! TF.SameCoordinates,ED18229B-BDCB-4A3C-9D88-49826DFA0344*
G04*
G04*
G04 #@! TF.FilePolarity,Positive*
G04*
G01*
G75*
%ADD19C,0.01000*%
%ADD22C,0.02362*%
%ADD23C,0.00984*%
%ADD24C,0.00394*%
%ADD108R,0.02756X0.05118*%
%ADD109R,0.04724X0.01181*%
%ADD110R,0.01181X0.04724*%
%ADD111R,0.03150X0.03543*%
%ADD112R,0.03800X0.03100*%
%ADD113R,0.08268X0.01968*%
%ADD114R,0.05118X0.02756*%
%ADD115R,0.02362X0.05354*%
%ADD116R,0.02362X0.04134*%
%ADD117R,0.15354X0.24410*%
%ADD118R,0.12992X0.17323*%
%ADD119R,0.03100X0.03800*%
%ADD120R,0.07874X0.11811*%
%ADD121R,0.08346X0.08858*%
%ADD122R,0.04134X0.02362*%
%ADD123R,0.06299X0.06299*%
%ADD124R,0.03543X0.05906*%
%ADD125R,0.05906X0.03543*%
%ADD126R,0.03543X0.03543*%
%ADD127R,0.03543X0.03150*%
%ADD128R,0.03937X0.03150*%
%ADD129R,0.02756X0.05906*%
%ADD130R,0.03937X0.01968*%
%ADD131R,0.04724X0.13780*%
%ADD132R,0.13386X0.05118*%
%ADD133R,0.04724X0.05984*%
%ADD134R,0.07520X0.04095*%
%ADD135R,0.24410X0.15354*%
%ADD136R,0.17323X0.12992*%
%ADD137R,0.05906X0.06102*%
%ADD138R,0.01575X0.05315*%
%ADD139R,0.06299X0.04724*%
%ADD140R,0.06299X0.12992*%
%ADD141C,0.02500*%
%ADD142C,0.01500*%
%ADD143C,0.02000*%
%ADD144C,0.00800*%
%ADD145C,0.03000*%
%ADD146C,0.04000*%
%ADD147C,0.01470*%
%ADD148C,0.04500*%
%ADD149C,0.01300*%
%ADD150C,0.01100*%
%ADD151C,0.06000*%
%ADD152C,0.03937*%
%ADD153O,0.05906X0.04331*%
%ADD154C,0.08268*%
%ADD155O,0.15748X0.07874*%
%ADD156O,0.07874X0.15748*%
%ADD157O,0.14173X0.07087*%
%ADD158C,0.07874*%
%ADD159C,0.07677*%
%ADD160C,0.10039*%
%ADD161O,0.07087X0.14173*%
%ADD162O,0.03051X0.06102*%
%ADD163O,0.05118X0.02559*%
%ADD164C,0.02362*%
G36*
X55990Y317600D02*
X56343Y305707D01*
X55884Y305509D01*
X50554Y310838D01*
X50524Y310858D01*
X50503Y310886D01*
X50377Y310957D01*
X50256Y311037D01*
X50222Y311044D01*
X50190Y311061D01*
X50047Y311079D01*
X49905Y311107D01*
X49870Y311100D01*
X49835Y311104D01*
X44717Y310710D01*
X44578Y310671D01*
X44436Y310643D01*
X44406Y310624D01*
X44372Y310614D01*
X44258Y310525D01*
X44138Y310444D01*
X36992Y303298D01*
X36977Y303275D01*
X36954Y303258D01*
X36878Y303127D01*
X36794Y303001D01*
X36788Y302973D01*
X36774Y302948D01*
X36753Y302798D01*
X36724Y302650D01*
X36729Y302622D01*
X36725Y302594D01*
X42296Y211314D01*
X42337Y211159D01*
X42372Y211002D01*
X45128Y204703D01*
X45211Y204584D01*
X45284Y204459D01*
X45312Y204438D01*
X45332Y204410D01*
X45455Y204331D01*
X45571Y204244D01*
X45605Y204235D01*
X45634Y204217D01*
X45777Y204191D01*
X45917Y204155D01*
X73914Y202600D01*
X91210Y185303D01*
X92327Y181208D01*
X92353Y181155D01*
X92365Y181098D01*
X92432Y180996D01*
X92487Y180887D01*
X92531Y180849D01*
X92563Y180800D01*
X92665Y180732D01*
X92757Y180652D01*
X92813Y180634D01*
X92861Y180601D01*
X92981Y180578D01*
X93097Y180539D01*
X93155Y180543D01*
X93212Y180531D01*
X101874D01*
X102225Y180601D01*
X102523Y180800D01*
X103310Y181588D01*
X103509Y181885D01*
X103579Y182237D01*
Y190898D01*
X103509Y191249D01*
X103310Y191547D01*
X84019Y210838D01*
X83993Y210855D01*
X83974Y210880D01*
X83845Y210954D01*
X83721Y211037D01*
X83691Y211043D01*
X83664Y211058D01*
X55766Y220486D01*
X57142Y261881D01*
X57642Y261880D01*
X58580Y230240D01*
X62940Y225880D01*
X100331D01*
X109683Y202370D01*
X109715Y202320D01*
X109733Y202263D01*
X109811Y202171D01*
X109877Y202069D01*
X109926Y202035D01*
X109965Y201990D01*
X110072Y201935D01*
X110172Y201866D01*
X110230Y201854D01*
X110283Y201827D01*
X118188Y199568D01*
X118216Y199566D01*
X118243Y199554D01*
X118394Y199551D01*
X118545Y199539D01*
X118572Y199548D01*
X118601Y199547D01*
X118742Y199602D01*
X118886Y199648D01*
X118907Y199667D01*
X118934Y199677D01*
X119355Y199946D01*
X119376Y199966D01*
X119402Y199978D01*
X119505Y200090D01*
X119614Y200195D01*
X119625Y200221D01*
X119645Y200242D01*
X119697Y200384D01*
X119757Y200522D01*
X119758Y200551D01*
X119768Y200578D01*
X121678Y212804D01*
X121672Y212941D01*
X121679Y213079D01*
X121665Y213119D01*
X121663Y213161D01*
X121605Y213286D01*
X121559Y213416D01*
X114362Y225445D01*
X114609Y225880D01*
X141598D01*
X141789Y225418D01*
X128784Y212413D01*
X128585Y212115D01*
X128515Y211764D01*
Y203890D01*
X128585Y203539D01*
X128784Y203241D01*
X130359Y201666D01*
X130398Y201640D01*
X130428Y201604D01*
X130545Y201541D01*
X130657Y201467D01*
X130702Y201458D01*
X130744Y201436D01*
X138270Y199179D01*
X138282Y199177D01*
X138294Y199172D01*
X138460Y199160D01*
X138626Y199144D01*
X138638Y199148D01*
X138651Y199147D01*
X138809Y199201D01*
X138969Y199249D01*
X138978Y199257D01*
X138990Y199261D01*
X139424Y199510D01*
X139433Y199518D01*
X139445Y199523D01*
X139568Y199636D01*
X139694Y199746D01*
X139699Y199757D01*
X139708Y199765D01*
X139779Y199917D01*
X139853Y200066D01*
X139854Y200079D01*
X139859Y200090D01*
X142862Y212478D01*
X156264Y225880D01*
X168668D01*
X168675Y225851D01*
X168688Y225380D01*
X168687Y225380D01*
X168667Y225375D01*
X168652Y225371D01*
X168624Y225358D01*
X168573Y225351D01*
X168523Y225323D01*
X168468Y225309D01*
X168392Y225252D01*
X168371Y225245D01*
X168342Y225228D01*
X168312Y225202D01*
X168262Y225174D01*
X168224Y225141D01*
X168224Y225141D01*
X168195Y225124D01*
X167990Y224946D01*
X167955Y224900D01*
X167933Y224881D01*
X167913Y224855D01*
X167867Y224815D01*
X167831Y224769D01*
X167811Y224728D01*
X167743Y224652D01*
X167733Y224623D01*
X167713Y224598D01*
X167686Y224499D01*
X167664Y224460D01*
X167645Y224405D01*
X167636Y224344D01*
X167626Y224314D01*
X167622Y224285D01*
X167603Y224230D01*
X167551Y223858D01*
X167555Y223794D01*
X167542Y223732D01*
Y222679D01*
X167153Y222414D01*
X167042Y222414D01*
X165525D01*
Y218855D01*
Y215296D01*
X167042D01*
X167153Y215296D01*
X167542Y215030D01*
Y214018D01*
X167153Y213752D01*
X167042Y213752D01*
X165525D01*
Y210193D01*
Y206634D01*
X167042D01*
X167153Y206634D01*
X167542Y206368D01*
Y199600D01*
X167560Y199512D01*
X167560Y199421D01*
X167595Y199338D01*
X167612Y199249D01*
X167615Y199245D01*
X167615Y199245D01*
X167675Y199100D01*
X167676Y199095D01*
X167726Y199020D01*
X167761Y198936D01*
X167825Y198872D01*
X167875Y198797D01*
X167939Y198733D01*
X167939Y198733D01*
X172287Y194385D01*
X172362Y194335D01*
X172426Y194271D01*
X172510Y194236D01*
X172585Y194186D01*
X172590Y194185D01*
X172735Y194125D01*
X172739Y194122D01*
X172828Y194105D01*
X172911Y194070D01*
X173002Y194070D01*
X173090Y194052D01*
X176963D01*
Y191652D01*
X181113D01*
X185263D01*
Y194052D01*
X191900D01*
X191989Y194070D01*
X192079Y194070D01*
X192162Y194105D01*
X192251Y194122D01*
X192255Y194125D01*
X192255Y194125D01*
X192400Y194185D01*
X192405Y194186D01*
X192480Y194236D01*
X192563Y194271D01*
X192627Y194335D01*
X192703Y194385D01*
X195431Y197114D01*
X198160Y199842D01*
X250928D01*
X251650Y199001D01*
X255433Y194589D01*
X255224Y194135D01*
X248730D01*
X248222Y194034D01*
X247793Y193747D01*
X245310Y191264D01*
X244810Y191472D01*
Y196350D01*
X240254D01*
Y195633D01*
X239754Y195481D01*
X239604Y195705D01*
X237823Y197487D01*
X237393Y197774D01*
X236885Y197875D01*
X233218D01*
X232711Y197774D01*
X232281Y197487D01*
X230375Y195581D01*
X230088Y195151D01*
X229987Y194644D01*
Y193472D01*
X228858Y192342D01*
X217672D01*
Y198807D01*
X211148D01*
Y183227D01*
X217672D01*
Y189691D01*
X229407D01*
X229914Y189792D01*
X230344Y190079D01*
X232174Y191909D01*
X232474Y191845D01*
X232674Y191720D01*
Y189332D01*
X234302D01*
Y192891D01*
X235802D01*
Y189332D01*
X237341D01*
Y187961D01*
X236417D01*
Y185410D01*
Y182861D01*
X237668D01*
X237730Y182768D01*
X239223Y181274D01*
X239167Y180774D01*
X239167D01*
Y175874D01*
X241957D01*
X242216Y175374D01*
X242048Y175123D01*
X241939Y174577D01*
X241452Y174475D01*
X239167D01*
Y171950D01*
X239067Y171883D01*
X238567Y172150D01*
Y174575D01*
X236417D01*
Y172025D01*
X235667D01*
Y171275D01*
X232767D01*
Y169475D01*
X232838D01*
X233194Y168975D01*
X233166Y168891D01*
X232674D01*
Y166082D01*
X235052D01*
Y164582D01*
X232674D01*
Y163005D01*
X227010D01*
X219462Y170553D01*
X218916Y170917D01*
X218272Y171046D01*
X217672D01*
Y177153D01*
X211148D01*
Y161574D01*
X217672D01*
Y166931D01*
X218134Y167122D01*
X225123Y160133D01*
X225669Y159768D01*
X226313Y159640D01*
X226313Y159640D01*
X237030D01*
X237674Y159768D01*
X238220Y160133D01*
X239808Y161721D01*
X239808Y161721D01*
X240254Y161873D01*
X240254Y161873D01*
X240254Y161873D01*
X244810D01*
Y166556D01*
X246088Y167834D01*
X246088Y167834D01*
X246902Y168648D01*
X247245Y169160D01*
X247365Y169765D01*
Y170140D01*
X249832Y172607D01*
X250293Y172415D01*
Y169994D01*
X248921Y168621D01*
X248611Y168158D01*
X248503Y167612D01*
X248503Y167612D01*
Y165116D01*
X248166Y164779D01*
X247849Y164014D01*
Y163186D01*
X248166Y162421D01*
X248751Y161836D01*
X249516Y161519D01*
X250344D01*
X251109Y161836D01*
X251694Y162421D01*
X252011Y163186D01*
Y164014D01*
X251694Y164779D01*
X251357Y165116D01*
Y167020D01*
X252312Y167975D01*
X252941D01*
X253208Y167475D01*
X253111Y167331D01*
X253003Y166784D01*
X253003Y166784D01*
Y140530D01*
X253003Y140530D01*
X253111Y139984D01*
X253421Y139521D01*
X275132Y117809D01*
X275132Y117809D01*
X275595Y117500D01*
X276141Y117391D01*
X281971D01*
Y116019D01*
X286871D01*
Y121619D01*
X281971D01*
Y120246D01*
X276732D01*
X270190Y126789D01*
X270397Y127289D01*
X283833D01*
X289188Y121934D01*
X289058Y121619D01*
X289058D01*
Y116019D01*
X293958D01*
Y120739D01*
X294420Y120931D01*
X295751Y119600D01*
Y116018D01*
X299128D01*
X299234Y115818D01*
X298933Y115318D01*
X295751D01*
Y109718D01*
X299568D01*
Y107845D01*
X292582Y100858D01*
X292217Y100312D01*
X292089Y99669D01*
Y99069D01*
X288738D01*
Y97101D01*
X288276Y96910D01*
X286512Y98673D01*
Y103293D01*
X288537Y105318D01*
X289148Y105439D01*
X289694Y105804D01*
X292697Y108808D01*
X292697Y108808D01*
X293062Y109354D01*
X293135Y109719D01*
X293958D01*
Y115319D01*
X289058D01*
Y109927D01*
X287801Y108669D01*
X287190Y108548D01*
X286644Y108183D01*
X283640Y105180D01*
X283276Y104634D01*
X283148Y103990D01*
Y98000D01*
X283090Y97944D01*
X282689Y97717D01*
X282492Y97862D01*
Y108211D01*
X284000Y109719D01*
X286871D01*
Y115319D01*
X281971D01*
Y112448D01*
X279620Y110097D01*
X279256Y109552D01*
X279128Y108908D01*
Y106629D01*
X277691D01*
Y103070D01*
X276191D01*
Y106629D01*
X274563D01*
X274368Y107048D01*
Y112138D01*
X274361Y112173D01*
X274365Y112209D01*
X274326Y112347D01*
X274298Y112489D01*
X274278Y112519D01*
X274268Y112553D01*
X274179Y112667D01*
X274099Y112787D01*
X274069Y112806D01*
X274047Y112835D01*
X263084Y122223D01*
X263083Y122224D01*
X263082Y122225D01*
X262926Y122312D01*
X262772Y122398D01*
X262770Y122398D01*
X262769Y122399D01*
X262592Y122420D01*
X262417Y122441D01*
X262415Y122440D01*
X262413Y122441D01*
X262241Y122392D01*
X262072Y122344D01*
X262070Y122343D01*
X262069Y122343D01*
X253123Y117758D01*
X253011Y117670D01*
X252893Y117591D01*
X252361Y117059D01*
X252162Y116761D01*
X252092Y116410D01*
Y106820D01*
X252123Y106668D01*
X252145Y106515D01*
X253314Y103195D01*
X253327Y103173D01*
X253332Y103149D01*
X253418Y103020D01*
X253497Y102887D01*
X253517Y102872D01*
X253531Y102851D01*
X253660Y102765D01*
X253784Y102672D01*
X253808Y102666D01*
X253829Y102652D01*
X253981Y102622D01*
X254131Y102584D01*
X254155Y102587D01*
X254180Y102582D01*
X255863D01*
Y99355D01*
X265012D01*
Y98124D01*
X255863D01*
Y97922D01*
X253764D01*
X253120Y97794D01*
X252574Y97429D01*
X248180Y93035D01*
X247724Y93224D01*
Y93224D01*
X243340D01*
Y91240D01*
Y89255D01*
X243747D01*
X243938Y88793D01*
X241100Y85955D01*
X240736Y85410D01*
X240608Y84766D01*
Y49636D01*
X240146Y49444D01*
X229700Y59890D01*
X224830D01*
Y93038D01*
X237456D01*
Y91990D01*
X241840D01*
Y93224D01*
X240146D01*
X240042Y93692D01*
X240373Y94047D01*
X245208D01*
X246047Y94214D01*
X246258Y94355D01*
X247624D01*
Y95555D01*
X248311Y96242D01*
X248339Y96248D01*
X249050Y96723D01*
X250224Y97898D01*
X250699Y98609D01*
X250866Y99448D01*
Y109364D01*
X250699Y110203D01*
X250224Y110915D01*
X249062Y112076D01*
X249199Y112407D01*
X249199D01*
Y116569D01*
X246790D01*
X246232Y116680D01*
X245674Y116569D01*
X243265D01*
Y112407D01*
X244040D01*
Y111806D01*
X244207Y110968D01*
X244682Y110257D01*
X246315Y108624D01*
X246108Y108124D01*
X237556D01*
Y108099D01*
X234534D01*
Y108301D01*
X228797D01*
Y104533D01*
X234534D01*
Y104734D01*
X237556D01*
Y104355D01*
X246482D01*
Y103124D01*
X242645D01*
X242325Y103188D01*
X239872D01*
X239784Y103276D01*
X239238Y103640D01*
X238594Y103768D01*
X234534D01*
Y103970D01*
X228797D01*
Y100202D01*
X234534D01*
Y100404D01*
X237556D01*
Y99355D01*
X244571D01*
X244762Y98893D01*
X244300Y98432D01*
X239441D01*
X238602Y98265D01*
X238391Y98124D01*
X237556D01*
Y97456D01*
X237523Y97422D01*
X224830D01*
Y109150D01*
X217390Y116590D01*
X213000D01*
X163189Y117818D01*
X163003Y118282D01*
X169387Y124666D01*
X173697D01*
Y130010D01*
X168748D01*
Y129162D01*
X168578Y129128D01*
X167949Y128708D01*
X157207Y117965D01*
X147571Y118203D01*
Y121494D01*
X149231D01*
Y135105D01*
X148940D01*
X148749Y135567D01*
X155657Y142475D01*
X155657Y142475D01*
X156161Y143133D01*
X156479Y143899D01*
X156587Y144721D01*
Y157525D01*
X156947Y157873D01*
X169386Y157426D01*
X170382Y156430D01*
Y140950D01*
X170412Y140803D01*
X170431Y140655D01*
X171313Y138059D01*
X171195Y137822D01*
X171063Y137643D01*
X170987Y137590D01*
X170848Y137590D01*
X169413D01*
Y134818D01*
Y132047D01*
X170848D01*
X171238Y132047D01*
X171697Y132147D01*
X173517D01*
X179130Y126533D01*
X179759Y126113D01*
X180500Y125966D01*
X180977D01*
Y125103D01*
X185877D01*
Y130703D01*
X180977D01*
Y130703D01*
X180597Y130546D01*
X176257Y134886D01*
Y137490D01*
X174773D01*
X174711Y137986D01*
X177824Y138770D01*
X177885Y138799D01*
X177951Y138812D01*
X178045Y138875D01*
X178148Y138924D01*
X178193Y138974D01*
X178249Y139011D01*
X180099Y140861D01*
X180122Y140895D01*
X180154Y140921D01*
X180220Y141043D01*
X180298Y141159D01*
X180306Y141199D01*
X180325Y141235D01*
X180341Y141374D01*
X180368Y141510D01*
X180360Y141550D01*
X180364Y141591D01*
X180318Y142111D01*
X180656Y142480D01*
X182677D01*
Y144858D01*
X183427D01*
Y145608D01*
X186986D01*
Y147236D01*
X186058D01*
X186012Y147734D01*
X186378Y147801D01*
X189979Y148157D01*
X190031Y148173D01*
X190085Y148174D01*
X190201Y148224D01*
X190322Y148261D01*
X190363Y148296D01*
X190413Y148317D01*
X190501Y148408D01*
X190598Y148488D01*
X190624Y148536D01*
X190661Y148575D01*
X190931Y148996D01*
X190951Y149047D01*
X190983Y149090D01*
X191015Y149212D01*
X191061Y149330D01*
X191060Y149384D01*
X191074Y149436D01*
X191057Y149562D01*
X191055Y149688D01*
X191033Y149737D01*
X191025Y149791D01*
X189148Y155224D01*
Y185770D01*
X189078Y186121D01*
X188879Y186419D01*
X188029Y187269D01*
X187731Y187468D01*
X187380Y187538D01*
X187157Y187493D01*
X185263Y187643D01*
Y190152D01*
X181113D01*
X176963D01*
Y188269D01*
X176924Y188261D01*
X176782Y188245D01*
X176750Y188226D01*
X176714Y188219D01*
X176595Y188140D01*
X176470Y188070D01*
X176447Y188041D01*
X176416Y188020D01*
X176337Y187901D01*
X176248Y187789D01*
X176238Y187753D01*
X176217Y187722D01*
X169012Y170290D01*
X166630Y167908D01*
X161003D01*
Y174603D01*
X145817D01*
Y174321D01*
X142861D01*
X142861Y174321D01*
X142039Y174213D01*
X141272Y173895D01*
X140614Y173390D01*
X140614Y173390D01*
X139288Y172064D01*
X138826Y172255D01*
Y172947D01*
X136214D01*
Y169705D01*
X136275D01*
X136467Y169243D01*
X135683Y168459D01*
X118236D01*
X118236Y168459D01*
X117414Y168351D01*
X116648Y168033D01*
X115990Y167528D01*
X115990Y167528D01*
X111058Y162597D01*
X99940D01*
X99940Y162597D01*
X99118Y162489D01*
X98351Y162171D01*
X97958Y161870D01*
X97140D01*
Y161366D01*
X96940Y161217D01*
X96440Y161468D01*
Y161870D01*
X90840D01*
Y161870D01*
X90455Y161836D01*
X90389Y162215D01*
X90325Y162378D01*
X90263Y162542D01*
X88892Y164733D01*
Y165080D01*
X88675D01*
X87758Y166547D01*
X87687Y166622D01*
X87629Y166709D01*
X87565Y166752D01*
X87512Y166807D01*
X87418Y166850D01*
X87331Y166908D01*
X87256Y166923D01*
X87186Y166954D01*
X87082Y166957D01*
X86980Y166978D01*
X75220D01*
X74869Y166908D01*
X74571Y166709D01*
X71751Y163889D01*
X71552Y163591D01*
X71482Y163240D01*
X71552Y162889D01*
X71751Y162591D01*
X73576Y160767D01*
X73706Y160596D01*
Y160524D01*
X73779D01*
X73949Y160393D01*
X76531Y157811D01*
X76829Y157612D01*
X77180Y157542D01*
X81360D01*
X83886Y155016D01*
X83695Y154554D01*
X79773D01*
X79506Y154607D01*
X71636D01*
X71264Y154761D01*
X70436D01*
X69671Y154444D01*
X69086Y153859D01*
X68769Y153094D01*
Y152266D01*
X69086Y151501D01*
X69671Y150916D01*
X70436Y150599D01*
X71264D01*
X71587Y150733D01*
X79506D01*
X79773Y150786D01*
X84540D01*
Y153709D01*
X85002Y153900D01*
X90522Y148380D01*
Y147070D01*
X90592Y146719D01*
X90791Y146421D01*
X92341Y144871D01*
X92639Y144672D01*
X92657Y144668D01*
X92679Y144655D01*
X92680Y144654D01*
Y143420D01*
X97814D01*
Y142670D01*
X98564D01*
Y140686D01*
X102947D01*
Y142951D01*
X103447Y143051D01*
X103498Y142927D01*
X104003Y142269D01*
X106639Y139633D01*
X106639Y139633D01*
X107298Y139128D01*
X108064Y138811D01*
X108886Y138703D01*
X110521D01*
X113336Y135887D01*
Y129722D01*
X123482D01*
Y140381D01*
X117829D01*
X114083Y144127D01*
X113425Y144632D01*
X112659Y144949D01*
X111837Y145057D01*
X111836Y145057D01*
X110202D01*
X109427Y145832D01*
Y149745D01*
X109427Y149745D01*
X109319Y150567D01*
X109002Y151333D01*
X108497Y151991D01*
X108497Y151991D01*
X104971Y155517D01*
X104677Y155743D01*
X104846Y156243D01*
X112374D01*
X112374Y156243D01*
X112736Y156290D01*
X113236Y155852D01*
Y153006D01*
X117659D01*
Y157685D01*
X115786D01*
X115595Y158147D01*
X119553Y162105D01*
X136999D01*
X136999Y162105D01*
X137821Y162213D01*
X138587Y162530D01*
X139245Y163035D01*
X143399Y167189D01*
X143851Y166934D01*
X142509Y161479D01*
X142507Y161440D01*
X142494Y161404D01*
X142499Y161263D01*
X142493Y161122D01*
X142506Y161085D01*
X142508Y161046D01*
X142920Y159327D01*
X142595Y158855D01*
X142538Y158827D01*
X139456D01*
Y152672D01*
X144394D01*
Y151921D01*
X145143D01*
Y145016D01*
X148558D01*
X148749Y144554D01*
X142147Y137952D01*
X141642Y137294D01*
X141324Y136527D01*
X141216Y135705D01*
X141216Y135705D01*
Y135105D01*
X139556D01*
Y127947D01*
X99356D01*
X87387Y139917D01*
X86729Y140421D01*
X85963Y140739D01*
X85140Y140847D01*
X85140Y140847D01*
X84540D01*
Y144554D01*
X74473D01*
Y140786D01*
X77571D01*
X77741Y140286D01*
X77260Y139917D01*
X76982Y139554D01*
X74473D01*
Y135786D01*
X76982D01*
X77260Y135423D01*
X77918Y134918D01*
X78684Y134601D01*
X79506Y134493D01*
X83824D01*
X95794Y122523D01*
X95794Y122523D01*
X96452Y122019D01*
X97218Y121701D01*
X98040Y121593D01*
X139556D01*
Y121494D01*
X141216D01*
Y118718D01*
X140858Y118369D01*
X106908Y119206D01*
Y119554D01*
X92788D01*
X61296Y120330D01*
X61094Y120835D01*
X62698Y122439D01*
X62814D01*
X63579Y122756D01*
X64164Y123341D01*
X64481Y124106D01*
Y124934D01*
X64164Y125699D01*
X63579Y126284D01*
X62814Y126601D01*
X61986D01*
X61221Y126284D01*
X60636Y125699D01*
X60319Y124934D01*
Y124818D01*
X58046Y122546D01*
X57682Y122000D01*
X57554Y121356D01*
Y120780D01*
X57196Y120431D01*
X56234Y120455D01*
X55918Y120814D01*
X55790Y121458D01*
X55426Y122004D01*
X52751Y124678D01*
Y124794D01*
X52434Y125559D01*
X51849Y126144D01*
X51084Y126461D01*
X50256D01*
X49491Y126144D01*
X48906Y125559D01*
X48589Y124794D01*
Y123966D01*
X48906Y123201D01*
X49491Y122616D01*
X50256Y122299D01*
X50372D01*
X51638Y121033D01*
X51441Y120573D01*
X15470Y121460D01*
X15220Y121210D01*
X8810Y127620D01*
X9067Y148032D01*
X9567Y148029D01*
Y142246D01*
X22022D01*
Y150173D01*
X9595D01*
X9095Y150241D01*
X9245Y162063D01*
X9755Y162199D01*
X10902Y162862D01*
X11840Y163799D01*
X12502Y164947D01*
X12845Y166227D01*
Y167553D01*
X12502Y168833D01*
X11840Y169981D01*
X10902Y170918D01*
X9755Y171581D01*
X9366Y171685D01*
X9516Y183607D01*
X9567Y183607D01*
Y183607D01*
X22022D01*
Y192284D01*
Y200961D01*
X10091D01*
X9740Y201317D01*
X11075Y307175D01*
X14960Y311060D01*
X26250Y322350D01*
X55990Y317600D01*
D02*
G37*
G36*
X292085Y217743D02*
X287208Y212867D01*
X286746Y213058D01*
Y213603D01*
X287104Y213961D01*
X287421Y214726D01*
Y215554D01*
X287104Y216319D01*
X286519Y216904D01*
X285754Y217221D01*
X284926D01*
X284161Y216904D01*
X283576Y216319D01*
X283259Y215554D01*
Y214726D01*
X283576Y213961D01*
X283892Y213645D01*
Y212170D01*
X279098Y207377D01*
X278297D01*
X278048Y207877D01*
X278217Y208099D01*
X278484D01*
X279249Y208416D01*
X279834Y209001D01*
X280151Y209766D01*
Y210594D01*
X279834Y211359D01*
X279249Y211944D01*
X278484Y212261D01*
X277787D01*
X277560Y212649D01*
X277542Y212723D01*
X278049Y213231D01*
X278049Y213231D01*
X278359Y213694D01*
X278467Y214240D01*
Y216490D01*
X279840D01*
Y221390D01*
X274240D01*
Y216490D01*
X275613D01*
Y214831D01*
X271779Y210998D01*
X271317Y211189D01*
Y212300D01*
X271317Y212300D01*
X271209Y212846D01*
X270899Y213309D01*
X270899Y213309D01*
X268319Y215890D01*
X268526Y216390D01*
X269990D01*
Y218190D01*
X267840D01*
Y217076D01*
X267340Y216869D01*
X246097Y238111D01*
Y253176D01*
X245989Y253722D01*
X245679Y254185D01*
X245679Y254185D01*
X244166Y255698D01*
X244358Y256160D01*
X292085D01*
Y217743D01*
D02*
G37*
G36*
X226370Y256160D02*
X239667D01*
X243243Y252584D01*
Y237520D01*
X243243Y237520D01*
X243351Y236974D01*
X243661Y236511D01*
X268463Y211709D01*
Y209157D01*
X267965Y209097D01*
X267677Y209527D01*
X265811Y211393D01*
Y212014D01*
X265494Y212779D01*
X264909Y213364D01*
X264144Y213681D01*
X263316D01*
X262551Y213364D01*
X261966Y212779D01*
X261649Y212014D01*
Y211186D01*
X261966Y210421D01*
X262551Y209836D01*
X263316Y209519D01*
X263937D01*
X265415Y208041D01*
Y207289D01*
X264800Y206675D01*
X264338Y206866D01*
Y208339D01*
X262710D01*
Y204780D01*
X261210D01*
Y208339D01*
X259582D01*
X259582Y208339D01*
Y208339D01*
X259180Y208568D01*
X258677Y209337D01*
X258675Y209339D01*
X258628Y209411D01*
X258628Y209411D01*
X258628Y209411D01*
X258566Y209475D01*
X258563Y209478D01*
X258561Y209480D01*
X258515Y209551D01*
X258512Y209553D01*
X258510Y209555D01*
X258440Y209603D01*
X258378Y209666D01*
X258378Y209666D01*
X258378Y209666D01*
X258377Y209667D01*
X258294Y209702D01*
X258220Y209753D01*
X258219Y209753D01*
X258216Y209754D01*
X258213Y209756D01*
X258127Y209773D01*
X258047Y209807D01*
X257958Y209808D01*
X257956Y209808D01*
X257955Y209809D01*
X257953Y209809D01*
X257952D01*
X257869Y209827D01*
X257866Y209826D01*
X257862Y209827D01*
X257776Y209827D01*
X257776Y209827D01*
X257773Y209828D01*
X257770Y209828D01*
X257770Y209828D01*
X200481Y210029D01*
X200471Y210043D01*
X200223Y210488D01*
Y213752D01*
X198595D01*
Y210193D01*
X197095D01*
Y213752D01*
X195467D01*
Y210301D01*
X195466Y210296D01*
X195363Y210106D01*
X195111Y209892D01*
X195009Y209858D01*
X194928Y209835D01*
X194869Y209832D01*
X194815Y209806D01*
X194798Y209802D01*
X194379Y210016D01*
X194298Y210115D01*
Y225157D01*
X194285Y225221D01*
X194289Y225287D01*
X194279Y225354D01*
X194283Y225394D01*
X194459Y225725D01*
X194596Y225841D01*
X194667Y225880D01*
X198410D01*
Y262580D01*
X209180Y273350D01*
X226370Y256160D01*
D02*
G37*
G36*
X112178Y227308D02*
X120771Y212945D01*
X118861Y200720D01*
X118440Y200450D01*
X110535Y202709D01*
X100581Y227735D01*
X87676Y242079D01*
X84945Y242866D01*
X81795Y246016D01*
Y250347D01*
X87676Y256228D01*
X91116Y256992D01*
X112178Y227308D01*
D02*
G37*
G36*
X174315Y249559D02*
Y245229D01*
X159354Y230268D01*
X142031Y212945D01*
X138967Y200306D01*
X138533Y200057D01*
X131008Y202315D01*
X129433Y203890D01*
Y211764D01*
X160929Y243260D01*
Y250740D01*
X165588Y255399D01*
X171559Y256252D01*
X174315Y249559D01*
D02*
G37*
G36*
X192978Y225764D02*
X193070Y225711D01*
X193110Y225673D01*
X193358Y225408D01*
X193361Y225388D01*
X193370Y225303D01*
X193367Y225251D01*
X193380Y225157D01*
Y210115D01*
Y207271D01*
X195026Y208917D01*
X195029Y208918D01*
X195079Y208943D01*
X195099Y208943D01*
X195406Y208762D01*
X195478Y208704D01*
X195509Y208669D01*
X195527Y208638D01*
X195568Y208565D01*
Y206734D01*
X200123D01*
Y208759D01*
X200478Y209112D01*
X257767Y208910D01*
X257767Y208910D01*
X257770Y208910D01*
X257772Y208910D01*
X257858Y208909D01*
X257859Y208909D01*
X257860Y208908D01*
X257908Y208836D01*
X257909Y208834D01*
X259085Y207038D01*
X259918Y199024D01*
X259542Y198589D01*
X259461Y198605D01*
X258856Y198485D01*
X258344Y198142D01*
X258001Y197629D01*
X257881Y197025D01*
Y194261D01*
X257825Y193979D01*
X257291Y193833D01*
X252346Y199598D01*
X251350Y200760D01*
X197780D01*
X197511Y200491D01*
X197511Y200491D01*
X194783Y197763D01*
X192054Y195034D01*
X192049Y195033D01*
X191904Y194973D01*
X191900Y194970D01*
X173090D01*
X173086Y194973D01*
X172941Y195033D01*
X172936Y195034D01*
X168588Y199382D01*
X168588Y199382D01*
X168524Y199446D01*
X168523Y199451D01*
X168463Y199596D01*
X168460Y199600D01*
Y206368D01*
Y223732D01*
X168511Y224104D01*
X168531Y224159D01*
X168535Y224188D01*
X168556Y224207D01*
X168592Y224253D01*
X168797Y224432D01*
X168826Y224448D01*
X168864Y224481D01*
X168878Y224482D01*
X168894Y224486D01*
X168894Y224486D01*
X168894D01*
X168914Y224491D01*
X168946Y224506D01*
X192927Y225781D01*
X192978Y225764D01*
D02*
G37*
G36*
X283758Y190544D02*
X283658D01*
Y188413D01*
X283020D01*
X282639Y188794D01*
X281874Y189111D01*
X281046D01*
X280281Y188794D01*
X279696Y188209D01*
X279379Y187444D01*
Y186616D01*
X279696Y185851D01*
X280281Y185266D01*
X281046Y184949D01*
X281874D01*
X282639Y185266D01*
X282931Y185558D01*
X283758D01*
Y183526D01*
Y179589D01*
Y174501D01*
X283330Y174215D01*
X283330Y174215D01*
X282449Y173334D01*
X282139Y172871D01*
X282031Y172325D01*
X282031Y172325D01*
Y168181D01*
X282031Y168181D01*
X282139Y167635D01*
X282348Y167322D01*
X282173Y166900D01*
X282093Y166822D01*
X280737D01*
Y166922D01*
X279896D01*
Y166823D01*
X279624D01*
Y163560D01*
X278678D01*
X278668Y163608D01*
Y166823D01*
X278396D01*
Y166922D01*
X277556D01*
Y166822D01*
X268755D01*
X268654Y167331D01*
X268344Y167794D01*
X268344Y167794D01*
X267759Y168379D01*
X267296Y168689D01*
X266749Y168797D01*
X266749Y168797D01*
X256818D01*
Y173414D01*
X257204Y173731D01*
X257418Y173689D01*
X258062Y173817D01*
X258608Y174181D01*
X260651Y176225D01*
X260651Y176225D01*
X261016Y176771D01*
X261143Y177414D01*
X261143Y177415D01*
Y191480D01*
X283758D01*
Y190544D01*
D02*
G37*
G36*
X337022Y200558D02*
X337022Y200558D01*
X337086Y200494D01*
X337087Y200489D01*
X337147Y200344D01*
X337150Y200340D01*
Y196611D01*
X337150Y196611D01*
Y196611D01*
X337150Y196610D01*
Y196520D01*
X337150Y196520D01*
X337147Y196516D01*
X337091Y196381D01*
X337090Y196378D01*
X337088Y196375D01*
X337088Y196373D01*
X337087Y196369D01*
X337086Y196366D01*
X337086Y196366D01*
X335595Y194875D01*
X334331Y193611D01*
X333880Y193480D01*
X328120D01*
Y189930D01*
X328120Y189930D01*
X328117Y189926D01*
X328064Y189797D01*
X328063Y189793D01*
X328061Y189790D01*
X328057Y189782D01*
X328056Y189777D01*
X328056Y189776D01*
X328056Y189776D01*
X327992Y189712D01*
X327992Y189712D01*
X325574Y187294D01*
X325574Y187294D01*
X324302Y186022D01*
X322760Y184480D01*
Y176608D01*
X322759Y176604D01*
X322753Y176553D01*
X322753Y176551D01*
X322733Y176504D01*
X322733Y176504D01*
X322733Y176504D01*
X322732Y176502D01*
X322730Y176496D01*
X322730Y176496D01*
X321747Y174718D01*
X321747Y174718D01*
X321704Y174639D01*
X321665Y174593D01*
X321649Y174580D01*
X321629Y174573D01*
X321570Y174564D01*
X313689Y174949D01*
X298471Y175692D01*
X298291Y176159D01*
X298866Y176733D01*
X299656D01*
Y179111D01*
Y181489D01*
X296847D01*
Y180724D01*
X296347Y180674D01*
X295275Y185914D01*
X295591Y186301D01*
X296020D01*
Y188860D01*
X294642D01*
Y188223D01*
X294203Y187984D01*
X291013Y190050D01*
X290282D01*
Y190444D01*
X288747D01*
X288429Y190831D01*
X288448Y190922D01*
Y192577D01*
X288339Y193123D01*
X288034Y193580D01*
X287989Y193806D01*
X287624Y194352D01*
X287789Y194728D01*
X287828Y194790D01*
X287841Y194802D01*
X287867Y194815D01*
X287897Y194823D01*
X287964Y194826D01*
X287983Y194830D01*
X297739D01*
X297740Y194830D01*
X297830D01*
X297830Y194830D01*
X297834Y194827D01*
X297969Y194771D01*
X297974Y194770D01*
X297978Y194767D01*
X297979Y194767D01*
X297984Y194766D01*
X298767Y193983D01*
X298767Y193983D01*
X298769Y193974D01*
Y193951D01*
X298785Y193870D01*
X298795Y193847D01*
Y193845D01*
X298794Y193841D01*
X298751Y193775D01*
X298746Y193763D01*
X298529Y193429D01*
X298525Y193419D01*
X298020D01*
Y189860D01*
Y186301D01*
X299320D01*
X299321Y186301D01*
X299321D01*
X299321Y186301D01*
X299398Y186298D01*
X299472Y186281D01*
X299486Y186281D01*
X299808Y186206D01*
X299850Y186189D01*
X299888Y186162D01*
X302530Y183520D01*
X313627Y185529D01*
X314971Y185772D01*
X321270Y186912D01*
Y197869D01*
X321270Y197870D01*
Y197960D01*
X321270Y197960D01*
X321273Y197964D01*
X321329Y198099D01*
X321330Y198104D01*
X321333Y198108D01*
X321333Y198109D01*
X321334Y198114D01*
X323469Y200249D01*
X323469Y200249D01*
X324761Y201541D01*
X328579Y205359D01*
X328579Y205359D01*
X328635Y205415D01*
X328635Y205415D01*
X328699Y205458D01*
X328707Y205465D01*
X328717Y205473D01*
X328725Y205480D01*
X332016Y205564D01*
X337022Y200558D01*
D02*
G37*
G36*
X55811Y304284D02*
Y297197D01*
X50299Y291685D01*
X56992Y284992D01*
X54826Y219835D01*
X83370Y210189D01*
X102661Y190898D01*
Y182237D01*
X101874Y181449D01*
X93212D01*
X92031Y185780D01*
X74315Y203496D01*
X45968Y205071D01*
X43212Y211370D01*
X37641Y302650D01*
X44787Y309795D01*
X49905Y310189D01*
X55811Y304284D01*
D02*
G37*
G36*
X363120Y226390D02*
X358690Y24950D01*
X287035Y22977D01*
X286677Y23326D01*
Y32838D01*
X289519Y35680D01*
X289880Y36221D01*
X290007Y36859D01*
Y39391D01*
X290421D01*
Y46545D01*
X290007D01*
Y48643D01*
X290421D01*
Y52495D01*
X302172D01*
X302810Y52622D01*
X303351Y52984D01*
X306036Y55669D01*
X306174D01*
X306939Y55986D01*
X307524Y56571D01*
X307841Y57336D01*
Y58164D01*
X307524Y58929D01*
X306939Y59514D01*
X306174Y59831D01*
X305346D01*
X304581Y59514D01*
X303996Y58929D01*
X303679Y58164D01*
Y58026D01*
X301482Y55829D01*
X288786D01*
X288625Y55797D01*
X287393D01*
X287202Y56259D01*
X287798Y56855D01*
X288218Y57484D01*
X288365Y58225D01*
Y61595D01*
X319682D01*
X320423Y61742D01*
X321052Y62162D01*
X326619Y67730D01*
X327119Y67714D01*
X335403Y58345D01*
X335198Y57889D01*
X331237D01*
X330593Y57761D01*
X330047Y57396D01*
X330047Y57396D01*
X328522Y55871D01*
X328406D01*
X327641Y55554D01*
X327056Y54969D01*
X326739Y54204D01*
Y53376D01*
X327056Y52611D01*
X327641Y52026D01*
X328226Y51783D01*
X328238Y51247D01*
X327821Y51074D01*
X327236Y50489D01*
X326919Y49724D01*
Y48896D01*
X327236Y48131D01*
X327821Y47546D01*
X328586Y47229D01*
X329414D01*
X330179Y47546D01*
X330181Y47548D01*
X333923D01*
X334567Y47676D01*
X335113Y48040D01*
X335691Y48619D01*
X338950D01*
X339336Y48115D01*
X339977Y47624D01*
X340037Y47598D01*
Y47098D01*
X339977Y47073D01*
X339336Y46582D01*
X338950Y46078D01*
X330370D01*
X329614Y46391D01*
X328786D01*
X328021Y46074D01*
X327436Y45489D01*
X327119Y44724D01*
Y43896D01*
X327436Y43131D01*
X328021Y42546D01*
X328786Y42229D01*
X329614D01*
X330379Y42546D01*
X330546Y42713D01*
X338950D01*
X339336Y42209D01*
X339893Y41782D01*
X339916Y41412D01*
X339878Y41218D01*
X339265Y40748D01*
X338758Y40086D01*
X338439Y39316D01*
X338429Y39240D01*
X342310D01*
X346191D01*
X346181Y39316D01*
X345862Y40086D01*
X345355Y40748D01*
X344742Y41218D01*
X344704Y41412D01*
X344727Y41782D01*
X345284Y42209D01*
X345775Y42850D01*
X346084Y43595D01*
X346189Y44396D01*
X346084Y45196D01*
X345775Y45941D01*
X345284Y46582D01*
X344643Y47073D01*
X344583Y47098D01*
Y47598D01*
X344643Y47624D01*
X345284Y48115D01*
X345775Y48755D01*
X346084Y49501D01*
X346189Y50301D01*
X346084Y51101D01*
X345775Y51847D01*
X345284Y52487D01*
X344643Y52979D01*
X344583Y53004D01*
Y53504D01*
X344643Y53529D01*
X345284Y54020D01*
X345775Y54661D01*
X346084Y55406D01*
X346189Y56207D01*
X346098Y56902D01*
X346389Y57402D01*
X347580D01*
X347748Y57436D01*
X347918Y57467D01*
X350898Y58647D01*
X351018Y58724D01*
X351144Y58792D01*
X351167Y58821D01*
X351199Y58841D01*
X351280Y58959D01*
X351370Y59069D01*
X351381Y59105D01*
X351402Y59136D01*
X351432Y59275D01*
X351473Y59412D01*
X351470Y59449D01*
X351478Y59486D01*
X351452Y59626D01*
X351438Y59768D01*
X348458Y69518D01*
X348387Y69649D01*
X348326Y69785D01*
X348303Y69806D01*
X348288Y69834D01*
X348173Y69928D01*
X348064Y70029D01*
X348035Y70041D01*
X348011Y70060D01*
X347868Y70103D01*
X347729Y70155D01*
X337699Y71807D01*
X325978Y79979D01*
Y97120D01*
X325908Y97471D01*
X325709Y97769D01*
X322959Y100519D01*
X322661Y100718D01*
X322310Y100788D01*
X316130D01*
X316121Y100786D01*
X316112Y100787D01*
X307138Y100612D01*
X306975Y100576D01*
X306811Y100545D01*
X306800Y100538D01*
X306788Y100535D01*
X306676Y100457D01*
X306673Y100456D01*
X306669Y100452D01*
X306651Y100440D01*
X306600Y100406D01*
X306579Y100410D01*
X306563Y100407D01*
X306547Y100410D01*
X306388Y100372D01*
X306228Y100340D01*
X306214Y100331D01*
X306198Y100328D01*
X306066Y100232D01*
X305930Y100141D01*
X304379Y98591D01*
X304290Y98458D01*
X304196Y98328D01*
X304191Y98309D01*
X304180Y98293D01*
X304149Y98136D01*
X304111Y97980D01*
X304114Y97961D01*
X304111Y97942D01*
X304142Y97785D01*
X304166Y97627D01*
X305458Y94095D01*
X305550Y93943D01*
X305640Y93794D01*
X305643Y93792D01*
X305644Y93789D01*
X305787Y93685D01*
X305928Y93580D01*
X305931Y93580D01*
X305933Y93578D01*
X306104Y93536D01*
X306275Y93493D01*
X307045Y93456D01*
Y90300D01*
X316901D01*
X316975Y90150D01*
X317050Y89440D01*
X316715Y89069D01*
X307045D01*
Y87101D01*
X306583Y86910D01*
X303122Y90370D01*
Y101013D01*
X310960Y108850D01*
X311324Y109396D01*
X311452Y110040D01*
X311452Y110040D01*
Y117361D01*
X311324Y118005D01*
X310960Y118551D01*
X310081Y119430D01*
X309535Y119794D01*
X309300Y119841D01*
X309133Y120008D01*
X308587Y120373D01*
X307944Y120501D01*
X307344D01*
Y121618D01*
X302883D01*
Y124079D01*
X302755Y124723D01*
X302390Y125269D01*
X298671Y128988D01*
Y129104D01*
X298354Y129869D01*
X297769Y130454D01*
X297004Y130771D01*
X296176D01*
X295411Y130454D01*
X294826Y129869D01*
X294509Y129104D01*
Y128276D01*
X294826Y127511D01*
X295411Y126926D01*
X296176Y126609D01*
X296292D01*
X299518Y123383D01*
Y121618D01*
X297769D01*
X286928Y132459D01*
X286465Y132769D01*
X285919Y132877D01*
X285919Y132877D01*
X271811D01*
X264826Y139863D01*
Y160298D01*
X267876D01*
Y159075D01*
X267591Y158649D01*
X267483Y158102D01*
X267483Y158102D01*
Y157502D01*
X266460D01*
Y151902D01*
X271360D01*
Y152720D01*
X271860Y152927D01*
X272231Y152556D01*
X272996Y152239D01*
X273824D01*
X274589Y152556D01*
X274945Y152912D01*
X275488Y152948D01*
X275579Y152892D01*
X276933Y151539D01*
Y150656D01*
X276596Y150319D01*
X276279Y149554D01*
Y148726D01*
X276596Y147961D01*
X277181Y147376D01*
X277946Y147059D01*
X278774D01*
X278898Y147110D01*
X279314Y146833D01*
Y144222D01*
X277382Y142291D01*
X276906D01*
X276141Y141974D01*
X275556Y141389D01*
X275239Y140624D01*
Y139796D01*
X275556Y139031D01*
X276141Y138446D01*
X276906Y138129D01*
X277734D01*
X278499Y138446D01*
X279084Y139031D01*
X279401Y139796D01*
Y140272D01*
X281750Y142622D01*
X281750Y142622D01*
X282060Y143085D01*
X282169Y143631D01*
X282169Y143631D01*
Y146385D01*
X282585Y146587D01*
X285394D01*
Y148965D01*
Y151343D01*
X283951D01*
Y153416D01*
X284703Y154168D01*
X289603D01*
Y158723D01*
X287571D01*
Y160598D01*
X287744Y160771D01*
X287861Y161053D01*
X288451Y161170D01*
X290462Y159158D01*
Y157269D01*
X290462Y157269D01*
X290571Y156722D01*
X290880Y156259D01*
X292051Y155089D01*
Y151508D01*
X296951D01*
Y155835D01*
X297412Y156027D01*
X298350Y155089D01*
Y151508D01*
X303250D01*
Y155835D01*
X303712Y156027D01*
X304649Y155089D01*
Y151508D01*
X309549D01*
Y157108D01*
X306668D01*
X304596Y159179D01*
X304133Y159489D01*
X303587Y159597D01*
X303587Y159597D01*
X301481D01*
X295956Y165123D01*
X296274Y165511D01*
X296320Y165481D01*
X296866Y165373D01*
X299859D01*
X300759Y164472D01*
Y163996D01*
X301076Y163231D01*
X301661Y162646D01*
X302426Y162329D01*
X303254D01*
X304019Y162646D01*
X304604Y163231D01*
X304921Y163996D01*
Y164824D01*
X304604Y165589D01*
X304019Y166174D01*
X303254Y166491D01*
X302778D01*
X301459Y167809D01*
X300996Y168119D01*
X300450Y168227D01*
X300450Y168227D01*
X297707D01*
Y169253D01*
X299656D01*
Y171631D01*
X300406D01*
Y172381D01*
X303965D01*
Y174005D01*
X303968Y174146D01*
X304333Y174487D01*
X305338Y174438D01*
X305508Y174009D01*
X305508Y173930D01*
Y172381D01*
X309068D01*
X312627D01*
Y173582D01*
X313106Y174059D01*
X314170Y174007D01*
Y172381D01*
X317729D01*
X321288D01*
Y173301D01*
X321297Y173312D01*
X321705Y173657D01*
X321764Y173666D01*
X321841Y173693D01*
X321902Y173698D01*
X321918Y173706D01*
X321938Y173709D01*
X321958Y173716D01*
X322036Y173763D01*
X322044Y173766D01*
X322086Y173778D01*
X322093Y173783D01*
X322101Y173786D01*
X322134Y173816D01*
X322140Y173821D01*
X322221Y173863D01*
X322237Y173876D01*
X322251Y173892D01*
X322265Y173900D01*
X322302Y173950D01*
X322366Y174001D01*
X322405Y174047D01*
X322448Y174126D01*
X322468Y174149D01*
X322468Y174149D01*
X322507Y174195D01*
X322550Y174274D01*
X322551Y174274D01*
X323533Y176052D01*
X323549Y176100D01*
X323556Y176109D01*
X323558Y176115D01*
X323578Y176145D01*
X323580Y176151D01*
X323581Y176153D01*
X323600Y176200D01*
X323617Y176285D01*
X323632Y176321D01*
X323633Y176323D01*
Y176324D01*
X323633Y176325D01*
X323634Y176327D01*
X323653Y176374D01*
X323653Y176375D01*
X323653Y176414D01*
X323665Y176450D01*
X323670Y176501D01*
X323667Y176537D01*
X323670Y176551D01*
X323668Y176561D01*
X323678Y176608D01*
Y184100D01*
X324950Y185373D01*
X326223Y186645D01*
X326223Y186645D01*
X328641Y189063D01*
X328641Y189063D01*
X328705Y189127D01*
X328755Y189203D01*
X328756Y189203D01*
X328756Y189203D01*
X328756Y189204D01*
X328756Y189204D01*
X328819Y189267D01*
X328819Y189268D01*
X328821Y189270D01*
X328822Y189270D01*
X328854Y189351D01*
X328903Y189423D01*
X328903Y189424D01*
X328903Y189424D01*
X328903Y189425D01*
X328904Y189429D01*
X328905Y189430D01*
X328908Y189438D01*
X328909Y189442D01*
X328911Y189446D01*
X328965Y189575D01*
X328968Y189579D01*
X328974Y189612D01*
X328991Y189640D01*
X328991Y189640D01*
X328998Y189698D01*
X329020Y189752D01*
X329020Y189842D01*
X329038Y189930D01*
Y192562D01*
X333880D01*
X334007Y192588D01*
X334136Y192599D01*
X334587Y192730D01*
X334632Y192753D01*
X334682Y192763D01*
X334790Y192835D01*
X334905Y192895D01*
X334938Y192934D01*
X334980Y192962D01*
X336244Y194226D01*
X337735Y195717D01*
X337785Y195792D01*
X337849Y195857D01*
X337849Y195857D01*
X337884Y195940D01*
X337934Y196015D01*
X337935Y196017D01*
X337937Y196026D01*
X337939Y196030D01*
X337995Y196165D01*
X337995Y196165D01*
X337998Y196169D01*
X338015Y196257D01*
X338050Y196341D01*
Y196349D01*
X338053Y196356D01*
X338053Y196356D01*
X338051Y196439D01*
X338068Y196520D01*
Y196610D01*
X338068Y196611D01*
Y196611D01*
X338068Y196611D01*
Y200340D01*
X338050Y200428D01*
X338050Y200518D01*
X338016Y200602D01*
X337998Y200691D01*
X337995Y200695D01*
X337935Y200840D01*
X337935Y200840D01*
X337934Y200845D01*
X337883Y200921D01*
X337848Y201005D01*
X337785Y201068D01*
X337735Y201143D01*
X337671Y201207D01*
X337671Y201207D01*
X332665Y206213D01*
X332655Y206219D01*
X332648Y206229D01*
X332643Y206233D01*
X332787Y206733D01*
X334680D01*
Y212628D01*
X325360D01*
Y208751D01*
X324608Y207999D01*
X322262D01*
X322262Y207999D01*
X321716Y207891D01*
X321252Y207581D01*
X319512Y205841D01*
X319036D01*
X318271Y205524D01*
X317686Y204939D01*
X317369Y204174D01*
Y203346D01*
X317686Y202581D01*
X318271Y201996D01*
X319036Y201679D01*
X319864D01*
X320629Y201996D01*
X321214Y202581D01*
X321531Y203346D01*
Y203822D01*
X322853Y205144D01*
X325199D01*
X325199Y205144D01*
X325746Y205253D01*
X326209Y205562D01*
X327379Y206733D01*
X328083D01*
X328095Y206715D01*
X328274Y206263D01*
X328208Y206236D01*
X328198Y206229D01*
X328190Y206221D01*
X328189Y206221D01*
X328126Y206178D01*
X328084Y206137D01*
X328034Y206109D01*
X328014Y206083D01*
X327987Y206064D01*
X327930Y206008D01*
X327930Y206008D01*
X324112Y202190D01*
X322820Y200898D01*
X322820Y200898D01*
X320685Y198763D01*
X320635Y198687D01*
X320571Y198623D01*
X320554Y198582D01*
X320536Y198540D01*
X320486Y198465D01*
X320485Y198460D01*
X320485Y198460D01*
X320485Y198459D01*
X320484Y198454D01*
X320481Y198450D01*
X320425Y198315D01*
X320425Y198315D01*
X320422Y198311D01*
X320409Y198244D01*
X320380Y198182D01*
X320380Y198182D01*
X320379Y198159D01*
X320370Y198138D01*
X320370Y198048D01*
X320352Y197960D01*
Y197870D01*
X320352Y197869D01*
Y187679D01*
X314808Y186675D01*
X314808Y186675D01*
X313464Y186432D01*
X302839Y184509D01*
X300537Y186811D01*
X300501Y186834D01*
X300500Y186837D01*
X300469Y186857D01*
X300421Y186909D01*
X300383Y186936D01*
X300288Y186979D01*
X300202Y187036D01*
X300159Y187054D01*
X300090Y187068D01*
X300056Y187083D01*
X300053Y187083D01*
X300014Y187101D01*
X299692Y187175D01*
X299679Y187175D01*
X299678Y187175D01*
X299604Y187192D01*
X299528Y187195D01*
X299514Y187198D01*
X299500Y187198D01*
X299310Y187592D01*
X299298Y187704D01*
Y192928D01*
X299516Y193263D01*
X299520Y193275D01*
X299520Y193275D01*
X299563Y193341D01*
X299592Y193412D01*
X299598Y193423D01*
X299603Y193435D01*
X299603Y193435D01*
X299642Y193494D01*
X299659Y193579D01*
X299694Y193662D01*
X299695Y193666D01*
Y193670D01*
X299696Y193673D01*
X299695Y193758D01*
X299712Y193845D01*
Y193847D01*
X299712Y193847D01*
X299712Y193847D01*
X299694Y193935D01*
X299694Y194024D01*
X299685Y194047D01*
Y194049D01*
X299672Y194117D01*
X299672Y194134D01*
X299669Y194143D01*
X299669Y194154D01*
X299667Y194163D01*
X299632Y194246D01*
X299617Y194325D01*
X299617Y194325D01*
X299615Y194334D01*
X299572Y194398D01*
X299545Y194469D01*
X299545Y194469D01*
X299535Y194480D01*
X299530Y194493D01*
X299466Y194557D01*
X299416Y194632D01*
X298633Y195415D01*
X298557Y195465D01*
X298493Y195529D01*
X298452Y195546D01*
X298410Y195564D01*
X298335Y195614D01*
X298330Y195615D01*
X298330Y195615D01*
X298329Y195615D01*
X298324Y195616D01*
X298320Y195619D01*
X298185Y195675D01*
X298185Y195675D01*
X298181Y195678D01*
X298114Y195691D01*
X298052Y195720D01*
X298052Y195720D01*
X298029Y195721D01*
X298008Y195730D01*
X297918Y195730D01*
X297830Y195748D01*
X297740D01*
X297739Y195748D01*
X287983D01*
X287947Y195740D01*
X287932Y195743D01*
X287865Y195740D01*
X287796Y195724D01*
X287773Y195723D01*
X287754Y195719D01*
X287742Y195713D01*
X287642Y195705D01*
X287612Y195696D01*
X287558Y195668D01*
X287517Y195658D01*
X287516Y195658D01*
X287500Y195655D01*
X287496Y195652D01*
X287487Y195650D01*
X287460Y195638D01*
X287367Y195571D01*
X287301Y195541D01*
X287260Y195498D01*
X287200Y195459D01*
X287188Y195448D01*
X287180Y195436D01*
X287170Y195429D01*
X287126Y195359D01*
X287053Y195282D01*
X287014Y195220D01*
X286992Y195162D01*
X286985Y195152D01*
X286984Y195148D01*
X286948Y195097D01*
X286806Y194771D01*
X286434Y194845D01*
X282605D01*
Y198412D01*
X283315Y199122D01*
X293427D01*
X293935Y199223D01*
X294365Y199510D01*
X303989Y209135D01*
X319088D01*
X319595Y209235D01*
X320025Y209523D01*
X327235Y216733D01*
X334680D01*
Y222627D01*
X325360D01*
Y218607D01*
X318538Y211786D01*
X303440D01*
X302933Y211685D01*
X302503Y211397D01*
X292879Y201773D01*
X283083D01*
X282875Y202273D01*
X293502Y212900D01*
X312853D01*
X313360Y213001D01*
X313790Y213288D01*
X327235Y226732D01*
X334680D01*
Y232628D01*
X325360D01*
Y228607D01*
X312304Y215551D01*
X294295D01*
X294103Y216013D01*
X294347Y216257D01*
X294635Y216687D01*
X294736Y217194D01*
Y256160D01*
X333350D01*
X363120Y226390D01*
D02*
G37*
G36*
X101380Y151990D02*
X99640Y150250D01*
X93052Y152340D01*
X92430Y154770D01*
X95700D01*
X96240Y155310D01*
X101380Y151990D01*
D02*
G37*
G36*
X89485Y162055D02*
X90940Y153810D01*
X92990Y150120D01*
X101446Y149004D01*
X102010Y148440D01*
X103100D01*
Y146890D01*
X101730Y145520D01*
X92990D01*
X91440Y147070D01*
Y148760D01*
X81740Y158460D01*
X77180D01*
X72400Y163240D01*
X75220Y166060D01*
X86980D01*
X89485Y162055D01*
D02*
G37*
G36*
X187320Y186560D02*
X187380Y186620D01*
X188230Y185770D01*
Y155070D01*
X190158Y149491D01*
X189889Y149070D01*
X186250Y148710D01*
X178930Y147370D01*
X179450Y141510D01*
X177600Y139660D01*
X172200Y138300D01*
X171300Y140950D01*
Y156810D01*
X169780Y158330D01*
X156587Y158804D01*
Y162876D01*
X156479Y163698D01*
X156161Y164465D01*
X155657Y165123D01*
X154999Y165628D01*
X154232Y165945D01*
X153410Y166053D01*
X152588Y165945D01*
X151821Y165628D01*
X151163Y165123D01*
X150659Y164465D01*
X150341Y163698D01*
X150233Y162876D01*
Y159392D01*
X149873Y159045D01*
X143880Y159260D01*
X143400Y161260D01*
X144810Y166990D01*
X167010D01*
X169791Y169771D01*
X177065Y187372D01*
X187320Y186560D01*
D02*
G37*
G36*
X325060Y97120D02*
Y79500D01*
X337345Y70935D01*
X347580Y69250D01*
X350560Y59500D01*
X347580Y58320D01*
X345339D01*
X345284Y58393D01*
X344643Y58884D01*
X343898Y59193D01*
X343097Y59298D01*
X341523D01*
X340722Y59193D01*
X339977Y58884D01*
X339336Y58393D01*
X339281Y58320D01*
X336650D01*
X327527Y68638D01*
X329307Y70417D01*
X329895Y70661D01*
X330509Y71275D01*
X330710Y71760D01*
X328660D01*
Y72510D01*
X327910D01*
Y74560D01*
X327425Y74359D01*
X326811Y73746D01*
X326567Y73157D01*
X325214Y71804D01*
X324714Y71819D01*
X319170Y78090D01*
X317870Y90410D01*
X317112Y91943D01*
Y94069D01*
X313295D01*
X306320Y94410D01*
X305028Y97942D01*
X306579Y99493D01*
X306943Y99153D01*
X306945Y98729D01*
X306945Y98676D01*
Y97935D01*
X311329D01*
Y99169D01*
X307444D01*
X307145Y99669D01*
X307156Y99694D01*
X316130Y99870D01*
X322310D01*
X325060Y97120D01*
D02*
G37*
G36*
X306607Y109256D02*
X300250Y102900D01*
X299886Y102354D01*
X299758Y101710D01*
Y89673D01*
X299886Y89030D01*
X300250Y88484D01*
X307045Y81690D01*
Y80300D01*
X317112D01*
Y84069D01*
X309424D01*
X308654Y84838D01*
X308846Y85300D01*
X317112D01*
Y85300D01*
X317484Y85320D01*
X318257Y77994D01*
X318288Y77895D01*
X318302Y77792D01*
X318341Y77725D01*
X318364Y77652D01*
X318430Y77572D01*
X318482Y77482D01*
X324027Y71211D01*
X324048Y71117D01*
X324057Y70738D01*
X324008Y70598D01*
X318880Y65469D01*
X287230D01*
X281152Y71548D01*
Y74462D01*
X281005Y75204D01*
X280585Y75832D01*
X274063Y82354D01*
X274099Y82971D01*
X274298Y83269D01*
X274368Y83620D01*
Y90431D01*
X274563Y90850D01*
X276191D01*
Y94409D01*
X276941D01*
Y95159D01*
X279319D01*
Y95401D01*
X279819Y95609D01*
X288738Y86690D01*
Y85300D01*
X298805D01*
Y89069D01*
X293700D01*
X293537Y89101D01*
X291084D01*
X290347Y89838D01*
X290539Y90300D01*
X298805D01*
Y94069D01*
X291117D01*
X290347Y94838D01*
X290539Y95300D01*
X298805D01*
Y99069D01*
X296204D01*
X296012Y99531D01*
X302440Y105958D01*
X302440Y105958D01*
X302805Y106504D01*
X302933Y107148D01*
X302933Y107148D01*
Y109718D01*
X306416D01*
X306607Y109256D01*
D02*
G37*
G36*
X273450Y112138D02*
Y83620D01*
X272988Y83429D01*
X272600Y83817D01*
X266910D01*
Y81667D01*
X268807D01*
X268818Y81650D01*
X268551Y81150D01*
X256560D01*
X256220Y86380D01*
X258180Y88340D01*
X265930D01*
Y89355D01*
X265931D01*
Y93124D01*
X265930D01*
Y94355D01*
X265931D01*
Y98124D01*
X265930D01*
Y99355D01*
X265931D01*
Y103124D01*
X265930D01*
Y103500D01*
X254180D01*
X253010Y106820D01*
Y116410D01*
X253542Y116942D01*
X262487Y121526D01*
X273450Y112138D01*
D02*
G37*
G36*
X47410Y48861D02*
Y47085D01*
X46564D01*
Y39380D01*
X47410D01*
Y38180D01*
X48775Y36815D01*
Y35365D01*
X60011Y35365D01*
X62775Y32601D01*
Y31981D01*
X61778D01*
Y27081D01*
X62775D01*
Y24535D01*
X52205Y23205D01*
X50288Y9608D01*
X49012Y8332D01*
X41663Y7829D01*
X41291Y8163D01*
X40320Y32120D01*
X41305Y36005D01*
X41398Y39380D01*
X41908D01*
Y47085D01*
X41908D01*
X41617Y47384D01*
X41663Y49081D01*
X42039Y49411D01*
X47410Y48861D01*
D02*
G37*
G36*
X298897Y9809D02*
X299000Y9800D01*
X299102Y9787D01*
X299203Y9768D01*
X299303Y9744D01*
X299401Y9715D01*
X299498Y9681D01*
X299593Y9641D01*
X299686Y9597D01*
X299776Y9548D01*
X299864Y9494D01*
X299949Y9436D01*
X300030Y9374D01*
X300108Y9307D01*
X300183Y9236D01*
X300254Y9162D01*
X300320Y9083D01*
X300383Y9002D01*
X300441Y8917D01*
X300495Y8829D01*
X300544Y8739D01*
X300588Y8646D01*
X300628Y8551D01*
X300662Y8455D01*
X300691Y8356D01*
X300715Y8256D01*
X300734Y8155D01*
X300747Y8053D01*
X300755Y7950D01*
X300758Y7843D01*
Y5677D01*
X300755Y5574D01*
X300747Y5472D01*
X300734Y5370D01*
X300715Y5268D01*
X300691Y5168D01*
X300662Y5069D01*
X300627Y4972D01*
X300588Y4877D01*
X300543Y4784D01*
X300494Y4693D01*
X300441Y4605D01*
X300382Y4520D01*
X300319Y4439D01*
X300252Y4360D01*
X300182Y4285D01*
X300107Y4214D01*
X300028Y4148D01*
X299947Y4085D01*
X299862Y4027D01*
X299774Y3973D01*
X299683Y3923D01*
X299590Y3879D01*
X299495Y3840D01*
X299398Y3805D01*
X299299Y3776D01*
X299199Y3752D01*
X299097Y3733D01*
X298995Y3720D01*
X298892Y3712D01*
X298790Y3709D01*
X294085D01*
Y3689D01*
X294065D01*
Y9811D01*
X298780D01*
Y9024D01*
X298733Y9023D01*
X298682Y9019D01*
X298631Y9012D01*
X298581Y9003D01*
X298531Y8991D01*
X298482Y8976D01*
X298434Y8959D01*
X298386Y8939D01*
X298340Y8917D01*
X298295Y8893D01*
X298251Y8866D01*
X298209Y8837D01*
X298168Y8806D01*
X298129Y8772D01*
X298092Y8737D01*
X298057Y8700D01*
X298024Y8661D01*
X297992Y8620D01*
X297963Y8578D01*
X297937Y8534D01*
X297912Y8489D01*
X297890Y8443D01*
X297870Y8395D01*
X297853Y8347D01*
X297839Y8298D01*
X297827Y8248D01*
X297817Y8198D01*
X297811Y8147D01*
X297807Y8096D01*
X297805Y8040D01*
Y8000D01*
Y5520D01*
Y5481D01*
X297807Y5429D01*
X297811Y5378D01*
X297817Y5327D01*
X297827Y5276D01*
X297839Y5226D01*
X297853Y5176D01*
X297871Y5128D01*
X297890Y5080D01*
X297913Y5034D01*
X297937Y4988D01*
X297964Y4944D01*
X297993Y4902D01*
X298025Y4861D01*
X298058Y4822D01*
X298094Y4785D01*
X298131Y4749D01*
X298170Y4716D01*
X298211Y4684D01*
X298253Y4655D01*
X298297Y4628D01*
X298343Y4604D01*
X298389Y4581D01*
X298437Y4562D01*
X298485Y4544D01*
X298535Y4530D01*
X298585Y4518D01*
X298636Y4508D01*
X298687Y4502D01*
X298738Y4498D01*
X298790Y4496D01*
X298841Y4498D01*
X298892Y4502D01*
X298943Y4508D01*
X298994Y4518D01*
X299044Y4530D01*
X299094Y4544D01*
X299142Y4562D01*
X299190Y4581D01*
X299236Y4604D01*
X299282Y4628D01*
X299326Y4655D01*
X299368Y4684D01*
X299409Y4716D01*
X299448Y4749D01*
X299485Y4785D01*
X299521Y4822D01*
X299554Y4861D01*
X299586Y4902D01*
X299615Y4944D01*
X299642Y4988D01*
X299667Y5034D01*
X299689Y5080D01*
X299708Y5128D01*
X299726Y5176D01*
X299740Y5226D01*
X299752Y5276D01*
X299762Y5327D01*
X299768Y5378D01*
X299772Y5429D01*
X299774Y5481D01*
Y8040D01*
X299772Y8096D01*
X299768Y8147D01*
X299762Y8198D01*
X299752Y8248D01*
X299740Y8298D01*
X299726Y8347D01*
X299709Y8395D01*
X299689Y8443D01*
X299667Y8489D01*
X299643Y8534D01*
X299616Y8578D01*
X299587Y8620D01*
X299555Y8661D01*
X299522Y8700D01*
X299487Y8737D01*
X299450Y8772D01*
X299411Y8806D01*
X299370Y8837D01*
X299328Y8866D01*
X299284Y8893D01*
X299239Y8917D01*
X299193Y8939D01*
X299145Y8959D01*
X299097Y8976D01*
X299048Y8991D01*
X298998Y9003D01*
X298948Y9012D01*
X298897Y9019D01*
X298846Y9023D01*
X298799Y9024D01*
Y9811D01*
X298897Y9809D01*
D02*
G37*
G36*
X496671Y147119D02*
Y6190D01*
X494471Y3990D01*
X389881D01*
X380611Y13260D01*
Y150289D01*
Y150530D01*
X493261D01*
X496671Y147119D01*
D02*
G37*
G36*
X275955Y3709D02*
X271240D01*
Y4496D01*
X271287Y4498D01*
X271338Y4502D01*
X271389Y4508D01*
X271439Y4518D01*
X271489Y4530D01*
X271538Y4544D01*
X271586Y4561D01*
X271634Y4581D01*
X271680Y4603D01*
X271725Y4628D01*
X271769Y4654D01*
X271811Y4683D01*
X271852Y4715D01*
X271891Y4748D01*
X271928Y4783D01*
X271963Y4820D01*
X271996Y4859D01*
X272028Y4900D01*
X272057Y4942D01*
X272083Y4986D01*
X272108Y5031D01*
X272130Y5077D01*
X272150Y5125D01*
X272167Y5173D01*
X272181Y5222D01*
X272193Y5272D01*
X272203Y5322D01*
X272209Y5373D01*
X272213Y5424D01*
X272215Y5481D01*
Y5520D01*
Y8000D01*
Y8040D01*
X272213Y8091D01*
X272209Y8143D01*
X272203Y8194D01*
X272193Y8244D01*
X272181Y8294D01*
X272167Y8344D01*
X272149Y8392D01*
X272130Y8440D01*
X272108Y8486D01*
X272083Y8532D01*
X272056Y8576D01*
X272027Y8618D01*
X271995Y8659D01*
X271962Y8698D01*
X271926Y8736D01*
X271889Y8771D01*
X271850Y8805D01*
X271809Y8836D01*
X271766Y8865D01*
X271723Y8892D01*
X271677Y8917D01*
X271631Y8939D01*
X271583Y8958D01*
X271535Y8976D01*
X271485Y8990D01*
X271435Y9002D01*
X271384Y9012D01*
X271333Y9019D01*
X271282Y9023D01*
X271231Y9024D01*
X271179Y9023D01*
X271128Y9019D01*
X271076Y9012D01*
X271026Y9002D01*
X270976Y8990D01*
X270926Y8976D01*
X270878Y8958D01*
X270830Y8939D01*
X270784Y8917D01*
X270738Y8892D01*
X270694Y8865D01*
X270652Y8836D01*
X270611Y8805D01*
X270572Y8771D01*
X270534Y8736D01*
X270499Y8698D01*
X270466Y8659D01*
X270434Y8618D01*
X270405Y8576D01*
X270378Y8532D01*
X270354Y8486D01*
X270331Y8440D01*
X270312Y8392D01*
X270294Y8344D01*
X270280Y8294D01*
X270268Y8244D01*
X270258Y8194D01*
X270252Y8143D01*
X270248Y8091D01*
X270246Y8040D01*
Y5481D01*
X270248Y5424D01*
X270252Y5373D01*
X270258Y5322D01*
X270268Y5272D01*
X270280Y5222D01*
X270294Y5173D01*
X270311Y5125D01*
X270331Y5077D01*
X270353Y5031D01*
X270377Y4986D01*
X270404Y4942D01*
X270433Y4900D01*
X270464Y4859D01*
X270498Y4820D01*
X270533Y4783D01*
X270570Y4748D01*
X270609Y4715D01*
X270650Y4683D01*
X270692Y4654D01*
X270736Y4628D01*
X270781Y4603D01*
X270827Y4581D01*
X270875Y4561D01*
X270923Y4544D01*
X270972Y4530D01*
X271022Y4518D01*
X271072Y4508D01*
X271123Y4502D01*
X271174Y4498D01*
X271221Y4496D01*
Y3709D01*
X271123Y3712D01*
X271020Y3720D01*
X270918Y3733D01*
X270817Y3752D01*
X270717Y3776D01*
X270619Y3805D01*
X270522Y3839D01*
X270427Y3879D01*
X270334Y3923D01*
X270244Y3972D01*
X270156Y4026D01*
X270071Y4084D01*
X269990Y4146D01*
X269912Y4213D01*
X269837Y4284D01*
X269766Y4359D01*
X269700Y4437D01*
X269637Y4518D01*
X269579Y4603D01*
X269525Y4691D01*
X269476Y4781D01*
X269432Y4874D01*
X269392Y4969D01*
X269358Y5066D01*
X269329Y5164D01*
X269305Y5264D01*
X269286Y5365D01*
X269273Y5467D01*
X269265Y5570D01*
X269262Y5677D01*
Y7843D01*
X269265Y7946D01*
X269273Y8049D01*
X269286Y8151D01*
X269305Y8252D01*
X269329Y8352D01*
X269358Y8451D01*
X269393Y8548D01*
X269432Y8643D01*
X269477Y8736D01*
X269526Y8827D01*
X269580Y8915D01*
X269638Y9000D01*
X269701Y9082D01*
X269768Y9160D01*
X269839Y9235D01*
X269913Y9306D01*
X269992Y9373D01*
X270073Y9435D01*
X270158Y9494D01*
X270246Y9548D01*
X270337Y9597D01*
X270430Y9641D01*
X270525Y9680D01*
X270622Y9715D01*
X270721Y9744D01*
X270821Y9768D01*
X270922Y9787D01*
X271025Y9800D01*
X271127Y9809D01*
X271231Y9811D01*
X275935D01*
Y9831D01*
X275955D01*
Y3709D01*
D02*
G37*
%LPC*%
G36*
X28357Y307169D02*
X27084D01*
X25854Y306839D01*
X24751Y306202D01*
X23850Y305302D01*
X23213Y304199D01*
X22884Y302969D01*
Y301695D01*
X23213Y300465D01*
X23850Y299362D01*
X24751Y298461D01*
X25854Y297824D01*
X27084Y297495D01*
X28357D01*
X29588Y297824D01*
X30691Y298461D01*
X31591Y299362D01*
X32228Y300465D01*
X32558Y301695D01*
Y302969D01*
X32228Y304199D01*
X31591Y305302D01*
X30691Y306202D01*
X29588Y306839D01*
X28357Y307169D01*
D02*
G37*
G36*
X28380Y288140D02*
Y286840D01*
X29680D01*
X29479Y287326D01*
X28866Y287939D01*
X28380Y288140D01*
D02*
G37*
G36*
X26880D02*
X26395Y287939D01*
X25781Y287326D01*
X25580Y286840D01*
X26880D01*
Y288140D01*
D02*
G37*
G36*
X29680Y285340D02*
X28380D01*
Y284040D01*
X28866Y284241D01*
X29479Y284855D01*
X29680Y285340D01*
D02*
G37*
G36*
X26880D02*
X25580D01*
X25781Y284855D01*
X26395Y284241D01*
X26880Y284040D01*
Y285340D01*
D02*
G37*
G36*
X18640Y267130D02*
Y265830D01*
X19940D01*
X19739Y266316D01*
X19126Y266929D01*
X18640Y267130D01*
D02*
G37*
G36*
X17140D02*
X16655Y266929D01*
X16041Y266316D01*
X15840Y265830D01*
X17140D01*
Y267130D01*
D02*
G37*
G36*
X19940Y264330D02*
X18640D01*
Y263030D01*
X19126Y263231D01*
X19739Y263844D01*
X19940Y264330D01*
D02*
G37*
G36*
X17140D02*
X15840D01*
X16041Y263844D01*
X16655Y263231D01*
X17140Y263030D01*
Y264330D01*
D02*
G37*
G36*
X28608Y256832D02*
Y252672D01*
X32768D01*
X32459Y253827D01*
X31809Y254953D01*
X30889Y255872D01*
X29764Y256522D01*
X28608Y256832D01*
D02*
G37*
G36*
X27108D02*
X25952Y256522D01*
X24827Y255872D01*
X23907Y254953D01*
X23257Y253827D01*
X22948Y252672D01*
X27108D01*
Y256832D01*
D02*
G37*
G36*
X32768Y251171D02*
X28608D01*
Y247011D01*
X29764Y247321D01*
X30889Y247971D01*
X31809Y248890D01*
X32459Y250016D01*
X32768Y251171D01*
D02*
G37*
G36*
X27108D02*
X22948D01*
X23257Y250016D01*
X23907Y248890D01*
X24827Y247971D01*
X25952Y247321D01*
X27108Y247011D01*
Y251171D01*
D02*
G37*
G36*
X27870Y228720D02*
Y227420D01*
X29170D01*
X28969Y227906D01*
X28356Y228519D01*
X27870Y228720D01*
D02*
G37*
G36*
X26370D02*
X25885Y228519D01*
X25271Y227906D01*
X25070Y227420D01*
X26370D01*
Y228720D01*
D02*
G37*
G36*
X29170Y225920D02*
X27870D01*
Y224620D01*
X28356Y224821D01*
X28969Y225434D01*
X29170Y225920D01*
D02*
G37*
G36*
X26370D02*
X25070D01*
X25271Y225434D01*
X25885Y224821D01*
X26370Y224620D01*
Y225920D01*
D02*
G37*
G36*
X164025Y222414D02*
X162397D01*
Y219605D01*
X164025D01*
Y222414D01*
D02*
G37*
G36*
Y218105D02*
X162397D01*
Y215296D01*
X164025D01*
Y218105D01*
D02*
G37*
G36*
Y213752D02*
X162397D01*
Y210943D01*
X164025D01*
Y213752D01*
D02*
G37*
G36*
X35521Y210302D02*
X35021Y210224D01*
X34959Y210237D01*
X34608Y210167D01*
X34310Y209968D01*
X34073Y209730D01*
X33859Y209688D01*
X33561Y209489D01*
X33362Y209191D01*
X33292Y208840D01*
Y205110D01*
X33362Y204759D01*
X33561Y204461D01*
X39352Y198670D01*
Y170630D01*
X39422Y170279D01*
X39621Y169981D01*
X47336Y162266D01*
X47634Y162067D01*
X47985Y161997D01*
X48303Y161782D01*
X48447Y161586D01*
Y156935D01*
X67570D01*
Y171169D01*
X67581Y171186D01*
X67664Y171285D01*
X67905Y171723D01*
X67944Y171846D01*
X67997Y171964D01*
X67998Y172015D01*
X68013Y172064D01*
X68002Y172193D01*
X68005Y172322D01*
X67987Y172370D01*
X67982Y172421D01*
X67923Y172535D01*
X67876Y172656D01*
X63275Y179921D01*
X63205Y179994D01*
X63149Y180079D01*
X58143Y185085D01*
X41792Y206595D01*
X41745Y206636D01*
X41711Y206688D01*
X41613Y206754D01*
X41524Y206832D01*
X41465Y206853D01*
X41455Y206859D01*
Y210302D01*
X35521D01*
X35521Y210302D01*
D02*
G37*
G36*
X164025Y209443D02*
X162397D01*
Y206634D01*
X164025D01*
Y209443D01*
D02*
G37*
G36*
X35977Y200961D02*
X23522D01*
Y193034D01*
X35977D01*
Y200961D01*
D02*
G37*
G36*
X160066Y198398D02*
X156666D01*
Y191652D01*
X160066D01*
Y198398D01*
D02*
G37*
G36*
X155166D02*
X151767D01*
Y191652D01*
X155166D01*
Y198398D01*
D02*
G37*
G36*
X126400Y189360D02*
Y188060D01*
X127700D01*
X127499Y188546D01*
X126885Y189159D01*
X126400Y189360D01*
D02*
G37*
G36*
X124900D02*
X124415Y189159D01*
X123801Y188546D01*
X123600Y188060D01*
X124900D01*
Y189360D01*
D02*
G37*
G36*
X234917Y187961D02*
X232767D01*
Y186161D01*
X234917D01*
Y187961D01*
D02*
G37*
G36*
X127700Y186560D02*
X126400D01*
Y185260D01*
X126885Y185461D01*
X127499Y186074D01*
X127700Y186560D01*
D02*
G37*
G36*
X124900D02*
X123600D01*
X123801Y186074D01*
X124415Y185461D01*
X124900Y185260D01*
Y186560D01*
D02*
G37*
G36*
X72310Y186060D02*
Y184760D01*
X73610D01*
X73409Y185246D01*
X72795Y185859D01*
X72310Y186060D01*
D02*
G37*
G36*
X70810D02*
X70324Y185859D01*
X69711Y185246D01*
X69510Y184760D01*
X70810D01*
Y186060D01*
D02*
G37*
G36*
X35977Y191534D02*
X23522D01*
Y183607D01*
X35977D01*
Y191534D01*
D02*
G37*
G36*
X160066Y190152D02*
X156666D01*
Y183406D01*
X160066D01*
Y190152D01*
D02*
G37*
G36*
X155166D02*
X151767D01*
Y183406D01*
X155166D01*
Y190152D01*
D02*
G37*
G36*
X234917Y184660D02*
X232767D01*
Y182861D01*
X234917D01*
Y184660D01*
D02*
G37*
G36*
X73610Y183260D02*
X72310D01*
Y181960D01*
X72795Y182161D01*
X73409Y182774D01*
X73610Y183260D01*
D02*
G37*
G36*
X70810D02*
X69510D01*
X69711Y182774D01*
X70324Y182161D01*
X70810Y181960D01*
Y183260D01*
D02*
G37*
G36*
X238567Y180874D02*
X236417D01*
Y179074D01*
X238567D01*
Y180874D01*
D02*
G37*
G36*
X234917D02*
X232767D01*
Y179074D01*
X234917D01*
Y180874D01*
D02*
G37*
G36*
X238567Y177574D02*
X236417D01*
Y175774D01*
X238567D01*
Y177574D01*
D02*
G37*
G36*
X234917D02*
X232767D01*
Y175774D01*
X234917D01*
Y177574D01*
D02*
G37*
G36*
X138826Y177689D02*
X136214D01*
Y174447D01*
X138826D01*
Y177689D01*
D02*
G37*
G36*
X134713D02*
X132101D01*
Y174447D01*
X134713D01*
Y177689D01*
D02*
G37*
G36*
X118214Y177589D02*
X111689D01*
Y176874D01*
X111090D01*
X110267Y176766D01*
X109501Y176449D01*
X108843Y175944D01*
X108843Y175944D01*
X107289Y174390D01*
X101593D01*
Y176837D01*
X93493D01*
Y173162D01*
X93217Y172801D01*
X92899Y172035D01*
X92791Y171213D01*
X92899Y170390D01*
X93217Y169624D01*
X93493Y169264D01*
Y168738D01*
X94019D01*
X94380Y168461D01*
X95146Y168144D01*
X95968Y168036D01*
X108605D01*
X108605Y168036D01*
X109428Y168144D01*
X110194Y168461D01*
X110852Y168966D01*
X111691Y169805D01*
X118214D01*
Y177589D01*
D02*
G37*
G36*
X234917Y174575D02*
X232767D01*
Y172775D01*
X234917D01*
Y174575D01*
D02*
G37*
G36*
X88992Y172660D02*
X86183D01*
Y171032D01*
X88992D01*
Y172660D01*
D02*
G37*
G36*
X80725D02*
X77915D01*
Y171032D01*
X80725D01*
Y172660D01*
D02*
G37*
G36*
X84683D02*
X81874D01*
Y171032D01*
X84683D01*
Y172660D01*
D02*
G37*
G36*
X76415D02*
X73606D01*
Y171032D01*
X76415D01*
Y172660D01*
D02*
G37*
G36*
X134713Y172947D02*
X132101D01*
Y169705D01*
X134713D01*
Y172947D01*
D02*
G37*
G36*
X88992Y169532D02*
X86183D01*
Y167904D01*
X88992D01*
Y169532D01*
D02*
G37*
G36*
X84683D02*
X81874D01*
Y167904D01*
X84683D01*
Y169532D01*
D02*
G37*
G36*
X80725D02*
X77915D01*
Y167904D01*
X80725D01*
Y169532D01*
D02*
G37*
G36*
X76415D02*
X73606D01*
Y167904D01*
X76415D01*
Y169532D01*
D02*
G37*
G36*
X25528Y175706D02*
X24265Y175540D01*
X23089Y175052D01*
X22078Y174277D01*
X21303Y173266D01*
X20816Y172090D01*
X20649Y170827D01*
Y162953D01*
X20816Y161690D01*
X21303Y160514D01*
X22078Y159503D01*
X23089Y158728D01*
X24265Y158240D01*
X25528Y158074D01*
X26791Y158240D01*
X27968Y158728D01*
X28978Y159503D01*
X29753Y160514D01*
X30241Y161690D01*
X30407Y162953D01*
Y170827D01*
X30241Y172090D01*
X29753Y173266D01*
X28978Y174277D01*
X27968Y175052D01*
X26791Y175540D01*
X25528Y175706D01*
D02*
G37*
G36*
X123582Y157685D02*
X119159D01*
Y153006D01*
X123582D01*
Y157685D01*
D02*
G37*
G36*
X169860Y155503D02*
X168232D01*
Y152694D01*
X169860D01*
Y155503D01*
D02*
G37*
G36*
X166732D02*
X165104D01*
Y152694D01*
X166732D01*
Y155503D01*
D02*
G37*
G36*
X42064Y152972D02*
X38877D01*
Y148742D01*
X46944D01*
X46874Y149281D01*
X46376Y150482D01*
X45585Y151514D01*
X44553Y152305D01*
X43352Y152802D01*
X42064Y152972D01*
D02*
G37*
G36*
X169860Y151194D02*
X168232D01*
Y148385D01*
X169860D01*
Y151194D01*
D02*
G37*
G36*
X166732D02*
X165104D01*
Y148385D01*
X166732D01*
Y151194D01*
D02*
G37*
G36*
X123582Y151506D02*
X119159D01*
Y146827D01*
X123582D01*
Y151506D01*
D02*
G37*
G36*
X117659D02*
X113236D01*
Y146827D01*
X117659D01*
Y151506D01*
D02*
G37*
G36*
X84540Y149554D02*
X74473D01*
Y145786D01*
X84540D01*
Y149554D01*
D02*
G37*
G36*
X143643Y151172D02*
X139456D01*
Y145016D01*
X143643D01*
Y151172D01*
D02*
G37*
G36*
X169860Y147340D02*
X168232D01*
Y144531D01*
X169860D01*
Y147340D01*
D02*
G37*
G36*
X166732D02*
X165104D01*
Y144531D01*
X166732D01*
Y147340D01*
D02*
G37*
G36*
X46944Y147242D02*
X38877D01*
Y143013D01*
X42064D01*
X43352Y143182D01*
X44553Y143680D01*
X45585Y144471D01*
X46376Y145503D01*
X46874Y146704D01*
X46944Y147242D01*
D02*
G37*
G36*
X216140Y143790D02*
Y142490D01*
X217440D01*
X217239Y142975D01*
X216625Y143589D01*
X216140Y143790D01*
D02*
G37*
G36*
X214640D02*
X214155Y143589D01*
X213541Y142975D01*
X213340Y142490D01*
X214640D01*
Y143790D01*
D02*
G37*
G36*
X186986Y144108D02*
X184177D01*
Y142480D01*
X186986D01*
Y144108D01*
D02*
G37*
G36*
X37376Y152972D02*
X34190D01*
X32901Y152802D01*
X31700Y152305D01*
X30668Y151514D01*
X29877Y150482D01*
X29749Y150173D01*
X23522D01*
Y142246D01*
X35977D01*
Y143013D01*
X37376D01*
Y147992D01*
Y152972D01*
D02*
G37*
G36*
X97064Y141920D02*
X92680D01*
Y140686D01*
X97064D01*
Y141920D01*
D02*
G37*
G36*
X57330Y141880D02*
Y140580D01*
X58630D01*
X58429Y141066D01*
X57815Y141679D01*
X57330Y141880D01*
D02*
G37*
G36*
X55830D02*
X55344Y141679D01*
X54731Y141066D01*
X54530Y140580D01*
X55830D01*
Y141880D01*
D02*
G37*
G36*
X169860Y143031D02*
X168232D01*
Y140222D01*
X169860D01*
Y143031D01*
D02*
G37*
G36*
X166732D02*
X165104D01*
Y140222D01*
X166732D01*
Y143031D01*
D02*
G37*
G36*
X217440Y140990D02*
X216140D01*
Y139690D01*
X216625Y139891D01*
X217239Y140505D01*
X217440Y140990D01*
D02*
G37*
G36*
X214640D02*
X213340D01*
X213541Y140505D01*
X214155Y139891D01*
X214640Y139690D01*
Y140990D01*
D02*
G37*
G36*
X102947Y139654D02*
X98564D01*
Y138420D01*
X102947D01*
Y139654D01*
D02*
G37*
G36*
X97064D02*
X92680D01*
Y138420D01*
X97064D01*
Y139654D01*
D02*
G37*
G36*
X58630Y139080D02*
X57330D01*
Y137780D01*
X57815Y137981D01*
X58429Y138594D01*
X58630Y139080D01*
D02*
G37*
G36*
X55830D02*
X54530D01*
X54731Y138594D01*
X55344Y137981D01*
X55830Y137780D01*
Y139080D01*
D02*
G37*
G36*
X102947Y136920D02*
X98564D01*
Y135686D01*
X102947D01*
Y136920D01*
D02*
G37*
G36*
X97064D02*
X92680D01*
Y135686D01*
X97064D01*
Y136920D01*
D02*
G37*
G36*
X167913Y137590D02*
X166089D01*
Y135568D01*
X167913D01*
Y137590D01*
D02*
G37*
G36*
X35977Y140746D02*
X23522D01*
Y132819D01*
X35977D01*
Y140746D01*
D02*
G37*
G36*
X22022D02*
X9567D01*
Y132819D01*
X22022D01*
Y140746D01*
D02*
G37*
G36*
X167913Y134068D02*
X166089D01*
Y132047D01*
X167913D01*
Y134068D01*
D02*
G37*
G36*
X185877Y137003D02*
X180977D01*
Y131403D01*
X185877D01*
Y131520D01*
X186339Y131711D01*
X188452Y129598D01*
X188596Y129251D01*
X189181Y128666D01*
X189946Y128349D01*
X190774D01*
X191539Y128666D01*
X192124Y129251D01*
X192441Y130016D01*
Y130844D01*
X192124Y131609D01*
X191539Y132194D01*
X191191Y132338D01*
X187957Y135573D01*
X187328Y135993D01*
X186587Y136140D01*
X185877D01*
Y137003D01*
D02*
G37*
G36*
X241840Y90490D02*
X237456D01*
Y89255D01*
X241840D01*
Y90490D01*
D02*
G37*
G36*
X232790Y78400D02*
Y77100D01*
X234090D01*
X233889Y77586D01*
X233276Y78199D01*
X232790Y78400D01*
D02*
G37*
G36*
X231290D02*
X230804Y78199D01*
X230191Y77586D01*
X229990Y77100D01*
X231290D01*
Y78400D01*
D02*
G37*
G36*
X234090Y75600D02*
X232790D01*
Y74300D01*
X233276Y74501D01*
X233889Y75115D01*
X234090Y75600D01*
D02*
G37*
G36*
X231290D02*
X229990D01*
X230191Y75115D01*
X230804Y74501D01*
X231290Y74300D01*
Y75600D01*
D02*
G37*
%LPD*%
G36*
X35421Y209128D02*
Y208971D01*
X38488D01*
Y208221D01*
X39238D01*
Y206040D01*
X41062D01*
X57450Y184480D01*
X62500Y179430D01*
X67101Y172165D01*
X66860Y171727D01*
X48447D01*
Y163106D01*
X47985Y162915D01*
X40270Y170630D01*
Y199050D01*
X34210Y205110D01*
Y208840D01*
X34480D01*
X34959Y209319D01*
X35421Y209128D01*
D02*
G37*
%LPC*%
G36*
X37738Y207471D02*
X35421D01*
Y206040D01*
X37738D01*
Y207471D01*
D02*
G37*
G36*
X53220Y187370D02*
Y186070D01*
X54520D01*
X54319Y186556D01*
X53706Y187169D01*
X53220Y187370D01*
D02*
G37*
G36*
X51720D02*
X51235Y187169D01*
X50621Y186556D01*
X50420Y186070D01*
X51720D01*
Y187370D01*
D02*
G37*
G36*
X54520Y184570D02*
X53220D01*
Y183270D01*
X53706Y183471D01*
X54319Y184084D01*
X54520Y184570D01*
D02*
G37*
G36*
X51720D02*
X50420D01*
X50621Y184084D01*
X51235Y183471D01*
X51720Y183270D01*
Y184570D01*
D02*
G37*
G36*
X267070Y242180D02*
Y240880D01*
X268370D01*
X268169Y241366D01*
X267555Y241979D01*
X267070Y242180D01*
D02*
G37*
G36*
X265570D02*
X265085Y241979D01*
X264471Y241366D01*
X264270Y240880D01*
X265570D01*
Y242180D01*
D02*
G37*
G36*
X281800Y240150D02*
Y238850D01*
X283100D01*
X282899Y239335D01*
X282285Y239949D01*
X281800Y240150D01*
D02*
G37*
G36*
X280300D02*
X279815Y239949D01*
X279201Y239335D01*
X279000Y238850D01*
X280300D01*
Y240150D01*
D02*
G37*
G36*
X268370Y239380D02*
X267070D01*
Y238080D01*
X267555Y238281D01*
X268169Y238895D01*
X268370Y239380D01*
D02*
G37*
G36*
X265570D02*
X264270D01*
X264471Y238895D01*
X265085Y238281D01*
X265570Y238080D01*
Y239380D01*
D02*
G37*
G36*
X283100Y237350D02*
X281800D01*
Y236050D01*
X282285Y236251D01*
X282899Y236864D01*
X283100Y237350D01*
D02*
G37*
G36*
X280300D02*
X279000D01*
X279201Y236864D01*
X279815Y236251D01*
X280300Y236050D01*
Y237350D01*
D02*
G37*
G36*
X273640Y221490D02*
X271490D01*
Y219690D01*
X273640D01*
Y221490D01*
D02*
G37*
G36*
X269990D02*
X267840D01*
Y219690D01*
X269990D01*
Y221490D01*
D02*
G37*
G36*
X273640Y218190D02*
X271490D01*
Y216390D01*
X273640D01*
Y218190D01*
D02*
G37*
G36*
X234570Y222630D02*
Y221330D01*
X235870D01*
X235669Y221815D01*
X235055Y222429D01*
X234570Y222630D01*
D02*
G37*
G36*
X233070D02*
X232585Y222429D01*
X231971Y221815D01*
X231770Y221330D01*
X233070D01*
Y222630D01*
D02*
G37*
G36*
X200223Y222807D02*
X198595D01*
Y219998D01*
X200223D01*
Y222807D01*
D02*
G37*
G36*
X197095D02*
X195467D01*
Y219998D01*
X197095D01*
Y222807D01*
D02*
G37*
G36*
X235870Y219830D02*
X234570D01*
Y218530D01*
X235055Y218731D01*
X235669Y219344D01*
X235870Y219830D01*
D02*
G37*
G36*
X233070D02*
X231770D01*
X231971Y219344D01*
X232585Y218731D01*
X233070Y218530D01*
Y219830D01*
D02*
G37*
G36*
X200223Y218498D02*
X198595D01*
Y215689D01*
X200223D01*
Y218498D01*
D02*
G37*
G36*
X197095D02*
X195467D01*
Y215689D01*
X197095D01*
Y218498D01*
D02*
G37*
G36*
X89632Y253288D02*
Y249128D01*
X93792D01*
X93482Y250284D01*
X92832Y251410D01*
X91913Y252329D01*
X90787Y252979D01*
X89632Y253288D01*
D02*
G37*
G36*
X88132D02*
X86976Y252979D01*
X85850Y252329D01*
X84931Y251410D01*
X84281Y250284D01*
X83971Y249128D01*
X88132D01*
Y253288D01*
D02*
G37*
G36*
X93792Y247628D02*
X89632D01*
Y243468D01*
X90787Y243778D01*
X91913Y244428D01*
X92832Y245347D01*
X93482Y246473D01*
X93792Y247628D01*
D02*
G37*
G36*
X88132D02*
X83971D01*
X84281Y246473D01*
X84931Y245347D01*
X85850Y244428D01*
X86976Y243778D01*
X88132Y243468D01*
Y247628D01*
D02*
G37*
G36*
X118314Y212099D02*
X115702D01*
Y208857D01*
X118314D01*
Y212099D01*
D02*
G37*
G36*
X114202D02*
X111590D01*
Y208857D01*
X114202D01*
Y212099D01*
D02*
G37*
G36*
X118314Y207357D02*
X115702D01*
Y204114D01*
X118314D01*
Y207357D01*
D02*
G37*
G36*
X114202D02*
X111590D01*
Y204114D01*
X114202D01*
Y207357D01*
D02*
G37*
G36*
X168372Y253288D02*
Y249128D01*
X172532D01*
X172222Y250284D01*
X171572Y251410D01*
X170653Y252329D01*
X169527Y252979D01*
X168372Y253288D01*
D02*
G37*
G36*
X166872D02*
X165716Y252979D01*
X164590Y252329D01*
X163671Y251410D01*
X163021Y250284D01*
X162712Y249128D01*
X166872D01*
Y253288D01*
D02*
G37*
G36*
X172532Y247628D02*
X168372D01*
Y243468D01*
X169527Y243778D01*
X170653Y244428D01*
X171572Y245347D01*
X172222Y246473D01*
X172532Y247628D01*
D02*
G37*
G36*
X166872D02*
X162712D01*
X163021Y246473D01*
X163671Y245347D01*
X164590Y244428D01*
X165716Y243778D01*
X166872Y243468D01*
Y247628D01*
D02*
G37*
G36*
X138826Y212099D02*
X136214D01*
Y208857D01*
X138826D01*
Y212099D01*
D02*
G37*
G36*
X134713D02*
X132101D01*
Y208857D01*
X134713D01*
Y212099D01*
D02*
G37*
G36*
X138826Y207357D02*
X136214D01*
Y204114D01*
X138826D01*
Y207357D01*
D02*
G37*
G36*
X134713D02*
X132101D01*
Y204114D01*
X134713D01*
Y207357D01*
D02*
G37*
G36*
X296020Y193419D02*
X294642D01*
Y190860D01*
X296020D01*
Y193419D01*
D02*
G37*
G36*
X312627Y181489D02*
X309818D01*
Y179861D01*
X312627D01*
Y181489D01*
D02*
G37*
G36*
X308317D02*
X305508D01*
Y179861D01*
X308317D01*
Y181489D01*
D02*
G37*
G36*
X303965D02*
X301156D01*
Y179861D01*
X303965D01*
Y181489D01*
D02*
G37*
G36*
X312627Y178361D02*
X309818D01*
Y176733D01*
X312627D01*
Y178361D01*
D02*
G37*
G36*
X308317D02*
X305508D01*
Y176733D01*
X308317D01*
Y178361D01*
D02*
G37*
G36*
X303965Y178361D02*
X301156D01*
Y176733D01*
X303965D01*
Y178361D01*
D02*
G37*
G36*
X48156Y307242D02*
Y303082D01*
X52316D01*
X52006Y304237D01*
X51356Y305363D01*
X50437Y306282D01*
X49311Y306932D01*
X48156Y307242D01*
D02*
G37*
G36*
X46656D02*
X45500Y306932D01*
X44374Y306282D01*
X43455Y305363D01*
X42805Y304237D01*
X42496Y303082D01*
X46656D01*
Y307242D01*
D02*
G37*
G36*
X52316Y301582D02*
X48156D01*
Y297422D01*
X49311Y297731D01*
X50437Y298381D01*
X51356Y299300D01*
X52006Y300426D01*
X52316Y301582D01*
D02*
G37*
G36*
X46656D02*
X42496D01*
X42805Y300426D01*
X43455Y299300D01*
X44374Y298381D01*
X45500Y297731D01*
X46656Y297422D01*
Y301582D01*
D02*
G37*
G36*
X48293Y256832D02*
Y252672D01*
X52453D01*
X52144Y253827D01*
X51494Y254953D01*
X50574Y255872D01*
X49449Y256522D01*
X48293Y256832D01*
D02*
G37*
G36*
X46793D02*
X45638Y256522D01*
X44512Y255872D01*
X43593Y254953D01*
X42943Y253827D01*
X42633Y252672D01*
X46793D01*
Y256832D01*
D02*
G37*
G36*
X52453Y251171D02*
X48293D01*
Y247011D01*
X49449Y247321D01*
X50574Y247971D01*
X51494Y248890D01*
X52144Y250016D01*
X52453Y251171D01*
D02*
G37*
G36*
X46793D02*
X42633D01*
X42943Y250016D01*
X43593Y248890D01*
X44512Y247971D01*
X45638Y247321D01*
X46793Y247011D01*
Y251171D01*
D02*
G37*
G36*
X52579Y210402D02*
X50262D01*
Y208971D01*
X52579D01*
Y210402D01*
D02*
G37*
G36*
X48762D02*
X46445D01*
Y208971D01*
X48762D01*
Y210402D01*
D02*
G37*
G36*
X52579Y207471D02*
X50262D01*
Y206040D01*
X52579D01*
Y207471D01*
D02*
G37*
G36*
X48762D02*
X46445D01*
Y206040D01*
X48762D01*
Y207471D01*
D02*
G37*
G36*
X101693Y191111D02*
X98293D01*
Y187711D01*
X101693D01*
Y191111D01*
D02*
G37*
G36*
X96793D02*
X93393D01*
Y187711D01*
X96793D01*
Y191111D01*
D02*
G37*
G36*
X101693Y186211D02*
X98293D01*
Y182811D01*
X101693D01*
Y186211D01*
D02*
G37*
G36*
X96793D02*
X93393D01*
Y182811D01*
X96793D01*
Y186211D01*
D02*
G37*
G36*
X334780Y242727D02*
X330770D01*
Y240430D01*
X334780D01*
Y242727D01*
D02*
G37*
G36*
X329270D02*
X325260D01*
Y240430D01*
X329270D01*
Y242727D01*
D02*
G37*
G36*
X334780Y238930D02*
X330770D01*
Y236632D01*
X334780D01*
Y238930D01*
D02*
G37*
G36*
X329270D02*
X325260D01*
Y236632D01*
X329270D01*
Y238930D01*
D02*
G37*
G36*
X304400Y237100D02*
Y235800D01*
X305700D01*
X305499Y236285D01*
X304886Y236899D01*
X304400Y237100D01*
D02*
G37*
G36*
X302900D02*
X302414Y236899D01*
X301801Y236285D01*
X301600Y235800D01*
X302900D01*
Y237100D01*
D02*
G37*
G36*
X313540Y235580D02*
Y234280D01*
X314840D01*
X314639Y234766D01*
X314025Y235379D01*
X313540Y235580D01*
D02*
G37*
G36*
X312040D02*
X311555Y235379D01*
X310941Y234766D01*
X310740Y234280D01*
X312040D01*
Y235580D01*
D02*
G37*
G36*
X305700Y234300D02*
X304400D01*
Y233000D01*
X304886Y233201D01*
X305499Y233815D01*
X305700Y234300D01*
D02*
G37*
G36*
X302900D02*
X301600D01*
X301801Y233815D01*
X302414Y233201D01*
X302900Y233000D01*
Y234300D01*
D02*
G37*
G36*
X314840Y232780D02*
X313540D01*
Y231480D01*
X314025Y231681D01*
X314639Y232295D01*
X314840Y232780D01*
D02*
G37*
G36*
X312040D02*
X310740D01*
X310941Y232295D01*
X311555Y231681D01*
X312040Y231480D01*
Y232780D01*
D02*
G37*
G36*
X303790Y196980D02*
Y195680D01*
X305090D01*
X304889Y196166D01*
X304275Y196779D01*
X303790Y196980D01*
D02*
G37*
G36*
X302290D02*
X301804Y196779D01*
X301191Y196166D01*
X300990Y195680D01*
X302290D01*
Y196980D01*
D02*
G37*
G36*
X305090Y194180D02*
X300990D01*
X301191Y193694D01*
X301804Y193081D01*
X302122Y192949D01*
Y190610D01*
X304500D01*
X306878D01*
Y193419D01*
X305267D01*
X304982Y193919D01*
X305090Y194180D01*
D02*
G37*
G36*
X306878Y189110D02*
X305250D01*
Y186301D01*
X306878D01*
Y189110D01*
D02*
G37*
G36*
X303750D02*
X302122D01*
Y186301D01*
X303750D01*
Y189110D01*
D02*
G37*
G36*
X321288Y170881D02*
X318479D01*
Y169253D01*
X321288D01*
Y170881D01*
D02*
G37*
G36*
X316979D02*
X314170D01*
Y169253D01*
X316979D01*
Y170881D01*
D02*
G37*
G36*
X312627Y170881D02*
X309818D01*
Y169253D01*
X312627D01*
Y170881D01*
D02*
G37*
G36*
X308317D02*
X305508D01*
Y169253D01*
X308317D01*
Y170881D01*
D02*
G37*
G36*
X303965Y170881D02*
X301156D01*
Y169253D01*
X303965D01*
Y170881D01*
D02*
G37*
G36*
X345030Y157620D02*
Y156320D01*
X346330D01*
X346129Y156806D01*
X345515Y157419D01*
X345030Y157620D01*
D02*
G37*
G36*
X343530D02*
X343044Y157419D01*
X342431Y156806D01*
X342230Y156320D01*
X343530D01*
Y157620D01*
D02*
G37*
G36*
X346330Y154820D02*
X345030D01*
Y153520D01*
X345515Y153721D01*
X346129Y154334D01*
X346330Y154820D01*
D02*
G37*
G36*
X343530D02*
X342230D01*
X342431Y154334D01*
X343044Y153721D01*
X343530Y153520D01*
Y154820D01*
D02*
G37*
G36*
X338680Y152030D02*
Y150730D01*
X339980D01*
X339779Y151216D01*
X339165Y151829D01*
X338680Y152030D01*
D02*
G37*
G36*
X337180D02*
X336695Y151829D01*
X336081Y151216D01*
X335880Y150730D01*
X337180D01*
Y152030D01*
D02*
G37*
G36*
X289703Y151343D02*
X286894D01*
Y149715D01*
X289703D01*
Y151343D01*
D02*
G37*
G36*
X339980Y149230D02*
X338680D01*
Y147930D01*
X339165Y148131D01*
X339779Y148744D01*
X339980Y149230D01*
D02*
G37*
G36*
X337180D02*
X335880D01*
X336081Y148744D01*
X336695Y148131D01*
X337180Y147930D01*
Y149230D01*
D02*
G37*
G36*
X296951Y150808D02*
X292051D01*
Y148298D01*
X290106Y146353D01*
X289703Y146657D01*
X289703Y147058D01*
Y148215D01*
X286894D01*
Y146587D01*
X289208D01*
X289633Y146587D01*
X289937Y146184D01*
X287806Y144054D01*
X287386Y143425D01*
X287239Y142684D01*
Y139468D01*
X286289Y138517D01*
X284751D01*
X284404Y138661D01*
X283576D01*
X282811Y138344D01*
X282226Y137759D01*
X281909Y136994D01*
Y136166D01*
X282226Y135401D01*
X282811Y134816D01*
X283576Y134499D01*
X284404D01*
X284751Y134643D01*
X287091D01*
X287832Y134790D01*
X288461Y135210D01*
X290546Y137295D01*
X290966Y137924D01*
X291113Y138665D01*
Y141881D01*
X294440Y145208D01*
X296951D01*
Y150808D01*
D02*
G37*
G36*
X271360Y151202D02*
X266460D01*
Y145602D01*
X267228D01*
Y145070D01*
X267356Y144426D01*
X267720Y143880D01*
X269039Y142562D01*
Y142446D01*
X269356Y141681D01*
X269941Y141096D01*
X270706Y140779D01*
X271534D01*
X272299Y141096D01*
X272884Y141681D01*
X273201Y142446D01*
Y143274D01*
X272884Y144039D01*
X272299Y144624D01*
X271534Y144941D01*
X271267Y145379D01*
X271360Y145602D01*
X271360D01*
Y151202D01*
D02*
G37*
G36*
X309549Y150808D02*
X304649D01*
Y145208D01*
X307192D01*
X308043Y144357D01*
Y144270D01*
X308170Y143632D01*
X308531Y143092D01*
X312169Y139454D01*
Y139316D01*
X312486Y138551D01*
X313071Y137966D01*
X313836Y137649D01*
X314664D01*
X315429Y137966D01*
X316014Y138551D01*
X316331Y139316D01*
Y140144D01*
X316014Y140909D01*
X315429Y141494D01*
X314664Y141811D01*
X314526D01*
X311377Y144961D01*
Y145047D01*
X311250Y145685D01*
X310888Y146226D01*
X309549Y147565D01*
Y150808D01*
D02*
G37*
G36*
X303250D02*
X298350D01*
Y145208D01*
X299133D01*
Y144608D01*
X299260Y143970D01*
X299621Y143430D01*
X306998Y136052D01*
X307173Y135935D01*
X307196Y135881D01*
X307781Y135296D01*
X308546Y134979D01*
X309374D01*
X310139Y135296D01*
X310724Y135881D01*
X311041Y136646D01*
Y137474D01*
X310724Y138239D01*
X310139Y138824D01*
X309374Y139141D01*
X308624D01*
X303019Y144746D01*
X303210Y145208D01*
X303250D01*
Y150808D01*
D02*
G37*
G36*
X337150Y122580D02*
Y121280D01*
X338450D01*
X338249Y121765D01*
X337635Y122379D01*
X337150Y122580D01*
D02*
G37*
G36*
X335650D02*
X335164Y122379D01*
X334551Y121765D01*
X334350Y121280D01*
X335650D01*
Y122580D01*
D02*
G37*
G36*
X338450Y119780D02*
X337150D01*
Y118480D01*
X337635Y118681D01*
X338249Y119295D01*
X338450Y119780D01*
D02*
G37*
G36*
X335650D02*
X334350D01*
X334551Y119295D01*
X335164Y118681D01*
X335650Y118480D01*
Y119780D01*
D02*
G37*
G36*
X348330Y97190D02*
Y95890D01*
X349630D01*
X349429Y96376D01*
X348815Y96989D01*
X348330Y97190D01*
D02*
G37*
G36*
X346830D02*
X346344Y96989D01*
X345731Y96376D01*
X345530Y95890D01*
X346830D01*
Y97190D01*
D02*
G37*
G36*
X331681Y96787D02*
X330053D01*
Y93978D01*
X331681D01*
Y96787D01*
D02*
G37*
G36*
X328553D02*
X326925D01*
Y93978D01*
X328553D01*
Y96787D01*
D02*
G37*
G36*
X349630Y94390D02*
X348330D01*
Y93090D01*
X348815Y93291D01*
X349429Y93905D01*
X349630Y94390D01*
D02*
G37*
G36*
X346830D02*
X345530D01*
X345731Y93905D01*
X346344Y93291D01*
X346830Y93090D01*
Y94390D01*
D02*
G37*
G36*
X331681Y92478D02*
X329303D01*
X326925D01*
Y89725D01*
X326925Y89669D01*
X327122Y89250D01*
X327122Y89169D01*
Y86497D01*
X329500D01*
X331878D01*
Y89250D01*
X331878Y89306D01*
X331681Y89725D01*
X331681Y89806D01*
Y92478D01*
D02*
G37*
G36*
X331878Y84997D02*
X330250D01*
Y82188D01*
X331878D01*
Y84997D01*
D02*
G37*
G36*
X328750D02*
X327122D01*
Y82188D01*
X328750D01*
Y84997D01*
D02*
G37*
G36*
X301208Y39933D02*
X298399D01*
Y38305D01*
X301208D01*
Y39933D01*
D02*
G37*
G36*
X296899D02*
X294090D01*
Y38305D01*
X296899D01*
Y39933D01*
D02*
G37*
G36*
X301208Y36805D02*
X298399D01*
Y35177D01*
X301208D01*
Y36805D01*
D02*
G37*
G36*
X296899D02*
X294090D01*
Y35177D01*
X296899D01*
Y36805D01*
D02*
G37*
G36*
X292140Y35360D02*
Y34060D01*
X293440D01*
X293239Y34545D01*
X292625Y35159D01*
X292140Y35360D01*
D02*
G37*
G36*
X290640D02*
X290155Y35159D01*
X289541Y34545D01*
X289340Y34060D01*
X290640D01*
Y35360D01*
D02*
G37*
G36*
X293440Y32560D02*
X292140D01*
Y31260D01*
X292625Y31461D01*
X293239Y32074D01*
X293440Y32560D01*
D02*
G37*
G36*
X290640D02*
X289340D01*
X289541Y32074D01*
X290155Y31461D01*
X290640Y31260D01*
Y32560D01*
D02*
G37*
G36*
X346191Y37740D02*
X342310D01*
X338429D01*
X338439Y37664D01*
X338758Y36894D01*
X339265Y36233D01*
X339878Y35762D01*
X339916Y35568D01*
X339893Y35198D01*
X339336Y34771D01*
X338845Y34130D01*
X338536Y33385D01*
X338431Y32585D01*
X338536Y31784D01*
X338845Y31039D01*
X339336Y30398D01*
X339977Y29907D01*
X340722Y29598D01*
X341523Y29493D01*
X343097D01*
X343898Y29598D01*
X344643Y29907D01*
X345284Y30398D01*
X345775Y31039D01*
X346084Y31784D01*
X346189Y32585D01*
X346084Y33385D01*
X345775Y34130D01*
X345284Y34771D01*
X344727Y35198D01*
X344704Y35568D01*
X344742Y35762D01*
X345355Y36233D01*
X345862Y36894D01*
X346181Y37664D01*
X346191Y37740D01*
D02*
G37*
G36*
X301108Y32353D02*
X294190D01*
Y29888D01*
X293417Y29115D01*
X291550D01*
X290984Y29002D01*
X290505Y28682D01*
X290184Y28202D01*
X290072Y27636D01*
Y27445D01*
X289786Y27159D01*
X289469Y26394D01*
Y25566D01*
X289786Y24801D01*
X290371Y24216D01*
X291136Y23899D01*
X291964D01*
X292729Y24216D01*
X293314Y24801D01*
X293631Y25566D01*
Y26158D01*
X294029D01*
X294595Y26270D01*
X295074Y26591D01*
X296280Y27797D01*
X301108D01*
Y32353D01*
D02*
G37*
G36*
X186986Y154716D02*
X184177D01*
Y153088D01*
X186986D01*
Y154716D01*
D02*
G37*
G36*
X182677D02*
X179868D01*
Y153088D01*
X182677D01*
Y154716D01*
D02*
G37*
G36*
X177341Y155503D02*
X175713D01*
Y152694D01*
X177341D01*
Y155503D01*
D02*
G37*
G36*
X174213D02*
X172585D01*
Y152694D01*
X174213D01*
Y155503D01*
D02*
G37*
G36*
X186986Y151588D02*
X184177D01*
Y149960D01*
X186986D01*
Y151588D01*
D02*
G37*
G36*
X182677D02*
X179868D01*
Y149960D01*
X182677D01*
Y151588D01*
D02*
G37*
G36*
X177341Y151194D02*
X175713D01*
Y148385D01*
X177341D01*
Y151194D01*
D02*
G37*
G36*
X174213D02*
X172585D01*
Y148385D01*
X174213D01*
Y151194D01*
D02*
G37*
G36*
X177341Y147340D02*
X175713D01*
Y144531D01*
X177341D01*
Y147340D01*
D02*
G37*
G36*
X174213D02*
X172585D01*
Y144531D01*
X174213D01*
Y147340D01*
D02*
G37*
G36*
X177341Y143031D02*
X175713D01*
Y140222D01*
X177341D01*
Y143031D01*
D02*
G37*
G36*
X174213D02*
X172585D01*
Y140222D01*
X174213D01*
Y143031D01*
D02*
G37*
G36*
X312828Y99169D02*
Y97935D01*
X317212D01*
Y99169D01*
X312828D01*
D02*
G37*
G36*
X317212Y96434D02*
X312828D01*
Y95200D01*
X317212D01*
Y96434D01*
D02*
G37*
G36*
X311329D02*
X306945D01*
Y95200D01*
X311329D01*
Y96434D01*
D02*
G37*
G36*
X324201Y96787D02*
X322573D01*
Y93978D01*
X324201D01*
Y96787D01*
D02*
G37*
G36*
X321073D02*
X319445D01*
Y93978D01*
X321073D01*
Y96787D01*
D02*
G37*
G36*
X324201Y92478D02*
X321823D01*
X319445D01*
Y89725D01*
X319445Y89669D01*
X319641Y89250D01*
X319641Y89169D01*
Y86497D01*
X322019D01*
X324397D01*
Y89250D01*
X324397Y89306D01*
X324201Y89725D01*
X324201Y89806D01*
Y92478D01*
D02*
G37*
G36*
X324397Y84997D02*
X322769D01*
Y82188D01*
X324397D01*
Y84997D01*
D02*
G37*
G36*
X321269D02*
X319641D01*
Y82188D01*
X321269D01*
Y84997D01*
D02*
G37*
G36*
X329410Y74560D02*
Y73260D01*
X330710D01*
X330509Y73746D01*
X329895Y74359D01*
X329410Y74560D01*
D02*
G37*
G36*
X279319Y93659D02*
X277691D01*
Y90850D01*
X279319D01*
Y93659D01*
D02*
G37*
G36*
X298905Y84169D02*
X294521D01*
Y82934D01*
X298905D01*
Y84169D01*
D02*
G37*
G36*
X293021D02*
X288638D01*
Y82934D01*
X293021D01*
Y84169D01*
D02*
G37*
G36*
X298905Y81435D02*
X294521D01*
Y80200D01*
X298905D01*
Y81435D01*
D02*
G37*
G36*
X293021D02*
X288638D01*
Y80200D01*
X293021D01*
Y81435D01*
D02*
G37*
G36*
X299020Y73800D02*
Y72500D01*
X300320D01*
X300119Y72986D01*
X299505Y73599D01*
X299020Y73800D01*
D02*
G37*
G36*
X297520D02*
X297035Y73599D01*
X296421Y72986D01*
X296220Y72500D01*
X297520D01*
Y73800D01*
D02*
G37*
G36*
X300320Y71000D02*
X299020D01*
Y69700D01*
X299505Y69901D01*
X300119Y70515D01*
X300320Y71000D01*
D02*
G37*
G36*
X297520D02*
X296220D01*
X296421Y70515D01*
X297035Y69901D01*
X297520Y69700D01*
Y71000D01*
D02*
G37*
G36*
X264040Y119070D02*
Y117770D01*
X265340D01*
X265139Y118255D01*
X264526Y118869D01*
X264040Y119070D01*
D02*
G37*
G36*
X262540D02*
X262054Y118869D01*
X261441Y118255D01*
X261240Y117770D01*
X262540D01*
Y119070D01*
D02*
G37*
G36*
X260323Y116669D02*
X258006D01*
Y115238D01*
X260323D01*
Y116669D01*
D02*
G37*
G36*
X256506D02*
X254189D01*
Y115238D01*
X256506D01*
Y116669D01*
D02*
G37*
G36*
X265340Y116270D02*
X264040D01*
Y114970D01*
X264526Y115171D01*
X265139Y115785D01*
X265340Y116270D01*
D02*
G37*
G36*
X262540D02*
X261240D01*
X261441Y115785D01*
X262054Y115171D01*
X262540Y114970D01*
Y116270D01*
D02*
G37*
G36*
X263930Y114050D02*
Y112750D01*
X265230D01*
X265029Y113235D01*
X264416Y113849D01*
X263930Y114050D01*
D02*
G37*
G36*
X262430D02*
X261945Y113849D01*
X261331Y113235D01*
X261130Y112750D01*
X262430D01*
Y114050D01*
D02*
G37*
G36*
X260323Y113738D02*
X258006D01*
Y112306D01*
X260289D01*
X260323Y112566D01*
Y113738D01*
D02*
G37*
G36*
X256506D02*
X254189D01*
Y112306D01*
X256506D01*
Y113738D01*
D02*
G37*
G36*
X269066Y112819D02*
Y111519D01*
X270366D01*
X270165Y112004D01*
X269551Y112618D01*
X269066Y112819D01*
D02*
G37*
G36*
X267566D02*
X267080Y112618D01*
X266467Y112004D01*
X266266Y111519D01*
X267566D01*
Y112819D01*
D02*
G37*
G36*
X265230Y111250D02*
X263930D01*
Y109950D01*
X264416Y110151D01*
X265029Y110765D01*
X265230Y111250D01*
D02*
G37*
G36*
X262430D02*
X261130D01*
X261331Y110765D01*
X261945Y110151D01*
X262430Y109950D01*
Y111250D01*
D02*
G37*
G36*
X270366Y110019D02*
X269066D01*
Y108719D01*
X269551Y108920D01*
X270165Y109533D01*
X270366Y110019D01*
D02*
G37*
G36*
X267566D02*
X266266D01*
X266467Y109533D01*
X267080Y108920D01*
X267566Y108719D01*
Y110019D01*
D02*
G37*
G36*
X271838Y106629D02*
X270210D01*
Y103820D01*
X271838D01*
Y106629D01*
D02*
G37*
G36*
X268710D02*
X267083D01*
Y103820D01*
X268710D01*
Y106629D01*
D02*
G37*
G36*
X271838Y102320D02*
X270210D01*
Y99511D01*
X271838D01*
Y102320D01*
D02*
G37*
G36*
X268710D02*
X267083D01*
Y99511D01*
X268710D01*
Y102320D01*
D02*
G37*
G36*
X271838Y97968D02*
X270210D01*
Y95159D01*
X271838D01*
Y97968D01*
D02*
G37*
G36*
X268710D02*
X267083D01*
Y95159D01*
X268710D01*
Y97968D01*
D02*
G37*
G36*
X271838Y93659D02*
X270210D01*
Y90850D01*
X271838D01*
Y93659D01*
D02*
G37*
G36*
X268710D02*
X267083D01*
Y90850D01*
X268710D01*
Y93659D01*
D02*
G37*
G36*
X263574Y87531D02*
X261774D01*
Y85381D01*
X263574D01*
Y87531D01*
D02*
G37*
G36*
X260274D02*
X258474D01*
Y85381D01*
X260274D01*
Y87531D01*
D02*
G37*
G36*
X272010Y87467D02*
X270210D01*
Y85317D01*
X272010D01*
Y87467D01*
D02*
G37*
G36*
X268710D02*
X266910D01*
Y85317D01*
X268710D01*
Y87467D01*
D02*
G37*
G36*
X263574Y83881D02*
X261774D01*
Y81731D01*
X263574D01*
Y83881D01*
D02*
G37*
G36*
X260274D02*
X258474D01*
Y81731D01*
X260274D01*
Y83881D01*
D02*
G37*
G36*
X47664Y36981D02*
X46036D01*
Y34172D01*
X47664D01*
Y36981D01*
D02*
G37*
G36*
X44536D02*
X42908D01*
Y34172D01*
X44536D01*
Y36981D01*
D02*
G37*
G36*
X51870Y34350D02*
Y33050D01*
X53170D01*
X52969Y33536D01*
X52355Y34149D01*
X51870Y34350D01*
D02*
G37*
G36*
X50370D02*
X49885Y34149D01*
X49271Y33536D01*
X49070Y33050D01*
X50370D01*
Y34350D01*
D02*
G37*
G36*
X61178Y32081D02*
X59028D01*
Y30281D01*
X61178D01*
Y32081D01*
D02*
G37*
G36*
X57528D02*
X55378D01*
Y30281D01*
X57528D01*
Y32081D01*
D02*
G37*
G36*
X53170Y31550D02*
X51870D01*
Y30250D01*
X52355Y30451D01*
X52969Y31065D01*
X53170Y31550D01*
D02*
G37*
G36*
X50370D02*
X49070D01*
X49271Y31065D01*
X49885Y30451D01*
X50370Y30250D01*
Y31550D01*
D02*
G37*
G36*
X47664Y32672D02*
X46036D01*
Y29863D01*
X47664D01*
Y32672D01*
D02*
G37*
G36*
X44536D02*
X42908D01*
Y29863D01*
X44536D01*
Y32672D01*
D02*
G37*
G36*
X61178Y28781D02*
X59028D01*
Y26981D01*
X61178D01*
Y28781D01*
D02*
G37*
G36*
X57528D02*
X55378D01*
Y26981D01*
X57528D01*
Y28781D01*
D02*
G37*
G36*
X47664Y27138D02*
X46036D01*
Y24329D01*
X47664D01*
Y27138D01*
D02*
G37*
G36*
X44536D02*
X42908D01*
Y24329D01*
X44536D01*
Y27138D01*
D02*
G37*
G36*
X47664Y22829D02*
X46036D01*
Y20020D01*
X47664D01*
Y22829D01*
D02*
G37*
G36*
X44536D02*
X42908D01*
Y20020D01*
X44536D01*
Y22829D01*
D02*
G37*
G36*
X47664Y17690D02*
X46036D01*
Y14881D01*
X47664D01*
Y17690D01*
D02*
G37*
G36*
X44536D02*
X42908D01*
Y14881D01*
X44536D01*
Y17690D01*
D02*
G37*
G36*
X47664Y13381D02*
X46036D01*
Y10571D01*
X47664D01*
Y13381D01*
D02*
G37*
G36*
X44536D02*
X42908D01*
Y10571D01*
X44536D01*
Y13381D01*
D02*
G37*
G36*
X439082Y139425D02*
Y137303D01*
X441205D01*
X441099Y137699D01*
X440708Y138376D01*
X440155Y138928D01*
X439478Y139319D01*
X439082Y139425D01*
D02*
G37*
G36*
X437582Y139425D02*
X437187Y139319D01*
X436510Y138928D01*
X435957Y138376D01*
X435566Y137699D01*
X435460Y137303D01*
X437582D01*
Y139425D01*
D02*
G37*
G36*
X452883Y140209D02*
X452128D01*
X451398Y140013D01*
X450744Y139636D01*
X450210Y139102D01*
X449833Y138447D01*
X449637Y137718D01*
Y136963D01*
X449833Y136233D01*
X450210Y135579D01*
X450744Y135045D01*
X451398Y134667D01*
X452128Y134472D01*
X452883D01*
X453613Y134667D01*
X454267Y135045D01*
X454801Y135579D01*
X455179Y136233D01*
X455374Y136963D01*
Y137718D01*
X455179Y138447D01*
X454801Y139102D01*
X454267Y139636D01*
X453613Y140013D01*
X452883Y140209D01*
D02*
G37*
G36*
X441205Y135803D02*
X439082D01*
Y133681D01*
X439478Y133787D01*
X440155Y134177D01*
X440708Y134730D01*
X441099Y135407D01*
X441205Y135803D01*
D02*
G37*
G36*
X452401Y126104D02*
X451646D01*
X450916Y125909D01*
X450262Y125531D01*
X449728Y124997D01*
X449350Y124343D01*
X449155Y123614D01*
Y122858D01*
X449350Y122129D01*
X449728Y121475D01*
X450262Y120940D01*
X450916Y120563D01*
X451646Y120367D01*
X452401D01*
X453130Y120563D01*
X453785Y120940D01*
X454319Y121475D01*
X454696Y122129D01*
X454892Y122858D01*
Y123614D01*
X454696Y124343D01*
X454319Y124997D01*
X453785Y125531D01*
X453130Y125909D01*
X452401Y126104D01*
D02*
G37*
G36*
X414271Y100341D02*
X413786Y100140D01*
X413698Y100052D01*
X410379D01*
X410379Y100052D01*
X409735Y99924D01*
X409189Y99560D01*
X399710Y90081D01*
X399346Y89535D01*
X399218Y88891D01*
Y38679D01*
X399346Y38035D01*
X399710Y37489D01*
X400589Y36610D01*
X401135Y36246D01*
X401779Y36118D01*
X405763D01*
X406406Y36246D01*
X406952Y36610D01*
X407443Y36450D01*
X408733Y35160D01*
X408798Y34985D01*
X408785Y34500D01*
X408425Y34030D01*
X408116Y33285D01*
X408011Y32484D01*
X408116Y31684D01*
X408425Y30939D01*
X408916Y30298D01*
X409557Y29807D01*
X410302Y29498D01*
X411103Y29393D01*
X412677D01*
X413478Y29498D01*
X414223Y29807D01*
X414864Y30298D01*
X415355Y30939D01*
X415664Y31684D01*
X415769Y32484D01*
X415664Y33285D01*
X415355Y34030D01*
X415111Y34348D01*
X415283Y34883D01*
X415311Y34909D01*
X415584Y35091D01*
X415783Y35389D01*
X415853Y35740D01*
Y36395D01*
X416704Y37246D01*
X416903Y37544D01*
X416973Y37895D01*
Y39035D01*
X416903Y39386D01*
X416704Y39684D01*
X414889Y41499D01*
X414864Y42109D01*
X415355Y42750D01*
X415664Y43495D01*
X415769Y44295D01*
X415664Y45096D01*
X415355Y45841D01*
X414864Y46482D01*
X414223Y46973D01*
X414162Y46998D01*
Y47498D01*
X414223Y47523D01*
X414864Y48015D01*
X414974Y48159D01*
X415511Y48183D01*
X415799Y47896D01*
X416314Y47682D01*
X416756Y47240D01*
X417384Y46820D01*
X418126Y46673D01*
X428949D01*
X429296Y46529D01*
X430124D01*
X430889Y46846D01*
X431474Y47431D01*
X431791Y48196D01*
Y49024D01*
X431474Y49789D01*
X430889Y50374D01*
X430124Y50691D01*
X429296D01*
X428949Y50547D01*
X418928D01*
X418817Y50659D01*
X418742Y50839D01*
X418157Y51424D01*
X417555Y51674D01*
X417080Y51991D01*
X416339Y52138D01*
X415496D01*
X415478Y52184D01*
X415413Y52638D01*
X415619Y52776D01*
X415818Y53073D01*
X415888Y53425D01*
Y54324D01*
X416739Y55176D01*
X416938Y55473D01*
X417008Y55825D01*
Y56964D01*
X416984Y57085D01*
X416975Y57208D01*
X416949Y57259D01*
X416938Y57316D01*
X416869Y57418D01*
X416814Y57528D01*
X416771Y57565D01*
X416739Y57613D01*
X416637Y57682D01*
X416544Y57762D01*
X415787Y58192D01*
X415742Y58323D01*
X415707Y58813D01*
X415818Y58979D01*
X415888Y59330D01*
Y60230D01*
X415987Y60330D01*
X431192D01*
X431836Y60458D01*
X432382Y60822D01*
X439297Y67738D01*
X439759Y67546D01*
Y18778D01*
X439484Y18351D01*
X438656D01*
X437891Y18034D01*
X437306Y17449D01*
X436989Y16684D01*
Y15856D01*
X437306Y15091D01*
X437891Y14506D01*
X438656Y14189D01*
X439484D01*
X439999Y14402D01*
X440413D01*
X441154Y14549D01*
X441783Y14969D01*
X443066Y16253D01*
X443486Y16881D01*
X443633Y17623D01*
Y78200D01*
X443777Y78548D01*
Y79376D01*
X443460Y80141D01*
X442875Y80726D01*
X442316Y80957D01*
X442090Y81114D01*
X441964Y81543D01*
X442032Y81885D01*
Y90950D01*
X443150D01*
Y95850D01*
X437550D01*
Y90950D01*
X438668D01*
Y82582D01*
X437876Y81790D01*
X437712Y81546D01*
X437212Y81697D01*
Y83641D01*
X437084Y84285D01*
X436720Y84831D01*
X435841Y85710D01*
X435295Y86074D01*
X434651Y86202D01*
X434045D01*
Y86970D01*
X428445D01*
Y82070D01*
X431946D01*
X432045Y81570D01*
X431621Y81394D01*
X431539Y81312D01*
X409079D01*
X408941Y81450D01*
X408875Y81781D01*
X408511Y82327D01*
X407846Y82991D01*
Y83340D01*
X407529Y84105D01*
X406944Y84691D01*
X406179Y85008D01*
X405351D01*
X404586Y84691D01*
X404001Y84105D01*
X403684Y83340D01*
Y82512D01*
X404001Y81748D01*
X404586Y81162D01*
X405151Y80928D01*
X405701Y80378D01*
X405767Y80047D01*
X406131Y79501D01*
X407140Y78492D01*
X407109Y78277D01*
X406963Y77992D01*
X404860D01*
X404860Y77992D01*
X404216Y77864D01*
X403670Y77500D01*
X403044Y76873D01*
X402582Y77065D01*
Y88195D01*
X411075Y96688D01*
X413540D01*
X413786Y96442D01*
X414271Y96241D01*
Y98291D01*
Y100341D01*
D02*
G37*
G36*
X437582Y135803D02*
X435203D01*
X421076Y121675D01*
X420711Y121130D01*
X420583Y120486D01*
Y100052D01*
X416344D01*
X416257Y100140D01*
X415771Y100341D01*
Y98291D01*
Y96241D01*
X416257Y96442D01*
X416502Y96688D01*
X420256D01*
Y91928D01*
X420298D01*
X420566Y91428D01*
X420430Y91225D01*
X420302Y90581D01*
Y87131D01*
X420430Y86487D01*
X420795Y85941D01*
X422145Y84591D01*
Y82070D01*
X427745D01*
Y86970D01*
X424524D01*
X423667Y87827D01*
Y89885D01*
X423920Y90139D01*
X424285Y90684D01*
X424413Y91328D01*
X424413Y91328D01*
Y91645D01*
X424913Y91907D01*
X425274Y91828D01*
X425274Y91828D01*
X425274Y91828D01*
X427099D01*
Y94600D01*
X427849D01*
Y95350D01*
X430424D01*
Y97371D01*
X429531D01*
Y97491D01*
X429403Y98135D01*
X429039Y98681D01*
X428160Y99560D01*
X427765Y99824D01*
Y100398D01*
X437922D01*
Y97351D01*
X442478D01*
Y104269D01*
X437922D01*
Y103762D01*
X427765D01*
Y104752D01*
X423947D01*
Y119789D01*
X437582Y133424D01*
Y135803D01*
D02*
G37*
G36*
X449958Y104269D02*
X445402D01*
Y97942D01*
X445280Y97820D01*
X444860Y97191D01*
X444713Y96450D01*
Y95850D01*
X443850D01*
Y90950D01*
X449450D01*
Y95850D01*
X449450D01*
X449210Y96350D01*
X449470Y96739D01*
X449592Y97351D01*
X449958D01*
Y104269D01*
D02*
G37*
G36*
X430424Y93850D02*
X428599D01*
Y91828D01*
X430424D01*
Y93850D01*
D02*
G37*
G36*
X462530Y67480D02*
Y66180D01*
X463830D01*
X463629Y66666D01*
X463016Y67279D01*
X462530Y67480D01*
D02*
G37*
G36*
X461030D02*
X460544Y67279D01*
X459931Y66666D01*
X459599Y65864D01*
Y65628D01*
X450793Y56822D01*
X450572D01*
X450406Y56989D01*
X449920Y57190D01*
Y55140D01*
Y53090D01*
X450406Y53291D01*
X450572Y53458D01*
X451490D01*
X452134Y53586D01*
X452680Y53950D01*
X461978Y63249D01*
X462214D01*
X463016Y63581D01*
X463629Y64195D01*
X463830Y64680D01*
X461780D01*
Y65430D01*
X461030D01*
Y67480D01*
D02*
G37*
G36*
X448420Y57190D02*
X447934Y56989D01*
X447321Y56375D01*
X447120Y55890D01*
X448420D01*
Y57190D01*
D02*
G37*
G36*
Y54390D02*
X447120D01*
X447321Y53904D01*
X447934Y53291D01*
X448420Y53090D01*
Y54390D01*
D02*
G37*
G36*
X462614Y42401D02*
X461786D01*
X461021Y42084D01*
X460436Y41499D01*
X460119Y40734D01*
Y39906D01*
X460436Y39141D01*
X460518Y39059D01*
Y24680D01*
X460646Y24036D01*
X461010Y23490D01*
X470449Y14052D01*
Y13936D01*
X470766Y13171D01*
X471351Y12586D01*
X472116Y12269D01*
X472944D01*
X473709Y12586D01*
X474294Y13171D01*
X474611Y13936D01*
Y14764D01*
X474294Y15529D01*
X473709Y16114D01*
X472944Y16431D01*
X472828D01*
X463882Y25377D01*
Y39059D01*
X463964Y39141D01*
X464281Y39906D01*
Y40734D01*
X463964Y41499D01*
X463379Y42084D01*
X462614Y42401D01*
D02*
G37*
%LPD*%
G36*
X416090Y62870D02*
Y61730D01*
X414970Y60610D01*
X414750Y59990D01*
X409730Y59330D01*
X407660Y61400D01*
Y62320D01*
X410210Y64870D01*
X412080Y64970D01*
X413990D01*
X416090Y62870D01*
D02*
G37*
G36*
Y56964D02*
Y55825D01*
X414970Y54704D01*
Y53425D01*
X409730D01*
X407660Y55494D01*
Y56415D01*
X409502Y58256D01*
X413447Y58467D01*
X416090Y56964D01*
D02*
G37*
G36*
X416055Y39035D02*
Y37895D01*
X414935Y36775D01*
Y35740D01*
X409450D01*
X407625Y37565D01*
Y38485D01*
X410175Y41035D01*
X412045Y41135D01*
X413955D01*
X416055Y39035D01*
D02*
G37*
D19*
X285980Y161950D02*
X286144Y161786D01*
Y156446D02*
Y161786D01*
X280162Y158713D02*
X280422Y158453D01*
X279343Y158713D02*
X280162D01*
X277268Y160788D02*
X279343Y158713D01*
X275209Y159698D02*
Y163560D01*
X279797Y155110D02*
X280060D01*
X275209Y159698D02*
X279797Y155110D01*
X273241Y158295D02*
X276530Y155006D01*
Y153960D02*
Y155006D01*
X273241Y158295D02*
Y163560D01*
X276530Y153960D02*
X278360Y152130D01*
Y149140D02*
Y152130D01*
X285938Y156446D02*
X286144D01*
X284963D02*
X285938D01*
X282524Y154007D02*
X284963Y156446D01*
X282524Y150980D02*
Y154007D01*
X280741Y149197D02*
X282524Y150980D01*
X271660Y156362D02*
X273410Y154612D01*
Y154320D02*
Y154612D01*
X271660Y156362D02*
Y157099D01*
X271272Y157487D02*
X271660Y157099D01*
X271272Y157487D02*
Y163560D01*
X277268Y160788D02*
Y163470D01*
X281115Y162146D02*
Y163560D01*
X285060Y157324D02*
X285938Y156446D01*
X282620Y162055D02*
X285060Y159615D01*
X281205Y162055D02*
X282620D01*
X281115Y162146D02*
X281205Y162055D01*
X285060Y157324D02*
Y159615D01*
X300890Y158170D02*
X303587D01*
X288882Y184926D02*
X290525D01*
X287111Y182958D02*
X289792D01*
X293950Y165110D02*
Y165570D01*
X291170Y164288D02*
X300800Y154658D01*
X290525Y184926D02*
X293080Y182371D01*
X291170Y164288D02*
Y181580D01*
X287020Y183048D02*
X287111Y182958D01*
X293080Y166440D02*
Y182371D01*
Y166440D02*
X293950Y165570D01*
X289792Y182958D02*
X291170Y181580D01*
X303587Y158170D02*
X307099Y154658D01*
X287020Y185017D02*
X288792D01*
X288882Y184926D01*
X293950Y165110D02*
X300890Y158170D01*
X302830Y189650D02*
Y194720D01*
X265726Y200456D02*
Y200790D01*
X266082Y201146D01*
X265457Y200187D02*
X265726Y200456D01*
X266082Y201146D02*
Y202038D01*
X265457Y197115D02*
Y200187D01*
X267782Y201333D02*
X271698Y205249D01*
X267426Y200086D02*
X267782Y200442D01*
X267426Y197115D02*
Y200086D01*
X302830Y194720D02*
X303040Y194930D01*
X248860Y177430D02*
X253465D01*
X253556Y177340D01*
X248694Y177596D02*
X248860Y177430D01*
X245067Y176277D02*
Y177337D01*
X248916Y181186D01*
X253465D01*
X243367Y174577D02*
X245067Y176277D01*
X243367Y173075D02*
Y174577D01*
X242317Y172025D02*
X243367Y173075D01*
X241967Y172025D02*
X242317D01*
X253465Y181186D02*
X253556Y181277D01*
X242317Y178324D02*
X247238Y183245D01*
X241967Y178324D02*
X242317D01*
X247238Y183245D02*
X253556D01*
X244670Y237520D02*
Y253176D01*
X220727Y277118D02*
X244670Y253176D01*
Y237520D02*
X269890Y212300D01*
X253465Y175281D02*
X253556Y175371D01*
X250271Y175281D02*
X253465D01*
X242532Y165332D02*
Y166513D01*
X287020Y190922D02*
Y192577D01*
X253556Y175371D02*
X257418D01*
X259461Y193748D02*
X260047Y193163D01*
X286434D02*
X287020Y192577D01*
X296280Y167386D02*
X296866Y166800D01*
X296280Y167386D02*
Y176166D01*
X296866Y166800D02*
X300450D01*
X302840Y164410D01*
X296280Y176166D02*
X299225Y179111D01*
X300406D01*
X280741Y143631D02*
Y149197D01*
X277320Y140210D02*
X280741Y143631D01*
X254430Y140530D02*
Y166784D01*
X255016Y167370D02*
X266749D01*
X254430Y166784D02*
X255016Y167370D01*
X267335Y163560D02*
Y166784D01*
X266749Y167370D02*
X267335Y166784D01*
X251694Y169375D02*
Y169375D01*
X249930Y167612D02*
X251694Y169375D01*
X249930Y163600D02*
Y167612D01*
X251694Y169375D02*
X251784Y169466D01*
X253556D01*
X269482Y200629D02*
X273602Y204749D01*
X271363Y199949D02*
X277363Y205949D01*
X279689D02*
X285319Y211579D01*
X277363Y205949D02*
X279689D01*
X285319Y211579D02*
Y215119D01*
X285340Y215140D01*
X285919Y131450D02*
X298201Y119168D01*
X271220Y131450D02*
X285919D01*
X267782Y200442D02*
Y201333D01*
X269482Y199738D02*
Y200629D01*
X267335Y197025D02*
X267426Y197115D01*
X266082Y202038D02*
X269890Y205846D01*
X269394Y199650D02*
X269482Y199738D01*
X271363Y197115D02*
Y199949D01*
X269394Y197115D02*
Y199650D01*
X269890Y205846D02*
Y212300D01*
X265367Y197025D02*
X265457Y197115D01*
X271698Y208898D02*
X277040Y214240D01*
Y218940D01*
X273602Y205712D02*
X278070Y210180D01*
X271698Y205249D02*
Y208898D01*
X269304Y197025D02*
X269394Y197115D01*
X273602Y204749D02*
Y205712D01*
X271272Y197025D02*
X271363Y197115D01*
X220377Y277118D02*
X220727D01*
X277178Y163560D02*
X277268Y163470D01*
X319450Y203760D02*
X322262Y206572D01*
X325199D01*
X328308Y209680D01*
X330020D01*
X281505Y186985D02*
X287020D01*
X281460Y187030D02*
X281505Y186985D01*
X254430Y140530D02*
X276141Y118819D01*
X259371Y163470D02*
X259461Y163560D01*
X259371Y160691D02*
Y163470D01*
X259170Y160490D02*
X259371Y160691D01*
X261430Y137350D02*
X270063Y128717D01*
X261430Y137350D02*
Y163560D01*
X307099Y154308D02*
Y154658D01*
X300800Y154308D02*
Y154658D01*
X283458Y172325D02*
X284339Y173206D01*
X283458Y168181D02*
Y172325D01*
Y168181D02*
X291890Y159749D01*
Y157269D02*
Y159749D01*
X284339Y173206D02*
X287020D01*
X291890Y157269D02*
X294501Y154658D01*
Y154308D02*
Y154658D01*
X276141Y118819D02*
X284421D01*
X298201Y118818D02*
Y119168D01*
X270063Y128717D02*
X284424D01*
X291508Y118819D02*
Y121633D01*
X284424Y128717D02*
X291508Y121633D01*
X263398Y139272D02*
X271220Y131450D01*
X263398Y139272D02*
Y163560D01*
X268910Y158102D02*
X269304Y158496D01*
Y163560D01*
X268910Y154702D02*
Y158102D01*
D22*
X379134Y153150D02*
Y392913D01*
X-1575D02*
X379134D01*
X-1575Y-787D02*
Y392913D01*
Y-787D02*
X379134D01*
Y23622D01*
Y34646D02*
Y53543D01*
Y84646D02*
Y103543D01*
Y54724D02*
Y73622D01*
Y104331D02*
Y123228D01*
Y134252D02*
Y153150D01*
D23*
X378346Y31102D02*
Y31890D01*
Y28740D02*
Y29528D01*
Y26378D02*
Y27165D01*
X379921Y31102D02*
Y31890D01*
Y28740D02*
Y29528D01*
Y26378D02*
Y27165D01*
X378346Y81102D02*
Y81890D01*
Y78740D02*
Y79528D01*
Y76378D02*
Y77165D01*
X379921Y81102D02*
Y81890D01*
Y78740D02*
Y79528D01*
Y76378D02*
Y77165D01*
Y125984D02*
Y126772D01*
Y128347D02*
Y129134D01*
Y130709D02*
Y131496D01*
X378346Y125984D02*
Y126772D01*
Y128347D02*
Y129134D01*
Y130709D02*
Y131496D01*
D24*
X324485Y191908D02*
X377194Y191908D01*
X377194Y247452D02*
X377194Y191908D01*
X324485Y247452D02*
X377194Y247452D01*
X324485Y191908D02*
Y247452D01*
D108*
X45286Y14131D02*
D03*
X37806D02*
D03*
X45286Y23579D02*
D03*
X37806D02*
D03*
X45286Y33422D02*
D03*
X37806D02*
D03*
X447680Y100810D02*
D03*
X440200D02*
D03*
X174963Y143781D02*
D03*
X167482D02*
D03*
X174963Y151944D02*
D03*
X167482D02*
D03*
X269460Y94409D02*
D03*
X276941D02*
D03*
X269460Y103070D02*
D03*
X276941D02*
D03*
X322019Y85747D02*
D03*
X329500D02*
D03*
X321823Y93228D02*
D03*
X329303D02*
D03*
X242532Y165332D02*
D03*
X235052D02*
D03*
X254480Y204780D02*
D03*
X261960D02*
D03*
X242532Y192891D02*
D03*
X235052D02*
D03*
X172255Y210193D02*
D03*
X164775D02*
D03*
X172255Y218855D02*
D03*
X164775D02*
D03*
X190365Y210193D02*
D03*
X197845D02*
D03*
X190365Y219248D02*
D03*
X197845D02*
D03*
X304500Y189860D02*
D03*
X297020D02*
D03*
D109*
X253556Y169466D02*
D03*
Y171434D02*
D03*
Y173403D02*
D03*
Y175371D02*
D03*
Y177340D02*
D03*
Y179308D02*
D03*
Y181277D02*
D03*
Y183245D02*
D03*
Y185214D02*
D03*
Y187182D02*
D03*
Y189151D02*
D03*
Y191119D02*
D03*
X287020Y190922D02*
D03*
Y188954D02*
D03*
Y179111D02*
D03*
Y181080D02*
D03*
Y183048D02*
D03*
Y185017D02*
D03*
Y186985D02*
D03*
Y177143D02*
D03*
Y171237D02*
D03*
Y173206D02*
D03*
Y175174D02*
D03*
Y169269D02*
D03*
D110*
X281115Y163560D02*
D03*
X279146D02*
D03*
X277178D02*
D03*
X275209D02*
D03*
X273241D02*
D03*
X271272D02*
D03*
X269304D02*
D03*
X267335D02*
D03*
X265367D02*
D03*
X263398D02*
D03*
X261430D02*
D03*
X259461D02*
D03*
Y197025D02*
D03*
X261430D02*
D03*
X271272D02*
D03*
X269304D02*
D03*
X267335D02*
D03*
X265367D02*
D03*
X263398D02*
D03*
X273241D02*
D03*
X279146D02*
D03*
X277178D02*
D03*
X275209D02*
D03*
X281115D02*
D03*
D111*
X425290Y102080D02*
D03*
X427849Y94600D02*
D03*
X422731D02*
D03*
X171223Y127338D02*
D03*
X168664Y134818D02*
D03*
X173782D02*
D03*
D112*
X446650Y93400D02*
D03*
X440350D02*
D03*
X431245Y84520D02*
D03*
X424945D02*
D03*
X93640Y159420D02*
D03*
X99940D02*
D03*
X58860Y18800D02*
D03*
X65160D02*
D03*
X58278Y29531D02*
D03*
X64578D02*
D03*
X129931Y29878D02*
D03*
X136231D02*
D03*
X235667Y172025D02*
D03*
X241967D02*
D03*
X235667Y178324D02*
D03*
X241967D02*
D03*
X235667Y185410D02*
D03*
X241967D02*
D03*
X270740Y218940D02*
D03*
X277040D02*
D03*
X220377Y277118D02*
D03*
X226677D02*
D03*
X226283Y285386D02*
D03*
X219983D02*
D03*
X314579Y276674D02*
D03*
X320879D02*
D03*
X320880Y284548D02*
D03*
X314580D02*
D03*
D113*
X242590Y106240D02*
D03*
Y101240D02*
D03*
Y96240D02*
D03*
Y91240D02*
D03*
X260897Y96240D02*
D03*
Y91240D02*
D03*
Y101240D02*
D03*
Y106240D02*
D03*
X293771Y97184D02*
D03*
Y92185D02*
D03*
Y87185D02*
D03*
Y82184D02*
D03*
X312078Y87185D02*
D03*
Y82184D02*
D03*
Y92185D02*
D03*
Y97184D02*
D03*
X79506Y152670D02*
D03*
Y137670D02*
D03*
X97813Y142670D02*
D03*
Y137670D02*
D03*
Y147670D02*
D03*
Y152670D02*
D03*
X79506Y142670D02*
D03*
Y147670D02*
D03*
D114*
X297649Y30075D02*
D03*
Y37555D02*
D03*
X183427Y144858D02*
D03*
Y152338D02*
D03*
X85433Y162802D02*
D03*
Y170282D02*
D03*
X77165D02*
D03*
Y162802D02*
D03*
X286144Y156446D02*
D03*
Y148965D02*
D03*
X300406Y179111D02*
D03*
Y171631D02*
D03*
X309068Y179111D02*
D03*
Y171631D02*
D03*
X317729Y179111D02*
D03*
Y171631D02*
D03*
D115*
X280860Y52220D02*
D03*
X284600D02*
D03*
X288340D02*
D03*
Y42968D02*
D03*
X284600D02*
D03*
X280860D02*
D03*
D116*
X272058Y31059D02*
D03*
Y42083D02*
D03*
D117*
X224604Y22352D02*
D03*
X173816D02*
D03*
D118*
X201769Y57588D02*
D03*
D119*
X183427Y134203D02*
D03*
Y127903D02*
D03*
X101586Y29181D02*
D03*
Y22881D02*
D03*
X300800Y148008D02*
D03*
Y154308D02*
D03*
X294501Y148008D02*
D03*
Y154308D02*
D03*
X307099D02*
D03*
Y148008D02*
D03*
X261024Y78331D02*
D03*
Y84631D02*
D03*
X269460Y78267D02*
D03*
Y84567D02*
D03*
X291508Y118819D02*
D03*
Y112519D02*
D03*
X298201Y112518D02*
D03*
Y118818D02*
D03*
X304893Y112518D02*
D03*
Y118818D02*
D03*
X284421Y118819D02*
D03*
Y112519D02*
D03*
X268910Y148402D02*
D03*
Y154702D02*
D03*
D120*
X144394Y128299D02*
D03*
Y151921D02*
D03*
D121*
X118409Y152256D02*
D03*
Y135051D02*
D03*
D122*
X38488Y208221D02*
D03*
X49512D02*
D03*
X246232Y114488D02*
D03*
X257256D02*
D03*
X351480Y281055D02*
D03*
X362504D02*
D03*
X269590D02*
D03*
X258567D02*
D03*
D123*
X97543Y172788D02*
D03*
Y186961D02*
D03*
D124*
X39236Y43233D02*
D03*
D03*
X44236D02*
D03*
X49236D02*
D03*
X54236D02*
D03*
X59236D02*
D03*
X64236D02*
D03*
X69236D02*
D03*
X74236D02*
D03*
X79236D02*
D03*
X84236D02*
D03*
X89236D02*
D03*
X94236D02*
D03*
X99236D02*
D03*
X104236D02*
D03*
X54236Y115701D02*
D03*
X79236D02*
D03*
X74236D02*
D03*
X84236D02*
D03*
X94236D02*
D03*
X104236D02*
D03*
X99236D02*
D03*
X89236D02*
D03*
X49236D02*
D03*
X64236D02*
D03*
X59236D02*
D03*
X44236D02*
D03*
X69236D02*
D03*
X39236D02*
D03*
D03*
D125*
X110890Y57012D02*
D03*
D03*
Y62012D02*
D03*
Y67012D02*
D03*
Y72012D02*
D03*
Y77012D02*
D03*
Y82012D02*
D03*
Y87012D02*
D03*
Y92012D02*
D03*
Y97012D02*
D03*
Y102012D02*
D03*
D126*
X64236Y64309D02*
D03*
Y70215D02*
D03*
Y76120D02*
D03*
X70142Y64309D02*
D03*
Y70215D02*
D03*
Y76120D02*
D03*
X76047Y64309D02*
D03*
Y70215D02*
D03*
Y76120D02*
D03*
D127*
X87412Y25135D02*
D03*
X79932Y22576D02*
D03*
Y27694D02*
D03*
X340170Y281359D02*
D03*
X332689Y278800D02*
D03*
Y283918D02*
D03*
X247058Y281847D02*
D03*
X239578Y279288D02*
D03*
Y284406D02*
D03*
D128*
X121467Y15705D02*
D03*
Y7831D02*
D03*
X150208D02*
D03*
Y15705D02*
D03*
D129*
X144696Y18658D02*
D03*
X138790D02*
D03*
X126979D02*
D03*
D130*
X231665Y106417D02*
D03*
Y102086D02*
D03*
D131*
X214410Y191017D02*
D03*
Y169363D02*
D03*
D132*
X153410Y162876D02*
D03*
Y171144D02*
D03*
D133*
X135464Y208107D02*
D03*
X114952D02*
D03*
Y173697D02*
D03*
X135464D02*
D03*
D134*
X330020Y199680D02*
D03*
X330020Y209680D02*
D03*
Y219680D02*
D03*
Y229680D02*
D03*
X330020Y239680D02*
D03*
D135*
X22772Y141496D02*
D03*
Y192284D02*
D03*
D136*
X58008Y164331D02*
D03*
D137*
X288947Y6760D02*
D03*
X281073D02*
D03*
D138*
X290128Y17390D02*
D03*
X287569D02*
D03*
X285010D02*
D03*
X282451D02*
D03*
X279892D02*
D03*
D139*
X181113Y181847D02*
D03*
Y190902D02*
D03*
Y199957D02*
D03*
D140*
X155916Y190902D02*
D03*
D141*
X233493Y50177D02*
X247008Y36662D01*
X272058Y36762D02*
Y41266D01*
X207015Y50177D02*
X233493D01*
X201769Y55423D02*
Y57488D01*
Y55423D02*
X207015Y50177D01*
X247008Y36662D02*
X272158D01*
X246232Y111806D02*
X248674Y109364D01*
Y99448D02*
Y109364D01*
X247500Y98273D02*
X248674Y99448D01*
X247242Y98273D02*
X247500D01*
X245208Y96240D02*
X247242Y98273D01*
X242590Y96240D02*
X245208D01*
X246232Y111806D02*
Y114488D01*
X211347Y106233D02*
X222349Y95230D01*
X238431D02*
X239441Y96240D01*
X193810Y106233D02*
X211347D01*
X222349Y95230D02*
X238431D01*
X239441Y96240D02*
X242590D01*
D142*
X51014Y43233D02*
Y46786D01*
Y39679D02*
Y43233D01*
X49236D02*
X51014D01*
X423115Y98370D02*
X426970D01*
X415140D02*
X423115D01*
X415120Y98390D02*
X415140Y98370D01*
X410379D02*
X415100D01*
X415120Y98390D01*
X400900Y88891D02*
X410379Y98370D01*
X400900Y38679D02*
Y88891D01*
X408382Y79630D02*
X432800D01*
X407321Y80691D02*
X408382Y79630D01*
X407321Y80691D02*
Y81137D01*
X405765Y82693D02*
Y82926D01*
Y82693D02*
X407321Y81137D01*
X434651Y84520D02*
X435530Y83641D01*
X431245Y84520D02*
X434651D01*
X435530Y72830D02*
Y83641D01*
X431123Y68423D02*
Y68423D01*
X435530Y72830D01*
X428670Y65970D02*
X431123Y68423D01*
X449170Y55140D02*
X451490D01*
X461780Y65430D01*
X462200Y24680D02*
Y40320D01*
Y24680D02*
X472530Y14350D01*
X431192Y62012D02*
X439065Y69885D01*
Y80600D02*
X440350Y81885D01*
Y93400D01*
X439065Y69885D02*
Y80600D01*
X403310Y48250D02*
X405750Y45810D01*
X403310Y48250D02*
Y50650D01*
X403460Y50800D01*
Y74910D01*
X407437Y56107D02*
X411890D01*
X405660Y57884D02*
Y65850D01*
X407090Y67280D01*
X405660Y57884D02*
X407437Y56107D01*
X403460Y74910D02*
X404860Y76310D01*
X421000D01*
X426970Y98370D02*
X427849Y97491D01*
Y94600D02*
Y97491D01*
X422265Y99708D02*
Y120486D01*
X438332Y136553D01*
X422265Y99708D02*
X423115Y98858D01*
X400900Y38679D02*
X401779Y37800D01*
X406353Y38390D02*
X411890D01*
X405763Y37800D02*
X406353Y38390D01*
X401779Y37800D02*
X405763D01*
X407090Y67280D02*
X415790D01*
X417100Y65970D02*
X428670D01*
X415790Y67280D02*
X417100Y65970D01*
X411890Y62012D02*
X431192D01*
X421984Y87131D02*
Y90581D01*
X422731Y91328D01*
X424595Y84520D02*
X424945D01*
X421984Y87131D02*
X424595Y84520D01*
X422731Y91328D02*
Y94600D01*
X440200Y100810D02*
Y101702D01*
X439822Y102080D02*
X440200Y101702D01*
X425290Y102080D02*
X439822D01*
X238618Y168676D02*
X241967Y172025D01*
X238618Y162911D02*
Y168676D01*
X237030Y161323D02*
X238618Y162911D01*
X291568Y33310D02*
X293375Y35117D01*
X291390Y33310D02*
X291568D01*
X293375Y35117D02*
X294029D01*
X296467Y37555D01*
X297649D01*
X285939Y84229D02*
X288577D01*
X276941Y93228D02*
X285939Y84229D01*
X276941Y93228D02*
Y94409D01*
X288577Y84229D02*
X290622Y82184D01*
X293771D01*
X329303Y85944D02*
Y93228D01*
Y85944D02*
X329500Y85747D01*
X235473Y185410D02*
X235667D01*
X220106D02*
X235473D01*
X193988Y182677D02*
X217373D01*
X185763Y190902D02*
X193988Y182677D01*
X217373D02*
X220106Y185410D01*
X181113Y190902D02*
X185763D01*
X226313Y161323D02*
X237030D01*
X218272Y169363D02*
X226313Y161323D01*
X214410Y169363D02*
X218272D01*
X319749Y268481D02*
X320991D01*
X328675Y276165D01*
X317540Y270690D02*
X319749Y268481D01*
X328675Y276165D02*
X329857D01*
X332493Y278800D02*
X332689D01*
X329857Y276165D02*
X332493Y278800D01*
X317540Y270690D02*
Y274063D01*
X314929Y276674D02*
X317540Y274063D01*
X314579Y276674D02*
X314929D01*
X325199Y268235D02*
X332689Y275725D01*
X325199Y242788D02*
Y268235D01*
X328308Y239680D02*
X330020D01*
X325199Y242788D02*
X328308Y239680D01*
X332689Y275725D02*
Y278800D01*
X309068Y171631D02*
X317729D01*
X300406D02*
X309068D01*
X276941Y94409D02*
Y103070D01*
X193810Y86547D02*
X232264D01*
X236956Y91240D01*
X242590D01*
X248174Y90650D02*
X253764Y96240D01*
X242290Y48920D02*
Y84766D01*
X246329Y88805D01*
X247325D02*
X248174Y89655D01*
X246329Y88805D02*
X247325D01*
X253764Y96240D02*
X260897D01*
X248174Y89655D02*
Y90650D01*
X244411Y48041D02*
X266850Y70480D01*
X243169Y48041D02*
X244411D01*
X242290Y48920D02*
X243169Y48041D01*
X77165Y170282D02*
X85433D01*
X64966Y145104D02*
X84241D01*
X86675Y142670D01*
X302642Y38490D02*
X342310D01*
X301708Y37555D02*
X302642Y38490D01*
X297649Y37555D02*
X301708D01*
X167482Y139271D02*
Y143781D01*
Y139271D02*
X168664Y138090D01*
Y134818D02*
Y138090D01*
X167482Y143781D02*
Y151944D01*
X148974Y183345D02*
X151706D01*
X139326Y173697D02*
X148974Y183345D01*
X135464Y173697D02*
X139326D01*
X151706Y183345D02*
X155916Y187555D01*
Y190902D01*
X181113D01*
X162336Y200668D02*
Y206573D01*
X155916Y194248D02*
X162336Y200668D01*
X164775Y209012D02*
Y210193D01*
X162336Y206573D02*
X164775Y209012D01*
X155916Y190902D02*
Y194248D01*
X164775Y210193D02*
Y218855D01*
X259461Y193163D02*
Y193748D01*
Y177414D02*
Y193163D01*
X257418Y175371D02*
X259461Y177414D01*
X260047Y193163D02*
X286434D01*
X239175Y101505D02*
X242325D01*
X238594Y102086D02*
X239175Y101505D01*
X231665Y102086D02*
X238594D01*
X242325Y101505D02*
X242590Y101240D01*
X242413Y106417D02*
X242590Y106240D01*
X231665Y106417D02*
X242413D01*
X253620Y64500D02*
X258765Y69645D01*
X259045D01*
X264024Y74624D01*
X247723Y63337D02*
Y65957D01*
X247240Y66440D02*
Y67940D01*
X247723Y63337D02*
X247784Y63276D01*
X247240Y66440D02*
X247723Y65957D01*
X247240Y67940D02*
X253597Y74297D01*
X265603Y78267D02*
X269460D01*
X264024Y76688D02*
X265603Y78267D01*
X264024Y74624D02*
Y76688D01*
X253597Y74297D02*
X257340D01*
X261024Y77981D01*
X266850Y70480D02*
Y75306D01*
X269460Y77917D02*
Y78267D01*
X261024Y77981D02*
Y78331D01*
X250870Y87400D02*
X254710Y91240D01*
X250870Y79210D02*
X251749Y78331D01*
X261024D01*
X250870Y79210D02*
Y87400D01*
X254710Y91240D02*
X260897D01*
X296590Y128690D02*
X301201Y124079D01*
Y116211D02*
Y124079D01*
Y116211D02*
X304893Y112518D01*
X329286Y44396D02*
X342310D01*
X329200Y44310D02*
X329286Y44396D01*
X329000Y49310D02*
X329080Y49230D01*
X333923D01*
X334994Y50301D01*
X342310D01*
X328820Y53790D02*
X331237Y56207D01*
X342310D01*
X258455Y159775D02*
X259170Y160490D01*
X258455Y158145D02*
Y159775D01*
X258290Y157980D02*
X258455Y158145D01*
X59236Y121356D02*
X62400Y124520D01*
X59236Y115701D02*
Y121356D01*
X50670Y124380D02*
X54236Y120814D01*
Y115701D02*
Y120814D01*
X139192Y32489D02*
X140729D01*
X141860Y33620D01*
X136581Y29878D02*
X139192Y32489D01*
X136231Y29878D02*
X136581D01*
X268910Y145070D02*
X271120Y142860D01*
X268910Y145070D02*
Y148402D01*
X68770Y15485D02*
Y15540D01*
Y15430D02*
Y15485D01*
X65510Y18800D02*
X68770Y15540D01*
X65160Y18800D02*
X65510D01*
X308522Y118240D02*
X308891D01*
X309770Y110040D02*
Y117361D01*
X308891Y118240D02*
X309770Y117361D01*
X307944Y118818D02*
X308522Y118240D01*
X304893Y118818D02*
X307944D01*
X301440Y101710D02*
X309770Y110040D01*
X301440Y89673D02*
Y101710D01*
Y89673D02*
X308929Y82184D01*
X312078D01*
X300372Y112518D02*
X301251Y111640D01*
X298201Y112518D02*
X300372D01*
X293771Y99669D02*
X301251Y107148D01*
Y111640D01*
X293771Y97184D02*
Y99669D01*
X284830Y103990D02*
X287834Y106994D01*
X288504D01*
X291508Y109997D02*
Y112519D01*
X288504Y106994D02*
X291508Y109997D01*
X284830Y97976D02*
Y103990D01*
Y97976D02*
X290622Y92185D01*
X293771D01*
X280810Y108908D02*
X284421Y112519D01*
X280810Y96996D02*
Y108908D01*
Y96996D02*
X290388Y87419D01*
X293537D02*
X293771Y87185D01*
X290388Y87419D02*
X293537D01*
X274300Y25664D02*
Y27932D01*
X279892Y17390D02*
Y17805D01*
X279014Y18683D02*
X279892Y17805D01*
X274300Y25664D02*
X279014Y20950D01*
Y18683D02*
Y20950D01*
X272058Y30174D02*
X274300Y27932D01*
X272058Y30174D02*
Y31059D01*
X266850Y75306D02*
X269460Y77917D01*
X135410Y24750D02*
X136273D01*
X138790Y22232D01*
Y18658D02*
Y22232D01*
X130281Y29878D02*
X135410Y24750D01*
X129931Y29878D02*
X130281D01*
X140684Y7831D02*
X150208D01*
X129857Y18658D02*
X140684Y7831D01*
X126979Y18658D02*
X129857D01*
X150601Y15705D02*
X152615Y13691D01*
X150208Y10040D02*
X152615Y12448D01*
X150208Y7831D02*
Y10040D01*
X152615Y12448D02*
Y13691D01*
X150208Y15705D02*
X150601D01*
X121467Y7831D02*
X123662D01*
X124541Y8710D02*
Y14644D01*
X123662Y7831D02*
X124541Y8710D01*
Y14644D02*
X126979Y17083D01*
Y18658D01*
X121467Y7831D02*
Y15705D01*
X104636Y22881D02*
X111812Y15705D01*
X121467D01*
X101586Y22881D02*
X104636D01*
X61821Y21411D02*
X62270D01*
X62659Y21800D01*
X74334Y27694D02*
X79932D01*
X62659Y21800D02*
X68439D01*
X74334Y27694D01*
X59210Y18800D02*
X61821Y21411D01*
X58860Y18800D02*
X59210D01*
X92040Y29566D02*
Y32431D01*
X91161Y33310D02*
X92040Y32431D01*
X71756Y33310D02*
X91161D01*
X67978Y29531D02*
X71756Y33310D01*
X64578Y29531D02*
X67978D01*
X87609Y25135D02*
X92040Y29566D01*
X87412Y25135D02*
X87609D01*
X63699Y38830D02*
X64578Y37951D01*
X51014Y39679D02*
X51864Y38830D01*
X63699D01*
X51014Y46786D02*
X64236Y60008D01*
Y64309D01*
X64578Y29531D02*
Y37951D01*
X241967Y185410D02*
Y188267D01*
X242532Y188832D01*
Y192891D01*
D143*
X416339Y50201D02*
X416880Y49660D01*
X416978D01*
X411890Y50201D02*
X416339D01*
X439139Y16339D02*
X440413D01*
X441696Y17623D01*
Y78962D01*
X439070Y16270D02*
X439139Y16339D01*
X416978Y49660D02*
X417076D01*
X418126Y48610D01*
X429710D01*
X446650Y96450D02*
X447680Y97480D01*
X446650Y93400D02*
Y96450D01*
X447680Y97480D02*
Y100810D01*
X236745Y276652D02*
X239381Y279288D01*
X234350Y271800D02*
X236745Y274195D01*
X239381Y279288D02*
X239578D01*
X236745Y274195D02*
Y276652D01*
X239578Y279288D02*
X240153Y279862D01*
X224363Y289320D02*
X241878D01*
X220979Y285936D02*
X224363Y289320D01*
X220533Y285936D02*
X220979D01*
X219983Y285386D02*
X220533Y285936D01*
X241878Y289320D02*
X243049Y288148D01*
Y282127D02*
Y288148D01*
X240349Y279862D02*
X241618Y281131D01*
X240153Y279862D02*
X240349D01*
X242054Y281131D02*
X243049Y282127D01*
X241618Y281131D02*
X242054D01*
X271890Y219740D02*
Y220090D01*
X273079Y221279D01*
Y233456D01*
X271090Y218940D02*
X271890Y219740D01*
X270740Y218940D02*
X271090D01*
X242410Y264125D02*
X273079Y233456D01*
X242410Y264125D02*
Y276652D01*
X239775Y279288D02*
X242410Y276652D01*
X320879Y276674D02*
X324279D01*
X329418Y282747D02*
X330589Y283918D01*
X332689D01*
X324279Y276674D02*
X329418Y281813D01*
Y282747D01*
X173782Y134622D02*
X180500Y127903D01*
X183427D01*
X173782Y134622D02*
Y134818D01*
X289176Y138665D02*
Y142684D01*
X294501Y147658D02*
Y148008D01*
X293601Y147108D02*
X293951D01*
X287091Y136580D02*
X289176Y138665D01*
Y142684D02*
X293601Y147108D01*
X293951D02*
X294501Y147658D01*
X283990Y136580D02*
X287091D01*
X286428Y58225D02*
Y63532D01*
X284600Y56397D02*
X286428Y58225D01*
X284600Y52220D02*
Y56397D01*
X319682Y63532D02*
X328660Y72510D01*
X286428Y63532D02*
X319682D01*
X186587Y134203D02*
X190360Y130430D01*
X183427Y134203D02*
X186587D01*
X279215Y70745D02*
X286428Y63532D01*
X279215Y70745D02*
Y74462D01*
X269460Y84217D02*
X279215Y74462D01*
X269460Y84217D02*
Y84567D01*
X93640Y156851D02*
Y159420D01*
X70850Y152680D02*
X70860Y152670D01*
X79506D01*
X226677Y277118D02*
X227027D01*
X226283Y282336D02*
Y285386D01*
X226677Y277118D02*
Y281942D01*
X226283Y282336D02*
X226677Y281942D01*
X227027Y277118D02*
X229638Y279729D01*
X343442Y281359D02*
X343745Y281055D01*
X351480D01*
X340170Y281359D02*
X343442D01*
X351480Y281055D02*
Y321803D01*
X357886Y328210D01*
X320879Y281498D02*
X320880Y281498D01*
X320879Y276674D02*
Y281498D01*
X320880Y281498D02*
Y284548D01*
X247058Y281847D02*
X252988D01*
X253610Y282469D01*
X256267D01*
X229638Y279729D02*
X231629D01*
X236306Y284406D01*
X239578D01*
X154322Y103087D02*
Y112340D01*
X169319Y127338D02*
X171223D01*
X138200Y86965D02*
X154322Y103087D01*
Y112340D02*
X169319Y127338D01*
D144*
X279146Y163560D02*
Y186674D01*
X278109Y189311D02*
X282405D01*
X277640Y188842D02*
X278109Y189311D01*
X277640Y188180D02*
Y188842D01*
Y188180D02*
X279146Y186674D01*
X282762Y188954D02*
X287020D01*
X282405Y189311D02*
X282762Y188954D01*
X291649Y186571D02*
X292529D01*
X292790Y186310D01*
X289879Y188776D02*
X290764Y187891D01*
Y187455D02*
Y187891D01*
Y187455D02*
X291649Y186571D01*
X289444Y188776D02*
X289879D01*
X289356Y188863D02*
X289444Y188776D01*
X287111Y188863D02*
X289356D01*
X287020Y188954D02*
X287111Y188863D01*
X261430Y200570D02*
X262323Y201463D01*
X264126Y201453D02*
X264482Y201809D01*
X264126Y201144D02*
Y201453D01*
X263945Y200963D02*
X264126Y201144D01*
X263945Y200938D02*
Y200963D01*
X263589Y200582D02*
X263945Y200938D01*
X261430Y197025D02*
Y200570D01*
X263589Y197215D02*
Y200582D01*
X284600Y39030D02*
Y42968D01*
X284410Y38840D02*
X284600Y39030D01*
X240278Y182094D02*
X240356D01*
X238667Y183705D02*
X240278Y182094D01*
X238667Y183705D02*
Y194768D01*
X236885Y196550D02*
X238667Y194768D01*
X240356Y182094D02*
X241967Y180484D01*
X233218Y196550D02*
X236885D01*
X231312Y194644D02*
X233218Y196550D01*
X229407Y191017D02*
X231312Y192922D01*
X241967Y178324D02*
Y180484D01*
X214410Y191017D02*
X229407D01*
X231312Y192922D02*
Y194644D01*
X263398Y197025D02*
X263589Y197215D01*
X293410Y263728D02*
X314230Y284548D01*
X293410Y217194D02*
Y263728D01*
X256949Y179308D02*
X257418Y179777D01*
X256374Y192810D02*
X257418Y191765D01*
X253556Y179308D02*
X256949D01*
X257418Y179777D02*
Y191765D01*
X263730Y211600D02*
X266740Y208590D01*
Y206740D02*
Y208590D01*
X264482Y204482D02*
X266740Y206740D01*
X264482Y201809D02*
Y204482D01*
X276703Y200487D02*
X282022Y205806D01*
Y205806D02*
X293410Y217194D01*
X292953Y214225D02*
X312853D01*
X282022Y205806D02*
Y205806D01*
X279146Y200418D02*
X292953Y214225D01*
X273519Y199843D02*
X274163Y200487D01*
X273431Y197215D02*
Y199368D01*
X273519Y199455D01*
X274163Y200487D02*
X276703D01*
X273519Y199455D02*
Y199843D01*
X273241Y197025D02*
X273431Y197215D01*
X314230Y284548D02*
X314580D01*
X279146Y197025D02*
Y200418D01*
X281115Y197025D02*
Y198796D01*
X282766Y200448D02*
X293427D01*
X281115Y198796D02*
X282766Y200448D01*
X293427D02*
X303440Y210460D01*
X245844Y186356D02*
Y189924D01*
X244898Y185410D02*
X245844Y186356D01*
X241967Y185410D02*
X244898D01*
X245844Y189924D02*
X248730Y192810D01*
X256374D01*
X319088Y210460D02*
X328308Y219680D01*
X303440Y210460D02*
X319088D01*
X328308Y219680D02*
X330020D01*
X312853Y214225D02*
X328308Y229680D01*
X330020D01*
D145*
X235667Y172025D02*
Y178324D01*
Y168927D02*
Y172025D01*
X39236Y115701D02*
Y116882D01*
Y114520D02*
Y115701D01*
X37806Y33422D02*
Y39206D01*
Y23579D02*
Y33422D01*
X97813Y137670D02*
Y142670D01*
X32976Y135820D02*
X55682D01*
X235667Y178324D02*
Y185410D01*
X235423Y185460D02*
X235473Y185410D01*
X235052Y188832D02*
X235423Y188461D01*
Y185460D02*
Y188461D01*
X235052Y188832D02*
Y192891D01*
X197845Y210193D02*
Y219248D01*
X182993Y22352D02*
X190346Y15000D01*
X202470D01*
X208383Y9087D02*
X215866D01*
X202470Y15000D02*
X208383Y9087D01*
X38964Y42961D02*
X39236Y43233D01*
X37806Y39206D02*
X38964Y40364D01*
Y42961D01*
X39236Y43233D02*
Y44414D01*
X37270Y112554D02*
X39236Y114520D01*
X37270Y46380D02*
X39236Y44414D01*
X37270Y46380D02*
Y112554D01*
X39563Y4610D02*
X70880D01*
X37806Y6367D02*
X39563Y4610D01*
X70880D02*
X79932Y13662D01*
X37806Y6367D02*
Y14131D01*
Y23579D01*
X55682Y135820D02*
X64966Y145104D01*
X32976Y135820D02*
X34227Y134569D01*
X27300Y141496D02*
X32976Y135820D01*
X34227Y121891D02*
Y134569D01*
X18245Y141496D02*
X22772D01*
X27300D01*
X86675Y142670D02*
X97813D01*
X34227Y121891D02*
X39236Y116882D01*
X224604Y17825D02*
Y22352D01*
X215866Y9087D02*
X224604Y17825D01*
X173816Y22352D02*
X182993D01*
X114903Y54180D02*
X132812D01*
X164639Y22352D01*
X173816D01*
X112071Y57012D02*
X114903Y54180D01*
X110890Y57012D02*
X112071D01*
X110890Y53740D02*
X112780Y51850D01*
Y37680D02*
Y51850D01*
X110890Y53740D02*
Y57012D01*
X97059Y36140D02*
X111240D01*
X96180Y17350D02*
Y35261D01*
X97059Y36140D01*
X111240D02*
X112780Y37680D01*
X93379Y15791D02*
X94621D01*
X96180Y17350D01*
X89229Y19941D02*
X93379Y15791D01*
X82764Y19941D02*
X89229D01*
X80129Y22576D02*
X82764Y19941D01*
X79932Y22576D02*
X80129D01*
X79932Y13662D02*
Y22576D01*
X22772Y183107D02*
Y192284D01*
Y201461D01*
X258567Y316623D02*
X270641Y328697D01*
X258567Y281055D02*
Y316623D01*
X256267Y282469D02*
X257681Y281055D01*
X258567D01*
D146*
X17890Y261890D02*
X27858Y251922D01*
X17890Y261890D02*
Y265080D01*
X15470Y162790D02*
Y175804D01*
X9507Y150234D02*
Y156827D01*
X15470Y162790D01*
Y175804D02*
X22772Y183107D01*
X9507Y150234D02*
X18245Y141496D01*
X22772Y201461D02*
X27858Y206547D01*
Y251922D01*
X104636Y29181D02*
X104697Y29120D01*
X101586Y29181D02*
X104636D01*
X104697Y29120D02*
X105270D01*
D147*
X285010Y17390D02*
Y33529D01*
X288340Y36859D01*
Y53716D01*
X280860Y42968D02*
Y53716D01*
X273148Y54162D02*
X280414D01*
X280860Y53716D01*
X264920Y62390D02*
X273148Y54162D01*
X288786D02*
X302172D01*
X288340Y53716D02*
X288786Y54162D01*
X302172D02*
X305760Y57750D01*
X280860Y22408D02*
X281721Y21547D01*
X282451D01*
X280860Y22408D02*
Y42968D01*
X282451Y17390D02*
Y21547D01*
X308177Y137231D02*
X308789D01*
X300800Y144608D02*
X308177Y137231D01*
X308789D02*
X308960Y137060D01*
X300800Y144608D02*
Y148008D01*
X307099Y147658D02*
X309710Y145047D01*
Y144270D02*
Y145047D01*
Y144270D02*
X314250Y139730D01*
X307099Y147658D02*
Y148008D01*
D148*
X79506Y137670D02*
X85140D01*
X144394Y112844D02*
Y128299D01*
X98040Y124770D02*
X142706D01*
X144394Y126457D02*
Y128299D01*
X85140Y137670D02*
X98040Y124770D01*
X136999Y165282D02*
X142861Y171144D01*
X118236Y165282D02*
X136999D01*
X112374Y159420D02*
X118236Y165282D01*
X99940Y159420D02*
X112374D01*
X98790Y158270D02*
X99940Y159420D01*
X272718Y283297D02*
Y290774D01*
X280641Y298697D01*
X270476Y281055D02*
X272718Y283297D01*
X269590Y281055D02*
X270476D01*
X367886Y289119D02*
Y298210D01*
X362504Y283736D02*
X367886Y289119D01*
X362504Y281055D02*
Y283736D01*
X75984Y162802D02*
X77165D01*
X142706Y124770D02*
X144394Y126457D01*
X138200Y106650D02*
X144394Y112844D01*
X153410Y144721D02*
Y162876D01*
X144394Y135705D02*
X153410Y144721D01*
X144394Y128299D02*
Y135705D01*
X97813Y152670D02*
X98413Y153270D01*
X102725D01*
X142861Y171144D02*
X153410D01*
X98413Y153270D02*
X98790Y153647D01*
Y158270D01*
X106250Y144516D02*
X108886Y141880D01*
X106250Y144516D02*
Y149745D01*
X102725Y153270D02*
X106250Y149745D01*
X108886Y141880D02*
X111837D01*
X118409Y135307D01*
Y135051D02*
Y135307D01*
X95968Y171213D02*
X108605D01*
X111090Y173697D01*
X114952D01*
D149*
X245784Y170794D02*
X250271Y175281D01*
X244971Y168951D02*
X245784Y169765D01*
Y170794D01*
X244971Y168951D02*
Y168951D01*
X242532Y166513D02*
X244971Y168951D01*
X259461Y193748D02*
Y197025D01*
D150*
X291550Y25980D02*
Y27636D01*
X294029D01*
X296467Y30075D01*
X297649D01*
D151*
X297886Y328997D02*
X304474Y335584D01*
Y344741D01*
X309631Y349899D01*
X322961D01*
X222386Y349599D02*
X235716D01*
X217228Y344441D02*
X222386Y349599D01*
X217228Y335284D02*
Y344441D01*
X210641Y328697D02*
X217228Y335284D01*
X147680Y327102D02*
X187283Y366704D01*
X196106D01*
X60948Y327102D02*
X108310D01*
X41346Y346704D02*
X60948Y327102D01*
X41346Y366704D02*
X77995D01*
D152*
X438332Y136553D02*
D03*
X452506Y137340D02*
D03*
X452023Y123236D02*
D03*
D153*
X411890Y32484D02*
D03*
Y38390D02*
D03*
Y44295D02*
D03*
Y50201D02*
D03*
Y62012D02*
D03*
Y56107D02*
D03*
X342310Y32585D02*
D03*
Y38490D02*
D03*
Y44396D02*
D03*
Y50301D02*
D03*
Y62112D02*
D03*
Y56207D02*
D03*
D154*
X199210Y7392D02*
D03*
X7812Y166890D02*
D03*
D155*
X199210Y25108D02*
D03*
X38127Y147992D02*
D03*
D156*
X218108Y37707D02*
D03*
X25528Y166890D02*
D03*
D157*
X194879Y49911D02*
D03*
D158*
X193810Y106233D02*
D03*
Y86547D02*
D03*
X138200Y106650D02*
D03*
Y86965D02*
D03*
X77995Y366704D02*
D03*
X196106D02*
D03*
X47406Y302332D02*
D03*
X27858Y251922D02*
D03*
X47543D02*
D03*
X27721Y302332D02*
D03*
X108567Y327118D02*
D03*
X147937D02*
D03*
X88882Y248378D02*
D03*
X167622D02*
D03*
D159*
X297886Y328210D02*
D03*
X357886D02*
D03*
X297886Y298210D02*
D03*
X337886D02*
D03*
X367886D02*
D03*
X210641Y328697D02*
D03*
X270641D02*
D03*
X210641Y298697D02*
D03*
X250641D02*
D03*
X280641D02*
D03*
D160*
X322961Y349899D02*
D03*
X342961D02*
D03*
X235716Y349599D02*
D03*
X255715D02*
D03*
X41346Y346704D02*
D03*
Y366704D02*
D03*
D161*
X50331Y171221D02*
D03*
D162*
X298790Y6760D02*
D03*
X271231D02*
D03*
D163*
X294852Y17390D02*
D03*
X275167D02*
D03*
D164*
X415021Y98291D02*
D03*
X405765Y82926D02*
D03*
X432800Y79630D02*
D03*
X449170Y55140D02*
D03*
X461780Y65430D02*
D03*
X472530Y14350D02*
D03*
X462200Y40320D02*
D03*
X441696Y78962D02*
D03*
X439070Y16270D02*
D03*
X405750Y45810D02*
D03*
X421000Y76310D02*
D03*
X416978Y49660D02*
D03*
X429710Y48610D02*
D03*
X234350Y271800D02*
D03*
X298270Y71750D02*
D03*
X232040Y76350D02*
D03*
X347580Y95140D02*
D03*
X27630Y286090D02*
D03*
X27120Y226670D02*
D03*
X71560Y184010D02*
D03*
X56580Y139830D02*
D03*
X125650Y187310D02*
D03*
X336400Y120530D02*
D03*
X344280Y155570D02*
D03*
X337930Y149980D02*
D03*
X312790Y233530D02*
D03*
X303650Y235050D02*
D03*
X281050Y238100D02*
D03*
X266320Y240130D02*
D03*
X233820Y220580D02*
D03*
X215390Y141740D02*
D03*
X280422Y158453D02*
D03*
X280060Y155110D02*
D03*
X273410Y154320D02*
D03*
X278360Y149140D02*
D03*
X263180Y112000D02*
D03*
X268316Y110769D02*
D03*
X292790Y186310D02*
D03*
X261784Y202003D02*
D03*
X303040Y194930D02*
D03*
X235590Y168850D02*
D03*
X248694Y177596D02*
D03*
X291390Y33310D02*
D03*
X17890Y265080D02*
D03*
X284410Y38840D02*
D03*
X272220Y36600D02*
D03*
X285980Y161950D02*
D03*
X302840Y164410D02*
D03*
X277320Y140210D02*
D03*
X283990Y136580D02*
D03*
X253620Y64500D02*
D03*
X247784Y63276D02*
D03*
X264920Y62390D02*
D03*
X305760Y57750D02*
D03*
X285340Y215140D02*
D03*
X296590Y128690D02*
D03*
X263730Y211600D02*
D03*
X278070Y210180D02*
D03*
X329200Y44310D02*
D03*
X308960Y137060D02*
D03*
X314250Y139730D02*
D03*
X329000Y49310D02*
D03*
X328820Y53790D02*
D03*
X190360Y130430D02*
D03*
X291550Y25980D02*
D03*
X319450Y203760D02*
D03*
X281460Y187030D02*
D03*
X258290Y157980D02*
D03*
X249930Y163600D02*
D03*
X62400Y124520D02*
D03*
X50670Y124380D02*
D03*
X141860Y33620D02*
D03*
X271120Y142860D02*
D03*
X68770Y15485D02*
D03*
X263290Y117020D02*
D03*
X286428Y63532D02*
D03*
X93640Y156851D02*
D03*
X70850Y152680D02*
D03*
X86520Y156820D02*
D03*
X52470Y185320D02*
D03*
X105270Y29120D02*
D03*
X51120Y32300D02*
D03*
X328660Y72510D02*
D03*
X86520Y160000D02*
D03*
X78920D02*
D03*
M02*
