G04*
G04 #@! TF.GenerationSoftware,Altium Limited,Altium Designer,21.6.1 (37)*
G04*
G04 Layer_Color=8421504*
%FSLAX25Y25*%
%MOIN*%
G70*
G04*
G04 #@! TF.SameCoordinates,ED18229B-BDCB-4A3C-9D88-49826DFA0344*
G04*
G04*
G04 #@! TF.FilePolarity,Positive*
G04*
G01*
G75*
%ADD22C,0.02362*%
%ADD23C,0.00984*%
%ADD24C,0.00394*%
%ADD25C,0.00000*%
%ADD26R,0.07519X0.04094*%
%ADD27R,0.03756X0.06118*%
%ADD28R,0.05724X0.02181*%
%ADD29R,0.02181X0.05724*%
%ADD30R,0.04150X0.04543*%
%ADD31R,0.04800X0.04100*%
%ADD32R,0.09268X0.02969*%
%ADD33R,0.06118X0.03756*%
%ADD34R,0.03362X0.06354*%
%ADD35R,0.03362X0.05134*%
%ADD36R,0.16354X0.25410*%
%ADD37R,0.13992X0.18323*%
%ADD38R,0.04100X0.04800*%
%ADD39R,0.08874X0.12811*%
%ADD40R,0.09347X0.09858*%
%ADD41R,0.05134X0.03362*%
%ADD42R,0.07299X0.07299*%
%ADD43R,0.04543X0.06906*%
%ADD44R,0.06906X0.04543*%
%ADD45R,0.04543X0.04543*%
%ADD46R,0.04543X0.04150*%
%ADD47R,0.04937X0.04150*%
%ADD48R,0.03756X0.06906*%
%ADD49R,0.04937X0.02969*%
%ADD50R,0.05724X0.14780*%
%ADD51R,0.14386X0.06118*%
%ADD52R,0.05724X0.06984*%
%ADD53R,0.08520X0.05095*%
%ADD54R,0.25410X0.16354*%
%ADD55R,0.18323X0.13992*%
%ADD56R,0.06906X0.07102*%
%ADD57R,0.02575X0.06315*%
%ADD58R,0.07299X0.05724*%
%ADD59R,0.07299X0.13992*%
G36*
X275955Y3709D02*
X271231D01*
X271127Y3712D01*
X271025Y3720D01*
X270922Y3733D01*
X270821Y3752D01*
X270721Y3776D01*
X270622Y3805D01*
X270525Y3840D01*
X270430Y3879D01*
X270337Y3923D01*
X270246Y3973D01*
X270158Y4027D01*
X270073Y4085D01*
X269992Y4148D01*
X269913Y4214D01*
X269839Y4285D01*
X269768Y4360D01*
X269701Y4439D01*
X269638Y4520D01*
X269580Y4605D01*
X269526Y4693D01*
X269477Y4784D01*
X269432Y4877D01*
X269393Y4972D01*
X269358Y5069D01*
X269329Y5168D01*
X269305Y5268D01*
X269286Y5370D01*
X269273Y5472D01*
X269265Y5574D01*
X269262Y5677D01*
Y7843D01*
X269265Y7946D01*
X269273Y8049D01*
X269286Y8151D01*
X269305Y8252D01*
X269329Y8352D01*
X269358Y8451D01*
X269393Y8548D01*
X269432Y8643D01*
X269477Y8736D01*
X269526Y8827D01*
X269580Y8915D01*
X269638Y9000D01*
X269701Y9082D01*
X269768Y9160D01*
X269839Y9235D01*
X269913Y9306D01*
X269992Y9373D01*
X270073Y9435D01*
X270158Y9494D01*
X270246Y9548D01*
X270337Y9597D01*
X270430Y9641D01*
X270525Y9680D01*
X270622Y9715D01*
X270721Y9744D01*
X270821Y9768D01*
X270922Y9787D01*
X271025Y9800D01*
X271127Y9809D01*
X271231Y9811D01*
X275955D01*
Y3709D01*
D02*
G37*
G36*
X298892Y9809D02*
X298995Y9800D01*
X299097Y9787D01*
X299199Y9768D01*
X299299Y9744D01*
X299398Y9715D01*
X299495Y9680D01*
X299590Y9641D01*
X299683Y9597D01*
X299774Y9548D01*
X299862Y9494D01*
X299947Y9435D01*
X300028Y9373D01*
X300107Y9306D01*
X300182Y9235D01*
X300252Y9160D01*
X300319Y9082D01*
X300382Y9000D01*
X300441Y8915D01*
X300494Y8827D01*
X300543Y8736D01*
X300588Y8643D01*
X300627Y8548D01*
X300662Y8451D01*
X300691Y8352D01*
X300715Y8252D01*
X300734Y8151D01*
X300747Y8049D01*
X300755Y7946D01*
X300758Y7843D01*
Y5677D01*
X300755Y5574D01*
X300747Y5472D01*
X300734Y5370D01*
X300715Y5268D01*
X300691Y5168D01*
X300662Y5069D01*
X300627Y4972D01*
X300588Y4877D01*
X300543Y4784D01*
X300494Y4693D01*
X300441Y4605D01*
X300382Y4520D01*
X300319Y4439D01*
X300252Y4360D01*
X300182Y4285D01*
X300107Y4214D01*
X300028Y4148D01*
X299947Y4085D01*
X299862Y4027D01*
X299774Y3973D01*
X299683Y3923D01*
X299590Y3879D01*
X299495Y3840D01*
X299398Y3805D01*
X299299Y3776D01*
X299199Y3752D01*
X299097Y3733D01*
X298995Y3720D01*
X298892Y3712D01*
X298790Y3709D01*
X294065D01*
Y9811D01*
X298790D01*
X298892Y9809D01*
D02*
G37*
%LPC*%
G36*
X271231Y9024D02*
X271179Y9023D01*
X271128Y9019D01*
X271076Y9012D01*
X271026Y9002D01*
X270976Y8990D01*
X270926Y8976D01*
X270878Y8958D01*
X270830Y8939D01*
X270784Y8917D01*
X270738Y8892D01*
X270694Y8865D01*
X270652Y8836D01*
X270611Y8805D01*
X270572Y8771D01*
X270534Y8736D01*
X270499Y8698D01*
X270466Y8659D01*
X270434Y8618D01*
X270405Y8576D01*
X270378Y8532D01*
X270354Y8486D01*
X270331Y8440D01*
X270312Y8392D01*
X270294Y8344D01*
X270280Y8294D01*
X270268Y8244D01*
X270258Y8194D01*
X270252Y8143D01*
X270248Y8091D01*
X270246Y8040D01*
Y5481D01*
X270248Y5429D01*
X270252Y5378D01*
X270258Y5327D01*
X270268Y5276D01*
X270280Y5226D01*
X270294Y5176D01*
X270312Y5128D01*
X270331Y5080D01*
X270354Y5034D01*
X270378Y4988D01*
X270405Y4944D01*
X270434Y4902D01*
X270466Y4861D01*
X270499Y4822D01*
X270534Y4785D01*
X270572Y4749D01*
X270611Y4716D01*
X270652Y4684D01*
X270694Y4655D01*
X270738Y4628D01*
X270784Y4604D01*
X270830Y4581D01*
X270878Y4562D01*
X270926Y4544D01*
X270976Y4530D01*
X271026Y4518D01*
X271076Y4508D01*
X271128Y4502D01*
X271179Y4498D01*
X271231Y4496D01*
X271282Y4498D01*
X271333Y4502D01*
X271384Y4508D01*
X271435Y4518D01*
X271485Y4530D01*
X271535Y4544D01*
X271583Y4562D01*
X271631Y4581D01*
X271677Y4604D01*
X271723Y4628D01*
X271766Y4655D01*
X271809Y4684D01*
X271850Y4716D01*
X271889Y4749D01*
X271926Y4785D01*
X271962Y4822D01*
X271995Y4861D01*
X272027Y4902D01*
X272056Y4944D01*
X272083Y4988D01*
X272108Y5034D01*
X272130Y5080D01*
X272149Y5128D01*
X272167Y5176D01*
X272181Y5226D01*
X272193Y5276D01*
X272203Y5327D01*
X272209Y5378D01*
X272213Y5429D01*
X272215Y5481D01*
Y8040D01*
X272213Y8091D01*
X272209Y8143D01*
X272203Y8194D01*
X272193Y8244D01*
X272181Y8294D01*
X272167Y8344D01*
X272149Y8392D01*
X272130Y8440D01*
X272108Y8486D01*
X272083Y8532D01*
X272056Y8576D01*
X272027Y8618D01*
X271995Y8659D01*
X271962Y8698D01*
X271926Y8736D01*
X271889Y8771D01*
X271850Y8805D01*
X271809Y8836D01*
X271766Y8865D01*
X271723Y8892D01*
X271677Y8917D01*
X271631Y8939D01*
X271583Y8958D01*
X271535Y8976D01*
X271485Y8990D01*
X271435Y9002D01*
X271384Y9012D01*
X271333Y9019D01*
X271282Y9023D01*
X271231Y9024D01*
D02*
G37*
G36*
X298790D02*
X298738Y9023D01*
X298687Y9019D01*
X298636Y9012D01*
X298585Y9002D01*
X298535Y8990D01*
X298485Y8976D01*
X298437Y8958D01*
X298389Y8939D01*
X298343Y8917D01*
X298297Y8892D01*
X298253Y8865D01*
X298211Y8836D01*
X298170Y8805D01*
X298131Y8771D01*
X298094Y8736D01*
X298058Y8698D01*
X298025Y8659D01*
X297993Y8618D01*
X297964Y8576D01*
X297937Y8532D01*
X297913Y8486D01*
X297890Y8440D01*
X297871Y8392D01*
X297853Y8344D01*
X297839Y8294D01*
X297827Y8244D01*
X297817Y8194D01*
X297811Y8143D01*
X297807Y8091D01*
X297805Y8040D01*
Y5481D01*
X297807Y5429D01*
X297811Y5378D01*
X297817Y5327D01*
X297827Y5276D01*
X297839Y5226D01*
X297853Y5176D01*
X297871Y5128D01*
X297890Y5080D01*
X297913Y5034D01*
X297937Y4988D01*
X297964Y4944D01*
X297993Y4902D01*
X298025Y4861D01*
X298058Y4822D01*
X298094Y4785D01*
X298131Y4749D01*
X298170Y4716D01*
X298211Y4684D01*
X298253Y4655D01*
X298297Y4628D01*
X298343Y4604D01*
X298389Y4581D01*
X298437Y4562D01*
X298485Y4544D01*
X298535Y4530D01*
X298585Y4518D01*
X298636Y4508D01*
X298687Y4502D01*
X298738Y4498D01*
X298790Y4496D01*
X298841Y4498D01*
X298892Y4502D01*
X298943Y4508D01*
X298994Y4518D01*
X299044Y4530D01*
X299094Y4544D01*
X299142Y4562D01*
X299190Y4581D01*
X299236Y4604D01*
X299282Y4628D01*
X299326Y4655D01*
X299368Y4684D01*
X299409Y4716D01*
X299448Y4749D01*
X299485Y4785D01*
X299521Y4822D01*
X299554Y4861D01*
X299586Y4902D01*
X299615Y4944D01*
X299642Y4988D01*
X299667Y5034D01*
X299689Y5080D01*
X299708Y5128D01*
X299726Y5176D01*
X299740Y5226D01*
X299752Y5276D01*
X299762Y5327D01*
X299768Y5378D01*
X299772Y5429D01*
X299774Y5481D01*
Y8040D01*
X299772Y8091D01*
X299768Y8143D01*
X299762Y8194D01*
X299752Y8244D01*
X299740Y8294D01*
X299726Y8344D01*
X299708Y8392D01*
X299689Y8440D01*
X299667Y8486D01*
X299642Y8532D01*
X299615Y8576D01*
X299586Y8618D01*
X299554Y8659D01*
X299521Y8698D01*
X299485Y8736D01*
X299448Y8771D01*
X299409Y8805D01*
X299368Y8836D01*
X299326Y8865D01*
X299282Y8892D01*
X299236Y8917D01*
X299190Y8939D01*
X299142Y8958D01*
X299094Y8976D01*
X299044Y8990D01*
X298994Y9002D01*
X298943Y9012D01*
X298892Y9019D01*
X298841Y9023D01*
X298790Y9024D01*
D02*
G37*
%LPD*%
D22*
X379134Y153150D02*
Y392913D01*
X-1575D02*
X379134D01*
X-1575Y-787D02*
Y392913D01*
Y-787D02*
X379134D01*
Y23622D01*
Y34646D02*
Y53543D01*
Y84646D02*
Y103543D01*
Y54724D02*
Y73622D01*
Y104331D02*
Y123228D01*
Y134252D02*
Y153150D01*
D23*
X378346Y31102D02*
Y31890D01*
Y28740D02*
Y29528D01*
Y26378D02*
Y27165D01*
X379921Y31102D02*
Y31890D01*
Y28740D02*
Y29528D01*
Y26378D02*
Y27165D01*
X378346Y81102D02*
Y81890D01*
Y78740D02*
Y79528D01*
Y76378D02*
Y77165D01*
X379921Y81102D02*
Y81890D01*
Y78740D02*
Y79528D01*
Y76378D02*
Y77165D01*
Y125984D02*
Y126772D01*
Y128347D02*
Y129134D01*
Y130709D02*
Y131496D01*
X378346Y125984D02*
Y126772D01*
Y128347D02*
Y129134D01*
Y130709D02*
Y131496D01*
D24*
X324485Y191908D02*
X377194Y191908D01*
X377194Y247452D02*
X377194Y191908D01*
X324485Y247452D02*
X377194Y247452D01*
X324485Y191908D02*
Y247452D01*
D25*
X298790Y3729D02*
Y4398D01*
X271231Y9122D02*
Y9792D01*
D26*
X330020Y199681D02*
D03*
X330021Y209680D02*
D03*
X330019Y219680D02*
D03*
X330020Y229679D02*
D03*
X330019Y239680D02*
D03*
D27*
X45286Y14131D02*
D03*
X37806D02*
D03*
X45286Y23579D02*
D03*
X37806D02*
D03*
X45286Y33422D02*
D03*
X37806D02*
D03*
X447680Y100810D02*
D03*
X440200D02*
D03*
X174963Y143781D02*
D03*
X167482D02*
D03*
X174963Y151944D02*
D03*
X167482D02*
D03*
X269460Y94409D02*
D03*
X276941D02*
D03*
X269460Y103070D02*
D03*
X276941D02*
D03*
X322019Y85747D02*
D03*
X329500D02*
D03*
X321823Y93228D02*
D03*
X329303D02*
D03*
X242532Y165332D02*
D03*
X235052D02*
D03*
X254480Y204780D02*
D03*
X261960D02*
D03*
X242532Y192891D02*
D03*
X235052D02*
D03*
X172255Y210193D02*
D03*
X164775D02*
D03*
X172255Y218855D02*
D03*
X164775D02*
D03*
X190365Y210193D02*
D03*
X197845D02*
D03*
X190365Y219248D02*
D03*
X197845D02*
D03*
X304500Y189860D02*
D03*
X297020D02*
D03*
D28*
X253556Y169466D02*
D03*
Y171434D02*
D03*
Y173403D02*
D03*
Y175371D02*
D03*
Y177340D02*
D03*
Y179308D02*
D03*
Y181277D02*
D03*
Y183245D02*
D03*
Y185214D02*
D03*
Y187182D02*
D03*
Y189151D02*
D03*
Y191119D02*
D03*
X287020Y190922D02*
D03*
Y188954D02*
D03*
Y179111D02*
D03*
Y181080D02*
D03*
Y183048D02*
D03*
Y185017D02*
D03*
Y186985D02*
D03*
Y177143D02*
D03*
Y171237D02*
D03*
Y173206D02*
D03*
Y175174D02*
D03*
Y169269D02*
D03*
D29*
X281115Y163560D02*
D03*
X279146D02*
D03*
X277178D02*
D03*
X275209D02*
D03*
X273241D02*
D03*
X271272D02*
D03*
X269304D02*
D03*
X267335D02*
D03*
X265367D02*
D03*
X263398D02*
D03*
X261430D02*
D03*
X259461D02*
D03*
Y197025D02*
D03*
X261430D02*
D03*
X271272D02*
D03*
X269304D02*
D03*
X267335D02*
D03*
X265367D02*
D03*
X263398D02*
D03*
X273241D02*
D03*
X279146D02*
D03*
X277178D02*
D03*
X275209D02*
D03*
X281115D02*
D03*
D30*
X425290Y102080D02*
D03*
X427849Y94600D02*
D03*
X422731D02*
D03*
X171223Y127338D02*
D03*
X168664Y134818D02*
D03*
X173782D02*
D03*
D31*
X446650Y93400D02*
D03*
X440350D02*
D03*
X431245Y84520D02*
D03*
X424945D02*
D03*
X93640Y159420D02*
D03*
X99940D02*
D03*
X58860Y18800D02*
D03*
X65160D02*
D03*
X58278Y29531D02*
D03*
X64578D02*
D03*
X129931Y29878D02*
D03*
X136231D02*
D03*
X235667Y172025D02*
D03*
X241967D02*
D03*
X235667Y178324D02*
D03*
X241967D02*
D03*
X235667Y185410D02*
D03*
X241967D02*
D03*
X270740Y218940D02*
D03*
X277040D02*
D03*
X220377Y277118D02*
D03*
X226677D02*
D03*
X226283Y285386D02*
D03*
X219983D02*
D03*
X314579Y276674D02*
D03*
X320879D02*
D03*
X320880Y284548D02*
D03*
X314580D02*
D03*
D32*
X242590Y106240D02*
D03*
Y101240D02*
D03*
Y96240D02*
D03*
Y91240D02*
D03*
X260897Y96240D02*
D03*
Y91240D02*
D03*
Y101240D02*
D03*
Y106240D02*
D03*
X293771Y97184D02*
D03*
Y92185D02*
D03*
Y87185D02*
D03*
Y82184D02*
D03*
X312078Y87185D02*
D03*
Y82184D02*
D03*
Y92185D02*
D03*
Y97184D02*
D03*
X79506Y152670D02*
D03*
Y137670D02*
D03*
X97813Y142670D02*
D03*
Y137670D02*
D03*
Y147670D02*
D03*
Y152670D02*
D03*
X79506Y142670D02*
D03*
Y147670D02*
D03*
D33*
X297649Y30075D02*
D03*
Y37555D02*
D03*
X183427Y144858D02*
D03*
Y152338D02*
D03*
X85433Y162802D02*
D03*
Y170282D02*
D03*
X77165D02*
D03*
Y162802D02*
D03*
X286144Y156446D02*
D03*
Y148965D02*
D03*
X300406Y179111D02*
D03*
Y171631D02*
D03*
X309068Y179111D02*
D03*
Y171631D02*
D03*
X317729Y179111D02*
D03*
Y171631D02*
D03*
D34*
X280860Y52220D02*
D03*
X284600D02*
D03*
X288340D02*
D03*
Y42968D02*
D03*
X284600D02*
D03*
X280860D02*
D03*
D35*
X272058Y31059D02*
D03*
Y42083D02*
D03*
D36*
X224604Y22352D02*
D03*
X173816D02*
D03*
D37*
X201769Y57588D02*
D03*
D38*
X183427Y134203D02*
D03*
Y127903D02*
D03*
X101586Y29181D02*
D03*
Y22881D02*
D03*
X300800Y148008D02*
D03*
Y154308D02*
D03*
X294501Y148008D02*
D03*
Y154308D02*
D03*
X307099D02*
D03*
Y148008D02*
D03*
X261024Y78331D02*
D03*
Y84631D02*
D03*
X269460Y78267D02*
D03*
Y84567D02*
D03*
X291508Y118819D02*
D03*
Y112519D02*
D03*
X298201Y112518D02*
D03*
Y118818D02*
D03*
X304893Y112518D02*
D03*
Y118818D02*
D03*
X284421Y118819D02*
D03*
Y112519D02*
D03*
X268910Y148402D02*
D03*
Y154702D02*
D03*
D39*
X144394Y128299D02*
D03*
Y151921D02*
D03*
D40*
X118409Y152256D02*
D03*
Y135051D02*
D03*
D41*
X38488Y208221D02*
D03*
X49512D02*
D03*
X246232Y114488D02*
D03*
X257256D02*
D03*
X351480Y281055D02*
D03*
X362504D02*
D03*
X269590D02*
D03*
X258567D02*
D03*
D42*
X97543Y172788D02*
D03*
Y186961D02*
D03*
D43*
X39236Y43233D02*
D03*
D03*
X44236D02*
D03*
X49236D02*
D03*
X54236D02*
D03*
X59236D02*
D03*
X64236D02*
D03*
X69236D02*
D03*
X74236D02*
D03*
X79236D02*
D03*
X84236D02*
D03*
X89236D02*
D03*
X94236D02*
D03*
X99236D02*
D03*
X104236D02*
D03*
X54236Y115701D02*
D03*
X79236D02*
D03*
X74236D02*
D03*
X84236D02*
D03*
X94236D02*
D03*
X104236D02*
D03*
X99236D02*
D03*
X89236D02*
D03*
X49236D02*
D03*
X64236D02*
D03*
X59236D02*
D03*
X44236D02*
D03*
X69236D02*
D03*
X39236D02*
D03*
D03*
D44*
X110890Y57012D02*
D03*
D03*
Y62012D02*
D03*
Y67012D02*
D03*
Y72012D02*
D03*
Y77012D02*
D03*
Y82012D02*
D03*
Y87012D02*
D03*
Y92012D02*
D03*
Y97012D02*
D03*
Y102012D02*
D03*
D45*
X64236Y64309D02*
D03*
Y70215D02*
D03*
Y76120D02*
D03*
X70142Y64309D02*
D03*
Y70215D02*
D03*
Y76120D02*
D03*
X76047Y64309D02*
D03*
Y70215D02*
D03*
Y76120D02*
D03*
D46*
X87412Y25135D02*
D03*
X79932Y22576D02*
D03*
Y27694D02*
D03*
X340170Y281359D02*
D03*
X332689Y278800D02*
D03*
Y283918D02*
D03*
X247058Y281847D02*
D03*
X239578Y279288D02*
D03*
Y284406D02*
D03*
D47*
X121467Y15705D02*
D03*
Y7831D02*
D03*
X150208D02*
D03*
Y15705D02*
D03*
D48*
X144696Y18658D02*
D03*
X138790D02*
D03*
X126979D02*
D03*
D49*
X231665Y106417D02*
D03*
Y102086D02*
D03*
D50*
X214410Y191017D02*
D03*
Y169363D02*
D03*
D51*
X153410Y162876D02*
D03*
Y171144D02*
D03*
D52*
X135464Y208107D02*
D03*
X114952D02*
D03*
Y173697D02*
D03*
X135464D02*
D03*
D53*
X330020Y199680D02*
D03*
X330020Y209680D02*
D03*
Y219680D02*
D03*
Y229680D02*
D03*
X330020Y239680D02*
D03*
D54*
X22772Y141496D02*
D03*
Y192284D02*
D03*
D55*
X58008Y164331D02*
D03*
D56*
X288947Y6760D02*
D03*
X281073D02*
D03*
D57*
X290128Y17390D02*
D03*
X287569D02*
D03*
X285010D02*
D03*
X282451D02*
D03*
X279892D02*
D03*
D58*
X181113Y181847D02*
D03*
Y190902D02*
D03*
Y199957D02*
D03*
D59*
X155916Y190902D02*
D03*
M02*
