G04*
G04 #@! TF.GenerationSoftware,Altium Limited,Altium Designer,21.6.1 (37)*
G04*
G04 Layer_Color=128*
%FSLAX25Y25*%
%MOIN*%
G70*
G04*
G04 #@! TF.SameCoordinates,ED18229B-BDCB-4A3C-9D88-49826DFA0344*
G04*
G04*
G04 #@! TF.FilePolarity,Positive*
G04*
G01*
G75*
%ADD14C,0.00394*%
%ADD22C,0.02362*%
%ADD23C,0.00984*%
%ADD24C,0.00394*%
%ADD211C,0.00200*%
D14*
X377910Y152490D02*
X400710D01*
X377910D02*
Y391590D01*
X-290D02*
X377910D01*
X-290Y-310D02*
Y391590D01*
X400710Y152490D02*
X499510D01*
Y-310D02*
Y152490D01*
X-290Y-310D02*
X499510D01*
D22*
X379134Y153150D02*
Y392913D01*
X-1575D02*
X379134D01*
X-1575Y-787D02*
Y392913D01*
Y-787D02*
X379134D01*
Y23622D01*
Y34646D02*
Y53543D01*
Y84646D02*
Y103543D01*
Y54724D02*
Y73622D01*
Y104331D02*
Y123228D01*
Y134252D02*
Y153150D01*
D23*
X378346Y31102D02*
Y31890D01*
Y28740D02*
Y29528D01*
Y26378D02*
Y27165D01*
X379921Y31102D02*
Y31890D01*
Y28740D02*
Y29528D01*
Y26378D02*
Y27165D01*
X378346Y81102D02*
Y81890D01*
Y78740D02*
Y79528D01*
Y76378D02*
Y77165D01*
X379921Y81102D02*
Y81890D01*
Y78740D02*
Y79528D01*
Y76378D02*
Y77165D01*
Y125984D02*
Y126772D01*
Y128347D02*
Y129134D01*
Y130709D02*
Y131496D01*
X378346Y125984D02*
Y126772D01*
Y128347D02*
Y129134D01*
Y130709D02*
Y131496D01*
D24*
X324485Y191908D02*
X377194Y191908D01*
X377194Y247452D02*
X377194Y191908D01*
X324485Y247452D02*
X377194Y247452D01*
X324485Y191908D02*
Y247452D01*
D211*
X437151Y136553D02*
X439513D01*
X438332Y135372D02*
Y137734D01*
X451325Y137340D02*
X453687D01*
X452506Y136159D02*
Y138521D01*
X450842Y123236D02*
X453204D01*
X452023Y122055D02*
Y124417D01*
X410177Y32484D02*
X413603D01*
X411890Y30772D02*
Y34197D01*
X410177Y38390D02*
X413603D01*
X411890Y36677D02*
Y40103D01*
X410177Y44295D02*
X413603D01*
X411890Y42583D02*
Y46008D01*
X410177Y50201D02*
X413603D01*
X411890Y48488D02*
Y51914D01*
X410177Y62012D02*
X413603D01*
X411890Y60299D02*
Y63725D01*
X410177Y56107D02*
X413603D01*
X411890Y54394D02*
Y57819D01*
X340597Y32585D02*
X344023D01*
X342310Y30872D02*
Y34297D01*
X340597Y38490D02*
X344023D01*
X342310Y36777D02*
Y40203D01*
X340597Y44396D02*
X344023D01*
X342310Y42683D02*
Y46108D01*
X340597Y50301D02*
X344023D01*
X342310Y48588D02*
Y52014D01*
X340597Y62112D02*
X344023D01*
X342310Y60400D02*
Y63825D01*
X340597Y56207D02*
X344023D01*
X342310Y54494D02*
Y57919D01*
X195076Y7392D02*
X203344D01*
X199210Y3258D02*
Y11525D01*
X197241Y25108D02*
X201179D01*
X199210Y23140D02*
Y27077D01*
X215745Y37707D02*
X220470D01*
X218108Y35344D02*
Y40069D01*
X192517Y49911D02*
X197241D01*
X194879Y47549D02*
Y52273D01*
X191841Y106233D02*
X195779D01*
X193810Y104264D02*
Y108201D01*
X191841Y86547D02*
X195779D01*
X193810Y84579D02*
Y88516D01*
X136625Y106650D02*
X139775D01*
X138200Y105075D02*
Y108225D01*
X136625Y86965D02*
X139775D01*
X138200Y85390D02*
Y88540D01*
X139971Y11768D02*
X143515D01*
X141743Y9996D02*
Y13540D01*
X128160Y11768D02*
X131704D01*
X129932Y9996D02*
Y13540D01*
X295327Y328210D02*
X300445D01*
X297886Y325651D02*
Y330769D01*
X355327Y328210D02*
X360445D01*
X357886Y325651D02*
Y330769D01*
X295327Y298210D02*
X300445D01*
X297886Y295651D02*
Y300769D01*
X335327Y298210D02*
X340445D01*
X337886Y295651D02*
Y300769D01*
X365327Y298210D02*
X370445D01*
X367886Y295651D02*
Y300769D01*
X208082Y328697D02*
X213200D01*
X210641Y326138D02*
Y331256D01*
X268082Y328697D02*
X273200D01*
X270641Y326138D02*
Y331256D01*
X208082Y298697D02*
X213200D01*
X210641Y296138D02*
Y301256D01*
X248082Y298697D02*
X253200D01*
X250641Y296138D02*
Y301256D01*
X278082Y298697D02*
X283200D01*
X280641Y296138D02*
Y301256D01*
X319615Y349899D02*
X326308D01*
X322961Y346552D02*
Y353245D01*
X339615Y349899D02*
X346308D01*
X342961Y346552D02*
Y353245D01*
X232369Y349599D02*
X239062D01*
X235716Y346252D02*
Y352945D01*
X252369Y349599D02*
X259062D01*
X255715Y346252D02*
Y352945D01*
X37999Y346704D02*
X44692D01*
X41346Y343358D02*
Y350051D01*
X37999Y366704D02*
X44692D01*
X41346Y363358D02*
Y370051D01*
X75830Y366704D02*
X80161D01*
X77995Y364539D02*
Y368869D01*
X193940Y366704D02*
X198271D01*
X196106Y364539D02*
Y368869D01*
X45437Y302332D02*
X49374D01*
X47406Y300363D02*
Y304300D01*
X3678Y166890D02*
X11945D01*
X7812Y162756D02*
Y171024D01*
X23560Y166890D02*
X27497D01*
X25528Y164921D02*
Y168859D01*
X35764Y147992D02*
X40489D01*
X38127Y145630D02*
Y150355D01*
X47969Y171221D02*
X52693D01*
X50331Y168859D02*
Y173583D01*
X297805Y6760D02*
X299774D01*
X298790Y5776D02*
Y7744D01*
X270246Y6760D02*
X272215D01*
X271231Y5776D02*
Y7744D01*
X293770Y17390D02*
X295935D01*
X294852Y16307D02*
Y18473D01*
X274085Y17390D02*
X276250D01*
X275167Y16307D02*
Y18473D01*
X25890Y251922D02*
X29827D01*
X27858Y249953D02*
Y253890D01*
X45575Y251922D02*
X49512D01*
X47543Y249953D02*
Y253890D01*
X25752Y302332D02*
X29689D01*
X27721Y300363D02*
Y304300D01*
X107386Y327118D02*
X109748D01*
X108567Y325937D02*
Y328299D01*
X146756Y327118D02*
X149118D01*
X147937Y325937D02*
Y328299D01*
X87700Y248378D02*
X90063D01*
X88882Y247197D02*
Y249559D01*
X166441Y248378D02*
X168803D01*
X167622Y247197D02*
Y249559D01*
X414332Y98291D02*
X415710D01*
X415021Y97602D02*
Y98980D01*
X405076Y82926D02*
X406454D01*
X405765Y82237D02*
Y83615D01*
X432111Y79630D02*
X433489D01*
X432800Y78941D02*
Y80319D01*
X448481Y55140D02*
X449859D01*
X449170Y54451D02*
Y55829D01*
X461091Y65430D02*
X462469D01*
X461780Y64741D02*
Y66119D01*
X471841Y14350D02*
X473219D01*
X472530Y13661D02*
Y15039D01*
X461511Y40320D02*
X462889D01*
X462200Y39631D02*
Y41009D01*
X441007Y78962D02*
X442385D01*
X441696Y78273D02*
Y79651D01*
X438381Y16270D02*
X439759D01*
X439070Y15581D02*
Y16959D01*
X405061Y45810D02*
X406439D01*
X405750Y45121D02*
Y46499D01*
X420311Y76310D02*
X421689D01*
X421000Y75621D02*
Y76999D01*
X416289Y49660D02*
X417667D01*
X416978Y48971D02*
Y50349D01*
X429021Y48610D02*
X430399D01*
X429710Y47921D02*
Y49299D01*
X233661Y271800D02*
X235039D01*
X234350Y271111D02*
Y272489D01*
X297581Y71750D02*
X298959D01*
X298270Y71061D02*
Y72439D01*
X231351Y76350D02*
X232729D01*
X232040Y75661D02*
Y77039D01*
X346891Y95140D02*
X348269D01*
X347580Y94451D02*
Y95829D01*
X26941Y286090D02*
X28319D01*
X27630Y285401D02*
Y286779D01*
X26431Y226670D02*
X27809D01*
X27120Y225981D02*
Y227359D01*
X70871Y184010D02*
X72249D01*
X71560Y183321D02*
Y184699D01*
X55891Y139830D02*
X57269D01*
X56580Y139141D02*
Y140519D01*
X124961Y187310D02*
X126339D01*
X125650Y186621D02*
Y187999D01*
X335711Y120530D02*
X337089D01*
X336400Y119841D02*
Y121219D01*
X343591Y155570D02*
X344969D01*
X344280Y154881D02*
Y156259D01*
X337241Y149980D02*
X338619D01*
X337930Y149291D02*
Y150669D01*
X312101Y233530D02*
X313479D01*
X312790Y232841D02*
Y234219D01*
X302961Y235050D02*
X304339D01*
X303650Y234361D02*
Y235739D01*
X280361Y238100D02*
X281739D01*
X281050Y237411D02*
Y238789D01*
X265631Y240130D02*
X267009D01*
X266320Y239441D02*
Y240819D01*
X233131Y220580D02*
X234509D01*
X233820Y219891D02*
Y221269D01*
X214701Y141740D02*
X216079D01*
X215390Y141051D02*
Y142429D01*
X279733Y158453D02*
X281111D01*
X280422Y157764D02*
Y159142D01*
X279371Y155110D02*
X280749D01*
X280060Y154421D02*
Y155799D01*
X272721Y154320D02*
X274099D01*
X273410Y153631D02*
Y155009D01*
X277671Y149140D02*
X279049D01*
X278360Y148451D02*
Y149829D01*
X262491Y112000D02*
X263869D01*
X263180Y111311D02*
Y112689D01*
X267627Y110769D02*
X269005D01*
X268316Y110080D02*
Y111458D01*
X292101Y186310D02*
X293479D01*
X292790Y185621D02*
Y186999D01*
X261095Y202003D02*
X262473D01*
X261784Y201314D02*
Y202692D01*
X302351Y194930D02*
X303729D01*
X303040Y194241D02*
Y195619D01*
X234901Y168850D02*
X236279D01*
X235590Y168161D02*
Y169539D01*
X248005Y177596D02*
X249383D01*
X248694Y176907D02*
Y178285D01*
X290701Y33310D02*
X292079D01*
X291390Y32621D02*
Y33999D01*
X17201Y265080D02*
X18579D01*
X17890Y264391D02*
Y265769D01*
X283721Y38840D02*
X285099D01*
X284410Y38151D02*
Y39529D01*
X271531Y36600D02*
X272909D01*
X272220Y35911D02*
Y37289D01*
X285291Y161950D02*
X286669D01*
X285980Y161261D02*
Y162639D01*
X302151Y164410D02*
X303529D01*
X302840Y163721D02*
Y165099D01*
X276631Y140210D02*
X278009D01*
X277320Y139521D02*
Y140899D01*
X283301Y136580D02*
X284679D01*
X283990Y135891D02*
Y137269D01*
X252931Y64500D02*
X254309D01*
X253620Y63811D02*
Y65189D01*
X247095Y63276D02*
X248473D01*
X247784Y62587D02*
Y63965D01*
X264231Y62390D02*
X265609D01*
X264920Y61701D02*
Y63079D01*
X305071Y57750D02*
X306449D01*
X305760Y57061D02*
Y58439D01*
X284651Y215140D02*
X286029D01*
X285340Y214451D02*
Y215829D01*
X295901Y128690D02*
X297279D01*
X296590Y128001D02*
Y129379D01*
X263041Y211600D02*
X264419D01*
X263730Y210911D02*
Y212289D01*
X277381Y210180D02*
X278759D01*
X278070Y209491D02*
Y210869D01*
X328511Y44310D02*
X329889D01*
X329200Y43621D02*
Y44999D01*
X308271Y137060D02*
X309649D01*
X308960Y136371D02*
Y137749D01*
X313561Y139730D02*
X314939D01*
X314250Y139041D02*
Y140419D01*
X328311Y49310D02*
X329689D01*
X329000Y48621D02*
Y49999D01*
X328131Y53790D02*
X329509D01*
X328820Y53101D02*
Y54479D01*
X189671Y130430D02*
X191049D01*
X190360Y129741D02*
Y131119D01*
X290861Y25980D02*
X292239D01*
X291550Y25291D02*
Y26669D01*
X318761Y203760D02*
X320139D01*
X319450Y203071D02*
Y204449D01*
X280771Y187030D02*
X282149D01*
X281460Y186341D02*
Y187719D01*
X257601Y157980D02*
X258979D01*
X258290Y157291D02*
Y158669D01*
X249241Y163600D02*
X250619D01*
X249930Y162911D02*
Y164289D01*
X61711Y124520D02*
X63089D01*
X62400Y123831D02*
Y125209D01*
X49981Y124380D02*
X51359D01*
X50670Y123691D02*
Y125069D01*
X141171Y33620D02*
X142549D01*
X141860Y32931D02*
Y34309D01*
X270431Y142860D02*
X271809D01*
X271120Y142171D02*
Y143549D01*
X68081Y15485D02*
X69459D01*
X68770Y14796D02*
Y16174D01*
X262601Y117020D02*
X263979D01*
X263290Y116331D02*
Y117709D01*
X285739Y63532D02*
X287117D01*
X286428Y62843D02*
Y64221D01*
X92951Y156851D02*
X94329D01*
X93640Y156162D02*
Y157540D01*
X70161Y152680D02*
X71539D01*
X70850Y151991D02*
Y153369D01*
X85831Y156820D02*
X87209D01*
X86520Y156131D02*
Y157509D01*
X51781Y185320D02*
X53159D01*
X52470Y184631D02*
Y186009D01*
X104581Y29120D02*
X105959D01*
X105270Y28431D02*
Y29809D01*
X50431Y32300D02*
X51809D01*
X51120Y31611D02*
Y32989D01*
X327971Y72510D02*
X329349D01*
X328660Y71821D02*
Y73199D01*
X85831Y160000D02*
X87209D01*
X86520Y159311D02*
Y160689D01*
X78231Y160000D02*
X79609D01*
X78920Y159311D02*
Y160689D01*
M02*
