G04*
G04 #@! TF.GenerationSoftware,Altium Limited,Altium Designer,21.6.1 (37)*
G04*
G04 Layer_Color=16711935*
%FSLAX25Y25*%
%MOIN*%
G70*
G04*
G04 #@! TF.SameCoordinates,ED18229B-BDCB-4A3C-9D88-49826DFA0344*
G04*
G04*
G04 #@! TF.FilePolarity,Positive*
G04*
G01*
G75*
%ADD10C,0.00787*%
%ADD14C,0.00394*%
%ADD19C,0.01000*%
%ADD22C,0.02362*%
%ADD23C,0.00984*%
%ADD24C,0.00394*%
%ADD210C,0.00197*%
D10*
X406378Y26776D02*
X420158D01*
Y68114D01*
X406378D02*
X420158D01*
X406378Y26776D02*
Y68114D01*
X418991Y104245D02*
Y105033D01*
Y92041D02*
Y104245D01*
X432377Y92041D02*
Y105033D01*
X418991D02*
X432377D01*
X418991Y92041D02*
X432377D01*
X336798Y26876D02*
X350578D01*
Y68214D01*
X336798D02*
X350578D01*
X336798Y26876D02*
Y68214D01*
X177522Y124385D02*
Y125173D01*
Y137377D01*
X164136Y124385D02*
Y137377D01*
Y124385D02*
X177522D01*
X164136Y137377D02*
X177522D01*
X89578Y31435D02*
X90365D01*
X77373D02*
X89578D01*
X77373Y18049D02*
X90365D01*
Y31435D01*
X77373Y18049D02*
Y31435D01*
X342335Y287659D02*
X343123D01*
X330131D02*
X342335D01*
X330131Y274273D02*
X343123D01*
Y287659D01*
X330131Y274273D02*
Y287659D01*
X249223Y288146D02*
X250011D01*
X237019D02*
X249223D01*
X237019Y274760D02*
X250011D01*
Y288146D01*
X237019Y274760D02*
Y288146D01*
X308871Y353407D02*
Y377816D01*
X308477Y341202D02*
X357296D01*
X308871Y390021D02*
X357296D01*
Y341202D02*
Y390021D01*
X308871D02*
X309221D01*
X308871Y341202D02*
Y353407D01*
Y377816D02*
Y390021D01*
X221625Y353106D02*
Y377516D01*
X221231Y340902D02*
X270050D01*
X221625Y389721D02*
X270050D01*
Y340902D02*
Y389721D01*
X221625D02*
X221975D01*
X221625Y340902D02*
Y353106D01*
Y377516D02*
Y389721D01*
X13429Y332614D02*
X37838D01*
X50043Y332220D02*
Y381039D01*
X1224Y332614D02*
Y381039D01*
X50043D01*
X1224Y332614D02*
Y332964D01*
X37838Y332614D02*
X50043D01*
X1224D02*
X13429D01*
X176782Y178303D02*
Y203500D01*
X160641Y178303D02*
Y203500D01*
Y178303D02*
Y203500D01*
X176782Y178303D02*
Y203500D01*
X160641Y178303D02*
X176782D01*
X160641Y203500D02*
X176782D01*
X160641D02*
X176782D01*
X160641Y178303D02*
X176782D01*
X185050Y177516D02*
Y204288D01*
X152373Y177910D02*
Y204288D01*
Y177516D02*
X185050D01*
X152373Y204288D02*
X185050D01*
D14*
X47058Y11375D02*
Y16886D01*
X36034D02*
X47058D01*
X36034Y11375D02*
Y16886D01*
Y11375D02*
X47058D01*
Y20823D02*
Y26335D01*
X36034D02*
X47058D01*
X36034Y20823D02*
Y26335D01*
Y20823D02*
X47058D01*
Y30666D02*
Y36178D01*
X36034D02*
X47058D01*
X36034Y30666D02*
Y36178D01*
Y30666D02*
X47058D01*
X426915Y109781D02*
X463332D01*
Y147970D01*
X426915D02*
X463332D01*
X426915Y109781D02*
Y147970D01*
X289973Y160607D02*
Y199977D01*
X250603Y160607D02*
X289973D01*
X250603D02*
Y199977D01*
X289973D01*
X449452Y98054D02*
Y103566D01*
X438428D02*
X449452D01*
X438428Y98054D02*
Y103566D01*
Y98054D02*
X449452D01*
X437791Y91235D02*
X449209D01*
X437791D02*
Y95565D01*
X449209D01*
Y91235D02*
Y95565D01*
X422386Y82355D02*
X433804D01*
X422386D02*
Y86685D01*
X433804D01*
Y82355D02*
Y86685D01*
X237964Y88897D02*
Y108582D01*
Y88897D02*
X265523D01*
X237964Y108582D02*
X265523D01*
Y88897D02*
Y108582D01*
X289145Y79842D02*
Y99527D01*
Y79842D02*
X316705D01*
X289145Y99527D02*
X316705D01*
Y79842D02*
Y99527D01*
X294893Y28303D02*
X300405D01*
Y39327D01*
X294893D02*
X300405D01*
X294893Y28303D02*
Y39327D01*
X278498Y41098D02*
Y55271D01*
Y39917D02*
Y41098D01*
Y39917D02*
X290899D01*
Y55271D01*
X278498D02*
X290899D01*
X268515Y27516D02*
X275601D01*
X268515Y27910D02*
Y45626D01*
X275601D01*
X268515Y27516D02*
Y27910D01*
X275601Y27516D02*
Y45626D01*
X164997Y19813D02*
Y66230D01*
X233383D01*
X165155Y-5226D02*
Y9065D01*
X164997D02*
Y19813D01*
X233383Y-5226D02*
Y66230D01*
X165155Y-5226D02*
X233383D01*
X185593Y125345D02*
Y136762D01*
X181262Y125345D02*
X185593D01*
X181262D02*
Y136762D01*
X185593D01*
X176734Y141025D02*
Y146537D01*
X165711D02*
X176734D01*
X165711Y141025D02*
Y146537D01*
Y141025D02*
X176734D01*
Y149188D02*
Y154700D01*
X165711D02*
X176734D01*
X165711Y149188D02*
Y154700D01*
Y149188D02*
X176734D01*
X186183Y143086D02*
Y154110D01*
X180671Y143086D02*
X186183D01*
X180671D02*
Y154110D01*
X186183D01*
X131047Y122276D02*
X141756D01*
X158449Y158418D02*
X159118Y157748D01*
X130653Y122669D02*
X131047Y122276D01*
X130968Y158418D02*
X158449D01*
X130653Y158103D02*
X130968Y158418D01*
X159118Y122906D02*
X159748Y122276D01*
X130653Y122669D02*
Y158103D01*
X159118Y122906D02*
Y157748D01*
X141756Y122276D02*
X159748D01*
X110929Y130268D02*
Y157040D01*
X125890Y130268D02*
Y157040D01*
X110929Y130268D02*
X114472D01*
X125890D01*
X110929Y157040D02*
X125890D01*
X74880Y135327D02*
Y155013D01*
Y135327D02*
X102439D01*
X74880Y155013D02*
X102439D01*
Y135327D02*
Y155013D01*
X82677Y161030D02*
X88189D01*
Y172054D01*
X82677D02*
X88189D01*
X82677Y161030D02*
Y172054D01*
X74410Y161030D02*
Y172054D01*
X79921D01*
Y161030D02*
Y172054D01*
X74410Y161030D02*
X79921D01*
X91081Y161585D02*
X102499D01*
Y157255D02*
Y161585D01*
X91081Y157255D02*
X102499D01*
X91081D02*
Y161585D01*
X34945Y204677D02*
Y211764D01*
X35338D02*
X53055D01*
Y204677D02*
Y211764D01*
X34945D02*
X35338D01*
X34945Y204677D02*
X53055D01*
X93606Y191292D02*
X101874D01*
X93606Y168851D02*
X101874D01*
Y191292D01*
X93606Y169244D02*
Y191292D01*
X172944Y75301D02*
X214676D01*
X172944Y118043D02*
X214676D01*
X172944Y75301D02*
Y118043D01*
X214676Y117256D02*
Y118043D01*
Y75301D02*
Y117256D01*
X157097Y77910D02*
Y115705D01*
X119302Y77910D02*
X157097D01*
X119302Y115705D02*
X157097D01*
X156289Y77910D02*
X157097D01*
X119302D02*
Y115705D01*
X8134Y40097D02*
Y118837D01*
X114433D01*
Y40097D02*
Y118837D01*
X8134Y40097D02*
X114433D01*
X67719Y16635D02*
Y20965D01*
X56301D02*
X67719D01*
X56301Y16635D02*
Y20965D01*
Y16635D02*
X67719D01*
X55719Y31697D02*
X67136D01*
Y27366D02*
Y31697D01*
X55719Y27366D02*
X67136D01*
X55719D02*
Y31697D01*
X99420Y20323D02*
X103751D01*
Y31740D01*
X99420D02*
X103751D01*
X99420Y20323D02*
Y31740D01*
X138790Y27713D02*
Y32043D01*
X127373D02*
X138790D01*
X127373Y27713D02*
Y32043D01*
Y27713D02*
X138790D01*
X118908Y744D02*
Y6650D01*
X152767Y744D02*
Y22792D01*
X118908Y6650D02*
Y22792D01*
Y744D02*
X152767D01*
X118908Y22792D02*
X152767D01*
X242689Y110944D02*
Y118031D01*
X243082D02*
X260799D01*
Y110944D02*
Y118031D01*
X242689D02*
X243082D01*
X242689Y110944D02*
X260799D01*
X267689Y91653D02*
Y97165D01*
Y91653D02*
X278712D01*
Y97165D01*
X267689D02*
X278712D01*
X267689Y100314D02*
Y105826D01*
Y100314D02*
X278712D01*
Y105826D01*
X267689D02*
X278712D01*
X320248Y82992D02*
Y88503D01*
Y82992D02*
X331271D01*
Y88503D01*
X320248D02*
X331271D01*
X320051Y90472D02*
Y95984D01*
Y90472D02*
X331075D01*
Y95984D01*
X320051D02*
X331075D01*
X298634Y156867D02*
X302965D01*
X298634Y145449D02*
Y156867D01*
Y145449D02*
X302965D01*
Y156867D01*
X292335D02*
X296666D01*
X292335Y145449D02*
Y156867D01*
Y145449D02*
X296666D01*
Y156867D01*
X309264Y145449D02*
Y156867D01*
X304934Y145449D02*
X309264D01*
X304934D02*
Y156867D01*
X309264D01*
X258859Y75773D02*
Y87190D01*
X263190D01*
Y75773D02*
Y87190D01*
X258859Y75773D02*
X263190D01*
X267295Y75708D02*
Y87125D01*
X271626D01*
Y75708D02*
Y87125D01*
X267295Y75708D02*
X271626D01*
X293673Y109960D02*
Y121377D01*
X289342Y109960D02*
X293673D01*
X289342D02*
Y121377D01*
X293673D01*
X296035Y109960D02*
Y121377D01*
X300366D01*
Y109960D02*
Y121377D01*
X296035Y109960D02*
X300366D01*
X302728Y121377D02*
X307059D01*
X302728Y109960D02*
Y121377D01*
Y109960D02*
X307059D01*
Y121377D01*
X282256Y109960D02*
X286586D01*
Y121377D01*
X282256D02*
X286586D01*
X282256Y109960D02*
Y121377D01*
X283388Y158217D02*
X288899D01*
X283388Y147194D02*
Y158217D01*
Y147194D02*
X288899D01*
Y158217D01*
X266745Y157261D02*
X271075D01*
X266745Y145844D02*
Y157261D01*
Y145844D02*
X271075D01*
Y157261D01*
X244304Y162576D02*
Y168088D01*
X233280D02*
X244304D01*
X233280Y162576D02*
Y168088D01*
Y162576D02*
X244304D01*
X233108Y174190D02*
X244526D01*
Y169859D02*
Y174190D01*
X233108Y169859D02*
X244526D01*
X233108D02*
Y174190D01*
Y180489D02*
X244526D01*
Y176158D02*
Y180489D01*
X233108Y176158D02*
X244526D01*
X233108D02*
Y180489D01*
Y187576D02*
X244526D01*
Y183245D02*
Y187576D01*
X233108Y183245D02*
X244526D01*
X233108D02*
Y187576D01*
X252708Y202024D02*
Y207536D01*
Y202024D02*
X263732D01*
Y207536D01*
X252708D02*
X263732D01*
X233280Y195647D02*
X244304D01*
Y190135D02*
Y195647D01*
X233280Y190135D02*
X244304D01*
X233280D02*
Y195647D01*
X146323Y159923D02*
Y174097D01*
Y159923D02*
X160497D01*
X146323Y174097D02*
X160497D01*
Y159923D02*
Y174097D01*
X174027Y207437D02*
Y212949D01*
X163003D02*
X174027D01*
X163003Y207437D02*
Y212949D01*
Y207437D02*
X174027D01*
Y216099D02*
Y221610D01*
X163003D02*
X174027D01*
X163003Y216099D02*
Y221610D01*
Y216099D02*
X174027D01*
X188593Y207437D02*
Y212949D01*
Y207437D02*
X199617D01*
Y212949D01*
X188593D02*
X199617D01*
X188593Y216492D02*
Y222004D01*
Y216492D02*
X199617D01*
Y222004D01*
X188593D02*
X199617D01*
X108279Y169642D02*
X142137D01*
X108279D02*
Y211768D01*
X142137Y170429D02*
Y211768D01*
Y169642D02*
Y170429D01*
X108279Y211768D02*
X142137D01*
X295248Y192616D02*
X306272D01*
Y187104D02*
Y192616D01*
X295248Y187104D02*
X306272D01*
X295248D02*
Y192616D01*
X297650Y180883D02*
X303162D01*
X297650Y169859D02*
Y180883D01*
Y169859D02*
X303162D01*
Y180883D01*
X306312D02*
X311823D01*
X306312Y169859D02*
Y180883D01*
Y169859D02*
X311823D01*
Y180883D01*
X314973D02*
X320485D01*
X314973Y169859D02*
Y180883D01*
Y169859D02*
X320485D01*
Y180883D01*
X363985Y247239D02*
X377174Y247239D01*
X324418Y247239D02*
X324418Y192121D01*
X377174Y247239D02*
X377174Y191727D01*
X324418Y191727D02*
X377174Y191727D01*
X324418Y247239D02*
X337607Y247239D01*
X363985Y247239D01*
X324418Y191727D02*
Y192121D01*
X268181Y221105D02*
X279599D01*
Y216775D02*
Y221105D01*
X268181Y216775D02*
X279599D01*
X268181D02*
Y221105D01*
X347937Y284599D02*
X366047D01*
X365653Y277512D02*
X366047D01*
X347937D02*
Y284599D01*
Y277512D02*
X365653D01*
X366047D02*
Y284599D01*
X273134Y277512D02*
Y284599D01*
X255023Y277512D02*
X272740D01*
X255023D02*
Y284599D01*
X272740Y277512D02*
X273134D01*
X255023Y284599D02*
X273134D01*
X293516Y293525D02*
X372256D01*
X328949Y313210D02*
X336823D01*
X372256Y293525D02*
Y332895D01*
X332886Y309273D02*
Y317147D01*
X293516Y332895D02*
X372256D01*
X293516Y293525D02*
Y332895D01*
X206271Y294012D02*
X285011D01*
X241704Y313697D02*
X249578D01*
X285011Y294012D02*
Y333382D01*
X245641Y309760D02*
Y317634D01*
X206271Y333382D02*
X285011D01*
X206271Y294012D02*
Y333382D01*
X57917Y346625D02*
Y389145D01*
X216972Y346625D02*
Y389145D01*
X57917D02*
X94531D01*
X57917Y346625D02*
X216972D01*
X94531Y389145D02*
X216972D01*
X217819Y279284D02*
X229236D01*
Y274953D02*
Y279284D01*
X217819Y274953D02*
X229236D01*
X217819D02*
Y279284D01*
X217425Y283221D02*
Y287551D01*
Y283221D02*
X228842D01*
Y287551D01*
X217425D02*
X228842D01*
X20233Y201103D02*
X66650D01*
Y132717D02*
Y201103D01*
X-4806Y200945D02*
X9485D01*
Y201103D02*
X20233D01*
X-4806Y132717D02*
X66650D01*
X-4806D02*
Y200945D01*
X312021Y278839D02*
X323438D01*
Y274509D02*
Y278839D01*
X312021Y274509D02*
X323438D01*
X312021D02*
Y278839D01*
X312021Y282383D02*
Y286713D01*
Y282383D02*
X323438D01*
Y286713D01*
X312021D02*
X323438D01*
X268081Y1051D02*
X301742D01*
Y20933D01*
X268278D02*
X301742D01*
X268081Y1051D02*
Y20933D01*
X16612Y231055D02*
X58567D01*
X59354D01*
X16612Y272788D02*
X59354D01*
Y231055D02*
Y272788D01*
X16612Y231055D02*
Y272788D01*
X16474Y281466D02*
X58429D01*
X59217D01*
X16474Y323198D02*
X59217D01*
Y281466D02*
Y323198D01*
X16474Y281466D02*
Y323198D01*
X63291Y232630D02*
Y342866D01*
X193212D01*
X63291Y232630D02*
X193212D01*
Y342866D01*
X447634Y94581D02*
Y92613D01*
X446650D01*
X446322Y92941D01*
Y93597D01*
X446650Y93925D01*
X447634D01*
X446978D02*
X446322Y94581D01*
X444354D02*
X445666D01*
X444354Y93269D01*
Y92941D01*
X444682Y92613D01*
X445338D01*
X445666Y92941D01*
X442386Y94581D02*
X443698D01*
X442386Y93269D01*
Y92941D01*
X442714Y92613D01*
X443370D01*
X443698Y92941D01*
X432229Y85701D02*
Y83733D01*
X431245D01*
X430917Y84061D01*
Y84717D01*
X431245Y85045D01*
X432229D01*
X431573D02*
X430917Y85701D01*
X428949D02*
X430261D01*
X428949Y84389D01*
Y84061D01*
X429277Y83733D01*
X429933D01*
X430261Y84061D01*
X426981Y83733D02*
X427637Y84061D01*
X428293Y84717D01*
Y85373D01*
X427965Y85701D01*
X427309D01*
X426981Y85373D01*
Y85045D01*
X427309Y84717D01*
X428293D01*
X182246Y135187D02*
X184214D01*
Y134203D01*
X183886Y133875D01*
X183230D01*
X182902Y134203D01*
Y135187D01*
Y134531D02*
X182246Y133875D01*
Y133219D02*
Y132563D01*
Y132891D01*
X184214D01*
X183886Y133219D01*
X182246Y130267D02*
Y131579D01*
X183558Y130267D01*
X183886D01*
X184214Y130595D01*
Y131251D01*
X183886Y131579D01*
X93968Y159879D02*
X93640Y160207D01*
X92984D01*
X92656Y159879D01*
Y158567D01*
X92984Y158239D01*
X93640D01*
X93968Y158567D01*
X94624Y158239D02*
X95280D01*
X94952D01*
Y160207D01*
X94624Y159879D01*
X66144Y19981D02*
Y18013D01*
X65160D01*
X64832Y18341D01*
Y18997D01*
X65160Y19325D01*
X66144D01*
X65488D02*
X64832Y19981D01*
X64176Y18013D02*
X62864D01*
Y18341D01*
X64176Y19653D01*
Y19981D01*
X57294Y28350D02*
Y30318D01*
X58278D01*
X58606Y29990D01*
Y29334D01*
X58278Y29006D01*
X57294D01*
X57950D02*
X58606Y28350D01*
X60574Y30318D02*
X59918Y29990D01*
X59262Y29334D01*
Y28678D01*
X59590Y28350D01*
X60246D01*
X60574Y28678D01*
Y29006D01*
X60246Y29334D01*
X59262D01*
X102767Y21897D02*
X100799D01*
Y22881D01*
X101127Y23209D01*
X101783D01*
X102111Y22881D01*
Y21897D01*
Y22554D02*
X102767Y23209D01*
Y23865D02*
Y24521D01*
Y24193D01*
X100799D01*
X101127Y23865D01*
Y25505D02*
X100799Y25833D01*
Y26489D01*
X101127Y26817D01*
X101455D01*
X101783Y26489D01*
Y26161D01*
Y26489D01*
X102111Y26817D01*
X102439D01*
X102767Y26489D01*
Y25833D01*
X102439Y25505D01*
X137215Y31059D02*
Y29091D01*
X136231D01*
X135903Y29419D01*
Y30075D01*
X136231Y30403D01*
X137215D01*
X136559D02*
X135903Y31059D01*
X135247D02*
X134591D01*
X134919D01*
Y29091D01*
X135247Y29419D01*
X132295Y29091D02*
X133607D01*
Y30075D01*
X132951Y29747D01*
X132623D01*
X132295Y30075D01*
Y30731D01*
X132623Y31059D01*
X133279D01*
X133607Y30731D01*
X299619Y155292D02*
X301587D01*
Y154308D01*
X301259Y153980D01*
X300603D01*
X300275Y154308D01*
Y155292D01*
Y154636D02*
X299619Y153980D01*
Y153324D02*
Y152668D01*
Y152996D01*
X301587D01*
X301259Y153324D01*
X301587Y151684D02*
Y150372D01*
X301259D01*
X299947Y151684D01*
X299619D01*
X293320Y155292D02*
X295287D01*
Y154308D01*
X294959Y153980D01*
X294303D01*
X293975Y154308D01*
Y155292D01*
Y154636D02*
X293320Y153980D01*
Y152012D02*
Y153324D01*
X294631Y152012D01*
X294959D01*
X295287Y152340D01*
Y152996D01*
X294959Y153324D01*
X293320Y151356D02*
Y150700D01*
Y151028D01*
X295287D01*
X294959Y151356D01*
X305918Y155292D02*
X307886D01*
Y154308D01*
X307558Y153980D01*
X306902D01*
X306574Y154308D01*
Y155292D01*
Y154636D02*
X305918Y153980D01*
Y153324D02*
Y152668D01*
Y152996D01*
X307886D01*
X307558Y153324D01*
Y151684D02*
X307886Y151356D01*
Y150700D01*
X307558Y150372D01*
X307230D01*
X306902Y150700D01*
X306574Y150372D01*
X306246D01*
X305918Y150700D01*
Y151356D01*
X306246Y151684D01*
X306574D01*
X306902Y151356D01*
X307230Y151684D01*
X307558D01*
X306902Y151356D02*
Y150700D01*
X262205Y77347D02*
X260237D01*
Y78331D01*
X260565Y78659D01*
X261221D01*
X261549Y78331D01*
Y77347D01*
Y78003D02*
X262205Y78659D01*
Y79315D02*
Y79971D01*
Y79643D01*
X260237D01*
X260565Y79315D01*
X260237Y82267D02*
X260565Y81611D01*
X261221Y80955D01*
X261877D01*
X262205Y81283D01*
Y81939D01*
X261877Y82267D01*
X261549D01*
X261221Y81939D01*
Y80955D01*
X270641Y77283D02*
X268674D01*
Y78267D01*
X269002Y78595D01*
X269657D01*
X269986Y78267D01*
Y77283D01*
Y77939D02*
X270641Y78595D01*
Y79251D02*
Y79907D01*
Y79579D01*
X268674D01*
X269002Y79251D01*
X270641Y81875D02*
X268674D01*
X269657Y80891D01*
Y82203D01*
X290327Y119803D02*
X292294D01*
Y118819D01*
X291966Y118491D01*
X291311D01*
X290983Y118819D01*
Y119803D01*
Y119147D02*
X290327Y118491D01*
X291966Y117835D02*
X292294Y117507D01*
Y116851D01*
X291966Y116523D01*
X291638D01*
X291311Y116851D01*
X290983Y116523D01*
X290654D01*
X290327Y116851D01*
Y117507D01*
X290654Y117835D01*
X290983D01*
X291311Y117507D01*
X291638Y117835D01*
X291966D01*
X291311Y117507D02*
Y116851D01*
X299382Y111535D02*
X297414D01*
Y112518D01*
X297742Y112846D01*
X298398D01*
X298726Y112518D01*
Y111535D01*
Y112190D02*
X299382Y112846D01*
Y113502D02*
Y114158D01*
Y113830D01*
X297414D01*
X297742Y113502D01*
Y115142D02*
X297414Y115470D01*
Y116126D01*
X297742Y116454D01*
X299054D01*
X299382Y116126D01*
Y115470D01*
X299054Y115142D01*
X297742D01*
X303712Y119802D02*
X305680D01*
Y118818D01*
X305352Y118490D01*
X304696D01*
X304368Y118818D01*
Y119802D01*
Y119146D02*
X303712Y118490D01*
Y117834D02*
Y117178D01*
Y117506D01*
X305680D01*
X305352Y117834D01*
X303712Y116194D02*
Y115539D01*
Y115866D01*
X305680D01*
X305352Y116194D01*
X285602Y111535D02*
X283634D01*
Y112519D01*
X283962Y112847D01*
X284618D01*
X284946Y112519D01*
Y111535D01*
Y112191D02*
X285602Y112847D01*
X285274Y113503D02*
X285602Y113831D01*
Y114487D01*
X285274Y114815D01*
X283962D01*
X283634Y114487D01*
Y113831D01*
X283962Y113503D01*
X284290D01*
X284618Y113831D01*
Y114815D01*
X267729Y155686D02*
X269697D01*
Y154702D01*
X269369Y154374D01*
X268713D01*
X268385Y154702D01*
Y155686D01*
Y155030D02*
X267729Y154374D01*
Y153718D02*
Y153062D01*
Y153390D01*
X269697D01*
X269369Y153718D01*
X268057Y152078D02*
X267729Y151750D01*
Y151094D01*
X268057Y150766D01*
X269369D01*
X269697Y151094D01*
Y151750D01*
X269369Y152078D01*
X269041D01*
X268713Y151750D01*
Y150766D01*
X235995Y172483D02*
X235667Y172811D01*
X235011D01*
X234683Y172483D01*
Y171171D01*
X235011Y170844D01*
X235667D01*
X235995Y171171D01*
X236651Y172483D02*
X236979Y172811D01*
X237635D01*
X237963Y172483D01*
Y172155D01*
X237635Y171827D01*
X237307D01*
X237635D01*
X237963Y171500D01*
Y171171D01*
X237635Y170844D01*
X236979D01*
X236651Y171171D01*
X238619Y170844D02*
X239275D01*
X238947D01*
Y172811D01*
X238619Y172483D01*
X235995Y178783D02*
X235667Y179111D01*
X235011D01*
X234683Y178783D01*
Y177471D01*
X235011Y177143D01*
X235667D01*
X235995Y177471D01*
X236651Y178783D02*
X236979Y179111D01*
X237635D01*
X237963Y178783D01*
Y178455D01*
X237635Y178127D01*
X237307D01*
X237635D01*
X237963Y177799D01*
Y177471D01*
X237635Y177143D01*
X236979D01*
X236651Y177471D01*
X238619Y178783D02*
X238947Y179111D01*
X239603D01*
X239931Y178783D01*
Y177471D01*
X239603Y177143D01*
X238947D01*
X238619Y177471D01*
Y178783D01*
X234683Y184229D02*
Y186197D01*
X235667D01*
X235995Y185869D01*
Y185213D01*
X235667Y184885D01*
X234683D01*
X235339D02*
X235995Y184229D01*
X237963D02*
X236651D01*
X237963Y185541D01*
Y185869D01*
X237635Y186197D01*
X236979D01*
X236651Y185869D01*
X238619D02*
X238947Y186197D01*
X239603D01*
X239931Y185869D01*
Y184557D01*
X239603Y184229D01*
X238947D01*
X238619Y184557D01*
Y185869D01*
X269756Y217759D02*
Y219727D01*
X270740D01*
X271068Y219399D01*
Y218743D01*
X270740Y218415D01*
X269756D01*
X270412D02*
X271068Y217759D01*
X271724Y219399D02*
X272052Y219727D01*
X272708D01*
X273036Y219399D01*
Y219071D01*
X272708Y218743D01*
X272380D01*
X272708D01*
X273036Y218415D01*
Y218087D01*
X272708Y217759D01*
X272052D01*
X271724Y218087D01*
X273692Y219727D02*
X275004D01*
Y219399D01*
X273692Y218087D01*
Y217759D01*
X219393Y275937D02*
Y277905D01*
X220377D01*
X220705Y277577D01*
Y276921D01*
X220377Y276593D01*
X219393D01*
X220049D02*
X220705Y275937D01*
X222345D02*
Y277905D01*
X221361Y276921D01*
X222673D01*
X218999Y284205D02*
Y286173D01*
X219983D01*
X220311Y285845D01*
Y285189D01*
X219983Y284861D01*
X218999D01*
X219655D02*
X220311Y284205D01*
X222279Y286173D02*
X220967D01*
Y285189D01*
X221623Y285517D01*
X221951D01*
X222279Y285189D01*
Y284533D01*
X221951Y284205D01*
X221295D01*
X220967Y284533D01*
X313595Y275493D02*
Y277461D01*
X314579D01*
X314907Y277133D01*
Y276477D01*
X314579Y276149D01*
X313595D01*
X314251D02*
X314907Y275493D01*
X315563Y277133D02*
X315891Y277461D01*
X316547D01*
X316875Y277133D01*
Y276805D01*
X316547Y276477D01*
X316219D01*
X316547D01*
X316875Y276149D01*
Y275821D01*
X316547Y275493D01*
X315891D01*
X315563Y275821D01*
X313596Y283367D02*
Y285335D01*
X314580D01*
X314908Y285007D01*
Y284351D01*
X314580Y284023D01*
X313596D01*
X314252D02*
X314908Y283367D01*
X316876D02*
X315564D01*
X316876Y284679D01*
Y285007D01*
X316548Y285335D01*
X315892D01*
X315564Y285007D01*
D19*
X38215Y14641D02*
X37920Y14936D01*
X37329D01*
X37034Y14641D01*
Y13460D01*
X37329Y13165D01*
X37920D01*
X38215Y13460D01*
X38805Y13165D02*
X39395D01*
X39100D01*
Y14936D01*
X38805Y14641D01*
X40281Y14936D02*
X41462D01*
Y14641D01*
X40281Y13460D01*
Y13165D01*
X38215Y24090D02*
X37920Y24385D01*
X37329D01*
X37034Y24090D01*
Y22909D01*
X37329Y22614D01*
X37920D01*
X38215Y22909D01*
X38805Y22614D02*
X39395D01*
X39100D01*
Y24385D01*
X38805Y24090D01*
X41462Y24385D02*
X40871Y24090D01*
X40281Y23499D01*
Y22909D01*
X40576Y22614D01*
X41166D01*
X41462Y22909D01*
Y23204D01*
X41166Y23499D01*
X40281D01*
X38215Y33932D02*
X37920Y34227D01*
X37329D01*
X37034Y33932D01*
Y32752D01*
X37329Y32456D01*
X37920D01*
X38215Y32752D01*
X38805Y32456D02*
X39395D01*
X39100D01*
Y34227D01*
X38805Y33932D01*
X41462Y34227D02*
X40281D01*
Y33342D01*
X40871Y33637D01*
X41166D01*
X41462Y33342D01*
Y32752D01*
X41166Y32456D01*
X40576D01*
X40281Y32752D01*
X437819Y130740D02*
X436820Y131740D01*
X434820D01*
X433821Y130740D01*
Y129741D01*
X434820Y128741D01*
X436820D01*
X437819Y127741D01*
Y126742D01*
X436820Y125742D01*
X434820D01*
X433821Y126742D01*
X439819Y125742D02*
X441818D01*
X440818D01*
Y131740D01*
X439819Y130740D01*
X415382Y57798D02*
X416038Y58454D01*
Y59765D01*
X415382Y60422D01*
X412759D01*
X412103Y59765D01*
Y58454D01*
X412759Y57798D01*
X412103Y56486D02*
X416038D01*
X412103Y53862D01*
X416038D01*
X412103Y49926D02*
Y52550D01*
X414726Y49926D01*
X415382D01*
X416038Y50582D01*
Y51894D01*
X415382Y52550D01*
X274271Y162653D02*
X269273D01*
X268273Y161653D01*
Y159654D01*
X269273Y158654D01*
X274271D01*
Y152656D02*
Y156655D01*
X271272D01*
X272272Y154656D01*
Y153656D01*
X271272Y152656D01*
X269273D01*
X268273Y153656D01*
Y155655D01*
X269273Y156655D01*
X423140Y96289D02*
Y98256D01*
X422648Y98748D01*
X421664D01*
X421172Y98256D01*
Y96289D01*
X421664Y95797D01*
X422648D01*
X422156Y96781D02*
X423140Y95797D01*
X422648D02*
X423140Y96289D01*
X426092Y98748D02*
X424124D01*
Y97272D01*
X425108Y97764D01*
X425600D01*
X426092Y97272D01*
Y96289D01*
X425600Y95797D01*
X424616D01*
X424124Y96289D01*
X439428Y101616D02*
Y99845D01*
X440609D01*
X442380Y101616D02*
X441199D01*
Y99845D01*
X442380D01*
X441199Y100730D02*
X441790D01*
X442970Y101616D02*
Y99845D01*
X443856D01*
X444151Y100140D01*
Y101321D01*
X443856Y101616D01*
X442970D01*
X444741Y99845D02*
X445332D01*
X445037D01*
Y101616D01*
X444741Y101321D01*
X242508Y101407D02*
Y96409D01*
X243507Y95409D01*
X245507D01*
X246506Y96409D01*
Y101407D01*
X248506Y95409D02*
X250505D01*
X249505D01*
Y101407D01*
X248506Y100407D01*
X293689Y92352D02*
Y87353D01*
X294688Y86354D01*
X296688D01*
X297688Y87353D01*
Y92352D01*
X299687Y91352D02*
X300687Y92352D01*
X302686D01*
X303685Y91352D01*
Y90352D01*
X302686Y89353D01*
X301686D01*
X302686D01*
X303685Y88353D01*
Y87353D01*
X302686Y86354D01*
X300687D01*
X299687Y87353D01*
X345802Y57898D02*
X346458Y58554D01*
Y59865D01*
X345802Y60522D01*
X343179D01*
X342523Y59865D01*
Y58554D01*
X343179Y57898D01*
X342523Y56586D02*
X346458D01*
X342523Y53962D01*
X346458D01*
X342523Y52650D02*
Y51338D01*
Y51994D01*
X346458D01*
X345802Y52650D01*
X298159Y37146D02*
X298454Y37442D01*
Y38032D01*
X298159Y38327D01*
X296978D01*
X296683Y38032D01*
Y37442D01*
X296978Y37146D01*
X298454Y36556D02*
Y35375D01*
X298159D01*
X296978Y36556D01*
X296683D01*
X282325Y40917D02*
X285605D01*
X286261Y41573D01*
Y42885D01*
X285605Y43541D01*
X282325D01*
X286261Y46821D02*
X282325D01*
X284293Y44853D01*
Y47476D01*
X270889Y28516D02*
X273644D01*
Y29893D01*
X273185Y30353D01*
X271348D01*
X270889Y29893D01*
Y28516D01*
X273644Y33108D02*
Y31271D01*
X271807Y33108D01*
X271348D01*
X270889Y32649D01*
Y31730D01*
X271348Y31271D01*
X195063Y19053D02*
Y16429D01*
Y17741D01*
X201623D01*
X202934Y16429D01*
Y15117D01*
X201623Y13805D01*
X195063Y26924D02*
X196375Y24300D01*
X198999Y21676D01*
X201623D01*
X202934Y22988D01*
Y25612D01*
X201623Y26924D01*
X200311D01*
X198999Y25612D01*
Y21676D01*
X173373Y133129D02*
Y131162D01*
X173865Y130670D01*
X174849D01*
X175341Y131162D01*
Y133129D01*
X174849Y133621D01*
X173865D01*
X174357Y132638D02*
X173373Y133621D01*
X173865D02*
X173373Y133129D01*
X170913Y133621D02*
Y130670D01*
X172389Y132146D01*
X170421D01*
X167892Y144292D02*
X167596Y144587D01*
X167006D01*
X166711Y144292D01*
Y143111D01*
X167006Y142816D01*
X167596D01*
X167892Y143111D01*
X168482Y144292D02*
X168777Y144587D01*
X169367D01*
X169663Y144292D01*
Y143997D01*
X169367Y143702D01*
X169663Y143406D01*
Y143111D01*
X169367Y142816D01*
X168777D01*
X168482Y143111D01*
Y143406D01*
X168777Y143702D01*
X168482Y143997D01*
Y144292D01*
X168777Y143702D02*
X169367D01*
X167892Y152455D02*
X167596Y152750D01*
X167006D01*
X166711Y152455D01*
Y151274D01*
X167006Y150979D01*
X167596D01*
X167892Y151274D01*
X168482D02*
X168777Y150979D01*
X169367D01*
X169663Y151274D01*
Y152455D01*
X169367Y152750D01*
X168777D01*
X168482Y152455D01*
Y152160D01*
X168777Y151864D01*
X169663D01*
X182917Y145267D02*
X182622Y144972D01*
Y144381D01*
X182917Y144086D01*
X184098D01*
X184393Y144381D01*
Y144972D01*
X184098Y145267D01*
X184393Y147038D02*
Y145857D01*
X183212Y147038D01*
X182917D01*
X182622Y146743D01*
Y146152D01*
X182917Y145857D01*
X184098Y147628D02*
X184393Y147923D01*
Y148514D01*
X184098Y148809D01*
X182917D01*
X182622Y148514D01*
Y147923D01*
X182917Y147628D01*
X183212D01*
X183507Y147923D01*
Y148809D01*
X145074Y137081D02*
X144418Y136425D01*
Y135113D01*
X145074Y134457D01*
X147698D01*
X148354Y135113D01*
Y136425D01*
X147698Y137081D01*
X148354Y141016D02*
Y138393D01*
X145730Y141016D01*
X145074D01*
X144418Y140361D01*
Y139049D01*
X145074Y138393D01*
X79424Y147837D02*
Y142839D01*
X80423Y141839D01*
X82423D01*
X83422Y142839D01*
Y147837D01*
X85422Y146838D02*
X89421Y142839D01*
X85422D02*
X89421Y146838D01*
X85422Y144838D02*
X89421D01*
X87421Y142839D02*
Y146838D01*
X91420Y141839D02*
X93419D01*
X92420D01*
Y147837D01*
X91420Y146838D01*
X85944Y169873D02*
X86239Y170168D01*
Y170759D01*
X85944Y171054D01*
X84763D01*
X84468Y170759D01*
Y170168D01*
X84763Y169873D01*
X86239Y168102D02*
X85944Y168693D01*
X85353Y169283D01*
X84763D01*
X84468Y168988D01*
Y168397D01*
X84763Y168102D01*
X85058D01*
X85353Y168397D01*
Y169283D01*
X77676Y169873D02*
X77971Y170168D01*
Y170759D01*
X77676Y171054D01*
X76495D01*
X76200Y170759D01*
Y170168D01*
X76495Y169873D01*
X77971Y168102D02*
Y169283D01*
X77086D01*
X77381Y168693D01*
Y168397D01*
X77086Y168102D01*
X76495D01*
X76200Y168397D01*
Y168988D01*
X76495Y169283D01*
X35945Y209390D02*
Y206635D01*
X37322D01*
X37781Y207094D01*
Y208931D01*
X37322Y209390D01*
X35945D01*
X40536D02*
X39618Y208931D01*
X38700Y208012D01*
Y207094D01*
X39159Y206635D01*
X40077D01*
X40536Y207094D01*
Y207553D01*
X40077Y208012D01*
X38700D01*
X96938Y172343D02*
Y170244D01*
X98512D01*
Y171294D01*
Y170244D01*
X100086D01*
Y173393D02*
Y174443D01*
Y173918D01*
X96938D01*
X97462Y173393D01*
X195728Y99853D02*
X196384Y100509D01*
Y101821D01*
X195728Y102477D01*
X193104D01*
X192448Y101821D01*
Y100509D01*
X193104Y99853D01*
X192448Y95917D02*
Y98541D01*
X195072Y95917D01*
X195728D01*
X196384Y96573D01*
Y97885D01*
X195728Y98541D01*
Y94605D02*
X196384Y93949D01*
Y92637D01*
X195728Y91981D01*
X193104D01*
X192448Y92637D01*
Y93949D01*
X193104Y94605D01*
X195728D01*
X143893Y94627D02*
Y98563D01*
X141269D01*
X137333Y95283D02*
X137989Y94627D01*
X139301D01*
X139957Y95283D01*
Y95939D01*
X139301Y96595D01*
X137989D01*
X137333Y97251D01*
Y97907D01*
X137989Y98563D01*
X139301D01*
X139957Y97907D01*
X136021Y98563D02*
X134709D01*
X135365D01*
Y94627D01*
X136021Y95283D01*
X81621Y27286D02*
X83589D01*
X84081Y27777D01*
Y28761D01*
X83589Y29253D01*
X81621D01*
X81129Y28761D01*
Y27777D01*
X82113Y28269D02*
X81129Y27286D01*
Y27777D02*
X81621Y27286D01*
X83589Y26302D02*
X84081Y25810D01*
Y24826D01*
X83589Y24334D01*
X83097D01*
X82605Y24826D01*
Y25318D01*
Y24826D01*
X82113Y24334D01*
X81621D01*
X81129Y24826D01*
Y25810D01*
X81621Y26302D01*
X130013Y11323D02*
X129357Y11979D01*
X128045D01*
X127389Y11323D01*
Y10667D01*
X128045Y10011D01*
X129357D01*
X130013Y9356D01*
Y8699D01*
X129357Y8044D01*
X128045D01*
X127389Y8699D01*
X131325Y11979D02*
Y8044D01*
X132636Y9356D01*
X133948Y8044D01*
Y11979D01*
X135260Y8044D02*
X136572D01*
X135916D01*
Y11979D01*
X135260Y11323D01*
X243689Y115657D02*
Y112902D01*
X245066D01*
X245525Y113361D01*
Y115198D01*
X245066Y115657D01*
X243689D01*
X248280D02*
X246444D01*
Y114279D01*
X247362Y114738D01*
X247821D01*
X248280Y114279D01*
Y113361D01*
X247821Y112902D01*
X246903D01*
X246444Y113361D01*
X231650Y101118D02*
X233618Y102429D01*
X231650D02*
X233618Y101118D01*
X231650Y103085D02*
Y104397D01*
Y103741D01*
X233618D01*
Y105053D02*
X232306D01*
X231650Y105709D01*
X232306Y106365D01*
X233618D01*
X232634D01*
Y105053D01*
X231650Y107021D02*
X233618D01*
Y108333D01*
Y108989D02*
Y109645D01*
Y109317D01*
X231650D01*
X231978Y108989D01*
X276532Y93898D02*
X276827Y93603D01*
X277417D01*
X277712Y93898D01*
Y95079D01*
X277417Y95374D01*
X276827D01*
X276532Y95079D01*
X275941Y95374D02*
X275351D01*
X275646D01*
Y93603D01*
X275941Y93898D01*
X274465Y95079D02*
X274170Y95374D01*
X273580D01*
X273285Y95079D01*
Y93898D01*
X273580Y93603D01*
X274170D01*
X274465Y93898D01*
Y94194D01*
X274170Y94489D01*
X273285D01*
X276532Y102560D02*
X276827Y102265D01*
X277417D01*
X277712Y102560D01*
Y103741D01*
X277417Y104036D01*
X276827D01*
X276532Y103741D01*
X275941Y104036D02*
X275351D01*
X275646D01*
Y102265D01*
X275941Y102560D01*
X274465D02*
X274170Y102265D01*
X273580D01*
X273285Y102560D01*
Y102855D01*
X273580Y103150D01*
X273285Y103445D01*
Y103741D01*
X273580Y104036D01*
X274170D01*
X274465Y103741D01*
Y103445D01*
X274170Y103150D01*
X274465Y102855D01*
Y102560D01*
X274170Y103150D02*
X273580D01*
X329091Y85237D02*
X329386Y84942D01*
X329976D01*
X330271Y85237D01*
Y86418D01*
X329976Y86713D01*
X329386D01*
X329091Y86418D01*
X327320Y86713D02*
X328500D01*
X327320Y85532D01*
Y85237D01*
X327615Y84942D01*
X328205D01*
X328500Y85237D01*
X326729Y84942D02*
X325549D01*
Y85237D01*
X326729Y86418D01*
Y86713D01*
X328894Y92717D02*
X329189Y92422D01*
X329779D01*
X330075Y92717D01*
Y93898D01*
X329779Y94193D01*
X329189D01*
X328894Y93898D01*
X327123Y94193D02*
X328304D01*
X327123Y93012D01*
Y92717D01*
X327418Y92422D01*
X328008D01*
X328304Y92717D01*
X326532D02*
X326237Y92422D01*
X325647D01*
X325352Y92717D01*
Y93012D01*
X325647Y93308D01*
X325352Y93603D01*
Y93898D01*
X325647Y94193D01*
X326237D01*
X326532Y93898D01*
Y93603D01*
X326237Y93308D01*
X326532Y93012D01*
Y92717D01*
X326237Y93308D02*
X325647D01*
X285633Y149374D02*
X285338Y149079D01*
Y148489D01*
X285633Y148194D01*
X286814D01*
X287109Y148489D01*
Y149079D01*
X286814Y149374D01*
X287109Y151145D02*
Y149965D01*
X285928Y151145D01*
X285633D01*
X285338Y150850D01*
Y150260D01*
X285633Y149965D01*
X285338Y152916D02*
Y151736D01*
X286224D01*
X285928Y152326D01*
Y152621D01*
X286224Y152916D01*
X286814D01*
X287109Y152621D01*
Y152031D01*
X286814Y151736D01*
X235461Y165842D02*
X235166Y166137D01*
X234575D01*
X234280Y165842D01*
Y164662D01*
X234575Y164366D01*
X235166D01*
X235461Y164662D01*
X237232Y164366D02*
X236051D01*
X237232Y165547D01*
Y165842D01*
X236937Y166137D01*
X236346D01*
X236051Y165842D01*
X239003Y166137D02*
X238413Y165842D01*
X237822Y165252D01*
Y164662D01*
X238117Y164366D01*
X238708D01*
X239003Y164662D01*
Y164957D01*
X238708Y165252D01*
X237822D01*
X260541Y204556D02*
X260836Y204261D01*
X261426D01*
X261721Y204556D01*
Y205737D01*
X261426Y206032D01*
X260836D01*
X260541Y205737D01*
X258770Y206032D02*
X259950D01*
X258770Y204851D01*
Y204556D01*
X259065Y204261D01*
X259655D01*
X259950Y204556D01*
X258179D02*
X257884Y204261D01*
X257294D01*
X256999Y204556D01*
Y204851D01*
X257294Y205146D01*
X257589D01*
X257294D01*
X256999Y205441D01*
Y205737D01*
X257294Y206032D01*
X257884D01*
X258179Y205737D01*
X242123Y192380D02*
X242418Y192085D01*
X243008D01*
X243304Y192380D01*
Y193561D01*
X243008Y193856D01*
X242418D01*
X242123Y193561D01*
X241533Y192380D02*
X241237Y192085D01*
X240647D01*
X240352Y192380D01*
Y192675D01*
X240647Y192971D01*
X240942D01*
X240647D01*
X240352Y193266D01*
Y193561D01*
X240647Y193856D01*
X241237D01*
X241533Y193561D01*
X238581Y193856D02*
X239761D01*
X238581Y192675D01*
Y192380D01*
X238876Y192085D01*
X239466D01*
X239761Y192380D01*
X214199Y168592D02*
X218134Y171215D01*
X214199D02*
X218134Y168592D01*
X214199Y172527D02*
Y175151D01*
Y173839D01*
X218134D01*
Y176463D02*
X215511D01*
X214199Y177775D01*
X215511Y179087D01*
X218134D01*
X216166D01*
Y176463D01*
X214199Y180399D02*
X218134D01*
Y183023D01*
Y186958D02*
Y184335D01*
X215511Y186958D01*
X214855D01*
X214199Y186302D01*
Y184991D01*
X214855Y184335D01*
X154331Y173097D02*
X151182D01*
Y170998D01*
Y169948D02*
Y168898D01*
Y169423D01*
X154331D01*
X153806Y169948D01*
X165184Y210704D02*
X164888Y210999D01*
X164298D01*
X164003Y210704D01*
Y209523D01*
X164298Y209228D01*
X164888D01*
X165184Y209523D01*
X165774Y209228D02*
X166364D01*
X166069D01*
Y210999D01*
X165774Y210704D01*
X167250D02*
X167545Y210999D01*
X168135D01*
X168431Y210704D01*
Y209523D01*
X168135Y209228D01*
X167545D01*
X167250Y209523D01*
Y210704D01*
X165184Y219365D02*
X164888Y219660D01*
X164298D01*
X164003Y219365D01*
Y218184D01*
X164298Y217889D01*
X164888D01*
X165184Y218184D01*
X165774Y217889D02*
X166364D01*
X166069D01*
Y219660D01*
X165774Y219365D01*
X167250Y217889D02*
X167840D01*
X167545D01*
Y219660D01*
X167250Y219365D01*
X197436Y209683D02*
X197731Y209387D01*
X198322D01*
X198617Y209683D01*
Y210863D01*
X198322Y211159D01*
X197731D01*
X197436Y210863D01*
X195665Y211159D02*
X196846D01*
X195665Y209978D01*
Y209683D01*
X195960Y209387D01*
X196551D01*
X196846Y209683D01*
X193894Y211159D02*
X195075D01*
X193894Y209978D01*
Y209683D01*
X194189Y209387D01*
X194780D01*
X195075Y209683D01*
X197436Y218738D02*
X197731Y218443D01*
X198322D01*
X198617Y218738D01*
Y219918D01*
X198322Y220214D01*
X197731D01*
X197436Y219918D01*
X195665Y220214D02*
X196846D01*
X195665Y219033D01*
Y218738D01*
X195960Y218443D01*
X196551D01*
X196846Y218738D01*
X195075Y220214D02*
X194485D01*
X194780D01*
Y218443D01*
X195075Y218738D01*
X131688Y191478D02*
Y194626D01*
X130114D01*
X129589Y194102D01*
Y193577D01*
X130114Y193052D01*
X131688D01*
X130114D01*
X129589Y192527D01*
Y192002D01*
X130114Y191478D01*
X131688D01*
X128539Y194626D02*
Y191478D01*
X126965D01*
X126440Y192002D01*
Y193052D01*
X126965Y193577D01*
X128539D01*
X127490D02*
X126440Y194626D01*
X125391D02*
X124341D01*
X124866D01*
Y191478D01*
X125391Y192002D01*
X304091Y189349D02*
X304386Y189054D01*
X304977D01*
X305272Y189349D01*
Y190530D01*
X304977Y190825D01*
X304386D01*
X304091Y190530D01*
X302320Y190825D02*
X303501D01*
X302320Y189645D01*
Y189349D01*
X302615Y189054D01*
X303206D01*
X303501Y189349D01*
X300844Y190825D02*
Y189054D01*
X301730Y189940D01*
X300549D01*
X299896Y172040D02*
X299600Y171745D01*
Y171154D01*
X299896Y170859D01*
X301076D01*
X301372Y171154D01*
Y171745D01*
X301076Y172040D01*
X301372Y172630D02*
Y173221D01*
Y172926D01*
X299600D01*
X299896Y172630D01*
X301372Y174992D02*
X299600D01*
X300486Y174106D01*
Y175287D01*
X308557Y172040D02*
X308262Y171745D01*
Y171154D01*
X308557Y170859D01*
X309738D01*
X310033Y171154D01*
Y171745D01*
X309738Y172040D01*
X310033Y172630D02*
Y173221D01*
Y172926D01*
X308262D01*
X308557Y172630D01*
Y174106D02*
X308262Y174401D01*
Y174992D01*
X308557Y175287D01*
X308852D01*
X309147Y174992D01*
Y174697D01*
Y174992D01*
X309443Y175287D01*
X309738D01*
X310033Y174992D01*
Y174401D01*
X309738Y174106D01*
X317218Y172040D02*
X316923Y171745D01*
Y171154D01*
X317218Y170859D01*
X318399D01*
X318694Y171154D01*
Y171745D01*
X318399Y172040D01*
X318694Y172630D02*
Y173221D01*
Y172925D01*
X316923D01*
X317218Y172630D01*
X318694Y175287D02*
Y174106D01*
X317514Y175287D01*
X317218D01*
X316923Y174992D01*
Y174401D01*
X317218Y174106D01*
X351766Y209524D02*
Y207425D01*
Y208474D01*
X357014D01*
X358064Y207425D01*
Y206375D01*
X357014Y205326D01*
X358064Y214771D02*
X351766D01*
X354915Y211623D01*
Y215821D01*
X334378Y283509D02*
X336346D01*
X336838Y284001D01*
Y284985D01*
X336346Y285477D01*
X334378D01*
X333886Y284985D01*
Y284001D01*
X334870Y284493D02*
X333886Y283509D01*
Y284001D02*
X334378Y283509D01*
X333886Y282526D02*
Y281542D01*
Y282034D01*
X336838D01*
X336346Y282526D01*
X365047Y279886D02*
Y282641D01*
X363669D01*
X363210Y282182D01*
Y280345D01*
X363669Y279886D01*
X365047D01*
X362292Y280345D02*
X361833Y279886D01*
X360914D01*
X360455Y280345D01*
Y280805D01*
X360914Y281264D01*
X361374D01*
X360914D01*
X360455Y281723D01*
Y282182D01*
X360914Y282641D01*
X361833D01*
X362292Y282182D01*
X241266Y283997D02*
X243234D01*
X243726Y284489D01*
Y285473D01*
X243234Y285965D01*
X241266D01*
X240775Y285473D01*
Y284489D01*
X241758Y284981D02*
X240775Y283997D01*
Y284489D02*
X241266Y283997D01*
X240775Y281045D02*
Y283013D01*
X242742Y281045D01*
X243234D01*
X243726Y281537D01*
Y282521D01*
X243234Y283013D01*
X272134Y279886D02*
Y282641D01*
X270756D01*
X270297Y282182D01*
Y280345D01*
X270756Y279886D01*
X272134D01*
X268001Y282641D02*
Y279886D01*
X269379Y281264D01*
X267542D01*
X314201Y310273D02*
Y318144D01*
X318137D01*
X319449Y316832D01*
Y314208D01*
X318137Y312896D01*
X314201D01*
X316825D02*
X319449Y310273D01*
X322073Y318144D02*
Y310273D01*
X327320D01*
X329944D02*
X332568D01*
X331256D01*
Y318144D01*
X329944Y316832D01*
X226956Y310760D02*
Y318632D01*
X230891D01*
X232203Y317320D01*
Y314696D01*
X230891Y313384D01*
X226956D01*
X229579D02*
X232203Y310760D01*
X234827Y318632D02*
Y310760D01*
X240075D01*
X247946D02*
X242699D01*
X247946Y316008D01*
Y317320D01*
X246634Y318632D01*
X244010D01*
X242699Y317320D01*
X325617Y368971D02*
X323650D01*
X324633D01*
Y364052D01*
X323650Y363068D01*
X322666D01*
X321682Y364052D01*
X331521Y363068D02*
X327585D01*
X331521Y367004D01*
Y367988D01*
X330537Y368971D01*
X328569D01*
X327585Y367988D01*
X238372Y368671D02*
X236404D01*
X237388D01*
Y363752D01*
X236404Y362768D01*
X235420D01*
X234436Y363752D01*
X240340Y367688D02*
X241323Y368671D01*
X243291D01*
X244275Y367688D01*
Y366704D01*
X243291Y365720D01*
X242307D01*
X243291D01*
X244275Y364736D01*
Y363752D01*
X243291Y362768D01*
X241323D01*
X240340Y363752D01*
X22273Y349360D02*
Y347393D01*
Y348376D01*
X27193D01*
X28177Y347393D01*
Y346409D01*
X27193Y345425D01*
X28177Y351328D02*
Y353296D01*
Y352312D01*
X22273D01*
X23257Y351328D01*
X130570Y364161D02*
Y368097D01*
X132538D01*
X133194Y367441D01*
Y366129D01*
X132538Y365473D01*
X130570D01*
X131882D02*
X133194Y364161D01*
X134506D02*
X135818D01*
X135162D01*
Y368097D01*
X134506Y367441D01*
X19473Y171037D02*
X16849D01*
X18161D01*
Y164478D01*
X16849Y163166D01*
X15537D01*
X14225Y164478D01*
X27344Y171037D02*
X22096D01*
Y167101D01*
X24720Y168413D01*
X26032D01*
X27344Y167101D01*
Y164478D01*
X26032Y163166D01*
X23408D01*
X22096Y164478D01*
X271640Y10712D02*
Y7432D01*
X272296Y6776D01*
X273608D01*
X274264Y7432D01*
Y10712D01*
X278200Y10056D02*
X277543Y10712D01*
X276232D01*
X275576Y10056D01*
Y9400D01*
X276232Y8744D01*
X277543D01*
X278200Y8088D01*
Y7432D01*
X277543Y6776D01*
X276232D01*
X275576Y7432D01*
X279511Y10712D02*
Y6776D01*
X281479D01*
X282135Y7432D01*
Y8088D01*
X281479Y8744D01*
X279511D01*
X281479D01*
X282135Y9400D01*
Y10056D01*
X281479Y10712D01*
X279511D01*
X283447Y6776D02*
X284759D01*
X284103D01*
Y10712D01*
X283447Y10056D01*
X41163Y250004D02*
X41819Y249348D01*
X43131D01*
X43787Y250004D01*
Y252628D01*
X43131Y253284D01*
X41819D01*
X41163Y252628D01*
X39851Y250004D02*
X39195Y249348D01*
X37883D01*
X37228Y250004D01*
Y250660D01*
X37883Y251316D01*
X38539D01*
X37883D01*
X37228Y251972D01*
Y252628D01*
X37883Y253284D01*
X39195D01*
X39851Y252628D01*
X41026Y300414D02*
X41682Y299758D01*
X42994D01*
X43650Y300414D01*
Y303038D01*
X42994Y303694D01*
X41682D01*
X41026Y303038D01*
X37746Y303694D02*
Y299758D01*
X39714Y301726D01*
X37090D01*
X93819Y290710D02*
X106938D01*
X100378D01*
Y271032D01*
X113497D02*
X120057D01*
X116777D01*
Y290710D01*
X113497Y287431D01*
X168172Y184815D02*
X170796Y187439D01*
Y184815D02*
X168172Y187439D01*
X169484Y184815D02*
Y187439D01*
X170796Y186127D02*
X168172D01*
X171452Y188751D02*
Y190063D01*
Y189407D01*
X167516D01*
X168172Y188751D01*
D22*
X379134Y153150D02*
Y392913D01*
X-1575D02*
X379134D01*
X-1575Y-787D02*
Y392913D01*
Y-787D02*
X379134D01*
Y23622D01*
Y34646D02*
Y53543D01*
Y84646D02*
Y103543D01*
Y54724D02*
Y73622D01*
Y104331D02*
Y123228D01*
Y134252D02*
Y153150D01*
D23*
X378346Y31102D02*
Y31890D01*
Y28740D02*
Y29528D01*
Y26378D02*
Y27165D01*
X379921Y31102D02*
Y31890D01*
Y28740D02*
Y29528D01*
Y26378D02*
Y27165D01*
X378346Y81102D02*
Y81890D01*
Y78740D02*
Y79528D01*
Y76378D02*
Y77165D01*
X379921Y81102D02*
Y81890D01*
Y78740D02*
Y79528D01*
Y76378D02*
Y77165D01*
Y125984D02*
Y126772D01*
Y128347D02*
Y129134D01*
Y130709D02*
Y131496D01*
X378346Y125984D02*
Y126772D01*
Y128347D02*
Y129134D01*
Y130709D02*
Y131496D01*
D24*
X324485Y191908D02*
X377194Y191908D01*
X377194Y247452D02*
X377194Y191908D01*
X324485Y247452D02*
X377194Y247452D01*
X324485Y191908D02*
Y247452D01*
D210*
X228712Y100118D02*
X234618D01*
X228712Y108385D02*
X234618D01*
Y100118D02*
Y108385D01*
X228712Y100118D02*
Y108385D01*
X217757Y194954D02*
X223465D01*
X205355Y165426D02*
X211064D01*
X217757Y194954D02*
Y198891D01*
X211064Y161489D02*
Y165426D01*
Y161489D02*
X217757D01*
X211064Y198891D02*
X217757D01*
Y161489D02*
Y165426D01*
X211064Y194954D02*
Y198891D01*
X205355Y194954D02*
X211064D01*
X217757Y165426D02*
X223465D01*
Y194954D01*
X205355Y165426D02*
Y194954D01*
M02*
