G04*
G04 #@! TF.GenerationSoftware,Altium Limited,Altium Designer,21.6.1 (37)*
G04*
G04 Layer_Color=128*
%FSLAX25Y25*%
%MOIN*%
G70*
G04*
G04 #@! TF.SameCoordinates,ED18229B-BDCB-4A3C-9D88-49826DFA0344*
G04*
G04*
G04 #@! TF.FilePolarity,Positive*
G04*
G01*
G75*
%ADD22C,0.02362*%
%ADD23C,0.00984*%
%ADD24C,0.00394*%
%ADD27R,0.03756X0.06118*%
%ADD31R,0.04800X0.04100*%
%ADD33R,0.06118X0.03756*%
%ADD38R,0.04100X0.04800*%
%ADD206R,0.04543X0.07299*%
%ADD207R,0.07299X0.04543*%
%ADD208R,0.05764X0.03323*%
%ADD209R,0.07299X0.03402*%
D22*
X379134Y153150D02*
Y392913D01*
X-1575D02*
X379134D01*
X-1575Y-787D02*
Y392913D01*
Y-787D02*
X379134D01*
Y23622D01*
Y34646D02*
Y53543D01*
Y84646D02*
Y103543D01*
Y54724D02*
Y73622D01*
Y104331D02*
Y123228D01*
Y134252D02*
Y153150D01*
D23*
X378346Y31102D02*
Y31890D01*
Y28740D02*
Y29528D01*
Y26378D02*
Y27165D01*
X379921Y31102D02*
Y31890D01*
Y28740D02*
Y29528D01*
Y26378D02*
Y27165D01*
X378346Y81102D02*
Y81890D01*
Y78740D02*
Y79528D01*
Y76378D02*
Y77165D01*
X379921Y81102D02*
Y81890D01*
Y78740D02*
Y79528D01*
Y76378D02*
Y77165D01*
Y125984D02*
Y126772D01*
Y128347D02*
Y129134D01*
Y130709D02*
Y131496D01*
X378346Y125984D02*
Y126772D01*
Y128347D02*
Y129134D01*
Y130709D02*
Y131496D01*
D24*
X324485Y191908D02*
X377194Y191908D01*
X377194Y247452D02*
X377194Y191908D01*
X324485Y247452D02*
X377194Y247452D01*
X324485Y191908D02*
Y247452D01*
D27*
X426910Y111920D02*
D03*
X434390D02*
D03*
X426860Y118610D02*
D03*
X434340D02*
D03*
X433965Y8630D02*
D03*
X426485D02*
D03*
X493820Y25820D02*
D03*
X486340D02*
D03*
X429540Y44150D02*
D03*
X437020D02*
D03*
X449660Y65190D02*
D03*
X457140D02*
D03*
X463270Y91460D02*
D03*
X455790D02*
D03*
D31*
X415840Y80180D02*
D03*
X409540D02*
D03*
X416020Y74520D02*
D03*
X409720D02*
D03*
X427100Y17080D02*
D03*
X433400D02*
D03*
X467950Y40250D02*
D03*
X474250D02*
D03*
X463000Y72900D02*
D03*
X456700D02*
D03*
D33*
X415820Y85870D02*
D03*
Y93350D02*
D03*
X409140Y85730D02*
D03*
Y93210D02*
D03*
X451770Y26350D02*
D03*
Y33830D02*
D03*
X442350Y67070D02*
D03*
Y59590D02*
D03*
X433920Y67070D02*
D03*
Y59590D02*
D03*
X425500Y67070D02*
D03*
Y59590D02*
D03*
X469640Y85605D02*
D03*
Y78125D02*
D03*
D38*
X408810Y105610D02*
D03*
Y99310D02*
D03*
X459840Y26820D02*
D03*
Y33120D02*
D03*
X463040Y78740D02*
D03*
Y85040D02*
D03*
X456140Y78740D02*
D03*
Y85040D02*
D03*
X456050Y98920D02*
D03*
Y105220D02*
D03*
X462800Y98920D02*
D03*
Y105220D02*
D03*
X469100Y98920D02*
D03*
Y105220D02*
D03*
D206*
X418960Y101686D02*
D03*
Y117040D02*
D03*
D207*
X472630Y18220D02*
D03*
X487984D02*
D03*
X441367Y24970D02*
D03*
X426013D02*
D03*
X440974Y35360D02*
D03*
X425620D02*
D03*
D208*
X468730Y25510D02*
D03*
Y29250D02*
D03*
Y32990D02*
D03*
X478612D02*
D03*
Y25510D02*
D03*
D209*
X447431Y104430D02*
D03*
Y99430D02*
D03*
Y94430D02*
D03*
Y89430D02*
D03*
Y84430D02*
D03*
Y79430D02*
D03*
Y74430D02*
D03*
X426919D02*
D03*
Y79430D02*
D03*
Y84430D02*
D03*
Y89430D02*
D03*
Y94430D02*
D03*
Y99430D02*
D03*
Y104430D02*
D03*
M02*
