G04*
G04 #@! TF.GenerationSoftware,Altium Limited,Altium Designer,21.6.1 (37)*
G04*
G04 Layer_Color=8388736*
%FSLAX25Y25*%
%MOIN*%
G70*
G04*
G04 #@! TF.SameCoordinates,ED18229B-BDCB-4A3C-9D88-49826DFA0344*
G04*
G04*
G04 #@! TF.FilePolarity,Negative*
G04*
G01*
G75*
%ADD22C,0.02362*%
%ADD23C,0.00984*%
%ADD24C,0.00394*%
%ADD60R,0.07921X0.04496*%
%ADD61R,0.03150X0.05512*%
%ADD62R,0.05118X0.01575*%
%ADD63R,0.01575X0.05118*%
%ADD64R,0.03543X0.03937*%
%ADD65R,0.03810X0.03110*%
%ADD66R,0.08278X0.01979*%
%ADD67R,0.05512X0.03150*%
%ADD68R,0.02756X0.05748*%
%ADD69R,0.02372X0.04144*%
%ADD70R,0.15364X0.24420*%
%ADD71R,0.13002X0.17333*%
%ADD72R,0.03110X0.03810*%
%ADD73R,0.08268X0.12205*%
%ADD74R,0.08740X0.09252*%
%ADD75R,0.04144X0.02372*%
%ADD76R,0.06309X0.06309*%
%ADD77R,0.03553X0.05916*%
%ADD78R,0.05916X0.03553*%
%ADD79R,0.03553X0.03553*%
%ADD80R,0.03937X0.03543*%
%ADD81R,0.03947X0.03160*%
%ADD82R,0.02766X0.05916*%
%ADD83R,0.03947X0.01979*%
%ADD84R,0.04734X0.13790*%
%ADD85R,0.13780X0.05512*%
%ADD86R,0.04734X0.05994*%
%ADD87R,0.05128X0.02766*%
%ADD88R,0.07530X0.04105*%
%ADD89R,0.24420X0.15364*%
%ADD90R,0.17333X0.13002*%
%ADD91R,0.05916X0.06112*%
%ADD92R,0.01585X0.05325*%
%ADD93R,0.06309X0.04734*%
%ADD94R,0.06309X0.13002*%
%ADD95C,0.03947*%
%ADD96O,0.05916X0.04341*%
%ADD97C,0.08278*%
%ADD98O,0.15758X0.07884*%
%ADD99O,0.07884X0.15758*%
%ADD100O,0.14183X0.07097*%
%ADD101C,0.07884*%
%ADD102C,0.00010*%
%ADD103C,0.07687*%
%ADD104C,0.10049*%
%ADD105O,0.07097X0.14183*%
%ADD106O,0.03061X0.06112*%
%ADD107O,0.05128X0.02569*%
G36*
X276349Y3315D02*
X270837D01*
X270734Y3318D01*
X270631Y3326D01*
X270529Y3339D01*
X270427Y3358D01*
X270327Y3382D01*
X270229Y3412D01*
X270131Y3446D01*
X270036Y3485D01*
X269943Y3530D01*
X269852Y3579D01*
X269765Y3633D01*
X269680Y3691D01*
X269598Y3754D01*
X269520Y3821D01*
X269445Y3892D01*
X269374Y3966D01*
X269307Y4045D01*
X269244Y4127D01*
X269186Y4212D01*
X269132Y4299D01*
X269083Y4390D01*
X269039Y4483D01*
X268999Y4578D01*
X268965Y4675D01*
X268935Y4774D01*
X268911Y4874D01*
X268893Y4976D01*
X268879Y5078D01*
X268871Y5181D01*
X268868Y5284D01*
Y8236D01*
X268871Y8339D01*
X268879Y8442D01*
X268893Y8544D01*
X268911Y8646D01*
X268935Y8746D01*
X268965Y8845D01*
X268999Y8942D01*
X269039Y9037D01*
X269083Y9130D01*
X269132Y9221D01*
X269186Y9309D01*
X269244Y9393D01*
X269307Y9475D01*
X269374Y9554D01*
X269445Y9628D01*
X269520Y9699D01*
X269598Y9766D01*
X269680Y9829D01*
X269765Y9887D01*
X269852Y9941D01*
X269943Y9990D01*
X270036Y10035D01*
X270131Y10074D01*
X270229Y10109D01*
X270327Y10138D01*
X270427Y10162D01*
X270529Y10181D01*
X270631Y10194D01*
X270734Y10202D01*
X270837Y10205D01*
X276349D01*
Y3315D01*
D02*
G37*
G36*
X299286Y10202D02*
X299389Y10194D01*
X299491Y10181D01*
X299592Y10162D01*
X299693Y10138D01*
X299792Y10109D01*
X299889Y10074D01*
X299984Y10035D01*
X300077Y9990D01*
X300167Y9941D01*
X300255Y9887D01*
X300340Y9829D01*
X300422Y9766D01*
X300500Y9699D01*
X300575Y9628D01*
X300646Y9554D01*
X300713Y9475D01*
X300776Y9393D01*
X300834Y9309D01*
X300888Y9221D01*
X300937Y9130D01*
X300982Y9037D01*
X301021Y8942D01*
X301055Y8845D01*
X301085Y8746D01*
X301109Y8646D01*
X301128Y8544D01*
X301141Y8442D01*
X301149Y8339D01*
X301152Y8236D01*
Y5284D01*
X301149Y5181D01*
X301141Y5078D01*
X301128Y4976D01*
X301109Y4874D01*
X301085Y4774D01*
X301055Y4675D01*
X301021Y4578D01*
X300982Y4483D01*
X300937Y4390D01*
X300888Y4299D01*
X300834Y4212D01*
X300776Y4127D01*
X300713Y4045D01*
X300646Y3966D01*
X300575Y3892D01*
X300500Y3821D01*
X300422Y3754D01*
X300340Y3691D01*
X300255Y3633D01*
X300167Y3579D01*
X300077Y3530D01*
X299984Y3485D01*
X299889Y3446D01*
X299792Y3412D01*
X299693Y3382D01*
X299592Y3358D01*
X299491Y3339D01*
X299389Y3326D01*
X299286Y3318D01*
X299183Y3315D01*
X293671D01*
Y10205D01*
X299183D01*
X299286Y10202D01*
D02*
G37*
D22*
X379134Y153150D02*
Y392913D01*
X-1575D02*
X379134D01*
X-1575Y-787D02*
Y392913D01*
Y-787D02*
X379134D01*
Y23622D01*
Y34646D02*
Y53543D01*
Y84646D02*
Y103543D01*
Y54724D02*
Y73622D01*
Y104331D02*
Y123228D01*
Y134252D02*
Y153150D01*
D23*
X378346Y31102D02*
Y31890D01*
Y28740D02*
Y29528D01*
Y26378D02*
Y27165D01*
X379921Y31102D02*
Y31890D01*
Y28740D02*
Y29528D01*
Y26378D02*
Y27165D01*
X378346Y81102D02*
Y81890D01*
Y78740D02*
Y79528D01*
Y76378D02*
Y77165D01*
X379921Y81102D02*
Y81890D01*
Y78740D02*
Y79528D01*
Y76378D02*
Y77165D01*
Y125984D02*
Y126772D01*
Y128347D02*
Y129134D01*
Y130709D02*
Y131496D01*
X378346Y125984D02*
Y126772D01*
Y128347D02*
Y129134D01*
Y130709D02*
Y131496D01*
D24*
X324485Y191908D02*
X377194Y191908D01*
X377194Y247452D02*
X377194Y191908D01*
X324485Y247452D02*
X377194Y247452D01*
X324485Y191908D02*
Y247452D01*
D60*
X330020Y199681D02*
D03*
X330021Y209680D02*
D03*
X330019Y219680D02*
D03*
X330020Y229679D02*
D03*
X330019Y239680D02*
D03*
D61*
X45286Y14131D02*
D03*
X37806D02*
D03*
X45286Y23579D02*
D03*
X37806D02*
D03*
X45286Y33422D02*
D03*
X37806D02*
D03*
X447680Y100810D02*
D03*
X440200D02*
D03*
X174963Y143781D02*
D03*
X167482D02*
D03*
X174963Y151944D02*
D03*
X167482D02*
D03*
X269460Y94409D02*
D03*
X276941D02*
D03*
X269460Y103070D02*
D03*
X276941D02*
D03*
X322019Y85747D02*
D03*
X329500D02*
D03*
X321823Y93228D02*
D03*
X329303D02*
D03*
X242532Y165332D02*
D03*
X235052D02*
D03*
X254480Y204780D02*
D03*
X261960D02*
D03*
X242532Y192891D02*
D03*
X235052D02*
D03*
X172255Y210193D02*
D03*
X164775D02*
D03*
X172255Y218855D02*
D03*
X164775D02*
D03*
X190365Y210193D02*
D03*
X197845D02*
D03*
X190365Y219248D02*
D03*
X197845D02*
D03*
X304500Y189860D02*
D03*
X297020D02*
D03*
D62*
X253556Y169466D02*
D03*
Y171434D02*
D03*
Y173403D02*
D03*
Y175371D02*
D03*
Y177340D02*
D03*
Y179308D02*
D03*
Y181277D02*
D03*
Y183245D02*
D03*
Y185214D02*
D03*
Y187182D02*
D03*
Y189151D02*
D03*
Y191119D02*
D03*
X287020Y190922D02*
D03*
Y188954D02*
D03*
Y179111D02*
D03*
Y181080D02*
D03*
Y183048D02*
D03*
Y185017D02*
D03*
Y186985D02*
D03*
Y177143D02*
D03*
Y171237D02*
D03*
Y173206D02*
D03*
Y175174D02*
D03*
Y169269D02*
D03*
D63*
X281115Y163560D02*
D03*
X279146D02*
D03*
X277178D02*
D03*
X275209D02*
D03*
X273241D02*
D03*
X271272D02*
D03*
X269304D02*
D03*
X267335D02*
D03*
X265367D02*
D03*
X263398D02*
D03*
X261430D02*
D03*
X259461D02*
D03*
Y197025D02*
D03*
X261430D02*
D03*
X271272D02*
D03*
X269304D02*
D03*
X267335D02*
D03*
X265367D02*
D03*
X263398D02*
D03*
X273241D02*
D03*
X279146D02*
D03*
X277178D02*
D03*
X275209D02*
D03*
X281115D02*
D03*
D64*
X425290Y102080D02*
D03*
X427849Y94600D02*
D03*
X422731D02*
D03*
X171223Y127338D02*
D03*
X168664Y134818D02*
D03*
X173782D02*
D03*
D65*
X446650Y93400D02*
D03*
X440350D02*
D03*
X431245Y84520D02*
D03*
X424945D02*
D03*
X93640Y159420D02*
D03*
X99940D02*
D03*
X58860Y18800D02*
D03*
X65160D02*
D03*
X58278Y29531D02*
D03*
X64578D02*
D03*
X129931Y29878D02*
D03*
X136231D02*
D03*
X235667Y172025D02*
D03*
X241967D02*
D03*
X235667Y178324D02*
D03*
X241967D02*
D03*
X235667Y185410D02*
D03*
X241967D02*
D03*
X270740Y218940D02*
D03*
X277040D02*
D03*
X220377Y277118D02*
D03*
X226677D02*
D03*
X226283Y285386D02*
D03*
X219983D02*
D03*
X314579Y276674D02*
D03*
X320879D02*
D03*
X320880Y284548D02*
D03*
X314580D02*
D03*
D66*
X242590Y106240D02*
D03*
Y101240D02*
D03*
Y96240D02*
D03*
Y91240D02*
D03*
X260897Y96240D02*
D03*
Y91240D02*
D03*
Y101240D02*
D03*
Y106240D02*
D03*
X293771Y97184D02*
D03*
Y92185D02*
D03*
Y87185D02*
D03*
Y82184D02*
D03*
X312078Y87185D02*
D03*
Y82184D02*
D03*
Y92185D02*
D03*
Y97184D02*
D03*
X79506Y152670D02*
D03*
Y137670D02*
D03*
X97813Y142670D02*
D03*
Y137670D02*
D03*
Y147670D02*
D03*
Y152670D02*
D03*
X79506Y142670D02*
D03*
Y147670D02*
D03*
D67*
X297649Y30075D02*
D03*
Y37555D02*
D03*
X183427Y144858D02*
D03*
Y152338D02*
D03*
X85433Y162802D02*
D03*
Y170282D02*
D03*
X77165D02*
D03*
Y162802D02*
D03*
X286144Y156446D02*
D03*
Y148965D02*
D03*
X300406Y179111D02*
D03*
Y171631D02*
D03*
X309068Y179111D02*
D03*
Y171631D02*
D03*
X317729D02*
D03*
D68*
X280860Y52220D02*
D03*
X284600D02*
D03*
X288340D02*
D03*
Y42968D02*
D03*
X284600D02*
D03*
X280860D02*
D03*
D69*
X272058Y31059D02*
D03*
Y42083D02*
D03*
D70*
X224604Y22352D02*
D03*
X173816D02*
D03*
D71*
X201769Y57588D02*
D03*
D72*
X183427Y134203D02*
D03*
Y127903D02*
D03*
X101586Y29181D02*
D03*
Y22881D02*
D03*
X300800Y148008D02*
D03*
Y154308D02*
D03*
X294501Y148008D02*
D03*
Y154308D02*
D03*
X307099D02*
D03*
Y148008D02*
D03*
X261024Y78331D02*
D03*
Y84631D02*
D03*
X269460Y78267D02*
D03*
Y84567D02*
D03*
X291508Y118819D02*
D03*
Y112519D02*
D03*
X298201Y112518D02*
D03*
Y118818D02*
D03*
X304893Y112518D02*
D03*
Y118818D02*
D03*
X284421Y118819D02*
D03*
Y112519D02*
D03*
X268910Y148402D02*
D03*
Y154702D02*
D03*
D73*
X144394Y128299D02*
D03*
Y151921D02*
D03*
D74*
X118409Y152256D02*
D03*
Y135051D02*
D03*
D75*
X38488Y208221D02*
D03*
X49512D02*
D03*
X246232Y114488D02*
D03*
X257256D02*
D03*
X351480Y281055D02*
D03*
X362504D02*
D03*
X269590D02*
D03*
X258567D02*
D03*
D76*
X97543Y172788D02*
D03*
Y186961D02*
D03*
D77*
X39236Y43233D02*
D03*
D03*
X44236D02*
D03*
X49236D02*
D03*
X54236D02*
D03*
X59236D02*
D03*
X64236D02*
D03*
X69236D02*
D03*
X74236D02*
D03*
X79236D02*
D03*
X84236D02*
D03*
X89236D02*
D03*
X94236D02*
D03*
X99236D02*
D03*
X104236D02*
D03*
X54236Y115701D02*
D03*
X79236D02*
D03*
X74236D02*
D03*
X84236D02*
D03*
X94236D02*
D03*
X104236D02*
D03*
X99236D02*
D03*
X89236D02*
D03*
X49236D02*
D03*
X64236D02*
D03*
X59236D02*
D03*
X44236D02*
D03*
X69236D02*
D03*
X39236D02*
D03*
D03*
D78*
X110890Y57012D02*
D03*
D03*
Y62012D02*
D03*
Y67012D02*
D03*
Y72012D02*
D03*
Y77012D02*
D03*
Y82012D02*
D03*
Y87012D02*
D03*
Y92012D02*
D03*
Y97012D02*
D03*
Y102012D02*
D03*
D79*
X64236Y64309D02*
D03*
Y70215D02*
D03*
Y76120D02*
D03*
X70142Y64309D02*
D03*
Y70215D02*
D03*
Y76120D02*
D03*
X76047Y64309D02*
D03*
Y70215D02*
D03*
Y76120D02*
D03*
D80*
X87412Y25135D02*
D03*
X79932Y22576D02*
D03*
Y27694D02*
D03*
X340170Y281359D02*
D03*
X332689Y278800D02*
D03*
Y283918D02*
D03*
X247058Y281847D02*
D03*
X239578Y279288D02*
D03*
Y284406D02*
D03*
D81*
X121467Y15705D02*
D03*
Y7831D02*
D03*
X150208D02*
D03*
Y15705D02*
D03*
D82*
X144696Y18658D02*
D03*
X138790D02*
D03*
X126979D02*
D03*
D83*
X231665Y106417D02*
D03*
Y102086D02*
D03*
D84*
X214410Y191017D02*
D03*
Y169363D02*
D03*
D85*
X153410Y162876D02*
D03*
Y171144D02*
D03*
D86*
X135464Y208107D02*
D03*
X114952D02*
D03*
Y173697D02*
D03*
X135464D02*
D03*
D87*
X317729Y179111D02*
D03*
D88*
X330020Y199680D02*
D03*
X330020Y209680D02*
D03*
Y219680D02*
D03*
Y229680D02*
D03*
X330020Y239680D02*
D03*
D89*
X22772Y141496D02*
D03*
Y192284D02*
D03*
D90*
X58008Y164331D02*
D03*
D91*
X288947Y6760D02*
D03*
X281073D02*
D03*
D92*
X290128Y17390D02*
D03*
X287569D02*
D03*
X285010D02*
D03*
X282451D02*
D03*
X279892D02*
D03*
D93*
X181113Y181847D02*
D03*
Y190902D02*
D03*
Y199957D02*
D03*
D94*
X155916Y190902D02*
D03*
D95*
X438332Y136553D02*
D03*
X452506Y137340D02*
D03*
X452023Y123236D02*
D03*
D96*
X411890Y32484D02*
D03*
Y38390D02*
D03*
Y44295D02*
D03*
Y50201D02*
D03*
Y62012D02*
D03*
Y56107D02*
D03*
X342310Y32585D02*
D03*
Y38490D02*
D03*
Y44396D02*
D03*
Y50301D02*
D03*
Y62112D02*
D03*
Y56207D02*
D03*
D97*
X199210Y7392D02*
D03*
X7812Y166890D02*
D03*
D98*
X199210Y25108D02*
D03*
X38127Y147992D02*
D03*
D99*
X218108Y37707D02*
D03*
X25528Y166890D02*
D03*
D100*
X194879Y49911D02*
D03*
D101*
X193810Y106233D02*
D03*
Y86547D02*
D03*
X138200Y106650D02*
D03*
Y86965D02*
D03*
X77995Y366704D02*
D03*
X196106D02*
D03*
X47406Y302332D02*
D03*
X27858Y251922D02*
D03*
X47543D02*
D03*
X27721Y302332D02*
D03*
X108567Y327118D02*
D03*
X147937D02*
D03*
X88882Y248378D02*
D03*
X167622D02*
D03*
D102*
X141743Y11768D02*
D03*
X129932D02*
D03*
D103*
X297886Y328210D02*
D03*
X357886D02*
D03*
X297886Y298210D02*
D03*
X337886D02*
D03*
X367886D02*
D03*
X210641Y328697D02*
D03*
X270641D02*
D03*
X210641Y298697D02*
D03*
X250641D02*
D03*
X280641D02*
D03*
D104*
X322961Y349899D02*
D03*
X342961D02*
D03*
X235716Y349599D02*
D03*
X255715D02*
D03*
X41346Y346704D02*
D03*
Y366704D02*
D03*
D105*
X50331Y171221D02*
D03*
D106*
X298790Y6760D02*
D03*
X271231D02*
D03*
D107*
X294852Y17390D02*
D03*
X275167D02*
D03*
M02*
