G04*
G04 #@! TF.GenerationSoftware,Altium Limited,Altium Designer,21.6.1 (37)*
G04*
G04 Layer_Color=32896*
%FSLAX25Y25*%
%MOIN*%
G70*
G04*
G04 #@! TF.SameCoordinates,ED18229B-BDCB-4A3C-9D88-49826DFA0344*
G04*
G04*
G04 #@! TF.FilePolarity,Positive*
G04*
G01*
G75*
%ADD10C,0.00787*%
%ADD14C,0.00394*%
%ADD20C,0.00709*%
%ADD22C,0.02362*%
%ADD23C,0.00984*%
%ADD24C,0.00394*%
D10*
X434223Y106359D02*
G03*
X439734Y106359I2756J-197D01*
G01*
X471702Y23148D02*
X475639D01*
Y35549D01*
X471702D02*
X475639D01*
X471702Y23148D02*
Y35549D01*
X443474Y72698D02*
Y106359D01*
X430876Y72698D02*
X443474D01*
X430876D02*
Y106359D01*
Y106162D02*
Y106359D01*
X434223D01*
X439734D02*
X443474D01*
D14*
X432225Y109558D02*
Y114282D01*
X429075Y109558D02*
Y114282D01*
X432175Y116248D02*
Y120972D01*
X429025Y116248D02*
Y120972D01*
X416992Y106213D02*
Y112512D01*
X420928Y106213D02*
Y112512D01*
X406710Y96810D02*
X410910D01*
X406710D02*
Y108060D01*
X410910D01*
Y96810D02*
Y108060D01*
X413458Y91185D02*
X418182D01*
X413458Y88035D02*
X418182D01*
X406778Y87895D02*
Y91045D01*
X411502Y87895D02*
Y91045D01*
X406778Y87895D02*
X411502D01*
X407040Y78080D02*
Y82280D01*
X418290D01*
Y78080D02*
Y82280D01*
X407040Y78080D02*
X418290D01*
X407220Y72420D02*
Y76620D01*
X418470D01*
Y72420D02*
Y76620D01*
X407220Y72420D02*
X418470D01*
X424600Y14980D02*
X435850D01*
Y19180D01*
X424600D02*
X435850D01*
X424600Y14980D02*
Y19180D01*
X428651Y6268D02*
Y10992D01*
X431800Y6268D02*
Y10992D01*
X477157Y20188D02*
X483457D01*
X477157Y16251D02*
X483457D01*
X488505Y23458D02*
Y28182D01*
X491655Y23458D02*
Y28182D01*
X476750Y38150D02*
Y42350D01*
X465500Y38150D02*
X476750D01*
X465500D02*
Y42350D01*
X476750D01*
X457740Y35620D02*
X461940D01*
Y24370D02*
Y35620D01*
X457740Y24370D02*
X461940D01*
X457740D02*
Y35620D01*
X449408Y31665D02*
X454132D01*
X449408Y28515D02*
X454132D01*
X430540Y23001D02*
X436840D01*
X430540Y26938D02*
X436840D01*
X430148Y33391D02*
X436447D01*
X430148Y37328D02*
X436447D01*
X439988Y61755D02*
X444712D01*
X439988Y64905D02*
X444712D01*
X431558Y61755D02*
X436282D01*
X431558Y64905D02*
X436282D01*
X423138Y61755D02*
X427862D01*
X423138Y64905D02*
X427862D01*
X434855Y41788D02*
Y46512D01*
X431705Y41788D02*
Y46512D01*
X454975Y62828D02*
Y67552D01*
X451825Y62828D02*
Y67552D01*
X454200Y70800D02*
Y75000D01*
X465450D01*
Y70800D02*
Y75000D01*
X454200Y70800D02*
X465450D01*
X465140Y76240D02*
Y87490D01*
X460940D02*
X465140D01*
X460940Y76240D02*
Y87490D01*
Y76240D02*
X465140D01*
X467278Y80290D02*
X472002D01*
X467278Y83440D02*
X472002D01*
X457955Y89098D02*
Y93822D01*
X461105Y89098D02*
Y93822D01*
X458240Y76240D02*
Y87490D01*
X454040D02*
X458240D01*
X454040Y76240D02*
Y87490D01*
Y76240D02*
X458240D01*
X458150Y96420D02*
Y107670D01*
X453950D02*
X458150D01*
X453950Y96420D02*
Y107670D01*
Y96420D02*
X458150D01*
X464900D02*
Y107670D01*
X460700D02*
X464900D01*
X460700Y96420D02*
Y107670D01*
Y96420D02*
X464900D01*
X471200D02*
Y107670D01*
X467000D02*
X471200D01*
X467000Y96420D02*
Y107670D01*
Y96420D02*
X471200D01*
D20*
X424231Y56281D02*
X424822Y56871D01*
X426003D01*
X426593Y56281D01*
Y53919D01*
X426003Y53329D01*
X424822D01*
X424231Y53919D01*
X421280Y53329D02*
Y56871D01*
X423051Y55100D01*
X420689D01*
X419509Y56281D02*
X418918Y56871D01*
X417737D01*
X417147Y56281D01*
Y55690D01*
X417737Y55100D01*
X418328D01*
X417737D01*
X417147Y54510D01*
Y53919D01*
X417737Y53329D01*
X418918D01*
X419509Y53919D01*
X435391Y56281D02*
X435982Y56871D01*
X437162D01*
X437753Y56281D01*
Y53919D01*
X437162Y53329D01*
X435982D01*
X435391Y53919D01*
X432440Y53329D02*
Y56871D01*
X434211Y55100D01*
X431849D01*
X428307Y53329D02*
X430669D01*
X428307Y55690D01*
Y56281D01*
X428897Y56871D01*
X430078D01*
X430669Y56281D01*
X444951Y56241D02*
X445541Y56831D01*
X446722D01*
X447312Y56241D01*
Y53879D01*
X446722Y53289D01*
X445541D01*
X444951Y53879D01*
X441999Y53289D02*
Y56831D01*
X443770Y55060D01*
X441409D01*
X440228Y53289D02*
X439047D01*
X439638D01*
Y56831D01*
X440228Y56241D01*
X448242Y84201D02*
Y81249D01*
X447651Y80659D01*
X446471D01*
X445880Y81249D01*
Y84201D01*
X444700D02*
X442338D01*
Y83611D01*
X444700Y81249D01*
Y80659D01*
X467722Y22901D02*
Y19949D01*
X467131Y19359D01*
X465951D01*
X465360Y19949D01*
Y22901D01*
X461818D02*
X462999Y22311D01*
X464180Y21130D01*
Y19949D01*
X463589Y19359D01*
X462409D01*
X461818Y19949D01*
Y20540D01*
X462409Y21130D01*
X464180D01*
X484552Y10109D02*
Y13651D01*
X482781D01*
X482191Y13061D01*
Y11880D01*
X482781Y11290D01*
X484552D01*
X483372D02*
X482191Y10109D01*
X481010Y13651D02*
X478649D01*
X479830D01*
Y10109D01*
X477468D02*
X476288D01*
X476878D01*
Y13651D01*
X477468Y13061D01*
X476313Y70949D02*
Y74491D01*
X474542D01*
X473951Y73901D01*
Y72720D01*
X474542Y72130D01*
X476313D01*
X475132D02*
X473951Y70949D01*
X472771Y73901D02*
X472180Y74491D01*
X471000D01*
X470409Y73901D01*
Y73310D01*
X471000Y72720D01*
X471590D01*
X471000D01*
X470409Y72130D01*
Y71539D01*
X471000Y70949D01*
X472180D01*
X472771Y71539D01*
X466867Y74491D02*
X468048Y73901D01*
X469229Y72720D01*
Y71539D01*
X468638Y70949D01*
X467457D01*
X466867Y71539D01*
Y72130D01*
X467457Y72720D01*
X469229D01*
X422983Y15059D02*
Y18601D01*
X421212D01*
X420621Y18011D01*
Y16830D01*
X421212Y16240D01*
X422983D01*
X421802D02*
X420621Y15059D01*
X419441Y18011D02*
X418850Y18601D01*
X417670D01*
X417079Y18011D01*
Y17420D01*
X417670Y16830D01*
X418260D01*
X417670D01*
X417079Y16240D01*
Y15649D01*
X417670Y15059D01*
X418850D01*
X419441Y15649D01*
X413537Y18601D02*
X415899D01*
Y16830D01*
X414718Y17420D01*
X414127D01*
X413537Y16830D01*
Y15649D01*
X414127Y15059D01*
X415308D01*
X415899Y15649D01*
X405733Y72729D02*
Y76271D01*
X403962D01*
X403371Y75681D01*
Y74500D01*
X403962Y73910D01*
X405733D01*
X404552D02*
X403371Y72729D01*
X402191Y75681D02*
X401600Y76271D01*
X400420D01*
X399829Y75681D01*
Y75090D01*
X400420Y74500D01*
X401010D01*
X400420D01*
X399829Y73910D01*
Y73319D01*
X400420Y72729D01*
X401600D01*
X402191Y73319D01*
X396878Y72729D02*
Y76271D01*
X398649Y74500D01*
X396287D01*
X478699Y76507D02*
X482241D01*
Y78278D01*
X481651Y78869D01*
X480470D01*
X479880Y78278D01*
Y76507D01*
Y77688D02*
X478699Y78869D01*
X481651Y80049D02*
X482241Y80640D01*
Y81820D01*
X481651Y82411D01*
X481060D01*
X480470Y81820D01*
Y81230D01*
Y81820D01*
X479880Y82411D01*
X479289D01*
X478699Y81820D01*
Y80640D01*
X479289Y80049D01*
X481651Y83591D02*
X482241Y84182D01*
Y85362D01*
X481651Y85953D01*
X481060D01*
X480470Y85362D01*
Y84772D01*
Y85362D01*
X479880Y85953D01*
X479289D01*
X478699Y85362D01*
Y84182D01*
X479289Y83591D01*
X405883Y78669D02*
Y82211D01*
X404112D01*
X403521Y81621D01*
Y80440D01*
X404112Y79850D01*
X405883D01*
X404702D02*
X403521Y78669D01*
X402341Y81621D02*
X401750Y82211D01*
X400570D01*
X399979Y81621D01*
Y81030D01*
X400570Y80440D01*
X401160D01*
X400570D01*
X399979Y79850D01*
Y79259D01*
X400570Y78669D01*
X401750D01*
X402341Y79259D01*
X396437Y78669D02*
X398799D01*
X396437Y81030D01*
Y81621D01*
X397027Y82211D01*
X398208D01*
X398799Y81621D01*
X467919Y110497D02*
X471461D01*
Y112269D01*
X470871Y112859D01*
X469690D01*
X469100Y112269D01*
Y110497D01*
Y111678D02*
X467919Y112859D01*
X470871Y114040D02*
X471461Y114630D01*
Y115811D01*
X470871Y116401D01*
X470280D01*
X469690Y115811D01*
Y115220D01*
Y115811D01*
X469100Y116401D01*
X468509D01*
X467919Y115811D01*
Y114630D01*
X468509Y114040D01*
X467919Y117582D02*
Y118763D01*
Y118172D01*
X471461D01*
X470871Y117582D01*
X411059Y108867D02*
X414601D01*
Y110638D01*
X414011Y111229D01*
X412830D01*
X412240Y110638D01*
Y108867D01*
Y110048D02*
X411059Y111229D01*
X414011Y112409D02*
X414601Y113000D01*
Y114180D01*
X414011Y114771D01*
X413420D01*
X412830Y114180D01*
Y113590D01*
Y114180D01*
X412240Y114771D01*
X411649D01*
X411059Y114180D01*
Y113000D01*
X411649Y112409D01*
X414011Y115951D02*
X414601Y116542D01*
Y117722D01*
X414011Y118313D01*
X411649D01*
X411059Y117722D01*
Y116542D01*
X411649Y115951D01*
X414011D01*
X401549Y97277D02*
X405091D01*
Y99048D01*
X404501Y99639D01*
X403320D01*
X402730Y99048D01*
Y97277D01*
Y98458D02*
X401549Y99639D01*
Y103181D02*
Y100819D01*
X403910Y103181D01*
X404501D01*
X405091Y102590D01*
Y101410D01*
X404501Y100819D01*
X402139Y104361D02*
X401549Y104952D01*
Y106132D01*
X402139Y106723D01*
X404501D01*
X405091Y106132D01*
Y104952D01*
X404501Y104361D01*
X403910D01*
X403320Y104952D01*
Y106723D01*
X461629Y109867D02*
X465171D01*
Y111638D01*
X464581Y112229D01*
X463400D01*
X462810Y111638D01*
Y109867D01*
Y111048D02*
X461629Y112229D01*
Y115771D02*
Y113409D01*
X463990Y115771D01*
X464581D01*
X465171Y115180D01*
Y114000D01*
X464581Y113409D01*
Y116951D02*
X465171Y117542D01*
Y118722D01*
X464581Y119313D01*
X463990D01*
X463400Y118722D01*
X462810Y119313D01*
X462219D01*
X461629Y118722D01*
Y117542D01*
X462219Y116951D01*
X462810D01*
X463400Y117542D01*
X463990Y116951D01*
X464581D01*
X463400Y117542D02*
Y118722D01*
X474813Y44039D02*
Y47581D01*
X473042D01*
X472451Y46991D01*
Y45810D01*
X473042Y45220D01*
X474813D01*
X473632D02*
X472451Y44039D01*
X468909D02*
X471271D01*
X468909Y46400D01*
Y46991D01*
X469500Y47581D01*
X470680D01*
X471271Y46991D01*
X467729Y47581D02*
X465367D01*
Y46991D01*
X467729Y44629D01*
Y44039D01*
X416709Y30607D02*
X420251D01*
Y32378D01*
X419661Y32969D01*
X418480D01*
X417890Y32378D01*
Y30607D01*
Y31788D02*
X416709Y32969D01*
Y36511D02*
Y34149D01*
X419070Y36511D01*
X419661D01*
X420251Y35920D01*
Y34740D01*
X419661Y34149D01*
X420251Y40053D02*
Y37691D01*
X418480D01*
X419070Y38872D01*
Y39463D01*
X418480Y40053D01*
X417299D01*
X416709Y39463D01*
Y38282D01*
X417299Y37691D01*
X464493Y36559D02*
Y40101D01*
X462722D01*
X462131Y39511D01*
Y38330D01*
X462722Y37740D01*
X464493D01*
X463312D02*
X462131Y36559D01*
X458589D02*
X460951D01*
X458589Y38920D01*
Y39511D01*
X459180Y40101D01*
X460360D01*
X460951Y39511D01*
X455638Y36559D02*
Y40101D01*
X457409Y38330D01*
X455047D01*
X416779Y20127D02*
X420321D01*
Y21898D01*
X419731Y22489D01*
X418550D01*
X417960Y21898D01*
Y20127D01*
Y21308D02*
X416779Y22489D01*
Y26031D02*
Y23669D01*
X419140Y26031D01*
X419731D01*
X420321Y25440D01*
Y24260D01*
X419731Y23669D01*
Y27211D02*
X420321Y27802D01*
Y28982D01*
X419731Y29573D01*
X419140D01*
X418550Y28982D01*
Y28392D01*
Y28982D01*
X417960Y29573D01*
X417369D01*
X416779Y28982D01*
Y27802D01*
X417369Y27211D01*
X398621Y83836D02*
X395079D01*
Y86198D01*
X398621Y89740D02*
Y87378D01*
X395079D01*
Y89740D01*
X396850Y87378D02*
Y88559D01*
X398621Y90920D02*
X395079D01*
Y92691D01*
X395669Y93282D01*
X398031D01*
X398621Y92691D01*
Y90920D01*
X395079Y96824D02*
Y94463D01*
X397440Y96824D01*
X398031D01*
X398621Y96234D01*
Y95053D01*
X398031Y94463D01*
X444101Y119531D02*
X444692Y120121D01*
X445872D01*
X446463Y119531D01*
Y117169D01*
X445872Y116579D01*
X444692D01*
X444101Y117169D01*
X441150Y116579D02*
Y120121D01*
X442921Y118350D01*
X440559D01*
X439379Y120121D02*
X437017D01*
Y119531D01*
X439379Y117169D01*
Y116579D01*
X444101Y113141D02*
X444692Y113731D01*
X445872D01*
X446463Y113141D01*
Y110779D01*
X445872Y110189D01*
X444692D01*
X444101Y110779D01*
X441150Y110189D02*
Y113731D01*
X442921Y111960D01*
X440559D01*
X437017Y113731D02*
X438198Y113141D01*
X439379Y111960D01*
Y110779D01*
X438788Y110189D01*
X437607D01*
X437017Y110779D01*
Y111370D01*
X437607Y111960D01*
X439379D01*
X420691Y9381D02*
X421282Y9971D01*
X422463D01*
X423053Y9381D01*
Y7019D01*
X422463Y6429D01*
X421282D01*
X420691Y7019D01*
X417740Y6429D02*
Y9971D01*
X419511Y8200D01*
X417149D01*
X413607Y9971D02*
X415969D01*
Y8200D01*
X414788Y8790D01*
X414197D01*
X413607Y8200D01*
Y7019D01*
X414197Y6429D01*
X415378D01*
X415969Y7019D01*
X455771Y61101D02*
X456362Y61691D01*
X457543D01*
X458133Y61101D01*
Y58739D01*
X457543Y58149D01*
X456362D01*
X455771Y58739D01*
X452820Y58149D02*
Y61691D01*
X454591Y59920D01*
X452229D01*
X449277Y58149D02*
Y61691D01*
X451049Y59920D01*
X448687D01*
X486741Y78729D02*
X487331Y78138D01*
Y76957D01*
X486741Y76367D01*
X484379D01*
X483789Y76957D01*
Y78138D01*
X484379Y78729D01*
X483789Y81680D02*
X487331D01*
X485560Y79909D01*
Y82271D01*
X486741Y83451D02*
X487331Y84042D01*
Y85223D01*
X486741Y85813D01*
X484379D01*
X483789Y85223D01*
Y84042D01*
X484379Y83451D01*
X486741D01*
X404051Y86629D02*
X404641Y86038D01*
Y84857D01*
X404051Y84267D01*
X401689D01*
X401099Y84857D01*
Y86038D01*
X401689Y86629D01*
X404051Y87809D02*
X404641Y88400D01*
Y89580D01*
X404051Y90171D01*
X403460D01*
X402870Y89580D01*
Y88990D01*
Y89580D01*
X402280Y90171D01*
X401689D01*
X401099Y89580D01*
Y88400D01*
X401689Y87809D01*
Y91351D02*
X401099Y91942D01*
Y93123D01*
X401689Y93713D01*
X404051D01*
X404641Y93123D01*
Y91942D01*
X404051Y91351D01*
X403460D01*
X402870Y91942D01*
Y93713D01*
X476601Y78959D02*
X477191Y78368D01*
Y77188D01*
X476601Y76597D01*
X474239D01*
X473649Y77188D01*
Y78368D01*
X474239Y78959D01*
X476601Y80139D02*
X477191Y80730D01*
Y81910D01*
X476601Y82501D01*
X476010D01*
X475420Y81910D01*
Y81320D01*
Y81910D01*
X474830Y82501D01*
X474239D01*
X473649Y81910D01*
Y80730D01*
X474239Y80139D01*
X476601Y83681D02*
X477191Y84272D01*
Y85453D01*
X476601Y86043D01*
X476010D01*
X475420Y85453D01*
X474830Y86043D01*
X474239D01*
X473649Y85453D01*
Y84272D01*
X474239Y83681D01*
X474830D01*
X475420Y84272D01*
X476010Y83681D01*
X476601D01*
X475420Y84272D02*
Y85453D01*
X472981Y92301D02*
X473572Y92891D01*
X474753D01*
X475343Y92301D01*
Y89939D01*
X474753Y89349D01*
X473572D01*
X472981Y89939D01*
X471801Y92301D02*
X471210Y92891D01*
X470030D01*
X469439Y92301D01*
Y91710D01*
X470030Y91120D01*
X470620D01*
X470030D01*
X469439Y90530D01*
Y89939D01*
X470030Y89349D01*
X471210D01*
X471801Y89939D01*
X468259Y92891D02*
X465897D01*
Y92301D01*
X468259Y89939D01*
Y89349D01*
X456971Y111899D02*
X457561Y111308D01*
Y110127D01*
X456971Y109537D01*
X454609D01*
X454019Y110127D01*
Y111308D01*
X454609Y111899D01*
X456971Y113079D02*
X457561Y113670D01*
Y114850D01*
X456971Y115441D01*
X456380D01*
X455790Y114850D01*
Y114260D01*
Y114850D01*
X455200Y115441D01*
X454609D01*
X454019Y114850D01*
Y113670D01*
X454609Y113079D01*
X457561Y118983D02*
X456971Y117802D01*
X455790Y116621D01*
X454609D01*
X454019Y117212D01*
Y118393D01*
X454609Y118983D01*
X455200D01*
X455790Y118393D01*
Y116621D01*
X451661Y40121D02*
X452252Y40711D01*
X453433D01*
X454023Y40121D01*
Y37759D01*
X453433Y37169D01*
X452252D01*
X451661Y37759D01*
X450481Y40121D02*
X449890Y40711D01*
X448710D01*
X448119Y40121D01*
Y39530D01*
X448710Y38940D01*
X449300D01*
X448710D01*
X448119Y38350D01*
Y37759D01*
X448710Y37169D01*
X449890D01*
X450481Y37759D01*
X444577Y40711D02*
X446939D01*
Y38940D01*
X445758Y39530D01*
X445167D01*
X444577Y38940D01*
Y37759D01*
X445167Y37169D01*
X446348D01*
X446939Y37759D01*
X435631Y51101D02*
X436222Y51691D01*
X437402D01*
X437993Y51101D01*
Y48739D01*
X437402Y48149D01*
X436222D01*
X435631Y48739D01*
X434451Y51101D02*
X433860Y51691D01*
X432680D01*
X432089Y51101D01*
Y50510D01*
X432680Y49920D01*
X433270D01*
X432680D01*
X432089Y49330D01*
Y48739D01*
X432680Y48149D01*
X433860D01*
X434451Y48739D01*
X429138Y48149D02*
Y51691D01*
X430909Y49920D01*
X428547D01*
X491991Y33061D02*
X492582Y33651D01*
X493762D01*
X494353Y33061D01*
Y30699D01*
X493762Y30109D01*
X492582D01*
X491991Y30699D01*
X490811Y33061D02*
X490220Y33651D01*
X489040D01*
X488449Y33061D01*
Y32470D01*
X489040Y31880D01*
X489630D01*
X489040D01*
X488449Y31290D01*
Y30699D01*
X489040Y30109D01*
X490220D01*
X490811Y30699D01*
X487269Y33061D02*
X486678Y33651D01*
X485498D01*
X484907Y33061D01*
Y32470D01*
X485498Y31880D01*
X486088D01*
X485498D01*
X484907Y31290D01*
Y30699D01*
X485498Y30109D01*
X486678D01*
X487269Y30699D01*
D22*
X379134Y153150D02*
Y392913D01*
X-1575D02*
X379134D01*
X-1575Y-787D02*
Y392913D01*
Y-787D02*
X379134D01*
Y23622D01*
Y34646D02*
Y53543D01*
Y84646D02*
Y103543D01*
Y54724D02*
Y73622D01*
Y104331D02*
Y123228D01*
Y134252D02*
Y153150D01*
D23*
X378346Y31102D02*
Y31890D01*
Y28740D02*
Y29528D01*
Y26378D02*
Y27165D01*
X379921Y31102D02*
Y31890D01*
Y28740D02*
Y29528D01*
Y26378D02*
Y27165D01*
X378346Y81102D02*
Y81890D01*
Y78740D02*
Y79528D01*
Y76378D02*
Y77165D01*
X379921Y81102D02*
Y81890D01*
Y78740D02*
Y79528D01*
Y76378D02*
Y77165D01*
Y125984D02*
Y126772D01*
Y128347D02*
Y129134D01*
Y130709D02*
Y131496D01*
X378346Y125984D02*
Y126772D01*
Y128347D02*
Y129134D01*
Y130709D02*
Y131496D01*
D24*
X324485Y191908D02*
X377194Y191908D01*
X377194Y247452D02*
X377194Y191908D01*
X324485Y247452D02*
X377194Y247452D01*
X324485Y191908D02*
Y247452D01*
M02*
