G04*
G04 #@! TF.GenerationSoftware,Altium Limited,Altium Designer,21.6.1 (37)*
G04*
G04 Layer_Color=255*
%FSLAX25Y25*%
%MOIN*%
G70*
G04*
G04 #@! TF.SameCoordinates,ED18229B-BDCB-4A3C-9D88-49826DFA0344*
G04*
G04*
G04 #@! TF.FilePolarity,Positive*
G04*
G01*
G75*
%ADD22C,0.02362*%
%ADD23C,0.00984*%
%ADD24C,0.00394*%
%ADD108R,0.02756X0.05118*%
%ADD109R,0.04724X0.01181*%
%ADD110R,0.01181X0.04724*%
%ADD111R,0.03150X0.03543*%
%ADD112R,0.03800X0.03100*%
%ADD113R,0.08268X0.01968*%
%ADD114R,0.05118X0.02756*%
%ADD115R,0.02362X0.05354*%
%ADD116R,0.02362X0.04134*%
%ADD117R,0.15354X0.24410*%
%ADD118R,0.12992X0.17323*%
%ADD119R,0.03100X0.03800*%
%ADD120R,0.07874X0.11811*%
%ADD121R,0.08346X0.08858*%
%ADD122R,0.04134X0.02362*%
%ADD123R,0.06299X0.06299*%
%ADD124R,0.03543X0.05906*%
%ADD125R,0.05906X0.03543*%
%ADD126R,0.03543X0.03543*%
%ADD127R,0.03543X0.03150*%
%ADD128R,0.03937X0.03150*%
%ADD129R,0.02756X0.05906*%
%ADD130R,0.03937X0.01968*%
%ADD131R,0.04724X0.13780*%
%ADD132R,0.13386X0.05118*%
%ADD133R,0.04724X0.05984*%
%ADD134R,0.07520X0.04095*%
%ADD135R,0.24410X0.15354*%
%ADD136R,0.17323X0.12992*%
%ADD137R,0.05906X0.06102*%
%ADD138R,0.01575X0.05315*%
%ADD139R,0.06299X0.04724*%
%ADD140R,0.06299X0.12992*%
%ADD152C,0.03937*%
%ADD153O,0.05906X0.04331*%
%ADD154C,0.08268*%
%ADD155O,0.15748X0.07874*%
%ADD156O,0.07874X0.15748*%
%ADD157O,0.14173X0.07087*%
%ADD158C,0.07874*%
%ADD159C,0.07677*%
%ADD160C,0.10039*%
%ADD161O,0.07087X0.14173*%
%ADD162O,0.03051X0.06102*%
%ADD163O,0.05118X0.02559*%
D22*
X379134Y153150D02*
Y392913D01*
X-1575D02*
X379134D01*
X-1575Y-787D02*
Y392913D01*
Y-787D02*
X379134D01*
Y23622D01*
Y34646D02*
Y53543D01*
Y84646D02*
Y103543D01*
Y54724D02*
Y73622D01*
Y104331D02*
Y123228D01*
Y134252D02*
Y153150D01*
D23*
X378346Y31102D02*
Y31890D01*
Y28740D02*
Y29528D01*
Y26378D02*
Y27165D01*
X379921Y31102D02*
Y31890D01*
Y28740D02*
Y29528D01*
Y26378D02*
Y27165D01*
X378346Y81102D02*
Y81890D01*
Y78740D02*
Y79528D01*
Y76378D02*
Y77165D01*
X379921Y81102D02*
Y81890D01*
Y78740D02*
Y79528D01*
Y76378D02*
Y77165D01*
Y125984D02*
Y126772D01*
Y128347D02*
Y129134D01*
Y130709D02*
Y131496D01*
X378346Y125984D02*
Y126772D01*
Y128347D02*
Y129134D01*
Y130709D02*
Y131496D01*
D24*
X324485Y191908D02*
X377194Y191908D01*
X377194Y247452D02*
X377194Y191908D01*
X324485Y247452D02*
X377194Y247452D01*
X324485Y191908D02*
Y247452D01*
D108*
X45286Y14131D02*
D03*
X37806D02*
D03*
X45286Y23579D02*
D03*
X37806D02*
D03*
X45286Y33422D02*
D03*
X37806D02*
D03*
X447680Y100810D02*
D03*
X440200D02*
D03*
X174963Y143781D02*
D03*
X167482D02*
D03*
X174963Y151944D02*
D03*
X167482D02*
D03*
X269460Y94409D02*
D03*
X276941D02*
D03*
X269460Y103070D02*
D03*
X276941D02*
D03*
X322019Y85747D02*
D03*
X329500D02*
D03*
X321823Y93228D02*
D03*
X329303D02*
D03*
X242532Y165332D02*
D03*
X235052D02*
D03*
X254480Y204780D02*
D03*
X261960D02*
D03*
X242532Y192891D02*
D03*
X235052D02*
D03*
X172255Y210193D02*
D03*
X164775D02*
D03*
X172255Y218855D02*
D03*
X164775D02*
D03*
X190365Y210193D02*
D03*
X197845D02*
D03*
X190365Y219248D02*
D03*
X197845D02*
D03*
X304500Y189860D02*
D03*
X297020D02*
D03*
D109*
X253556Y169466D02*
D03*
Y171434D02*
D03*
Y173403D02*
D03*
Y175371D02*
D03*
Y177340D02*
D03*
Y179308D02*
D03*
Y181277D02*
D03*
Y183245D02*
D03*
Y185214D02*
D03*
Y187182D02*
D03*
Y189151D02*
D03*
Y191119D02*
D03*
X287020Y190922D02*
D03*
Y188954D02*
D03*
Y179111D02*
D03*
Y181080D02*
D03*
Y183048D02*
D03*
Y185017D02*
D03*
Y186985D02*
D03*
Y177143D02*
D03*
Y171237D02*
D03*
Y173206D02*
D03*
Y175174D02*
D03*
Y169269D02*
D03*
D110*
X281115Y163560D02*
D03*
X279146D02*
D03*
X277178D02*
D03*
X275209D02*
D03*
X273241D02*
D03*
X271272D02*
D03*
X269304D02*
D03*
X267335D02*
D03*
X265367D02*
D03*
X263398D02*
D03*
X261430D02*
D03*
X259461D02*
D03*
Y197025D02*
D03*
X261430D02*
D03*
X271272D02*
D03*
X269304D02*
D03*
X267335D02*
D03*
X265367D02*
D03*
X263398D02*
D03*
X273241D02*
D03*
X279146D02*
D03*
X277178D02*
D03*
X275209D02*
D03*
X281115D02*
D03*
D111*
X425290Y102080D02*
D03*
X427849Y94600D02*
D03*
X422731D02*
D03*
X171223Y127338D02*
D03*
X168664Y134818D02*
D03*
X173782D02*
D03*
D112*
X446650Y93400D02*
D03*
X440350D02*
D03*
X431245Y84520D02*
D03*
X424945D02*
D03*
X93640Y159420D02*
D03*
X99940D02*
D03*
X58860Y18800D02*
D03*
X65160D02*
D03*
X58278Y29531D02*
D03*
X64578D02*
D03*
X129931Y29878D02*
D03*
X136231D02*
D03*
X235667Y172025D02*
D03*
X241967D02*
D03*
X235667Y178324D02*
D03*
X241967D02*
D03*
X235667Y185410D02*
D03*
X241967D02*
D03*
X270740Y218940D02*
D03*
X277040D02*
D03*
X220377Y277118D02*
D03*
X226677D02*
D03*
X226283Y285386D02*
D03*
X219983D02*
D03*
X314579Y276674D02*
D03*
X320879D02*
D03*
X320880Y284548D02*
D03*
X314580D02*
D03*
D113*
X242590Y106240D02*
D03*
Y101240D02*
D03*
Y96240D02*
D03*
Y91240D02*
D03*
X260897Y96240D02*
D03*
Y91240D02*
D03*
Y101240D02*
D03*
Y106240D02*
D03*
X293771Y97184D02*
D03*
Y92185D02*
D03*
Y87185D02*
D03*
Y82184D02*
D03*
X312078Y87185D02*
D03*
Y82184D02*
D03*
Y92185D02*
D03*
Y97184D02*
D03*
X79506Y152670D02*
D03*
Y137670D02*
D03*
X97813Y142670D02*
D03*
Y137670D02*
D03*
Y147670D02*
D03*
Y152670D02*
D03*
X79506Y142670D02*
D03*
Y147670D02*
D03*
D114*
X297649Y30075D02*
D03*
Y37555D02*
D03*
X183427Y144858D02*
D03*
Y152338D02*
D03*
X85433Y162802D02*
D03*
Y170282D02*
D03*
X77165D02*
D03*
Y162802D02*
D03*
X286144Y156446D02*
D03*
Y148965D02*
D03*
X300406Y179111D02*
D03*
Y171631D02*
D03*
X309068Y179111D02*
D03*
Y171631D02*
D03*
X317729Y179111D02*
D03*
Y171631D02*
D03*
D115*
X280860Y52220D02*
D03*
X284600D02*
D03*
X288340D02*
D03*
Y42968D02*
D03*
X284600D02*
D03*
X280860D02*
D03*
D116*
X272058Y31059D02*
D03*
Y42083D02*
D03*
D117*
X224604Y22352D02*
D03*
X173816D02*
D03*
D118*
X201769Y57588D02*
D03*
D119*
X183427Y134203D02*
D03*
Y127903D02*
D03*
X101586Y29181D02*
D03*
Y22881D02*
D03*
X300800Y148008D02*
D03*
Y154308D02*
D03*
X294501Y148008D02*
D03*
Y154308D02*
D03*
X307099D02*
D03*
Y148008D02*
D03*
X261024Y78331D02*
D03*
Y84631D02*
D03*
X269460Y78267D02*
D03*
Y84567D02*
D03*
X291508Y118819D02*
D03*
Y112519D02*
D03*
X298201Y112518D02*
D03*
Y118818D02*
D03*
X304893Y112518D02*
D03*
Y118818D02*
D03*
X284421Y118819D02*
D03*
Y112519D02*
D03*
X268910Y148402D02*
D03*
Y154702D02*
D03*
D120*
X144394Y128299D02*
D03*
Y151921D02*
D03*
D121*
X118409Y152256D02*
D03*
Y135051D02*
D03*
D122*
X38488Y208221D02*
D03*
X49512D02*
D03*
X246232Y114488D02*
D03*
X257256D02*
D03*
X351480Y281055D02*
D03*
X362504D02*
D03*
X269590D02*
D03*
X258567D02*
D03*
D123*
X97543Y172788D02*
D03*
Y186961D02*
D03*
D124*
X39236Y43233D02*
D03*
D03*
X44236D02*
D03*
X49236D02*
D03*
X54236D02*
D03*
X59236D02*
D03*
X64236D02*
D03*
X69236D02*
D03*
X74236D02*
D03*
X79236D02*
D03*
X84236D02*
D03*
X89236D02*
D03*
X94236D02*
D03*
X99236D02*
D03*
X104236D02*
D03*
X54236Y115701D02*
D03*
X79236D02*
D03*
X74236D02*
D03*
X84236D02*
D03*
X94236D02*
D03*
X104236D02*
D03*
X99236D02*
D03*
X89236D02*
D03*
X49236D02*
D03*
X64236D02*
D03*
X59236D02*
D03*
X44236D02*
D03*
X69236D02*
D03*
X39236D02*
D03*
D03*
D125*
X110890Y57012D02*
D03*
D03*
Y62012D02*
D03*
Y67012D02*
D03*
Y72012D02*
D03*
Y77012D02*
D03*
Y82012D02*
D03*
Y87012D02*
D03*
Y92012D02*
D03*
Y97012D02*
D03*
Y102012D02*
D03*
D126*
X64236Y64309D02*
D03*
Y70215D02*
D03*
Y76120D02*
D03*
X70142Y64309D02*
D03*
Y70215D02*
D03*
Y76120D02*
D03*
X76047Y64309D02*
D03*
Y70215D02*
D03*
Y76120D02*
D03*
D127*
X87412Y25135D02*
D03*
X79932Y22576D02*
D03*
Y27694D02*
D03*
X340170Y281359D02*
D03*
X332689Y278800D02*
D03*
Y283918D02*
D03*
X247058Y281847D02*
D03*
X239578Y279288D02*
D03*
Y284406D02*
D03*
D128*
X121467Y15705D02*
D03*
Y7831D02*
D03*
X150208D02*
D03*
Y15705D02*
D03*
D129*
X144696Y18658D02*
D03*
X138790D02*
D03*
X126979D02*
D03*
D130*
X231665Y106417D02*
D03*
Y102086D02*
D03*
D131*
X214410Y191017D02*
D03*
Y169363D02*
D03*
D132*
X153410Y162876D02*
D03*
Y171144D02*
D03*
D133*
X135464Y208107D02*
D03*
X114952D02*
D03*
Y173697D02*
D03*
X135464D02*
D03*
D134*
X330020Y199680D02*
D03*
X330020Y209680D02*
D03*
Y219680D02*
D03*
Y229680D02*
D03*
X330020Y239680D02*
D03*
D135*
X22772Y141496D02*
D03*
Y192284D02*
D03*
D136*
X58008Y164331D02*
D03*
D137*
X288947Y6760D02*
D03*
X281073D02*
D03*
D138*
X290128Y17390D02*
D03*
X287569D02*
D03*
X285010D02*
D03*
X282451D02*
D03*
X279892D02*
D03*
D139*
X181113Y181847D02*
D03*
Y190902D02*
D03*
Y199957D02*
D03*
D140*
X155916Y190902D02*
D03*
D152*
X438332Y136553D02*
D03*
X452506Y137340D02*
D03*
X452023Y123236D02*
D03*
D153*
X411890Y32484D02*
D03*
Y38390D02*
D03*
Y44295D02*
D03*
Y50201D02*
D03*
Y62012D02*
D03*
Y56107D02*
D03*
X342310Y32585D02*
D03*
Y38490D02*
D03*
Y44396D02*
D03*
Y50301D02*
D03*
Y62112D02*
D03*
Y56207D02*
D03*
D154*
X199210Y7392D02*
D03*
X7812Y166890D02*
D03*
D155*
X199210Y25108D02*
D03*
X38127Y147992D02*
D03*
D156*
X218108Y37707D02*
D03*
X25528Y166890D02*
D03*
D157*
X194879Y49911D02*
D03*
D158*
X193810Y106233D02*
D03*
Y86547D02*
D03*
X138200Y106650D02*
D03*
Y86965D02*
D03*
X77995Y366704D02*
D03*
X196106D02*
D03*
X47406Y302332D02*
D03*
X27858Y251922D02*
D03*
X47543D02*
D03*
X27721Y302332D02*
D03*
X108567Y327118D02*
D03*
X147937D02*
D03*
X88882Y248378D02*
D03*
X167622D02*
D03*
D159*
X297886Y328210D02*
D03*
X357886D02*
D03*
X297886Y298210D02*
D03*
X337886D02*
D03*
X367886D02*
D03*
X210641Y328697D02*
D03*
X270641D02*
D03*
X210641Y298697D02*
D03*
X250641D02*
D03*
X280641D02*
D03*
D160*
X322961Y349899D02*
D03*
X342961D02*
D03*
X235716Y349599D02*
D03*
X255715D02*
D03*
X41346Y346704D02*
D03*
Y366704D02*
D03*
D161*
X50331Y171221D02*
D03*
D162*
X298790Y6760D02*
D03*
X271231D02*
D03*
D163*
X294852Y17390D02*
D03*
X275167D02*
D03*
M02*
