G04*
G04 #@! TF.GenerationSoftware,Altium Limited,Altium Designer,21.6.1 (37)*
G04*
G04 Layer_Color=2752767*
%FSLAX25Y25*%
%MOIN*%
G70*
G04*
G04 #@! TF.SameCoordinates,ED18229B-BDCB-4A3C-9D88-49826DFA0344*
G04*
G04*
G04 #@! TF.FilePolarity,Positive*
G04*
G01*
G75*
%ADD22C,0.02362*%
%ADD23C,0.00984*%
%ADD24C,0.00394*%
%ADD211C,0.00200*%
%ADD212C,0.00267*%
%ADD213C,0.00133*%
D22*
X379134Y153150D02*
Y392913D01*
X-1575D02*
X379134D01*
X-1575Y-787D02*
Y392913D01*
Y-787D02*
X379134D01*
Y23622D01*
Y34646D02*
Y53543D01*
Y84646D02*
Y103543D01*
Y54724D02*
Y73622D01*
Y104331D02*
Y123228D01*
Y134252D02*
Y153150D01*
D23*
X378346Y31102D02*
Y31890D01*
Y28740D02*
Y29528D01*
Y26378D02*
Y27165D01*
X379921Y31102D02*
Y31890D01*
Y28740D02*
Y29528D01*
Y26378D02*
Y27165D01*
X378346Y81102D02*
Y81890D01*
Y78740D02*
Y79528D01*
Y76378D02*
Y77165D01*
X379921Y81102D02*
Y81890D01*
Y78740D02*
Y79528D01*
Y76378D02*
Y77165D01*
Y125984D02*
Y126772D01*
Y128347D02*
Y129134D01*
Y130709D02*
Y131496D01*
X378346Y125984D02*
Y126772D01*
Y128347D02*
Y129134D01*
Y130709D02*
Y131496D01*
D24*
X324485Y191908D02*
X377194Y191908D01*
X377194Y247452D02*
X377194Y191908D01*
X324485Y247452D02*
X377194Y247452D01*
X324485Y191908D02*
Y247452D01*
D211*
X437532Y135753D02*
Y137353D01*
X439132D01*
Y135753D01*
X437532D01*
X451706Y136540D02*
Y138140D01*
X453306D01*
Y136540D01*
X451706D01*
X451223Y122436D02*
Y124036D01*
X452823D01*
Y122436D01*
X451223D01*
X199210Y6592D02*
X198410Y8192D01*
X200010D01*
X199210Y6592D01*
Y24308D02*
X199610Y24708D01*
X200010D01*
X199610Y25108D01*
X200010Y25508D01*
X199610D01*
X199210Y25908D01*
X198810Y25508D01*
X198410D01*
X198810Y25108D01*
X198410Y24708D01*
X198810D01*
X199210Y24308D01*
X217308Y36906D02*
X217708Y37707D01*
X217308Y38506D01*
X218108Y38107D01*
X218908Y38506D01*
X218508Y37707D01*
X218908Y36906D01*
X218108Y37306D01*
X217308Y36906D01*
X194479Y49511D02*
Y49111D01*
X195279D01*
Y49511D01*
X195679D01*
Y50311D01*
X195279D01*
Y50711D01*
X194479D01*
Y50311D01*
X194079D01*
Y49511D01*
X194479D01*
X193010Y105432D02*
X193410D01*
X193810Y105833D01*
X194210Y105432D01*
X194610D01*
Y105833D01*
X194210Y106233D01*
X194610Y106632D01*
Y107033D01*
X194210D01*
X193810Y106632D01*
X193410Y107033D01*
X193010D01*
Y106632D01*
X193410Y106233D01*
X193010Y105833D01*
Y105432D01*
Y85747D02*
X193410D01*
X193810Y86147D01*
X194210Y85747D01*
X194610D01*
Y86147D01*
X194210Y86547D01*
X194610Y86948D01*
Y87348D01*
X194210D01*
X193810Y86948D01*
X193410Y87348D01*
X193010D01*
Y86948D01*
X193410Y86547D01*
X193010Y86147D01*
Y85747D01*
X137400Y106650D02*
X138200Y107450D01*
X139000Y106650D01*
X138200Y105850D01*
X137400Y106650D01*
Y86965D02*
X138200Y87765D01*
X139000Y86965D01*
X138200Y86165D01*
X137400Y86965D01*
X140943Y10968D02*
Y12568D01*
X142543D01*
Y10968D01*
X140943D01*
X141343Y11368D02*
Y12168D01*
X142143D01*
Y11368D01*
X141343D01*
X129132Y10968D02*
Y12568D01*
X130732D01*
Y10968D01*
X129132D01*
X129532Y11368D02*
Y12168D01*
X130332D01*
Y11368D01*
X129532D01*
X322961Y349099D02*
X322161Y350699D01*
X323761D01*
X322961Y349099D01*
Y349499D02*
X322561Y350299D01*
X323361D01*
X322961Y349499D01*
X342961Y349099D02*
X342161Y350699D01*
X343761D01*
X342961Y349099D01*
Y349499D02*
X342561Y350299D01*
X343361D01*
X342961Y349499D01*
X235716Y348799D02*
X234915Y350399D01*
X236515D01*
X235716Y348799D01*
Y349199D02*
X235315Y349999D01*
X236116D01*
X235716Y349199D01*
X255715Y348799D02*
X254915Y350399D01*
X256516D01*
X255715Y348799D01*
Y349199D02*
X255315Y349999D01*
X256116D01*
X255715Y349199D01*
X41346Y345904D02*
X40546Y347504D01*
X42146D01*
X41346Y345904D01*
Y346304D02*
X40946Y347104D01*
X41746D01*
X41346Y346304D01*
Y365904D02*
X40546Y367504D01*
X42146D01*
X41346Y365904D01*
Y366304D02*
X40946Y367104D01*
X41746D01*
X41346Y366304D01*
X77995Y365904D02*
X78395Y366304D01*
X78795D01*
X78395Y366704D01*
X78795Y367104D01*
X78395D01*
X77995Y367504D01*
X77595Y367104D01*
X77195D01*
X77595Y366704D01*
X77195Y366304D01*
X77595D01*
X77995Y365904D01*
Y366304D02*
X78195Y366504D01*
X78395D01*
X78195Y366704D01*
X78395Y366904D01*
X78195D01*
X77995Y367104D01*
X77795Y366904D01*
X77595D01*
X77795Y366704D01*
X77595Y366504D01*
X77795D01*
X77995Y366304D01*
X196106Y365904D02*
X196506Y366304D01*
X196906D01*
X196506Y366704D01*
X196906Y367104D01*
X196506D01*
X196106Y367504D01*
X195706Y367104D01*
X195306D01*
X195706Y366704D01*
X195306Y366304D01*
X195706D01*
X196106Y365904D01*
Y366304D02*
X196306Y366504D01*
X196506D01*
X196306Y366704D01*
X196506Y366904D01*
X196306D01*
X196106Y367104D01*
X195906Y366904D01*
X195706D01*
X195906Y366704D01*
X195706Y366504D01*
X195906D01*
X196106Y366304D01*
X46606Y301532D02*
X47006D01*
X47406Y301932D01*
X47806Y301532D01*
X48206D01*
Y301932D01*
X47806Y302332D01*
X48206Y302732D01*
Y303132D01*
X47806D01*
X47406Y302732D01*
X47006Y303132D01*
X46606D01*
Y302732D01*
X47006Y302332D01*
X46606Y301932D01*
Y301532D01*
X7812Y166090D02*
X7012Y167690D01*
X8612D01*
X7812Y166090D01*
X25528D02*
X25928Y166490D01*
X26328D01*
X25928Y166890D01*
X26328Y167290D01*
X25928D01*
X25528Y167690D01*
X25128Y167290D01*
X24728D01*
X25128Y166890D01*
X24728Y166490D01*
X25128D01*
X25528Y166090D01*
X37326Y147192D02*
X37727Y147992D01*
X37326Y148792D01*
X38127Y148392D01*
X38927Y148792D01*
X38526Y147992D01*
X38927Y147192D01*
X38127Y147592D01*
X37326Y147192D01*
X49931Y170821D02*
Y170421D01*
X50731D01*
Y170821D01*
X51131D01*
Y171621D01*
X50731D01*
Y172021D01*
X49931D01*
Y171621D01*
X49531D01*
Y170821D01*
X49931D01*
X297990Y5960D02*
X298390Y6760D01*
X297990Y7560D01*
X298790Y7160D01*
X299589Y7560D01*
X299189Y6760D01*
X299589Y5960D01*
X298790Y6360D01*
X297990Y5960D01*
X298390Y6360D02*
X298589Y6760D01*
X298390Y7160D01*
X298790Y6960D01*
X299189Y7160D01*
X298990Y6760D01*
X299189Y6360D01*
X298790Y6560D01*
X298390Y6360D01*
X270430Y5960D02*
X270830Y6760D01*
X270430Y7560D01*
X271231Y7160D01*
X272030Y7560D01*
X271631Y6760D01*
X272030Y5960D01*
X271231Y6360D01*
X270430Y5960D01*
X270830Y6360D02*
X271030Y6760D01*
X270830Y7160D01*
X271231Y6960D01*
X271631Y7160D01*
X271430Y6760D01*
X271631Y6360D01*
X271231Y6560D01*
X270830Y6360D01*
X294453Y16990D02*
Y16590D01*
X295252D01*
Y16990D01*
X295653D01*
Y17790D01*
X295252D01*
Y18190D01*
X294453D01*
Y17790D01*
X294053D01*
Y16990D01*
X294453D01*
X294653Y17190D02*
Y16990D01*
X295053D01*
Y17190D01*
X295252D01*
Y17590D01*
X295053D01*
Y17790D01*
X294653D01*
Y17590D01*
X294453D01*
Y17190D01*
X294653D01*
X274767Y16990D02*
Y16590D01*
X275568D01*
Y16990D01*
X275968D01*
Y17790D01*
X275568D01*
Y18190D01*
X274767D01*
Y17790D01*
X274367D01*
Y16990D01*
X274767D01*
X274968Y17190D02*
Y16990D01*
X275367D01*
Y17190D01*
X275568D01*
Y17590D01*
X275367D01*
Y17790D01*
X274968D01*
Y17590D01*
X274767D01*
Y17190D01*
X274968D01*
X27058Y251121D02*
X27458D01*
X27858Y251521D01*
X28258Y251121D01*
X28658D01*
Y251521D01*
X28258Y251922D01*
X28658Y252322D01*
Y252722D01*
X28258D01*
X27858Y252322D01*
X27458Y252722D01*
X27058D01*
Y252322D01*
X27458Y251922D01*
X27058Y251521D01*
Y251121D01*
X46743D02*
X47143D01*
X47543Y251521D01*
X47943Y251121D01*
X48343D01*
Y251521D01*
X47943Y251922D01*
X48343Y252322D01*
Y252722D01*
X47943D01*
X47543Y252322D01*
X47143Y252722D01*
X46743D01*
Y252322D01*
X47143Y251922D01*
X46743Y251521D01*
Y251121D01*
X26921Y301532D02*
X27321D01*
X27721Y301932D01*
X28121Y301532D01*
X28521D01*
Y301932D01*
X28121Y302332D01*
X28521Y302732D01*
Y303132D01*
X28121D01*
X27721Y302732D01*
X27321Y303132D01*
X26921D01*
Y302732D01*
X27321Y302332D01*
X26921Y301932D01*
Y301532D01*
X107767Y326318D02*
Y327918D01*
X109367D01*
Y326318D01*
X107767D01*
X147137D02*
Y327918D01*
X148737D01*
Y326318D01*
X147137D01*
X88082Y247578D02*
Y249178D01*
X89682D01*
Y247578D01*
X88082D01*
X166822D02*
Y249178D01*
X168422D01*
Y247578D01*
X166822D01*
X414221Y97491D02*
X414621D01*
X415021Y97891D01*
X415421Y97491D01*
X415821D01*
Y97891D01*
X415421Y98291D01*
X415821Y98691D01*
Y99091D01*
X415421D01*
X415021Y98691D01*
X414621Y99091D01*
X414221D01*
Y98691D01*
X414621Y98291D01*
X414221Y97891D01*
Y97491D01*
X414621Y97891D02*
X414821D01*
X415021Y98091D01*
X415221Y97891D01*
X415421D01*
Y98091D01*
X415221Y98291D01*
X415421Y98491D01*
Y98691D01*
X415221D01*
X415021Y98491D01*
X414821Y98691D01*
X414621D01*
Y98491D01*
X414821Y98291D01*
X414621Y98091D01*
Y97891D01*
X404965Y82126D02*
X405365D01*
X405765Y82526D01*
X406165Y82126D01*
X406565D01*
Y82526D01*
X406165Y82926D01*
X406565Y83326D01*
Y83726D01*
X406165D01*
X405765Y83326D01*
X405365Y83726D01*
X404965D01*
Y83326D01*
X405365Y82926D01*
X404965Y82526D01*
Y82126D01*
X405365Y82526D02*
X405565D01*
X405765Y82726D01*
X405965Y82526D01*
X406165D01*
Y82726D01*
X405965Y82926D01*
X406165Y83126D01*
Y83326D01*
X405965D01*
X405765Y83126D01*
X405565Y83326D01*
X405365D01*
Y83126D01*
X405565Y82926D01*
X405365Y82726D01*
Y82526D01*
X432000Y78830D02*
X432400D01*
X432800Y79230D01*
X433200Y78830D01*
X433600D01*
Y79230D01*
X433200Y79630D01*
X433600Y80030D01*
Y80430D01*
X433200D01*
X432800Y80030D01*
X432400Y80430D01*
X432000D01*
Y80030D01*
X432400Y79630D01*
X432000Y79230D01*
Y78830D01*
X432400Y79230D02*
X432600D01*
X432800Y79430D01*
X433000Y79230D01*
X433200D01*
Y79430D01*
X433000Y79630D01*
X433200Y79830D01*
Y80030D01*
X433000D01*
X432800Y79830D01*
X432600Y80030D01*
X432400D01*
Y79830D01*
X432600Y79630D01*
X432400Y79430D01*
Y79230D01*
X448370Y54340D02*
X448770D01*
X449170Y54740D01*
X449570Y54340D01*
X449970D01*
Y54740D01*
X449570Y55140D01*
X449970Y55540D01*
Y55940D01*
X449570D01*
X449170Y55540D01*
X448770Y55940D01*
X448370D01*
Y55540D01*
X448770Y55140D01*
X448370Y54740D01*
Y54340D01*
X448770Y54740D02*
X448970D01*
X449170Y54940D01*
X449370Y54740D01*
X449570D01*
Y54940D01*
X449370Y55140D01*
X449570Y55340D01*
Y55540D01*
X449370D01*
X449170Y55340D01*
X448970Y55540D01*
X448770D01*
Y55340D01*
X448970Y55140D01*
X448770Y54940D01*
Y54740D01*
X460980Y64630D02*
X461380D01*
X461780Y65030D01*
X462180Y64630D01*
X462580D01*
Y65030D01*
X462180Y65430D01*
X462580Y65830D01*
Y66230D01*
X462180D01*
X461780Y65830D01*
X461380Y66230D01*
X460980D01*
Y65830D01*
X461380Y65430D01*
X460980Y65030D01*
Y64630D01*
X461380Y65030D02*
X461580D01*
X461780Y65230D01*
X461980Y65030D01*
X462180D01*
Y65230D01*
X461980Y65430D01*
X462180Y65630D01*
Y65830D01*
X461980D01*
X461780Y65630D01*
X461580Y65830D01*
X461380D01*
Y65630D01*
X461580Y65430D01*
X461380Y65230D01*
Y65030D01*
X471730Y13550D02*
X472130D01*
X472530Y13950D01*
X472930Y13550D01*
X473330D01*
Y13950D01*
X472930Y14350D01*
X473330Y14750D01*
Y15150D01*
X472930D01*
X472530Y14750D01*
X472130Y15150D01*
X471730D01*
Y14750D01*
X472130Y14350D01*
X471730Y13950D01*
Y13550D01*
X472130Y13950D02*
X472330D01*
X472530Y14150D01*
X472730Y13950D01*
X472930D01*
Y14150D01*
X472730Y14350D01*
X472930Y14550D01*
Y14750D01*
X472730D01*
X472530Y14550D01*
X472330Y14750D01*
X472130D01*
Y14550D01*
X472330Y14350D01*
X472130Y14150D01*
Y13950D01*
X461400Y39520D02*
X461800D01*
X462200Y39920D01*
X462600Y39520D01*
X463000D01*
Y39920D01*
X462600Y40320D01*
X463000Y40720D01*
Y41120D01*
X462600D01*
X462200Y40720D01*
X461800Y41120D01*
X461400D01*
Y40720D01*
X461800Y40320D01*
X461400Y39920D01*
Y39520D01*
X461800Y39920D02*
X462000D01*
X462200Y40120D01*
X462400Y39920D01*
X462600D01*
Y40120D01*
X462400Y40320D01*
X462600Y40520D01*
Y40720D01*
X462400D01*
X462200Y40520D01*
X462000Y40720D01*
X461800D01*
Y40520D01*
X462000Y40320D01*
X461800Y40120D01*
Y39920D01*
X440896Y78162D02*
X441296D01*
X441696Y78562D01*
X442096Y78162D01*
X442496D01*
Y78562D01*
X442096Y78962D01*
X442496Y79362D01*
Y79762D01*
X442096D01*
X441696Y79362D01*
X441296Y79762D01*
X440896D01*
Y79362D01*
X441296Y78962D01*
X440896Y78562D01*
Y78162D01*
X441296Y78562D02*
X441496D01*
X441696Y78762D01*
X441896Y78562D01*
X442096D01*
Y78762D01*
X441896Y78962D01*
X442096Y79162D01*
Y79362D01*
X441896D01*
X441696Y79162D01*
X441496Y79362D01*
X441296D01*
Y79162D01*
X441496Y78962D01*
X441296Y78762D01*
Y78562D01*
X438270Y15470D02*
X438670D01*
X439070Y15870D01*
X439470Y15470D01*
X439870D01*
Y15870D01*
X439470Y16270D01*
X439870Y16670D01*
Y17070D01*
X439470D01*
X439070Y16670D01*
X438670Y17070D01*
X438270D01*
Y16670D01*
X438670Y16270D01*
X438270Y15870D01*
Y15470D01*
X438670Y15870D02*
X438870D01*
X439070Y16070D01*
X439270Y15870D01*
X439470D01*
Y16070D01*
X439270Y16270D01*
X439470Y16470D01*
Y16670D01*
X439270D01*
X439070Y16470D01*
X438870Y16670D01*
X438670D01*
Y16470D01*
X438870Y16270D01*
X438670Y16070D01*
Y15870D01*
X404950Y45010D02*
X405350D01*
X405750Y45410D01*
X406150Y45010D01*
X406550D01*
Y45410D01*
X406150Y45810D01*
X406550Y46210D01*
Y46610D01*
X406150D01*
X405750Y46210D01*
X405350Y46610D01*
X404950D01*
Y46210D01*
X405350Y45810D01*
X404950Y45410D01*
Y45010D01*
X405350Y45410D02*
X405550D01*
X405750Y45610D01*
X405950Y45410D01*
X406150D01*
Y45610D01*
X405950Y45810D01*
X406150Y46010D01*
Y46210D01*
X405950D01*
X405750Y46010D01*
X405550Y46210D01*
X405350D01*
Y46010D01*
X405550Y45810D01*
X405350Y45610D01*
Y45410D01*
X420200Y75510D02*
X420600D01*
X421000Y75910D01*
X421400Y75510D01*
X421800D01*
Y75910D01*
X421400Y76310D01*
X421800Y76710D01*
Y77110D01*
X421400D01*
X421000Y76710D01*
X420600Y77110D01*
X420200D01*
Y76710D01*
X420600Y76310D01*
X420200Y75910D01*
Y75510D01*
X420600Y75910D02*
X420800D01*
X421000Y76110D01*
X421200Y75910D01*
X421400D01*
Y76110D01*
X421200Y76310D01*
X421400Y76510D01*
Y76710D01*
X421200D01*
X421000Y76510D01*
X420800Y76710D01*
X420600D01*
Y76510D01*
X420800Y76310D01*
X420600Y76110D01*
Y75910D01*
X416178Y48860D02*
X416578D01*
X416978Y49260D01*
X417378Y48860D01*
X417778D01*
Y49260D01*
X417378Y49660D01*
X417778Y50060D01*
Y50460D01*
X417378D01*
X416978Y50060D01*
X416578Y50460D01*
X416178D01*
Y50060D01*
X416578Y49660D01*
X416178Y49260D01*
Y48860D01*
X416578Y49260D02*
X416778D01*
X416978Y49460D01*
X417178Y49260D01*
X417378D01*
Y49460D01*
X417178Y49660D01*
X417378Y49860D01*
Y50060D01*
X417178D01*
X416978Y49860D01*
X416778Y50060D01*
X416578D01*
Y49860D01*
X416778Y49660D01*
X416578Y49460D01*
Y49260D01*
X428910Y47810D02*
X429310D01*
X429710Y48210D01*
X430110Y47810D01*
X430510D01*
Y48210D01*
X430110Y48610D01*
X430510Y49010D01*
Y49410D01*
X430110D01*
X429710Y49010D01*
X429310Y49410D01*
X428910D01*
Y49010D01*
X429310Y48610D01*
X428910Y48210D01*
Y47810D01*
X429310Y48210D02*
X429510D01*
X429710Y48410D01*
X429910Y48210D01*
X430110D01*
Y48410D01*
X429910Y48610D01*
X430110Y48810D01*
Y49010D01*
X429910D01*
X429710Y48810D01*
X429510Y49010D01*
X429310D01*
Y48810D01*
X429510Y48610D01*
X429310Y48410D01*
Y48210D01*
X233550Y271000D02*
X233950D01*
X234350Y271400D01*
X234750Y271000D01*
X235150D01*
Y271400D01*
X234750Y271800D01*
X235150Y272200D01*
Y272600D01*
X234750D01*
X234350Y272200D01*
X233950Y272600D01*
X233550D01*
Y272200D01*
X233950Y271800D01*
X233550Y271400D01*
Y271000D01*
X233950Y271400D02*
X234150D01*
X234350Y271600D01*
X234550Y271400D01*
X234750D01*
Y271600D01*
X234550Y271800D01*
X234750Y272000D01*
Y272200D01*
X234550D01*
X234350Y272000D01*
X234150Y272200D01*
X233950D01*
Y272000D01*
X234150Y271800D01*
X233950Y271600D01*
Y271400D01*
X297470Y70950D02*
X297870D01*
X298270Y71350D01*
X298670Y70950D01*
X299070D01*
Y71350D01*
X298670Y71750D01*
X299070Y72150D01*
Y72550D01*
X298670D01*
X298270Y72150D01*
X297870Y72550D01*
X297470D01*
Y72150D01*
X297870Y71750D01*
X297470Y71350D01*
Y70950D01*
X297870Y71350D02*
X298070D01*
X298270Y71550D01*
X298470Y71350D01*
X298670D01*
Y71550D01*
X298470Y71750D01*
X298670Y71950D01*
Y72150D01*
X298470D01*
X298270Y71950D01*
X298070Y72150D01*
X297870D01*
Y71950D01*
X298070Y71750D01*
X297870Y71550D01*
Y71350D01*
X231240Y75550D02*
X231640D01*
X232040Y75950D01*
X232440Y75550D01*
X232840D01*
Y75950D01*
X232440Y76350D01*
X232840Y76750D01*
Y77150D01*
X232440D01*
X232040Y76750D01*
X231640Y77150D01*
X231240D01*
Y76750D01*
X231640Y76350D01*
X231240Y75950D01*
Y75550D01*
X231640Y75950D02*
X231840D01*
X232040Y76150D01*
X232240Y75950D01*
X232440D01*
Y76150D01*
X232240Y76350D01*
X232440Y76550D01*
Y76750D01*
X232240D01*
X232040Y76550D01*
X231840Y76750D01*
X231640D01*
Y76550D01*
X231840Y76350D01*
X231640Y76150D01*
Y75950D01*
X346780Y94340D02*
X347180D01*
X347580Y94740D01*
X347980Y94340D01*
X348380D01*
Y94740D01*
X347980Y95140D01*
X348380Y95540D01*
Y95940D01*
X347980D01*
X347580Y95540D01*
X347180Y95940D01*
X346780D01*
Y95540D01*
X347180Y95140D01*
X346780Y94740D01*
Y94340D01*
X347180Y94740D02*
X347380D01*
X347580Y94940D01*
X347780Y94740D01*
X347980D01*
Y94940D01*
X347780Y95140D01*
X347980Y95340D01*
Y95540D01*
X347780D01*
X347580Y95340D01*
X347380Y95540D01*
X347180D01*
Y95340D01*
X347380Y95140D01*
X347180Y94940D01*
Y94740D01*
X26830Y285290D02*
X27230D01*
X27630Y285690D01*
X28030Y285290D01*
X28430D01*
Y285690D01*
X28030Y286090D01*
X28430Y286490D01*
Y286890D01*
X28030D01*
X27630Y286490D01*
X27230Y286890D01*
X26830D01*
Y286490D01*
X27230Y286090D01*
X26830Y285690D01*
Y285290D01*
X27230Y285690D02*
X27430D01*
X27630Y285890D01*
X27830Y285690D01*
X28030D01*
Y285890D01*
X27830Y286090D01*
X28030Y286290D01*
Y286490D01*
X27830D01*
X27630Y286290D01*
X27430Y286490D01*
X27230D01*
Y286290D01*
X27430Y286090D01*
X27230Y285890D01*
Y285690D01*
X26320Y225870D02*
X26720D01*
X27120Y226270D01*
X27520Y225870D01*
X27920D01*
Y226270D01*
X27520Y226670D01*
X27920Y227070D01*
Y227470D01*
X27520D01*
X27120Y227070D01*
X26720Y227470D01*
X26320D01*
Y227070D01*
X26720Y226670D01*
X26320Y226270D01*
Y225870D01*
X26720Y226270D02*
X26920D01*
X27120Y226470D01*
X27320Y226270D01*
X27520D01*
Y226470D01*
X27320Y226670D01*
X27520Y226870D01*
Y227070D01*
X27320D01*
X27120Y226870D01*
X26920Y227070D01*
X26720D01*
Y226870D01*
X26920Y226670D01*
X26720Y226470D01*
Y226270D01*
X70760Y183210D02*
X71160D01*
X71560Y183610D01*
X71960Y183210D01*
X72360D01*
Y183610D01*
X71960Y184010D01*
X72360Y184410D01*
Y184810D01*
X71960D01*
X71560Y184410D01*
X71160Y184810D01*
X70760D01*
Y184410D01*
X71160Y184010D01*
X70760Y183610D01*
Y183210D01*
X71160Y183610D02*
X71360D01*
X71560Y183810D01*
X71760Y183610D01*
X71960D01*
Y183810D01*
X71760Y184010D01*
X71960Y184210D01*
Y184410D01*
X71760D01*
X71560Y184210D01*
X71360Y184410D01*
X71160D01*
Y184210D01*
X71360Y184010D01*
X71160Y183810D01*
Y183610D01*
X55780Y139030D02*
X56180D01*
X56580Y139430D01*
X56980Y139030D01*
X57380D01*
Y139430D01*
X56980Y139830D01*
X57380Y140230D01*
Y140630D01*
X56980D01*
X56580Y140230D01*
X56180Y140630D01*
X55780D01*
Y140230D01*
X56180Y139830D01*
X55780Y139430D01*
Y139030D01*
X56180Y139430D02*
X56380D01*
X56580Y139630D01*
X56780Y139430D01*
X56980D01*
Y139630D01*
X56780Y139830D01*
X56980Y140030D01*
Y140230D01*
X56780D01*
X56580Y140030D01*
X56380Y140230D01*
X56180D01*
Y140030D01*
X56380Y139830D01*
X56180Y139630D01*
Y139430D01*
X124850Y186510D02*
X125250D01*
X125650Y186910D01*
X126050Y186510D01*
X126450D01*
Y186910D01*
X126050Y187310D01*
X126450Y187710D01*
Y188110D01*
X126050D01*
X125650Y187710D01*
X125250Y188110D01*
X124850D01*
Y187710D01*
X125250Y187310D01*
X124850Y186910D01*
Y186510D01*
X125250Y186910D02*
X125450D01*
X125650Y187110D01*
X125850Y186910D01*
X126050D01*
Y187110D01*
X125850Y187310D01*
X126050Y187510D01*
Y187710D01*
X125850D01*
X125650Y187510D01*
X125450Y187710D01*
X125250D01*
Y187510D01*
X125450Y187310D01*
X125250Y187110D01*
Y186910D01*
X335600Y119730D02*
X336000D01*
X336400Y120130D01*
X336800Y119730D01*
X337200D01*
Y120130D01*
X336800Y120530D01*
X337200Y120930D01*
Y121330D01*
X336800D01*
X336400Y120930D01*
X336000Y121330D01*
X335600D01*
Y120930D01*
X336000Y120530D01*
X335600Y120130D01*
Y119730D01*
X336000Y120130D02*
X336200D01*
X336400Y120330D01*
X336600Y120130D01*
X336800D01*
Y120330D01*
X336600Y120530D01*
X336800Y120730D01*
Y120930D01*
X336600D01*
X336400Y120730D01*
X336200Y120930D01*
X336000D01*
Y120730D01*
X336200Y120530D01*
X336000Y120330D01*
Y120130D01*
X343480Y154770D02*
X343880D01*
X344280Y155170D01*
X344680Y154770D01*
X345080D01*
Y155170D01*
X344680Y155570D01*
X345080Y155970D01*
Y156370D01*
X344680D01*
X344280Y155970D01*
X343880Y156370D01*
X343480D01*
Y155970D01*
X343880Y155570D01*
X343480Y155170D01*
Y154770D01*
X343880Y155170D02*
X344080D01*
X344280Y155370D01*
X344480Y155170D01*
X344680D01*
Y155370D01*
X344480Y155570D01*
X344680Y155770D01*
Y155970D01*
X344480D01*
X344280Y155770D01*
X344080Y155970D01*
X343880D01*
Y155770D01*
X344080Y155570D01*
X343880Y155370D01*
Y155170D01*
X337130Y149180D02*
X337530D01*
X337930Y149580D01*
X338330Y149180D01*
X338730D01*
Y149580D01*
X338330Y149980D01*
X338730Y150380D01*
Y150780D01*
X338330D01*
X337930Y150380D01*
X337530Y150780D01*
X337130D01*
Y150380D01*
X337530Y149980D01*
X337130Y149580D01*
Y149180D01*
X337530Y149580D02*
X337730D01*
X337930Y149780D01*
X338130Y149580D01*
X338330D01*
Y149780D01*
X338130Y149980D01*
X338330Y150180D01*
Y150380D01*
X338130D01*
X337930Y150180D01*
X337730Y150380D01*
X337530D01*
Y150180D01*
X337730Y149980D01*
X337530Y149780D01*
Y149580D01*
X311990Y232730D02*
X312390D01*
X312790Y233130D01*
X313190Y232730D01*
X313590D01*
Y233130D01*
X313190Y233530D01*
X313590Y233930D01*
Y234330D01*
X313190D01*
X312790Y233930D01*
X312390Y234330D01*
X311990D01*
Y233930D01*
X312390Y233530D01*
X311990Y233130D01*
Y232730D01*
X312390Y233130D02*
X312590D01*
X312790Y233330D01*
X312990Y233130D01*
X313190D01*
Y233330D01*
X312990Y233530D01*
X313190Y233730D01*
Y233930D01*
X312990D01*
X312790Y233730D01*
X312590Y233930D01*
X312390D01*
Y233730D01*
X312590Y233530D01*
X312390Y233330D01*
Y233130D01*
X302850Y234250D02*
X303250D01*
X303650Y234650D01*
X304050Y234250D01*
X304450D01*
Y234650D01*
X304050Y235050D01*
X304450Y235450D01*
Y235850D01*
X304050D01*
X303650Y235450D01*
X303250Y235850D01*
X302850D01*
Y235450D01*
X303250Y235050D01*
X302850Y234650D01*
Y234250D01*
X303250Y234650D02*
X303450D01*
X303650Y234850D01*
X303850Y234650D01*
X304050D01*
Y234850D01*
X303850Y235050D01*
X304050Y235250D01*
Y235450D01*
X303850D01*
X303650Y235250D01*
X303450Y235450D01*
X303250D01*
Y235250D01*
X303450Y235050D01*
X303250Y234850D01*
Y234650D01*
X280250Y237300D02*
X280650D01*
X281050Y237700D01*
X281450Y237300D01*
X281850D01*
Y237700D01*
X281450Y238100D01*
X281850Y238500D01*
Y238900D01*
X281450D01*
X281050Y238500D01*
X280650Y238900D01*
X280250D01*
Y238500D01*
X280650Y238100D01*
X280250Y237700D01*
Y237300D01*
X280650Y237700D02*
X280850D01*
X281050Y237900D01*
X281250Y237700D01*
X281450D01*
Y237900D01*
X281250Y238100D01*
X281450Y238300D01*
Y238500D01*
X281250D01*
X281050Y238300D01*
X280850Y238500D01*
X280650D01*
Y238300D01*
X280850Y238100D01*
X280650Y237900D01*
Y237700D01*
X265520Y239330D02*
X265920D01*
X266320Y239730D01*
X266720Y239330D01*
X267120D01*
Y239730D01*
X266720Y240130D01*
X267120Y240530D01*
Y240930D01*
X266720D01*
X266320Y240530D01*
X265920Y240930D01*
X265520D01*
Y240530D01*
X265920Y240130D01*
X265520Y239730D01*
Y239330D01*
X265920Y239730D02*
X266120D01*
X266320Y239930D01*
X266520Y239730D01*
X266720D01*
Y239930D01*
X266520Y240130D01*
X266720Y240330D01*
Y240530D01*
X266520D01*
X266320Y240330D01*
X266120Y240530D01*
X265920D01*
Y240330D01*
X266120Y240130D01*
X265920Y239930D01*
Y239730D01*
X233020Y219780D02*
X233420D01*
X233820Y220180D01*
X234220Y219780D01*
X234620D01*
Y220180D01*
X234220Y220580D01*
X234620Y220980D01*
Y221380D01*
X234220D01*
X233820Y220980D01*
X233420Y221380D01*
X233020D01*
Y220980D01*
X233420Y220580D01*
X233020Y220180D01*
Y219780D01*
X233420Y220180D02*
X233620D01*
X233820Y220380D01*
X234020Y220180D01*
X234220D01*
Y220380D01*
X234020Y220580D01*
X234220Y220780D01*
Y220980D01*
X234020D01*
X233820Y220780D01*
X233620Y220980D01*
X233420D01*
Y220780D01*
X233620Y220580D01*
X233420Y220380D01*
Y220180D01*
X214590Y140940D02*
X214990D01*
X215390Y141340D01*
X215790Y140940D01*
X216190D01*
Y141340D01*
X215790Y141740D01*
X216190Y142140D01*
Y142540D01*
X215790D01*
X215390Y142140D01*
X214990Y142540D01*
X214590D01*
Y142140D01*
X214990Y141740D01*
X214590Y141340D01*
Y140940D01*
X214990Y141340D02*
X215190D01*
X215390Y141540D01*
X215590Y141340D01*
X215790D01*
Y141540D01*
X215590Y141740D01*
X215790Y141940D01*
Y142140D01*
X215590D01*
X215390Y141940D01*
X215190Y142140D01*
X214990D01*
Y141940D01*
X215190Y141740D01*
X214990Y141540D01*
Y141340D01*
X279622Y157653D02*
X280022D01*
X280422Y158053D01*
X280822Y157653D01*
X281222D01*
Y158053D01*
X280822Y158453D01*
X281222Y158853D01*
Y159253D01*
X280822D01*
X280422Y158853D01*
X280022Y159253D01*
X279622D01*
Y158853D01*
X280022Y158453D01*
X279622Y158053D01*
Y157653D01*
X280022Y158053D02*
X280222D01*
X280422Y158253D01*
X280622Y158053D01*
X280822D01*
Y158253D01*
X280622Y158453D01*
X280822Y158653D01*
Y158853D01*
X280622D01*
X280422Y158653D01*
X280222Y158853D01*
X280022D01*
Y158653D01*
X280222Y158453D01*
X280022Y158253D01*
Y158053D01*
X279260Y154310D02*
X279660D01*
X280060Y154710D01*
X280460Y154310D01*
X280860D01*
Y154710D01*
X280460Y155110D01*
X280860Y155510D01*
Y155910D01*
X280460D01*
X280060Y155510D01*
X279660Y155910D01*
X279260D01*
Y155510D01*
X279660Y155110D01*
X279260Y154710D01*
Y154310D01*
X279660Y154710D02*
X279860D01*
X280060Y154910D01*
X280260Y154710D01*
X280460D01*
Y154910D01*
X280260Y155110D01*
X280460Y155310D01*
Y155510D01*
X280260D01*
X280060Y155310D01*
X279860Y155510D01*
X279660D01*
Y155310D01*
X279860Y155110D01*
X279660Y154910D01*
Y154710D01*
X272610Y153520D02*
X273010D01*
X273410Y153920D01*
X273810Y153520D01*
X274210D01*
Y153920D01*
X273810Y154320D01*
X274210Y154720D01*
Y155120D01*
X273810D01*
X273410Y154720D01*
X273010Y155120D01*
X272610D01*
Y154720D01*
X273010Y154320D01*
X272610Y153920D01*
Y153520D01*
X273010Y153920D02*
X273210D01*
X273410Y154120D01*
X273610Y153920D01*
X273810D01*
Y154120D01*
X273610Y154320D01*
X273810Y154520D01*
Y154720D01*
X273610D01*
X273410Y154520D01*
X273210Y154720D01*
X273010D01*
Y154520D01*
X273210Y154320D01*
X273010Y154120D01*
Y153920D01*
X277560Y148340D02*
X277960D01*
X278360Y148740D01*
X278760Y148340D01*
X279160D01*
Y148740D01*
X278760Y149140D01*
X279160Y149540D01*
Y149940D01*
X278760D01*
X278360Y149540D01*
X277960Y149940D01*
X277560D01*
Y149540D01*
X277960Y149140D01*
X277560Y148740D01*
Y148340D01*
X277960Y148740D02*
X278160D01*
X278360Y148940D01*
X278560Y148740D01*
X278760D01*
Y148940D01*
X278560Y149140D01*
X278760Y149340D01*
Y149540D01*
X278560D01*
X278360Y149340D01*
X278160Y149540D01*
X277960D01*
Y149340D01*
X278160Y149140D01*
X277960Y148940D01*
Y148740D01*
X262380Y111200D02*
X262780D01*
X263180Y111600D01*
X263580Y111200D01*
X263980D01*
Y111600D01*
X263580Y112000D01*
X263980Y112400D01*
Y112800D01*
X263580D01*
X263180Y112400D01*
X262780Y112800D01*
X262380D01*
Y112400D01*
X262780Y112000D01*
X262380Y111600D01*
Y111200D01*
X262780Y111600D02*
X262980D01*
X263180Y111800D01*
X263380Y111600D01*
X263580D01*
Y111800D01*
X263380Y112000D01*
X263580Y112200D01*
Y112400D01*
X263380D01*
X263180Y112200D01*
X262980Y112400D01*
X262780D01*
Y112200D01*
X262980Y112000D01*
X262780Y111800D01*
Y111600D01*
X267516Y109969D02*
X267916D01*
X268316Y110369D01*
X268716Y109969D01*
X269116D01*
Y110369D01*
X268716Y110769D01*
X269116Y111169D01*
Y111569D01*
X268716D01*
X268316Y111169D01*
X267916Y111569D01*
X267516D01*
Y111169D01*
X267916Y110769D01*
X267516Y110369D01*
Y109969D01*
X267916Y110369D02*
X268116D01*
X268316Y110569D01*
X268516Y110369D01*
X268716D01*
Y110569D01*
X268516Y110769D01*
X268716Y110969D01*
Y111169D01*
X268516D01*
X268316Y110969D01*
X268116Y111169D01*
X267916D01*
Y110969D01*
X268116Y110769D01*
X267916Y110569D01*
Y110369D01*
X291990Y185510D02*
X292390D01*
X292790Y185910D01*
X293190Y185510D01*
X293590D01*
Y185910D01*
X293190Y186310D01*
X293590Y186710D01*
Y187110D01*
X293190D01*
X292790Y186710D01*
X292390Y187110D01*
X291990D01*
Y186710D01*
X292390Y186310D01*
X291990Y185910D01*
Y185510D01*
X292390Y185910D02*
X292590D01*
X292790Y186110D01*
X292990Y185910D01*
X293190D01*
Y186110D01*
X292990Y186310D01*
X293190Y186510D01*
Y186710D01*
X292990D01*
X292790Y186510D01*
X292590Y186710D01*
X292390D01*
Y186510D01*
X292590Y186310D01*
X292390Y186110D01*
Y185910D01*
X260984Y201203D02*
X261384D01*
X261784Y201603D01*
X262184Y201203D01*
X262584D01*
Y201603D01*
X262184Y202003D01*
X262584Y202403D01*
Y202803D01*
X262184D01*
X261784Y202403D01*
X261384Y202803D01*
X260984D01*
Y202403D01*
X261384Y202003D01*
X260984Y201603D01*
Y201203D01*
X261384Y201603D02*
X261584D01*
X261784Y201803D01*
X261984Y201603D01*
X262184D01*
Y201803D01*
X261984Y202003D01*
X262184Y202203D01*
Y202403D01*
X261984D01*
X261784Y202203D01*
X261584Y202403D01*
X261384D01*
Y202203D01*
X261584Y202003D01*
X261384Y201803D01*
Y201603D01*
X302240Y194130D02*
X302640D01*
X303040Y194530D01*
X303440Y194130D01*
X303840D01*
Y194530D01*
X303440Y194930D01*
X303840Y195330D01*
Y195730D01*
X303440D01*
X303040Y195330D01*
X302640Y195730D01*
X302240D01*
Y195330D01*
X302640Y194930D01*
X302240Y194530D01*
Y194130D01*
X302640Y194530D02*
X302840D01*
X303040Y194730D01*
X303240Y194530D01*
X303440D01*
Y194730D01*
X303240Y194930D01*
X303440Y195130D01*
Y195330D01*
X303240D01*
X303040Y195130D01*
X302840Y195330D01*
X302640D01*
Y195130D01*
X302840Y194930D01*
X302640Y194730D01*
Y194530D01*
X234790Y168050D02*
X235190D01*
X235590Y168450D01*
X235990Y168050D01*
X236390D01*
Y168450D01*
X235990Y168850D01*
X236390Y169250D01*
Y169650D01*
X235990D01*
X235590Y169250D01*
X235190Y169650D01*
X234790D01*
Y169250D01*
X235190Y168850D01*
X234790Y168450D01*
Y168050D01*
X235190Y168450D02*
X235390D01*
X235590Y168650D01*
X235790Y168450D01*
X235990D01*
Y168650D01*
X235790Y168850D01*
X235990Y169050D01*
Y169250D01*
X235790D01*
X235590Y169050D01*
X235390Y169250D01*
X235190D01*
Y169050D01*
X235390Y168850D01*
X235190Y168650D01*
Y168450D01*
X247894Y176796D02*
X248294D01*
X248694Y177196D01*
X249094Y176796D01*
X249494D01*
Y177196D01*
X249094Y177596D01*
X249494Y177996D01*
Y178396D01*
X249094D01*
X248694Y177996D01*
X248294Y178396D01*
X247894D01*
Y177996D01*
X248294Y177596D01*
X247894Y177196D01*
Y176796D01*
X248294Y177196D02*
X248494D01*
X248694Y177396D01*
X248894Y177196D01*
X249094D01*
Y177396D01*
X248894Y177596D01*
X249094Y177796D01*
Y177996D01*
X248894D01*
X248694Y177796D01*
X248494Y177996D01*
X248294D01*
Y177796D01*
X248494Y177596D01*
X248294Y177396D01*
Y177196D01*
X290590Y32510D02*
X290990D01*
X291390Y32910D01*
X291790Y32510D01*
X292190D01*
Y32910D01*
X291790Y33310D01*
X292190Y33710D01*
Y34110D01*
X291790D01*
X291390Y33710D01*
X290990Y34110D01*
X290590D01*
Y33710D01*
X290990Y33310D01*
X290590Y32910D01*
Y32510D01*
X290990Y32910D02*
X291190D01*
X291390Y33110D01*
X291590Y32910D01*
X291790D01*
Y33110D01*
X291590Y33310D01*
X291790Y33510D01*
Y33710D01*
X291590D01*
X291390Y33510D01*
X291190Y33710D01*
X290990D01*
Y33510D01*
X291190Y33310D01*
X290990Y33110D01*
Y32910D01*
X17090Y264280D02*
X17490D01*
X17890Y264680D01*
X18290Y264280D01*
X18690D01*
Y264680D01*
X18290Y265080D01*
X18690Y265480D01*
Y265880D01*
X18290D01*
X17890Y265480D01*
X17490Y265880D01*
X17090D01*
Y265480D01*
X17490Y265080D01*
X17090Y264680D01*
Y264280D01*
X17490Y264680D02*
X17690D01*
X17890Y264880D01*
X18090Y264680D01*
X18290D01*
Y264880D01*
X18090Y265080D01*
X18290Y265280D01*
Y265480D01*
X18090D01*
X17890Y265280D01*
X17690Y265480D01*
X17490D01*
Y265280D01*
X17690Y265080D01*
X17490Y264880D01*
Y264680D01*
X283610Y38040D02*
X284010D01*
X284410Y38440D01*
X284810Y38040D01*
X285210D01*
Y38440D01*
X284810Y38840D01*
X285210Y39240D01*
Y39640D01*
X284810D01*
X284410Y39240D01*
X284010Y39640D01*
X283610D01*
Y39240D01*
X284010Y38840D01*
X283610Y38440D01*
Y38040D01*
X284010Y38440D02*
X284210D01*
X284410Y38640D01*
X284610Y38440D01*
X284810D01*
Y38640D01*
X284610Y38840D01*
X284810Y39040D01*
Y39240D01*
X284610D01*
X284410Y39040D01*
X284210Y39240D01*
X284010D01*
Y39040D01*
X284210Y38840D01*
X284010Y38640D01*
Y38440D01*
X271420Y35800D02*
X271820D01*
X272220Y36200D01*
X272620Y35800D01*
X273020D01*
Y36200D01*
X272620Y36600D01*
X273020Y37000D01*
Y37400D01*
X272620D01*
X272220Y37000D01*
X271820Y37400D01*
X271420D01*
Y37000D01*
X271820Y36600D01*
X271420Y36200D01*
Y35800D01*
X271820Y36200D02*
X272020D01*
X272220Y36400D01*
X272420Y36200D01*
X272620D01*
Y36400D01*
X272420Y36600D01*
X272620Y36800D01*
Y37000D01*
X272420D01*
X272220Y36800D01*
X272020Y37000D01*
X271820D01*
Y36800D01*
X272020Y36600D01*
X271820Y36400D01*
Y36200D01*
X285180Y161150D02*
X285580D01*
X285980Y161550D01*
X286380Y161150D01*
X286780D01*
Y161550D01*
X286380Y161950D01*
X286780Y162350D01*
Y162750D01*
X286380D01*
X285980Y162350D01*
X285580Y162750D01*
X285180D01*
Y162350D01*
X285580Y161950D01*
X285180Y161550D01*
Y161150D01*
X285580Y161550D02*
X285780D01*
X285980Y161750D01*
X286180Y161550D01*
X286380D01*
Y161750D01*
X286180Y161950D01*
X286380Y162150D01*
Y162350D01*
X286180D01*
X285980Y162150D01*
X285780Y162350D01*
X285580D01*
Y162150D01*
X285780Y161950D01*
X285580Y161750D01*
Y161550D01*
X302040Y163610D02*
X302440D01*
X302840Y164010D01*
X303240Y163610D01*
X303640D01*
Y164010D01*
X303240Y164410D01*
X303640Y164810D01*
Y165210D01*
X303240D01*
X302840Y164810D01*
X302440Y165210D01*
X302040D01*
Y164810D01*
X302440Y164410D01*
X302040Y164010D01*
Y163610D01*
X302440Y164010D02*
X302640D01*
X302840Y164210D01*
X303040Y164010D01*
X303240D01*
Y164210D01*
X303040Y164410D01*
X303240Y164610D01*
Y164810D01*
X303040D01*
X302840Y164610D01*
X302640Y164810D01*
X302440D01*
Y164610D01*
X302640Y164410D01*
X302440Y164210D01*
Y164010D01*
X276520Y139410D02*
X276920D01*
X277320Y139810D01*
X277720Y139410D01*
X278120D01*
Y139810D01*
X277720Y140210D01*
X278120Y140610D01*
Y141010D01*
X277720D01*
X277320Y140610D01*
X276920Y141010D01*
X276520D01*
Y140610D01*
X276920Y140210D01*
X276520Y139810D01*
Y139410D01*
X276920Y139810D02*
X277120D01*
X277320Y140010D01*
X277520Y139810D01*
X277720D01*
Y140010D01*
X277520Y140210D01*
X277720Y140410D01*
Y140610D01*
X277520D01*
X277320Y140410D01*
X277120Y140610D01*
X276920D01*
Y140410D01*
X277120Y140210D01*
X276920Y140010D01*
Y139810D01*
X283190Y135780D02*
X283590D01*
X283990Y136180D01*
X284390Y135780D01*
X284790D01*
Y136180D01*
X284390Y136580D01*
X284790Y136980D01*
Y137380D01*
X284390D01*
X283990Y136980D01*
X283590Y137380D01*
X283190D01*
Y136980D01*
X283590Y136580D01*
X283190Y136180D01*
Y135780D01*
X283590Y136180D02*
X283790D01*
X283990Y136380D01*
X284190Y136180D01*
X284390D01*
Y136380D01*
X284190Y136580D01*
X284390Y136780D01*
Y136980D01*
X284190D01*
X283990Y136780D01*
X283790Y136980D01*
X283590D01*
Y136780D01*
X283790Y136580D01*
X283590Y136380D01*
Y136180D01*
X252820Y63700D02*
X253220D01*
X253620Y64100D01*
X254020Y63700D01*
X254420D01*
Y64100D01*
X254020Y64500D01*
X254420Y64900D01*
Y65300D01*
X254020D01*
X253620Y64900D01*
X253220Y65300D01*
X252820D01*
Y64900D01*
X253220Y64500D01*
X252820Y64100D01*
Y63700D01*
X253220Y64100D02*
X253420D01*
X253620Y64300D01*
X253820Y64100D01*
X254020D01*
Y64300D01*
X253820Y64500D01*
X254020Y64700D01*
Y64900D01*
X253820D01*
X253620Y64700D01*
X253420Y64900D01*
X253220D01*
Y64700D01*
X253420Y64500D01*
X253220Y64300D01*
Y64100D01*
X246984Y62476D02*
X247384D01*
X247784Y62876D01*
X248184Y62476D01*
X248584D01*
Y62876D01*
X248184Y63276D01*
X248584Y63676D01*
Y64076D01*
X248184D01*
X247784Y63676D01*
X247384Y64076D01*
X246984D01*
Y63676D01*
X247384Y63276D01*
X246984Y62876D01*
Y62476D01*
X247384Y62876D02*
X247584D01*
X247784Y63076D01*
X247984Y62876D01*
X248184D01*
Y63076D01*
X247984Y63276D01*
X248184Y63476D01*
Y63676D01*
X247984D01*
X247784Y63476D01*
X247584Y63676D01*
X247384D01*
Y63476D01*
X247584Y63276D01*
X247384Y63076D01*
Y62876D01*
X264120Y61590D02*
X264520D01*
X264920Y61990D01*
X265320Y61590D01*
X265720D01*
Y61990D01*
X265320Y62390D01*
X265720Y62790D01*
Y63190D01*
X265320D01*
X264920Y62790D01*
X264520Y63190D01*
X264120D01*
Y62790D01*
X264520Y62390D01*
X264120Y61990D01*
Y61590D01*
X264520Y61990D02*
X264720D01*
X264920Y62190D01*
X265120Y61990D01*
X265320D01*
Y62190D01*
X265120Y62390D01*
X265320Y62590D01*
Y62790D01*
X265120D01*
X264920Y62590D01*
X264720Y62790D01*
X264520D01*
Y62590D01*
X264720Y62390D01*
X264520Y62190D01*
Y61990D01*
X304960Y56950D02*
X305360D01*
X305760Y57350D01*
X306160Y56950D01*
X306560D01*
Y57350D01*
X306160Y57750D01*
X306560Y58150D01*
Y58550D01*
X306160D01*
X305760Y58150D01*
X305360Y58550D01*
X304960D01*
Y58150D01*
X305360Y57750D01*
X304960Y57350D01*
Y56950D01*
X305360Y57350D02*
X305560D01*
X305760Y57550D01*
X305960Y57350D01*
X306160D01*
Y57550D01*
X305960Y57750D01*
X306160Y57950D01*
Y58150D01*
X305960D01*
X305760Y57950D01*
X305560Y58150D01*
X305360D01*
Y57950D01*
X305560Y57750D01*
X305360Y57550D01*
Y57350D01*
X284540Y214340D02*
X284940D01*
X285340Y214740D01*
X285740Y214340D01*
X286140D01*
Y214740D01*
X285740Y215140D01*
X286140Y215540D01*
Y215940D01*
X285740D01*
X285340Y215540D01*
X284940Y215940D01*
X284540D01*
Y215540D01*
X284940Y215140D01*
X284540Y214740D01*
Y214340D01*
X284940Y214740D02*
X285140D01*
X285340Y214940D01*
X285540Y214740D01*
X285740D01*
Y214940D01*
X285540Y215140D01*
X285740Y215340D01*
Y215540D01*
X285540D01*
X285340Y215340D01*
X285140Y215540D01*
X284940D01*
Y215340D01*
X285140Y215140D01*
X284940Y214940D01*
Y214740D01*
X295790Y127890D02*
X296190D01*
X296590Y128290D01*
X296990Y127890D01*
X297390D01*
Y128290D01*
X296990Y128690D01*
X297390Y129090D01*
Y129490D01*
X296990D01*
X296590Y129090D01*
X296190Y129490D01*
X295790D01*
Y129090D01*
X296190Y128690D01*
X295790Y128290D01*
Y127890D01*
X296190Y128290D02*
X296390D01*
X296590Y128490D01*
X296790Y128290D01*
X296990D01*
Y128490D01*
X296790Y128690D01*
X296990Y128890D01*
Y129090D01*
X296790D01*
X296590Y128890D01*
X296390Y129090D01*
X296190D01*
Y128890D01*
X296390Y128690D01*
X296190Y128490D01*
Y128290D01*
X262930Y210800D02*
X263330D01*
X263730Y211200D01*
X264130Y210800D01*
X264530D01*
Y211200D01*
X264130Y211600D01*
X264530Y212000D01*
Y212400D01*
X264130D01*
X263730Y212000D01*
X263330Y212400D01*
X262930D01*
Y212000D01*
X263330Y211600D01*
X262930Y211200D01*
Y210800D01*
X263330Y211200D02*
X263530D01*
X263730Y211400D01*
X263930Y211200D01*
X264130D01*
Y211400D01*
X263930Y211600D01*
X264130Y211800D01*
Y212000D01*
X263930D01*
X263730Y211800D01*
X263530Y212000D01*
X263330D01*
Y211800D01*
X263530Y211600D01*
X263330Y211400D01*
Y211200D01*
X277270Y209380D02*
X277670D01*
X278070Y209780D01*
X278470Y209380D01*
X278870D01*
Y209780D01*
X278470Y210180D01*
X278870Y210580D01*
Y210980D01*
X278470D01*
X278070Y210580D01*
X277670Y210980D01*
X277270D01*
Y210580D01*
X277670Y210180D01*
X277270Y209780D01*
Y209380D01*
X277670Y209780D02*
X277870D01*
X278070Y209980D01*
X278270Y209780D01*
X278470D01*
Y209980D01*
X278270Y210180D01*
X278470Y210380D01*
Y210580D01*
X278270D01*
X278070Y210380D01*
X277870Y210580D01*
X277670D01*
Y210380D01*
X277870Y210180D01*
X277670Y209980D01*
Y209780D01*
X328400Y43510D02*
X328800D01*
X329200Y43910D01*
X329600Y43510D01*
X330000D01*
Y43910D01*
X329600Y44310D01*
X330000Y44710D01*
Y45110D01*
X329600D01*
X329200Y44710D01*
X328800Y45110D01*
X328400D01*
Y44710D01*
X328800Y44310D01*
X328400Y43910D01*
Y43510D01*
X328800Y43910D02*
X329000D01*
X329200Y44110D01*
X329400Y43910D01*
X329600D01*
Y44110D01*
X329400Y44310D01*
X329600Y44510D01*
Y44710D01*
X329400D01*
X329200Y44510D01*
X329000Y44710D01*
X328800D01*
Y44510D01*
X329000Y44310D01*
X328800Y44110D01*
Y43910D01*
X308160Y136260D02*
X308560D01*
X308960Y136660D01*
X309360Y136260D01*
X309760D01*
Y136660D01*
X309360Y137060D01*
X309760Y137460D01*
Y137860D01*
X309360D01*
X308960Y137460D01*
X308560Y137860D01*
X308160D01*
Y137460D01*
X308560Y137060D01*
X308160Y136660D01*
Y136260D01*
X308560Y136660D02*
X308760D01*
X308960Y136860D01*
X309160Y136660D01*
X309360D01*
Y136860D01*
X309160Y137060D01*
X309360Y137260D01*
Y137460D01*
X309160D01*
X308960Y137260D01*
X308760Y137460D01*
X308560D01*
Y137260D01*
X308760Y137060D01*
X308560Y136860D01*
Y136660D01*
X313450Y138930D02*
X313850D01*
X314250Y139330D01*
X314650Y138930D01*
X315050D01*
Y139330D01*
X314650Y139730D01*
X315050Y140130D01*
Y140530D01*
X314650D01*
X314250Y140130D01*
X313850Y140530D01*
X313450D01*
Y140130D01*
X313850Y139730D01*
X313450Y139330D01*
Y138930D01*
X313850Y139330D02*
X314050D01*
X314250Y139530D01*
X314450Y139330D01*
X314650D01*
Y139530D01*
X314450Y139730D01*
X314650Y139930D01*
Y140130D01*
X314450D01*
X314250Y139930D01*
X314050Y140130D01*
X313850D01*
Y139930D01*
X314050Y139730D01*
X313850Y139530D01*
Y139330D01*
X328200Y48510D02*
X328600D01*
X329000Y48910D01*
X329400Y48510D01*
X329800D01*
Y48910D01*
X329400Y49310D01*
X329800Y49710D01*
Y50110D01*
X329400D01*
X329000Y49710D01*
X328600Y50110D01*
X328200D01*
Y49710D01*
X328600Y49310D01*
X328200Y48910D01*
Y48510D01*
X328600Y48910D02*
X328800D01*
X329000Y49110D01*
X329200Y48910D01*
X329400D01*
Y49110D01*
X329200Y49310D01*
X329400Y49510D01*
Y49710D01*
X329200D01*
X329000Y49510D01*
X328800Y49710D01*
X328600D01*
Y49510D01*
X328800Y49310D01*
X328600Y49110D01*
Y48910D01*
X328020Y52990D02*
X328420D01*
X328820Y53390D01*
X329220Y52990D01*
X329620D01*
Y53390D01*
X329220Y53790D01*
X329620Y54190D01*
Y54590D01*
X329220D01*
X328820Y54190D01*
X328420Y54590D01*
X328020D01*
Y54190D01*
X328420Y53790D01*
X328020Y53390D01*
Y52990D01*
X328420Y53390D02*
X328620D01*
X328820Y53590D01*
X329020Y53390D01*
X329220D01*
Y53590D01*
X329020Y53790D01*
X329220Y53990D01*
Y54190D01*
X329020D01*
X328820Y53990D01*
X328620Y54190D01*
X328420D01*
Y53990D01*
X328620Y53790D01*
X328420Y53590D01*
Y53390D01*
X189560Y129630D02*
X189960D01*
X190360Y130030D01*
X190760Y129630D01*
X191160D01*
Y130030D01*
X190760Y130430D01*
X191160Y130830D01*
Y131230D01*
X190760D01*
X190360Y130830D01*
X189960Y131230D01*
X189560D01*
Y130830D01*
X189960Y130430D01*
X189560Y130030D01*
Y129630D01*
X189960Y130030D02*
X190160D01*
X190360Y130230D01*
X190560Y130030D01*
X190760D01*
Y130230D01*
X190560Y130430D01*
X190760Y130630D01*
Y130830D01*
X190560D01*
X190360Y130630D01*
X190160Y130830D01*
X189960D01*
Y130630D01*
X190160Y130430D01*
X189960Y130230D01*
Y130030D01*
X290750Y25180D02*
X291150D01*
X291550Y25580D01*
X291950Y25180D01*
X292350D01*
Y25580D01*
X291950Y25980D01*
X292350Y26380D01*
Y26780D01*
X291950D01*
X291550Y26380D01*
X291150Y26780D01*
X290750D01*
Y26380D01*
X291150Y25980D01*
X290750Y25580D01*
Y25180D01*
X291150Y25580D02*
X291350D01*
X291550Y25780D01*
X291750Y25580D01*
X291950D01*
Y25780D01*
X291750Y25980D01*
X291950Y26180D01*
Y26380D01*
X291750D01*
X291550Y26180D01*
X291350Y26380D01*
X291150D01*
Y26180D01*
X291350Y25980D01*
X291150Y25780D01*
Y25580D01*
X318650Y202960D02*
X319050D01*
X319450Y203360D01*
X319850Y202960D01*
X320250D01*
Y203360D01*
X319850Y203760D01*
X320250Y204160D01*
Y204560D01*
X319850D01*
X319450Y204160D01*
X319050Y204560D01*
X318650D01*
Y204160D01*
X319050Y203760D01*
X318650Y203360D01*
Y202960D01*
X319050Y203360D02*
X319250D01*
X319450Y203560D01*
X319650Y203360D01*
X319850D01*
Y203560D01*
X319650Y203760D01*
X319850Y203960D01*
Y204160D01*
X319650D01*
X319450Y203960D01*
X319250Y204160D01*
X319050D01*
Y203960D01*
X319250Y203760D01*
X319050Y203560D01*
Y203360D01*
X280660Y186230D02*
X281060D01*
X281460Y186630D01*
X281860Y186230D01*
X282260D01*
Y186630D01*
X281860Y187030D01*
X282260Y187430D01*
Y187830D01*
X281860D01*
X281460Y187430D01*
X281060Y187830D01*
X280660D01*
Y187430D01*
X281060Y187030D01*
X280660Y186630D01*
Y186230D01*
X281060Y186630D02*
X281260D01*
X281460Y186830D01*
X281660Y186630D01*
X281860D01*
Y186830D01*
X281660Y187030D01*
X281860Y187230D01*
Y187430D01*
X281660D01*
X281460Y187230D01*
X281260Y187430D01*
X281060D01*
Y187230D01*
X281260Y187030D01*
X281060Y186830D01*
Y186630D01*
X257490Y157180D02*
X257890D01*
X258290Y157580D01*
X258690Y157180D01*
X259090D01*
Y157580D01*
X258690Y157980D01*
X259090Y158380D01*
Y158780D01*
X258690D01*
X258290Y158380D01*
X257890Y158780D01*
X257490D01*
Y158380D01*
X257890Y157980D01*
X257490Y157580D01*
Y157180D01*
X257890Y157580D02*
X258090D01*
X258290Y157780D01*
X258490Y157580D01*
X258690D01*
Y157780D01*
X258490Y157980D01*
X258690Y158180D01*
Y158380D01*
X258490D01*
X258290Y158180D01*
X258090Y158380D01*
X257890D01*
Y158180D01*
X258090Y157980D01*
X257890Y157780D01*
Y157580D01*
X249130Y162800D02*
X249530D01*
X249930Y163200D01*
X250330Y162800D01*
X250730D01*
Y163200D01*
X250330Y163600D01*
X250730Y164000D01*
Y164400D01*
X250330D01*
X249930Y164000D01*
X249530Y164400D01*
X249130D01*
Y164000D01*
X249530Y163600D01*
X249130Y163200D01*
Y162800D01*
X249530Y163200D02*
X249730D01*
X249930Y163400D01*
X250130Y163200D01*
X250330D01*
Y163400D01*
X250130Y163600D01*
X250330Y163800D01*
Y164000D01*
X250130D01*
X249930Y163800D01*
X249730Y164000D01*
X249530D01*
Y163800D01*
X249730Y163600D01*
X249530Y163400D01*
Y163200D01*
X61600Y123720D02*
X62000D01*
X62400Y124120D01*
X62800Y123720D01*
X63200D01*
Y124120D01*
X62800Y124520D01*
X63200Y124920D01*
Y125320D01*
X62800D01*
X62400Y124920D01*
X62000Y125320D01*
X61600D01*
Y124920D01*
X62000Y124520D01*
X61600Y124120D01*
Y123720D01*
X62000Y124120D02*
X62200D01*
X62400Y124320D01*
X62600Y124120D01*
X62800D01*
Y124320D01*
X62600Y124520D01*
X62800Y124720D01*
Y124920D01*
X62600D01*
X62400Y124720D01*
X62200Y124920D01*
X62000D01*
Y124720D01*
X62200Y124520D01*
X62000Y124320D01*
Y124120D01*
X49870Y123580D02*
X50270D01*
X50670Y123980D01*
X51070Y123580D01*
X51470D01*
Y123980D01*
X51070Y124380D01*
X51470Y124780D01*
Y125180D01*
X51070D01*
X50670Y124780D01*
X50270Y125180D01*
X49870D01*
Y124780D01*
X50270Y124380D01*
X49870Y123980D01*
Y123580D01*
X50270Y123980D02*
X50470D01*
X50670Y124180D01*
X50870Y123980D01*
X51070D01*
Y124180D01*
X50870Y124380D01*
X51070Y124580D01*
Y124780D01*
X50870D01*
X50670Y124580D01*
X50470Y124780D01*
X50270D01*
Y124580D01*
X50470Y124380D01*
X50270Y124180D01*
Y123980D01*
X141060Y32820D02*
X141460D01*
X141860Y33220D01*
X142260Y32820D01*
X142660D01*
Y33220D01*
X142260Y33620D01*
X142660Y34020D01*
Y34420D01*
X142260D01*
X141860Y34020D01*
X141460Y34420D01*
X141060D01*
Y34020D01*
X141460Y33620D01*
X141060Y33220D01*
Y32820D01*
X141460Y33220D02*
X141660D01*
X141860Y33420D01*
X142060Y33220D01*
X142260D01*
Y33420D01*
X142060Y33620D01*
X142260Y33820D01*
Y34020D01*
X142060D01*
X141860Y33820D01*
X141660Y34020D01*
X141460D01*
Y33820D01*
X141660Y33620D01*
X141460Y33420D01*
Y33220D01*
X270320Y142060D02*
X270720D01*
X271120Y142460D01*
X271520Y142060D01*
X271920D01*
Y142460D01*
X271520Y142860D01*
X271920Y143260D01*
Y143660D01*
X271520D01*
X271120Y143260D01*
X270720Y143660D01*
X270320D01*
Y143260D01*
X270720Y142860D01*
X270320Y142460D01*
Y142060D01*
X270720Y142460D02*
X270920D01*
X271120Y142660D01*
X271320Y142460D01*
X271520D01*
Y142660D01*
X271320Y142860D01*
X271520Y143060D01*
Y143260D01*
X271320D01*
X271120Y143060D01*
X270920Y143260D01*
X270720D01*
Y143060D01*
X270920Y142860D01*
X270720Y142660D01*
Y142460D01*
X67970Y14685D02*
X68370D01*
X68770Y15085D01*
X69170Y14685D01*
X69570D01*
Y15085D01*
X69170Y15485D01*
X69570Y15885D01*
Y16285D01*
X69170D01*
X68770Y15885D01*
X68370Y16285D01*
X67970D01*
Y15885D01*
X68370Y15485D01*
X67970Y15085D01*
Y14685D01*
X68370Y15085D02*
X68570D01*
X68770Y15285D01*
X68970Y15085D01*
X69170D01*
Y15285D01*
X68970Y15485D01*
X69170Y15685D01*
Y15885D01*
X68970D01*
X68770Y15685D01*
X68570Y15885D01*
X68370D01*
Y15685D01*
X68570Y15485D01*
X68370Y15285D01*
Y15085D01*
X262490Y116220D02*
X262890D01*
X263290Y116620D01*
X263690Y116220D01*
X264090D01*
Y116620D01*
X263690Y117020D01*
X264090Y117420D01*
Y117820D01*
X263690D01*
X263290Y117420D01*
X262890Y117820D01*
X262490D01*
Y117420D01*
X262890Y117020D01*
X262490Y116620D01*
Y116220D01*
X262890Y116620D02*
X263090D01*
X263290Y116820D01*
X263490Y116620D01*
X263690D01*
Y116820D01*
X263490Y117020D01*
X263690Y117220D01*
Y117420D01*
X263490D01*
X263290Y117220D01*
X263090Y117420D01*
X262890D01*
Y117220D01*
X263090Y117020D01*
X262890Y116820D01*
Y116620D01*
X285628Y62732D02*
X286028D01*
X286428Y63132D01*
X286828Y62732D01*
X287228D01*
Y63132D01*
X286828Y63532D01*
X287228Y63932D01*
Y64332D01*
X286828D01*
X286428Y63932D01*
X286028Y64332D01*
X285628D01*
Y63932D01*
X286028Y63532D01*
X285628Y63132D01*
Y62732D01*
X286028Y63132D02*
X286228D01*
X286428Y63332D01*
X286628Y63132D01*
X286828D01*
Y63332D01*
X286628Y63532D01*
X286828Y63732D01*
Y63932D01*
X286628D01*
X286428Y63732D01*
X286228Y63932D01*
X286028D01*
Y63732D01*
X286228Y63532D01*
X286028Y63332D01*
Y63132D01*
X92840Y156051D02*
X93240D01*
X93640Y156451D01*
X94040Y156051D01*
X94440D01*
Y156451D01*
X94040Y156851D01*
X94440Y157251D01*
Y157651D01*
X94040D01*
X93640Y157251D01*
X93240Y157651D01*
X92840D01*
Y157251D01*
X93240Y156851D01*
X92840Y156451D01*
Y156051D01*
X93240Y156451D02*
X93440D01*
X93640Y156651D01*
X93840Y156451D01*
X94040D01*
Y156651D01*
X93840Y156851D01*
X94040Y157051D01*
Y157251D01*
X93840D01*
X93640Y157051D01*
X93440Y157251D01*
X93240D01*
Y157051D01*
X93440Y156851D01*
X93240Y156651D01*
Y156451D01*
X70050Y151880D02*
X70450D01*
X70850Y152280D01*
X71250Y151880D01*
X71650D01*
Y152280D01*
X71250Y152680D01*
X71650Y153080D01*
Y153480D01*
X71250D01*
X70850Y153080D01*
X70450Y153480D01*
X70050D01*
Y153080D01*
X70450Y152680D01*
X70050Y152280D01*
Y151880D01*
X70450Y152280D02*
X70650D01*
X70850Y152480D01*
X71050Y152280D01*
X71250D01*
Y152480D01*
X71050Y152680D01*
X71250Y152880D01*
Y153080D01*
X71050D01*
X70850Y152880D01*
X70650Y153080D01*
X70450D01*
Y152880D01*
X70650Y152680D01*
X70450Y152480D01*
Y152280D01*
X85720Y156020D02*
X86120D01*
X86520Y156420D01*
X86920Y156020D01*
X87320D01*
Y156420D01*
X86920Y156820D01*
X87320Y157220D01*
Y157620D01*
X86920D01*
X86520Y157220D01*
X86120Y157620D01*
X85720D01*
Y157220D01*
X86120Y156820D01*
X85720Y156420D01*
Y156020D01*
X86120Y156420D02*
X86320D01*
X86520Y156620D01*
X86720Y156420D01*
X86920D01*
Y156620D01*
X86720Y156820D01*
X86920Y157020D01*
Y157220D01*
X86720D01*
X86520Y157020D01*
X86320Y157220D01*
X86120D01*
Y157020D01*
X86320Y156820D01*
X86120Y156620D01*
Y156420D01*
X51670Y184520D02*
X52070D01*
X52470Y184920D01*
X52870Y184520D01*
X53270D01*
Y184920D01*
X52870Y185320D01*
X53270Y185720D01*
Y186120D01*
X52870D01*
X52470Y185720D01*
X52070Y186120D01*
X51670D01*
Y185720D01*
X52070Y185320D01*
X51670Y184920D01*
Y184520D01*
X52070Y184920D02*
X52270D01*
X52470Y185120D01*
X52670Y184920D01*
X52870D01*
Y185120D01*
X52670Y185320D01*
X52870Y185520D01*
Y185720D01*
X52670D01*
X52470Y185520D01*
X52270Y185720D01*
X52070D01*
Y185520D01*
X52270Y185320D01*
X52070Y185120D01*
Y184920D01*
X104470Y28320D02*
X104870D01*
X105270Y28720D01*
X105670Y28320D01*
X106070D01*
Y28720D01*
X105670Y29120D01*
X106070Y29520D01*
Y29920D01*
X105670D01*
X105270Y29520D01*
X104870Y29920D01*
X104470D01*
Y29520D01*
X104870Y29120D01*
X104470Y28720D01*
Y28320D01*
X104870Y28720D02*
X105070D01*
X105270Y28920D01*
X105470Y28720D01*
X105670D01*
Y28920D01*
X105470Y29120D01*
X105670Y29320D01*
Y29520D01*
X105470D01*
X105270Y29320D01*
X105070Y29520D01*
X104870D01*
Y29320D01*
X105070Y29120D01*
X104870Y28920D01*
Y28720D01*
X50320Y31500D02*
X50720D01*
X51120Y31900D01*
X51520Y31500D01*
X51920D01*
Y31900D01*
X51520Y32300D01*
X51920Y32700D01*
Y33100D01*
X51520D01*
X51120Y32700D01*
X50720Y33100D01*
X50320D01*
Y32700D01*
X50720Y32300D01*
X50320Y31900D01*
Y31500D01*
X50720Y31900D02*
X50920D01*
X51120Y32100D01*
X51320Y31900D01*
X51520D01*
Y32100D01*
X51320Y32300D01*
X51520Y32500D01*
Y32700D01*
X51320D01*
X51120Y32500D01*
X50920Y32700D01*
X50720D01*
Y32500D01*
X50920Y32300D01*
X50720Y32100D01*
Y31900D01*
X327860Y71710D02*
X328260D01*
X328660Y72110D01*
X329060Y71710D01*
X329460D01*
Y72110D01*
X329060Y72510D01*
X329460Y72910D01*
Y73310D01*
X329060D01*
X328660Y72910D01*
X328260Y73310D01*
X327860D01*
Y72910D01*
X328260Y72510D01*
X327860Y72110D01*
Y71710D01*
X328260Y72110D02*
X328460D01*
X328660Y72310D01*
X328860Y72110D01*
X329060D01*
Y72310D01*
X328860Y72510D01*
X329060Y72710D01*
Y72910D01*
X328860D01*
X328660Y72710D01*
X328460Y72910D01*
X328260D01*
Y72710D01*
X328460Y72510D01*
X328260Y72310D01*
Y72110D01*
X85720Y159200D02*
X86120D01*
X86520Y159600D01*
X86920Y159200D01*
X87320D01*
Y159600D01*
X86920Y160000D01*
X87320Y160400D01*
Y160800D01*
X86920D01*
X86520Y160400D01*
X86120Y160800D01*
X85720D01*
Y160400D01*
X86120Y160000D01*
X85720Y159600D01*
Y159200D01*
X86120Y159600D02*
X86320D01*
X86520Y159800D01*
X86720Y159600D01*
X86920D01*
Y159800D01*
X86720Y160000D01*
X86920Y160200D01*
Y160400D01*
X86720D01*
X86520Y160200D01*
X86320Y160400D01*
X86120D01*
Y160200D01*
X86320Y160000D01*
X86120Y159800D01*
Y159600D01*
X78120Y159200D02*
X78520D01*
X78920Y159600D01*
X79320Y159200D01*
X79720D01*
Y159600D01*
X79320Y160000D01*
X79720Y160400D01*
Y160800D01*
X79320D01*
X78920Y160400D01*
X78520Y160800D01*
X78120D01*
Y160400D01*
X78520Y160000D01*
X78120Y159600D01*
Y159200D01*
X78520Y159600D02*
X78720D01*
X78920Y159800D01*
X79120Y159600D01*
X79320D01*
Y159800D01*
X79120Y160000D01*
X79320Y160200D01*
Y160400D01*
X79120D01*
X78920Y160200D01*
X78720Y160400D01*
X78520D01*
Y160200D01*
X78720Y160000D01*
X78520Y159800D01*
Y159600D01*
D212*
X412690Y32484D02*
G03*
X412690Y32484I-800J0D01*
G01*
Y38390D02*
G03*
X412690Y38390I-800J0D01*
G01*
Y44295D02*
G03*
X412690Y44295I-800J0D01*
G01*
Y50201D02*
G03*
X412690Y50201I-800J0D01*
G01*
Y62012D02*
G03*
X412690Y62012I-800J0D01*
G01*
Y56107D02*
G03*
X412690Y56107I-800J0D01*
G01*
X343110Y32585D02*
G03*
X343110Y32585I-800J0D01*
G01*
Y38490D02*
G03*
X343110Y38490I-800J0D01*
G01*
Y44396D02*
G03*
X343110Y44396I-800J0D01*
G01*
Y50301D02*
G03*
X343110Y50301I-800J0D01*
G01*
Y62112D02*
G03*
X343110Y62112I-800J0D01*
G01*
Y56207D02*
G03*
X343110Y56207I-800J0D01*
G01*
X298686Y328210D02*
G03*
X298686Y328210I-800J0D01*
G01*
X358686D02*
G03*
X358686Y328210I-800J0D01*
G01*
X298686Y298210D02*
G03*
X298686Y298210I-800J0D01*
G01*
X338686D02*
G03*
X338686Y298210I-800J0D01*
G01*
X368686D02*
G03*
X368686Y298210I-800J0D01*
G01*
X211441Y328697D02*
G03*
X211441Y328697I-800J0D01*
G01*
X271441D02*
G03*
X271441Y328697I-800J0D01*
G01*
X211441Y298697D02*
G03*
X211441Y298697I-800J0D01*
G01*
X251441D02*
G03*
X251441Y298697I-800J0D01*
G01*
X281441D02*
G03*
X281441Y298697I-800J0D01*
G01*
D213*
X298286Y328210D02*
G03*
X298286Y328210I-400J0D01*
G01*
X358286D02*
G03*
X358286Y328210I-400J0D01*
G01*
X298286Y298210D02*
G03*
X298286Y298210I-400J0D01*
G01*
X338286D02*
G03*
X338286Y298210I-400J0D01*
G01*
X368286D02*
G03*
X368286Y298210I-400J0D01*
G01*
X211041Y328697D02*
G03*
X211041Y328697I-400J0D01*
G01*
X271041D02*
G03*
X271041Y328697I-400J0D01*
G01*
X211041Y298697D02*
G03*
X211041Y298697I-400J0D01*
G01*
X251041D02*
G03*
X251041Y298697I-400J0D01*
G01*
X281041D02*
G03*
X281041Y298697I-400J0D01*
G01*
M02*
