G04*
G04 #@! TF.GenerationSoftware,Altium Limited,Altium Designer,21.6.1 (37)*
G04*
G04 Layer_Physical_Order=2*
G04 Layer_Color=32768*
%FSLAX25Y25*%
%MOIN*%
G70*
G04*
G04 #@! TF.SameCoordinates,ED18229B-BDCB-4A3C-9D88-49826DFA0344*
G04*
G04*
G04 #@! TF.FilePolarity,Negative*
G04*
G01*
G75*
%ADD22C,0.02362*%
%ADD23C,0.00984*%
%ADD24C,0.00394*%
%ADD146C,0.04000*%
%ADD165C,0.07000*%
%ADD166R,0.06350X0.07500*%
%ADD167R,0.34470X0.89320*%
G04:AMPARAMS|DCode=168|XSize=83.622mil|YSize=83.622mil|CornerRadius=0mil|HoleSize=0mil|Usage=FLASHONLY|Rotation=0.000|XOffset=0mil|YOffset=0mil|HoleType=Round|Shape=Relief|Width=15mil|Gap=10mil|Entries=4|*
%AMTHD168*
7,0,0,0.08362,0.06362,0.01500,45*
%
%ADD168THD168*%
%ADD169C,0.08362*%
%ADD170C,0.09425*%
G04:AMPARAMS|DCode=171|XSize=94.252mil|YSize=94.252mil|CornerRadius=0mil|HoleSize=0mil|Usage=FLASHONLY|Rotation=0.000|XOffset=0mil|YOffset=0mil|HoleType=Round|Shape=Relief|Width=15mil|Gap=10mil|Entries=4|*
%AMTHD171*
7,0,0,0.09425,0.07425,0.01500,45*
%
%ADD171THD171*%
%ADD172C,0.14268*%
%ADD173O,0.17811X0.09937*%
%AMTHOVALD174*
21,1,0.07087,0.10724,0,0,270.0*
1,1,0.10724,0.00000,0.03543*
1,1,0.10724,0.00000,-0.03543*
21,0,0.07087,0.08724,0,0,270.0*
1,0,0.08724,0.00000,0.03543*
1,0,0.08724,0.00000,-0.03543*
4,0,4,-0.00530,0.03013,-0.04322,0.06805,-0.03261,0.07865,0.00530,0.04074,-0.00530,0.03013,0.0*
4,0,4,-0.00530,-0.04074,0.03261,-0.07865,0.04322,-0.06805,0.00530,-0.03013,-0.00530,-0.04074,0.0*
4,0,4,-0.00530,0.04074,0.03261,0.07865,0.04322,0.06805,0.00530,0.03013,-0.00530,0.04074,0.0*
4,0,4,-0.00530,-0.03013,-0.04322,-0.06805,-0.03261,-0.07865,0.00530,-0.04074,-0.00530,-0.03013,0.0*
%
%ADD174THOVALD174*%

%ADD175O,0.11906X0.10724*%
%ADD176C,0.09937*%
G04:AMPARAMS|DCode=177|XSize=99.37mil|YSize=99.37mil|CornerRadius=0mil|HoleSize=0mil|Usage=FLASHONLY|Rotation=0.000|XOffset=0mil|YOffset=0mil|HoleType=Round|Shape=Relief|Width=15mil|Gap=10mil|Entries=4|*
%AMTHD177*
7,0,0,0.09937,0.07937,0.01500,45*
%
%ADD177THD177*%
%ADD178C,0.09150*%
%ADD179C,0.09543*%
%ADD180C,0.11118*%
%ADD181C,0.12693*%
%ADD182C,0.10331*%
%ADD183O,0.09937X0.17811*%
%AMTHOVALD184*
21,1,0.07087,0.10724,0,0,180.0*
1,1,0.10724,0.03543,0.00000*
1,1,0.10724,-0.03543,0.00000*
21,0,0.07087,0.08724,0,0,180.0*
1,0,0.08724,0.03543,0.00000*
1,0,0.08724,-0.03543,0.00000*
4,0,4,0.03013,0.00530,0.06805,0.04322,0.07865,0.03261,0.04074,-0.00530,0.03013,0.00530,0.0*
4,0,4,-0.04074,0.00530,-0.07865,-0.03261,-0.06805,-0.04322,-0.03013,-0.00530,-0.04074,0.00530,0.0*
4,0,4,0.04074,0.00530,0.07865,-0.03261,0.06805,-0.04322,0.03013,-0.00530,0.04074,0.00530,0.0*
4,0,4,-0.03013,0.00530,-0.06805,0.04322,-0.07865,0.03261,-0.04074,-0.00530,-0.03013,0.00530,0.0*
%
%ADD184THOVALD184*%

%ADD185O,0.10724X0.11906*%
%ADD186O,0.07969X0.10528*%
%ADD187O,0.09347X0.08165*%
G04:AMPARAMS|DCode=188|XSize=73.779mil|YSize=73.779mil|CornerRadius=0mil|HoleSize=0mil|Usage=FLASHONLY|Rotation=0.000|XOffset=0mil|YOffset=0mil|HoleType=Round|Shape=Relief|Width=15mil|Gap=10mil|Entries=4|*
%AMTHD188*
7,0,0,0.07378,0.05378,0.01500,45*
%
%ADD188THD188*%
%ADD189C,0.07378*%
D22*
X379134Y153150D02*
Y392913D01*
X-1575D02*
X379134D01*
X-1575Y-787D02*
Y392913D01*
Y-787D02*
X379134D01*
Y23622D01*
Y34646D02*
Y53543D01*
Y84646D02*
Y103543D01*
Y54724D02*
Y73622D01*
Y104331D02*
Y123228D01*
Y134252D02*
Y153150D01*
D23*
X378346Y31102D02*
Y31890D01*
Y28740D02*
Y29528D01*
Y26378D02*
Y27165D01*
X379921Y31102D02*
Y31890D01*
Y28740D02*
Y29528D01*
Y26378D02*
Y27165D01*
X378346Y81102D02*
Y81890D01*
Y78740D02*
Y79528D01*
Y76378D02*
Y77165D01*
X379921Y81102D02*
Y81890D01*
Y78740D02*
Y79528D01*
Y76378D02*
Y77165D01*
Y125984D02*
Y126772D01*
Y128347D02*
Y129134D01*
Y130709D02*
Y131496D01*
X378346Y125984D02*
Y126772D01*
Y128347D02*
Y129134D01*
Y130709D02*
Y131496D01*
D24*
X324485Y191908D02*
X377194Y191908D01*
X377194Y247452D02*
X377194Y191908D01*
X324485Y247452D02*
X377194Y247452D01*
X324485Y191908D02*
Y247452D01*
D146*
X377910Y152490D02*
X499510D01*
X377910D02*
Y391590D01*
X-290D02*
X377910D01*
X-290Y-310D02*
X499510D01*
Y152490D01*
X-290Y-310D02*
Y391590D01*
D165*
X377820Y391120D02*
X378840Y-520D01*
X378060Y152420D02*
X378840Y-520D01*
D166*
X412045Y38430D02*
D03*
D167*
X17815Y66630D02*
D03*
D168*
X438332Y136553D02*
D03*
D169*
X452506Y137340D02*
D03*
X452023Y123236D02*
D03*
X108567Y327118D02*
D03*
X147937D02*
D03*
X88882Y248378D02*
D03*
X167622D02*
D03*
D170*
X411890Y32484D02*
D03*
Y38390D02*
D03*
Y44295D02*
D03*
Y50201D02*
D03*
Y62012D02*
D03*
Y56107D02*
D03*
X342310Y32585D02*
D03*
Y44396D02*
D03*
Y50301D02*
D03*
Y62112D02*
D03*
Y56207D02*
D03*
D171*
Y38490D02*
D03*
D172*
X199210Y7392D02*
D03*
X7812Y166890D02*
D03*
D173*
X199210Y25108D02*
D03*
D174*
X218108Y37707D02*
D03*
D175*
X194879Y49911D02*
D03*
D176*
X193810Y106233D02*
D03*
X47406Y302332D02*
D03*
X47543Y251922D02*
D03*
X27721Y302332D02*
D03*
D177*
X193810Y86547D02*
D03*
X27858Y251922D02*
D03*
D178*
X138200Y106650D02*
D03*
Y86965D02*
D03*
D179*
X141743Y11768D02*
D03*
X129932D02*
D03*
D180*
X297886Y328210D02*
D03*
X357886D02*
D03*
X297886Y298210D02*
D03*
X337886D02*
D03*
X367886D02*
D03*
X210641Y328697D02*
D03*
X270641D02*
D03*
X210641Y298697D02*
D03*
X250641D02*
D03*
X280641D02*
D03*
D181*
X322961Y349899D02*
D03*
X342961D02*
D03*
X235716Y349599D02*
D03*
X255715D02*
D03*
X41346Y346704D02*
D03*
Y366704D02*
D03*
D182*
X77995D02*
D03*
X196106D02*
D03*
D183*
X25528Y166890D02*
D03*
D184*
X38127Y147992D02*
D03*
D185*
X50331Y171221D02*
D03*
D186*
X298790Y6760D02*
D03*
X271231D02*
D03*
D187*
X294852Y17390D02*
D03*
X275167D02*
D03*
D188*
X415021Y98291D02*
D03*
X449170Y55140D02*
D03*
X461780Y65430D02*
D03*
X234350Y271800D02*
D03*
X298270Y71750D02*
D03*
X232040Y76350D02*
D03*
X347580Y95140D02*
D03*
X27630Y286090D02*
D03*
X27120Y226670D02*
D03*
X71560Y184010D02*
D03*
X56580Y139830D02*
D03*
X125650Y187310D02*
D03*
X336400Y120530D02*
D03*
X344280Y155570D02*
D03*
X337930Y149980D02*
D03*
X312790Y233530D02*
D03*
X303650Y235050D02*
D03*
X281050Y238100D02*
D03*
X266320Y240130D02*
D03*
X233820Y220580D02*
D03*
X215390Y141740D02*
D03*
X292790Y186310D02*
D03*
X261784Y202003D02*
D03*
X303040Y194930D02*
D03*
X235590Y168850D02*
D03*
X248694Y177596D02*
D03*
X291390Y33310D02*
D03*
X17890Y265080D02*
D03*
X284410Y38840D02*
D03*
D189*
X405765Y82926D02*
D03*
X432800Y79630D02*
D03*
X472530Y14350D02*
D03*
X462200Y40320D02*
D03*
X441696Y78962D02*
D03*
X439070Y16270D02*
D03*
X405750Y45810D02*
D03*
X421000Y76310D02*
D03*
X416978Y49660D02*
D03*
X429710Y48610D02*
D03*
X280422Y158453D02*
D03*
X280060Y155110D02*
D03*
X273410Y154320D02*
D03*
X278360Y149140D02*
D03*
X263180Y112000D02*
D03*
X268316Y110769D02*
D03*
X272220Y36600D02*
D03*
X285980Y161950D02*
D03*
X302840Y164410D02*
D03*
X277320Y140210D02*
D03*
X283990Y136580D02*
D03*
X253620Y64500D02*
D03*
X247784Y63276D02*
D03*
X264920Y62390D02*
D03*
X305760Y57750D02*
D03*
X285340Y215140D02*
D03*
X296590Y128690D02*
D03*
X263730Y211600D02*
D03*
X278070Y210180D02*
D03*
X329200Y44310D02*
D03*
X308960Y137060D02*
D03*
X314250Y139730D02*
D03*
X329000Y49310D02*
D03*
X328820Y53790D02*
D03*
X190360Y130430D02*
D03*
X291550Y25980D02*
D03*
X319450Y203760D02*
D03*
X281460Y187030D02*
D03*
X258290Y157980D02*
D03*
X249930Y163600D02*
D03*
X62400Y124520D02*
D03*
X50670Y124380D02*
D03*
X141860Y33620D02*
D03*
X271120Y142860D02*
D03*
X68770Y15485D02*
D03*
X263290Y117020D02*
D03*
X286428Y63532D02*
D03*
X93640Y156851D02*
D03*
X70850Y152680D02*
D03*
X86520Y156820D02*
D03*
X52470Y185320D02*
D03*
X105270Y29120D02*
D03*
X51120Y32300D02*
D03*
X328660Y72510D02*
D03*
X86520Y160000D02*
D03*
X78920D02*
D03*
M02*
