G04*
G04 #@! TF.GenerationSoftware,Altium Limited,Altium Designer,21.6.1 (37)*
G04*
G04 Layer_Color=255*
%FSLAX25Y25*%
%MOIN*%
G70*
G04*
G04 #@! TF.SameCoordinates,ED18229B-BDCB-4A3C-9D88-49826DFA0344*
G04*
G04*
G04 #@! TF.FilePolarity,Positive*
G04*
G01*
G75*
%ADD22C,0.02362*%
%ADD23C,0.00984*%
%ADD24C,0.00394*%
%ADD108R,0.02756X0.05118*%
%ADD112R,0.03800X0.03100*%
%ADD114R,0.05118X0.02756*%
%ADD119R,0.03100X0.03800*%
%ADD152C,0.03937*%
%ADD153O,0.05906X0.04331*%
%ADD154C,0.08268*%
%ADD155O,0.15748X0.07874*%
%ADD156O,0.07874X0.15748*%
%ADD157O,0.14173X0.07087*%
%ADD158C,0.07874*%
%ADD159C,0.07677*%
%ADD160C,0.10039*%
%ADD161O,0.07087X0.14173*%
%ADD162O,0.03051X0.06102*%
%ADD163O,0.05118X0.02559*%
%ADD198R,0.03543X0.06299*%
%ADD199R,0.06299X0.03543*%
%ADD200R,0.04764X0.02323*%
%ADD201R,0.06299X0.02402*%
D22*
X379134Y153150D02*
Y392913D01*
X-1575D02*
X379134D01*
X-1575Y-787D02*
Y392913D01*
Y-787D02*
X379134D01*
Y23622D01*
Y34646D02*
Y53543D01*
Y84646D02*
Y103543D01*
Y54724D02*
Y73622D01*
Y104331D02*
Y123228D01*
Y134252D02*
Y153150D01*
D23*
X378346Y31102D02*
Y31890D01*
Y28740D02*
Y29528D01*
Y26378D02*
Y27165D01*
X379921Y31102D02*
Y31890D01*
Y28740D02*
Y29528D01*
Y26378D02*
Y27165D01*
X378346Y81102D02*
Y81890D01*
Y78740D02*
Y79528D01*
Y76378D02*
Y77165D01*
X379921Y81102D02*
Y81890D01*
Y78740D02*
Y79528D01*
Y76378D02*
Y77165D01*
Y125984D02*
Y126772D01*
Y128347D02*
Y129134D01*
Y130709D02*
Y131496D01*
X378346Y125984D02*
Y126772D01*
Y128347D02*
Y129134D01*
Y130709D02*
Y131496D01*
D24*
X324485Y191908D02*
X377194Y191908D01*
X377194Y247452D02*
X377194Y191908D01*
X324485Y247452D02*
X377194Y247452D01*
X324485Y191908D02*
Y247452D01*
D108*
X426910Y111920D02*
D03*
X434390D02*
D03*
X426860Y118610D02*
D03*
X434340D02*
D03*
X433965Y8630D02*
D03*
X426485D02*
D03*
X493820Y25820D02*
D03*
X486340D02*
D03*
X429540Y44150D02*
D03*
X437020D02*
D03*
X449660Y65190D02*
D03*
X457140D02*
D03*
X463270Y91460D02*
D03*
X455790D02*
D03*
D112*
X415840Y80180D02*
D03*
X409540D02*
D03*
X416020Y74520D02*
D03*
X409720D02*
D03*
X427100Y17080D02*
D03*
X433400D02*
D03*
X467950Y40250D02*
D03*
X474250D02*
D03*
X463000Y72900D02*
D03*
X456700D02*
D03*
D114*
X415820Y85870D02*
D03*
Y93350D02*
D03*
X409140Y85730D02*
D03*
Y93210D02*
D03*
X451770Y26350D02*
D03*
Y33830D02*
D03*
X442350Y67070D02*
D03*
Y59590D02*
D03*
X433920Y67070D02*
D03*
Y59590D02*
D03*
X425500Y67070D02*
D03*
Y59590D02*
D03*
X469640Y85605D02*
D03*
Y78125D02*
D03*
D119*
X408810Y105610D02*
D03*
Y99310D02*
D03*
X459840Y26820D02*
D03*
Y33120D02*
D03*
X463040Y78740D02*
D03*
Y85040D02*
D03*
X456140Y78740D02*
D03*
Y85040D02*
D03*
X456050Y98920D02*
D03*
Y105220D02*
D03*
X462800Y98920D02*
D03*
Y105220D02*
D03*
X469100Y98920D02*
D03*
Y105220D02*
D03*
D152*
X438332Y136553D02*
D03*
X452506Y137340D02*
D03*
X452023Y123236D02*
D03*
D153*
X411890Y32484D02*
D03*
Y38390D02*
D03*
Y44295D02*
D03*
Y50201D02*
D03*
Y62012D02*
D03*
Y56107D02*
D03*
X342310Y32585D02*
D03*
Y38490D02*
D03*
Y44396D02*
D03*
Y50301D02*
D03*
Y62112D02*
D03*
Y56207D02*
D03*
D154*
X199210Y7392D02*
D03*
X7812Y166890D02*
D03*
D155*
X199210Y25108D02*
D03*
X38127Y147992D02*
D03*
D156*
X218108Y37707D02*
D03*
X25528Y166890D02*
D03*
D157*
X194879Y49911D02*
D03*
D158*
X193810Y106233D02*
D03*
Y86547D02*
D03*
X138200Y106650D02*
D03*
Y86965D02*
D03*
X77995Y366704D02*
D03*
X196106D02*
D03*
X47406Y302332D02*
D03*
X27858Y251922D02*
D03*
X47543D02*
D03*
X27721Y302332D02*
D03*
X108567Y327118D02*
D03*
X147937D02*
D03*
X88882Y248378D02*
D03*
X167622D02*
D03*
D159*
X297886Y328210D02*
D03*
X357886D02*
D03*
X297886Y298210D02*
D03*
X337886D02*
D03*
X367886D02*
D03*
X210641Y328697D02*
D03*
X270641D02*
D03*
X210641Y298697D02*
D03*
X250641D02*
D03*
X280641D02*
D03*
D160*
X322961Y349899D02*
D03*
X342961D02*
D03*
X235716Y349599D02*
D03*
X255715D02*
D03*
X41346Y346704D02*
D03*
Y366704D02*
D03*
D161*
X50331Y171221D02*
D03*
D162*
X298790Y6760D02*
D03*
X271231D02*
D03*
D163*
X294852Y17390D02*
D03*
X275167D02*
D03*
D198*
X418960Y101686D02*
D03*
Y117040D02*
D03*
D199*
X472630Y18220D02*
D03*
X487984D02*
D03*
X441367Y24970D02*
D03*
X426013D02*
D03*
X440974Y35360D02*
D03*
X425620D02*
D03*
D200*
X468730Y25510D02*
D03*
Y29250D02*
D03*
Y32990D02*
D03*
X478612D02*
D03*
Y25510D02*
D03*
D201*
X447431Y104430D02*
D03*
Y99430D02*
D03*
Y94430D02*
D03*
Y89430D02*
D03*
Y84430D02*
D03*
Y79430D02*
D03*
Y74430D02*
D03*
X426919D02*
D03*
Y79430D02*
D03*
Y84430D02*
D03*
Y89430D02*
D03*
Y94430D02*
D03*
Y99430D02*
D03*
Y104430D02*
D03*
M02*
