G04*
G04 #@! TF.GenerationSoftware,Altium Limited,Altium Designer,21.6.1 (37)*
G04*
G04 Layer_Color=8388736*
%FSLAX25Y25*%
%MOIN*%
G70*
G04*
G04 #@! TF.SameCoordinates,ED18229B-BDCB-4A3C-9D88-49826DFA0344*
G04*
G04*
G04 #@! TF.FilePolarity,Positive*
G04*
G01*
G75*
%ADD14C,0.00394*%
%ADD19C,0.01000*%
%ADD22C,0.02362*%
%ADD23C,0.00984*%
%ADD24C,0.00394*%
D14*
X425138Y109164D02*
Y114676D01*
X436162D01*
Y109164D02*
Y114676D01*
X425138Y109164D02*
X436162D01*
X425088Y115854D02*
Y121366D01*
X436112D01*
Y115854D02*
Y121366D01*
X425088Y115854D02*
X436112D01*
X416598Y120780D02*
X421322D01*
X416598Y97945D02*
Y120780D01*
Y97945D02*
X421322D01*
Y98339D02*
Y120780D01*
X406645Y96751D02*
X410975D01*
X406645D02*
Y108169D01*
X410975D01*
Y96751D02*
Y108169D01*
X413064Y84098D02*
X418576D01*
X413064D02*
Y95122D01*
X418576D01*
Y84098D02*
Y95122D01*
X406384Y83958D02*
Y94982D01*
Y83958D02*
X411896D01*
Y94982D01*
X406384D02*
X411896D01*
X406981Y78015D02*
Y82345D01*
X418399D01*
Y78015D02*
Y82345D01*
X406981Y78015D02*
X418399D01*
X407161Y72355D02*
Y76685D01*
X418579D01*
Y72355D02*
Y76685D01*
X407161Y72355D02*
X418579D01*
X424542Y14915D02*
X435959D01*
Y19245D01*
X424542D02*
X435959D01*
X424542Y14915D02*
Y19245D01*
X435737Y5874D02*
Y11386D01*
X424714Y5874D02*
X435737D01*
X424714D02*
Y11386D01*
X435737D01*
X491724Y15858D02*
Y20582D01*
X468890D02*
X491724D01*
X468890Y15858D02*
Y20582D01*
X469283Y15858D02*
X491724D01*
X495592Y23064D02*
Y28576D01*
X484568Y23064D02*
X495592D01*
X484568D02*
Y28576D01*
X495592D01*
X465600Y22951D02*
X465994D01*
X481545D01*
X465600D02*
Y35943D01*
X481545D01*
Y22951D02*
Y35943D01*
X476809Y38085D02*
Y42415D01*
X465391Y38085D02*
X476809D01*
X465391D02*
Y42415D01*
X476809D01*
X457675Y35679D02*
X462005D01*
Y24261D02*
Y35679D01*
X457675Y24261D02*
X462005D01*
X457675D02*
Y35679D01*
X449014Y24578D02*
X454526D01*
X449014D02*
Y35602D01*
X454526D01*
Y24578D02*
Y35602D01*
X422273Y22608D02*
Y27332D01*
Y22608D02*
X445107D01*
Y27332D01*
X422273D02*
X444714D01*
X421880Y32998D02*
Y37722D01*
Y32998D02*
X444714D01*
Y37722D01*
X421880D02*
X444321D01*
X439594Y68842D02*
X445106D01*
Y57818D02*
Y68842D01*
X439594Y57818D02*
X445106D01*
X439594D02*
Y68842D01*
X431164D02*
X436676D01*
Y57818D02*
Y68842D01*
X431164Y57818D02*
X436676D01*
X431164D02*
Y68842D01*
X422744D02*
X428256D01*
Y57818D02*
Y68842D01*
X422744Y57818D02*
X428256D01*
X422744D02*
Y68842D01*
X427768Y41394D02*
Y46906D01*
X438792D01*
Y41394D02*
Y46906D01*
X427768Y41394D02*
X438792D01*
X447888Y62434D02*
Y67946D01*
X458912D01*
Y62434D02*
Y67946D01*
X447888Y62434D02*
X458912D01*
X454141Y70735D02*
Y75065D01*
X465559D01*
Y70735D02*
Y75065D01*
X454141Y70735D02*
X465559D01*
X465205Y76181D02*
Y87599D01*
X460875D02*
X465205D01*
X460875Y76181D02*
Y87599D01*
Y76181D02*
X465205D01*
X466884Y87377D02*
X472396D01*
Y76353D02*
Y87377D01*
X466884Y76353D02*
X472396D01*
X466884D02*
Y87377D01*
X465042Y88704D02*
Y94216D01*
X454018Y88704D02*
X465042D01*
X454018D02*
Y94216D01*
X465042D01*
X458305Y76181D02*
Y87599D01*
X453975D02*
X458305D01*
X453975Y76181D02*
Y87599D01*
Y76181D02*
X458305D01*
X423199Y72501D02*
Y106556D01*
Y72501D02*
X451152D01*
X450955Y106556D02*
X451152D01*
Y72501D02*
Y106556D01*
X423199D02*
X450955D01*
X458215Y96361D02*
Y107779D01*
X453885D02*
X458215D01*
X453885Y96361D02*
Y107779D01*
Y96361D02*
X458215D01*
X464965D02*
Y107779D01*
X460635D02*
X464965D01*
X460635Y96361D02*
Y107779D01*
Y96361D02*
X464965D01*
X471265D02*
Y107779D01*
X466935D02*
X471265D01*
X466935Y96361D02*
Y107779D01*
Y96361D02*
X471265D01*
X407629Y98326D02*
X409597D01*
Y99310D01*
X409269Y99638D01*
X408613D01*
X408285Y99310D01*
Y98326D01*
Y98982D02*
X407629Y99638D01*
Y101606D02*
Y100294D01*
X408941Y101606D01*
X409269D01*
X409597Y101278D01*
Y100622D01*
X409269Y100294D01*
X407957Y102262D02*
X407629Y102590D01*
Y103246D01*
X407957Y103574D01*
X409269D01*
X409597Y103246D01*
Y102590D01*
X409269Y102262D01*
X408941D01*
X408613Y102590D01*
Y103574D01*
X408556Y81361D02*
Y79393D01*
X409540D01*
X409868Y79721D01*
Y80377D01*
X409540Y80705D01*
X408556D01*
X409212D02*
X409868Y81361D01*
X410524Y79721D02*
X410852Y79393D01*
X411508D01*
X411836Y79721D01*
Y80049D01*
X411508Y80377D01*
X411180D01*
X411508D01*
X411836Y80705D01*
Y81033D01*
X411508Y81361D01*
X410852D01*
X410524Y81033D01*
X413804Y81361D02*
X412492D01*
X413804Y80049D01*
Y79721D01*
X413476Y79393D01*
X412820D01*
X412492Y79721D01*
X408736Y75701D02*
Y73733D01*
X409720D01*
X410048Y74061D01*
Y74717D01*
X409720Y75045D01*
X408736D01*
X409392D02*
X410048Y75701D01*
X410704Y74061D02*
X411032Y73733D01*
X411688D01*
X412016Y74061D01*
Y74389D01*
X411688Y74717D01*
X411360D01*
X411688D01*
X412016Y75045D01*
Y75373D01*
X411688Y75701D01*
X411032D01*
X410704Y75373D01*
X413656Y75701D02*
Y73733D01*
X412672Y74717D01*
X413984D01*
X426116Y18261D02*
Y16293D01*
X427100D01*
X427428Y16621D01*
Y17277D01*
X427100Y17605D01*
X426116D01*
X426772D02*
X427428Y18261D01*
X428084Y16621D02*
X428412Y16293D01*
X429068D01*
X429396Y16621D01*
Y16949D01*
X429068Y17277D01*
X428740D01*
X429068D01*
X429396Y17605D01*
Y17933D01*
X429068Y18261D01*
X428412D01*
X428084Y17933D01*
X431364Y16293D02*
X430052D01*
Y17277D01*
X430708Y16949D01*
X431036D01*
X431364Y17277D01*
Y17933D01*
X431036Y18261D01*
X430380D01*
X430052Y17933D01*
X475234Y39069D02*
Y41037D01*
X474250D01*
X473922Y40709D01*
Y40053D01*
X474250Y39725D01*
X475234D01*
X474578D02*
X473922Y39069D01*
X471954D02*
X473266D01*
X471954Y40381D01*
Y40709D01*
X472282Y41037D01*
X472938D01*
X473266Y40709D01*
X471298Y41037D02*
X469986D01*
Y40709D01*
X471298Y39397D01*
Y39069D01*
X461021Y34104D02*
X459053D01*
Y33120D01*
X459381Y32792D01*
X460037D01*
X460365Y33120D01*
Y34104D01*
Y33448D02*
X461021Y32792D01*
Y30824D02*
Y32136D01*
X459709Y30824D01*
X459381D01*
X459053Y31152D01*
Y31808D01*
X459381Y32136D01*
X461021Y29184D02*
X459053D01*
X460037Y30168D01*
Y28856D01*
X455716Y74081D02*
Y72113D01*
X456700D01*
X457028Y72441D01*
Y73097D01*
X456700Y73425D01*
X455716D01*
X456372D02*
X457028Y74081D01*
X457684Y72441D02*
X458012Y72113D01*
X458668D01*
X458996Y72441D01*
Y72769D01*
X458668Y73097D01*
X458340D01*
X458668D01*
X458996Y73425D01*
Y73753D01*
X458668Y74081D01*
X458012D01*
X457684Y73753D01*
X460964Y72113D02*
X460308Y72441D01*
X459652Y73097D01*
Y73753D01*
X459980Y74081D01*
X460636D01*
X460964Y73753D01*
Y73425D01*
X460636Y73097D01*
X459652D01*
X461859Y77756D02*
X463827D01*
Y78740D01*
X463499Y79068D01*
X462843D01*
X462515Y78740D01*
Y77756D01*
Y78412D02*
X461859Y79068D01*
X463499Y79724D02*
X463827Y80052D01*
Y80708D01*
X463499Y81036D01*
X463171D01*
X462843Y80708D01*
Y80380D01*
Y80708D01*
X462515Y81036D01*
X462187D01*
X461859Y80708D01*
Y80052D01*
X462187Y79724D01*
X463499Y81692D02*
X463827Y82020D01*
Y82676D01*
X463499Y83004D01*
X463171D01*
X462843Y82676D01*
Y82348D01*
Y82676D01*
X462515Y83004D01*
X462187D01*
X461859Y82676D01*
Y82020D01*
X462187Y81692D01*
X456599Y79068D02*
X456927Y78740D01*
Y78084D01*
X456599Y77756D01*
X455287D01*
X454959Y78084D01*
Y78740D01*
X455287Y79068D01*
X456599Y79724D02*
X456927Y80052D01*
Y80708D01*
X456599Y81036D01*
X456271D01*
X455943Y80708D01*
Y80380D01*
Y80708D01*
X455615Y81036D01*
X455287D01*
X454959Y80708D01*
Y80052D01*
X455287Y79724D01*
X456599Y81692D02*
X456927Y82020D01*
Y82676D01*
X456599Y83004D01*
X456271D01*
X455943Y82676D01*
X455615Y83004D01*
X455287D01*
X454959Y82676D01*
Y82020D01*
X455287Y81692D01*
X455615D01*
X455943Y82020D01*
X456271Y81692D01*
X456599D01*
X455943Y82020D02*
Y82676D01*
X456509Y99248D02*
X456837Y98920D01*
Y98264D01*
X456509Y97936D01*
X455197D01*
X454869Y98264D01*
Y98920D01*
X455197Y99248D01*
X456509Y99904D02*
X456837Y100232D01*
Y100888D01*
X456509Y101216D01*
X456181D01*
X455853Y100888D01*
Y100560D01*
Y100888D01*
X455525Y101216D01*
X455197D01*
X454869Y100888D01*
Y100232D01*
X455197Y99904D01*
X456837Y103184D02*
X456509Y102528D01*
X455853Y101872D01*
X455197D01*
X454869Y102200D01*
Y102856D01*
X455197Y103184D01*
X455525D01*
X455853Y102856D01*
Y101872D01*
X461619Y97936D02*
X463587D01*
Y98920D01*
X463259Y99248D01*
X462603D01*
X462275Y98920D01*
Y97936D01*
Y98592D02*
X461619Y99248D01*
Y101216D02*
Y99904D01*
X462931Y101216D01*
X463259D01*
X463587Y100888D01*
Y100232D01*
X463259Y99904D01*
Y101872D02*
X463587Y102200D01*
Y102856D01*
X463259Y103184D01*
X462931D01*
X462603Y102856D01*
X462275Y103184D01*
X461947D01*
X461619Y102856D01*
Y102200D01*
X461947Y101872D01*
X462275D01*
X462603Y102200D01*
X462931Y101872D01*
X463259D01*
X462603Y102200D02*
Y102856D01*
X467919Y97936D02*
X469887D01*
Y98920D01*
X469559Y99248D01*
X468903D01*
X468575Y98920D01*
Y97936D01*
Y98592D02*
X467919Y99248D01*
X469559Y99904D02*
X469887Y100232D01*
Y100888D01*
X469559Y101216D01*
X469231D01*
X468903Y100888D01*
Y100560D01*
Y100888D01*
X468575Y101216D01*
X468247D01*
X467919Y100888D01*
Y100232D01*
X468247Y99904D01*
X467919Y101872D02*
Y102528D01*
Y102200D01*
X469887D01*
X469559Y101872D01*
D19*
X433981Y112431D02*
X434276Y112726D01*
X434867D01*
X435162Y112431D01*
Y111250D01*
X434867Y110955D01*
X434276D01*
X433981Y111250D01*
X432505Y110955D02*
Y112726D01*
X433391Y111840D01*
X432210D01*
X430439Y112726D02*
X431029Y112431D01*
X431620Y111840D01*
Y111250D01*
X431324Y110955D01*
X430734D01*
X430439Y111250D01*
Y111545D01*
X430734Y111840D01*
X431620D01*
X433931Y119121D02*
X434226Y119416D01*
X434817D01*
X435112Y119121D01*
Y117940D01*
X434817Y117645D01*
X434226D01*
X433931Y117940D01*
X432455Y117645D02*
Y119416D01*
X433341Y118530D01*
X432160D01*
X431569Y119416D02*
X430389D01*
Y119121D01*
X431569Y117940D01*
Y117645D01*
X416810Y104851D02*
X419172D01*
Y106032D01*
X418778Y106425D01*
X417991D01*
X417598Y106032D01*
Y104851D01*
Y105638D02*
X416810Y106425D01*
X418778Y107212D02*
X419172Y107606D01*
Y108393D01*
X418778Y108787D01*
X418385D01*
X417991Y108393D01*
Y108000D01*
Y108393D01*
X417598Y108787D01*
X417204D01*
X416810Y108393D01*
Y107606D01*
X417204Y107212D01*
X418778Y109574D02*
X419172Y109968D01*
Y110755D01*
X418778Y111148D01*
X417204D01*
X416810Y110755D01*
Y109968D01*
X417204Y109574D01*
X418778D01*
X415309Y92941D02*
X415014Y93236D01*
Y93827D01*
X415309Y94122D01*
X416490D01*
X416785Y93827D01*
Y93236D01*
X416490Y92941D01*
X415309Y92351D02*
X415014Y92056D01*
Y91465D01*
X415309Y91170D01*
X415605D01*
X415900Y91465D01*
Y91760D01*
Y91465D01*
X416195Y91170D01*
X416490D01*
X416785Y91465D01*
Y92056D01*
X416490Y92351D01*
Y90580D02*
X416785Y90285D01*
Y89694D01*
X416490Y89399D01*
X415309D01*
X415014Y89694D01*
Y90285D01*
X415309Y90580D01*
X415605D01*
X415900Y90285D01*
Y89399D01*
X409946Y84958D02*
X408175D01*
Y86139D01*
X409946Y87910D02*
Y86729D01*
X408175D01*
Y87910D01*
X409060Y86729D02*
Y87320D01*
X409946Y88500D02*
X408175D01*
Y89386D01*
X408470Y89681D01*
X409651D01*
X409946Y89386D01*
Y88500D01*
X408175Y91452D02*
Y90271D01*
X409355Y91452D01*
X409651D01*
X409946Y91157D01*
Y90567D01*
X409651Y90271D01*
X426894Y8119D02*
X426599Y7824D01*
X426009D01*
X425713Y8119D01*
Y9300D01*
X426009Y9595D01*
X426599D01*
X426894Y9300D01*
X428370Y9595D02*
Y7824D01*
X427485Y8710D01*
X428665D01*
X430436Y7824D02*
X429256D01*
Y8710D01*
X429846Y8415D01*
X430141D01*
X430436Y8710D01*
Y9300D01*
X430141Y9595D01*
X429551D01*
X429256Y9300D01*
X475795Y20370D02*
Y18008D01*
X476976D01*
X477370Y18402D01*
Y19189D01*
X476976Y19582D01*
X475795D01*
X476582D02*
X477370Y20370D01*
X478157Y18008D02*
X479731D01*
X478944D01*
Y20370D01*
X480518D02*
X481305D01*
X480912D01*
Y18008D01*
X480518Y18402D01*
X486749Y25310D02*
X486453Y25014D01*
X485863D01*
X485568Y25310D01*
Y26490D01*
X485863Y26785D01*
X486453D01*
X486749Y26490D01*
X487339Y25310D02*
X487634Y25014D01*
X488225D01*
X488520Y25310D01*
Y25605D01*
X488225Y25900D01*
X487929D01*
X488225D01*
X488520Y26195D01*
Y26490D01*
X488225Y26785D01*
X487634D01*
X487339Y26490D01*
X489110Y25310D02*
X489405Y25014D01*
X489996D01*
X490291Y25310D01*
Y25605D01*
X489996Y25900D01*
X489701D01*
X489996D01*
X490291Y26195D01*
Y26490D01*
X489996Y26785D01*
X489405D01*
X489110Y26490D01*
X466600Y27958D02*
Y31238D01*
X467256Y31894D01*
X468568D01*
X469224Y31238D01*
Y27958D01*
X473160D02*
X471848Y28614D01*
X470536Y29926D01*
Y31238D01*
X471192Y31894D01*
X472504D01*
X473160Y31238D01*
Y30582D01*
X472504Y29926D01*
X470536D01*
X451260Y33421D02*
X450964Y33716D01*
Y34306D01*
X451260Y34602D01*
X452440D01*
X452735Y34306D01*
Y33716D01*
X452440Y33421D01*
X451260Y32831D02*
X450964Y32535D01*
Y31945D01*
X451260Y31650D01*
X451555D01*
X451850Y31945D01*
Y32240D01*
Y31945D01*
X452145Y31650D01*
X452440D01*
X452735Y31945D01*
Y32535D01*
X452440Y32831D01*
X450964Y29879D02*
Y31060D01*
X451850D01*
X451555Y30469D01*
Y30174D01*
X451850Y29879D01*
X452440D01*
X452735Y30174D01*
Y30764D01*
X452440Y31060D01*
X438202Y22820D02*
Y25182D01*
X437021D01*
X436627Y24788D01*
Y24001D01*
X437021Y23607D01*
X438202D01*
X437415D02*
X436627Y22820D01*
X434266D02*
X435840D01*
X434266Y24395D01*
Y24788D01*
X434660Y25182D01*
X435447D01*
X435840Y24788D01*
X433479D02*
X433085Y25182D01*
X432298D01*
X431905Y24788D01*
Y24395D01*
X432298Y24001D01*
X432692D01*
X432298D01*
X431905Y23607D01*
Y23214D01*
X432298Y22820D01*
X433085D01*
X433479Y23214D01*
X437809Y33210D02*
Y35572D01*
X436628D01*
X436235Y35178D01*
Y34391D01*
X436628Y33997D01*
X437809D01*
X437022D02*
X436235Y33210D01*
X433873D02*
X435448D01*
X433873Y34785D01*
Y35178D01*
X434267Y35572D01*
X435054D01*
X435448Y35178D01*
X431512Y35572D02*
X433086D01*
Y34391D01*
X432299Y34785D01*
X431905D01*
X431512Y34391D01*
Y33604D01*
X431905Y33210D01*
X432692D01*
X433086Y33604D01*
X442861Y59999D02*
X443156Y59704D01*
Y59113D01*
X442861Y58818D01*
X441680D01*
X441385Y59113D01*
Y59704D01*
X441680Y59999D01*
X441385Y61475D02*
X443156D01*
X442270Y60589D01*
Y61770D01*
X441385Y62360D02*
Y62951D01*
Y62656D01*
X443156D01*
X442861Y62360D01*
X434431Y59999D02*
X434726Y59704D01*
Y59113D01*
X434431Y58818D01*
X433250D01*
X432955Y59113D01*
Y59704D01*
X433250Y59999D01*
X432955Y61475D02*
X434726D01*
X433840Y60589D01*
Y61770D01*
X432955Y63541D02*
Y62360D01*
X434135Y63541D01*
X434431D01*
X434726Y63246D01*
Y62656D01*
X434431Y62360D01*
X426011Y59999D02*
X426306Y59704D01*
Y59113D01*
X426011Y58818D01*
X424830D01*
X424535Y59113D01*
Y59704D01*
X424830Y59999D01*
X424535Y61475D02*
X426306D01*
X425420Y60589D01*
Y61770D01*
X426011Y62360D02*
X426306Y62656D01*
Y63246D01*
X426011Y63541D01*
X425715D01*
X425420Y63246D01*
Y62951D01*
Y63246D01*
X425125Y63541D01*
X424830D01*
X424535Y63246D01*
Y62656D01*
X424830Y62360D01*
X436611Y44660D02*
X436906Y44956D01*
X437497D01*
X437792Y44660D01*
Y43480D01*
X437497Y43185D01*
X436906D01*
X436611Y43480D01*
X436021Y44660D02*
X435726Y44956D01*
X435135D01*
X434840Y44660D01*
Y44365D01*
X435135Y44070D01*
X435430D01*
X435135D01*
X434840Y43775D01*
Y43480D01*
X435135Y43185D01*
X435726D01*
X436021Y43480D01*
X433364Y43185D02*
Y44956D01*
X434250Y44070D01*
X433069D01*
X456731Y65701D02*
X457026Y65996D01*
X457617D01*
X457912Y65701D01*
Y64520D01*
X457617Y64225D01*
X457026D01*
X456731Y64520D01*
X455255Y64225D02*
Y65996D01*
X456141Y65110D01*
X454960D01*
X453484Y64225D02*
Y65996D01*
X454370Y65110D01*
X453189D01*
X470151Y78534D02*
X470446Y78239D01*
Y77648D01*
X470151Y77353D01*
X468970D01*
X468675Y77648D01*
Y78239D01*
X468970Y78534D01*
X468675Y80010D02*
X470446D01*
X469560Y79124D01*
Y80305D01*
X470151Y80895D02*
X470446Y81191D01*
Y81781D01*
X470151Y82076D01*
X468970D01*
X468675Y81781D01*
Y81191D01*
X468970Y80895D01*
X470151D01*
X456199Y90949D02*
X455904Y90654D01*
X455313D01*
X455018Y90949D01*
Y92130D01*
X455313Y92425D01*
X455904D01*
X456199Y92130D01*
X456789Y90949D02*
X457084Y90654D01*
X457675D01*
X457970Y90949D01*
Y91245D01*
X457675Y91540D01*
X457380D01*
X457675D01*
X457970Y91835D01*
Y92130D01*
X457675Y92425D01*
X457084D01*
X456789Y92130D01*
X458560Y90654D02*
X459741D01*
Y90949D01*
X458560Y92130D01*
Y92425D01*
X446608Y90626D02*
Y87346D01*
X445952Y86690D01*
X444640D01*
X443985Y87346D01*
Y90626D01*
X442673D02*
X440049D01*
Y89970D01*
X442673Y87346D01*
Y86690D01*
X117411Y135205D02*
X121346D01*
Y137173D01*
X120690Y137829D01*
X118066D01*
X117411Y137173D01*
Y135205D01*
X121346Y139141D02*
Y140453D01*
Y139797D01*
X117411D01*
X118066Y139141D01*
D22*
X379134Y153150D02*
Y392913D01*
X-1575D02*
X379134D01*
X-1575Y-787D02*
Y392913D01*
Y-787D02*
X379134D01*
Y23622D01*
Y34646D02*
Y53543D01*
Y84646D02*
Y103543D01*
Y54724D02*
Y73622D01*
Y104331D02*
Y123228D01*
Y134252D02*
Y153150D01*
D23*
X378346Y31102D02*
Y31890D01*
Y28740D02*
Y29528D01*
Y26378D02*
Y27165D01*
X379921Y31102D02*
Y31890D01*
Y28740D02*
Y29528D01*
Y26378D02*
Y27165D01*
X378346Y81102D02*
Y81890D01*
Y78740D02*
Y79528D01*
Y76378D02*
Y77165D01*
X379921Y81102D02*
Y81890D01*
Y78740D02*
Y79528D01*
Y76378D02*
Y77165D01*
Y125984D02*
Y126772D01*
Y128347D02*
Y129134D01*
Y130709D02*
Y131496D01*
X378346Y125984D02*
Y126772D01*
Y128347D02*
Y129134D01*
Y130709D02*
Y131496D01*
D24*
X324485Y191908D02*
X377194Y191908D01*
X377194Y247452D02*
X377194Y191908D01*
X324485Y247452D02*
X377194Y247452D01*
X324485Y191908D02*
Y247452D01*
M02*
